<?xml version="1.0" encoding="utf-8" standalone="no"?>
<!DOCTYPE svg PUBLIC "-//W3C//DTD SVG 1.1//EN"
  "http://www.w3.org/Graphics/SVG/1.1/DTD/svg11.dtd">
<!-- Created with matplotlib (http://matplotlib.org/) -->
<svg height="489pt" version="1.1" viewBox="0 0 735 489" width="735pt" xmlns="http://www.w3.org/2000/svg" xmlns:xlink="http://www.w3.org/1999/xlink">
 <defs>
  <style type="text/css">
*{stroke-linecap:butt;stroke-linejoin:round;}
  </style>
 </defs>
 <g id="figure_1">
  <g id="patch_1">
   <path d="M 0 489.90625 
L 735.3415 489.90625 
L 735.3415 0 
L 0 0 
z
" style="fill:#ffffff;"/>
  </g>
  <g id="axes_1">
   <g id="patch_2">
    <path d="M 55.0415 445.58 
L 724.6415 445.58 
L 724.6415 10.7 
L 55.0415 10.7 
z
" style="fill:#ffffff;"/>
   </g>
   <g id="patch_3">
    <path clip-path="url(#p7db13e41d7)" d="M 85.477864 445.58 
L 91.689366 445.58 
L 91.689366 445.58 
L 85.477864 445.58 
z
" style="fill:#4c72b0;"/>
   </g>
   <g id="patch_4">
    <path clip-path="url(#p7db13e41d7)" d="M 147.592891 445.58 
L 153.804394 445.58 
L 153.804394 31.408571 
L 147.592891 31.408571 
z
" style="fill:#4c72b0;"/>
   </g>
   <g id="patch_5">
    <path clip-path="url(#p7db13e41d7)" d="M 209.707919 445.58 
L 215.919422 445.58 
L 215.919422 382.347721 
L 209.707919 382.347721 
z
" style="fill:#4c72b0;"/>
   </g>
   <g id="patch_6">
    <path clip-path="url(#p7db13e41d7)" d="M 271.822947 445.58 
L 278.03445 445.58 
L 278.03445 445.58 
L 271.822947 445.58 
z
" style="fill:#4c72b0;"/>
   </g>
   <g id="patch_7">
    <path clip-path="url(#p7db13e41d7)" d="M 333.937975 445.58 
L 340.149478 445.58 
L 340.149478 445.58 
L 333.937975 445.58 
z
" style="fill:#4c72b0;"/>
   </g>
   <g id="patch_8">
    <path clip-path="url(#p7db13e41d7)" d="M 396.053003 445.58 
L 402.264506 445.58 
L 402.264506 445.58 
L 396.053003 445.58 
z
" style="fill:#4c72b0;"/>
   </g>
   <g id="patch_9">
    <path clip-path="url(#p7db13e41d7)" d="M 458.168031 445.58 
L 464.379533 445.58 
L 464.379533 445.58 
L 458.168031 445.58 
z
" style="fill:#4c72b0;"/>
   </g>
   <g id="patch_10">
    <path clip-path="url(#p7db13e41d7)" d="M 520.283058 445.58 
L 526.494561 445.58 
L 526.494561 445.58 
L 520.283058 445.58 
z
" style="fill:#4c72b0;"/>
   </g>
   <g id="patch_11">
    <path clip-path="url(#p7db13e41d7)" d="M 582.398086 445.58 
L 588.609589 445.58 
L 588.609589 445.58 
L 582.398086 445.58 
z
" style="fill:#4c72b0;"/>
   </g>
   <g id="patch_12">
    <path clip-path="url(#p7db13e41d7)" d="M 644.513114 445.58 
L 650.724617 445.58 
L 650.724617 445.58 
L 644.513114 445.58 
z
" style="fill:#4c72b0;"/>
   </g>
   <g id="patch_13">
    <path clip-path="url(#p7db13e41d7)" d="M 91.689366 445.58 
L 97.900869 445.58 
L 97.900869 445.58 
L 91.689366 445.58 
z
" style="fill:#55a868;"/>
   </g>
   <g id="patch_14">
    <path clip-path="url(#p7db13e41d7)" d="M 153.804394 445.58 
L 160.015897 445.58 
L 160.015897 56.701483 
L 153.804394 56.701483 
z
" style="fill:#55a868;"/>
   </g>
   <g id="patch_15">
    <path clip-path="url(#p7db13e41d7)" d="M 215.919422 445.58 
L 222.130925 445.58 
L 222.130925 303.307372 
L 215.919422 303.307372 
z
" style="fill:#55a868;"/>
   </g>
   <g id="patch_16">
    <path clip-path="url(#p7db13e41d7)" d="M 278.03445 445.58 
L 284.245953 445.58 
L 284.245953 394.994177 
L 278.03445 394.994177 
z
" style="fill:#55a868;"/>
   </g>
   <g id="patch_17">
    <path clip-path="url(#p7db13e41d7)" d="M 340.149478 445.58 
L 346.360981 445.58 
L 346.360981 429.77193 
L 340.149478 429.77193 
z
" style="fill:#55a868;"/>
   </g>
   <g id="patch_18">
    <path clip-path="url(#p7db13e41d7)" d="M 402.264506 445.58 
L 408.476008 445.58 
L 408.476008 439.256772 
L 402.264506 439.256772 
z
" style="fill:#55a868;"/>
   </g>
   <g id="patch_19">
    <path clip-path="url(#p7db13e41d7)" d="M 464.379533 445.58 
L 470.591036 445.58 
L 470.591036 442.418386 
L 464.379533 442.418386 
z
" style="fill:#55a868;"/>
   </g>
   <g id="patch_20">
    <path clip-path="url(#p7db13e41d7)" d="M 526.494561 445.58 
L 532.706064 445.58 
L 532.706064 442.418386 
L 526.494561 442.418386 
z
" style="fill:#55a868;"/>
   </g>
   <g id="patch_21">
    <path clip-path="url(#p7db13e41d7)" d="M 588.609589 445.58 
L 594.821092 445.58 
L 594.821092 442.418386 
L 588.609589 442.418386 
z
" style="fill:#55a868;"/>
   </g>
   <g id="patch_22">
    <path clip-path="url(#p7db13e41d7)" d="M 650.724617 445.58 
L 656.93612 445.58 
L 656.93612 442.418386 
L 650.724617 442.418386 
z
" style="fill:#55a868;"/>
   </g>
   <g id="patch_23">
    <path clip-path="url(#p7db13e41d7)" d="M 97.900869 445.58 
L 104.112372 445.58 
L 104.112372 445.58 
L 97.900869 445.58 
z
" style="fill:#c44e52;"/>
   </g>
   <g id="patch_24">
    <path clip-path="url(#p7db13e41d7)" d="M 160.015897 445.58 
L 166.2274 445.58 
L 166.2274 40.893413 
L 160.015897 40.893413 
z
" style="fill:#c44e52;"/>
   </g>
   <g id="patch_25">
    <path clip-path="url(#p7db13e41d7)" d="M 222.130925 445.58 
L 228.342428 445.58 
L 228.342428 382.347721 
L 222.130925 382.347721 
z
" style="fill:#c44e52;"/>
   </g>
   <g id="patch_26">
    <path clip-path="url(#p7db13e41d7)" d="M 284.245953 445.58 
L 290.457455 445.58 
L 290.457455 439.256772 
L 284.245953 439.256772 
z
" style="fill:#c44e52;"/>
   </g>
   <g id="patch_27">
    <path clip-path="url(#p7db13e41d7)" d="M 346.360981 445.58 
L 352.572483 445.58 
L 352.572483 445.58 
L 346.360981 445.58 
z
" style="fill:#c44e52;"/>
   </g>
   <g id="patch_28">
    <path clip-path="url(#p7db13e41d7)" d="M 408.476008 445.58 
L 414.687511 445.58 
L 414.687511 445.58 
L 408.476008 445.58 
z
" style="fill:#c44e52;"/>
   </g>
   <g id="patch_29">
    <path clip-path="url(#p7db13e41d7)" d="M 470.591036 445.58 
L 476.802539 445.58 
L 476.802539 445.58 
L 470.591036 445.58 
z
" style="fill:#c44e52;"/>
   </g>
   <g id="patch_30">
    <path clip-path="url(#p7db13e41d7)" d="M 532.706064 445.58 
L 538.917567 445.58 
L 538.917567 445.58 
L 532.706064 445.58 
z
" style="fill:#c44e52;"/>
   </g>
   <g id="patch_31">
    <path clip-path="url(#p7db13e41d7)" d="M 594.821092 445.58 
L 601.032595 445.58 
L 601.032595 445.58 
L 594.821092 445.58 
z
" style="fill:#c44e52;"/>
   </g>
   <g id="patch_32">
    <path clip-path="url(#p7db13e41d7)" d="M 656.93612 445.58 
L 663.147622 445.58 
L 663.147622 445.58 
L 656.93612 445.58 
z
" style="fill:#c44e52;"/>
   </g>
   <g id="patch_33">
    <path clip-path="url(#p7db13e41d7)" d="M 104.112372 445.58 
L 110.323875 445.58 
L 110.323875 445.58 
L 104.112372 445.58 
z
" style="fill:#8172b2;"/>
   </g>
   <g id="patch_34">
    <path clip-path="url(#p7db13e41d7)" d="M 166.2274 445.58 
L 172.438903 445.58 
L 172.438903 94.640851 
L 166.2274 94.640851 
z
" style="fill:#8172b2;"/>
   </g>
   <g id="patch_35">
    <path clip-path="url(#p7db13e41d7)" d="M 228.342428 445.58 
L 234.55393 445.58 
L 234.55393 325.43867 
L 228.342428 325.43867 
z
" style="fill:#8172b2;"/>
   </g>
   <g id="patch_36">
    <path clip-path="url(#p7db13e41d7)" d="M 290.457455 445.58 
L 296.668958 445.58 
L 296.668958 394.994177 
L 290.457455 394.994177 
z
" style="fill:#8172b2;"/>
   </g>
   <g id="patch_37">
    <path clip-path="url(#p7db13e41d7)" d="M 352.572483 445.58 
L 358.783986 445.58 
L 358.783986 420.287088 
L 352.572483 420.287088 
z
" style="fill:#8172b2;"/>
   </g>
   <g id="patch_38">
    <path clip-path="url(#p7db13e41d7)" d="M 414.687511 445.58 
L 420.899014 445.58 
L 420.899014 442.418386 
L 414.687511 442.418386 
z
" style="fill:#8172b2;"/>
   </g>
   <g id="patch_39">
    <path clip-path="url(#p7db13e41d7)" d="M 476.802539 445.58 
L 483.014042 445.58 
L 483.014042 442.418386 
L 476.802539 442.418386 
z
" style="fill:#8172b2;"/>
   </g>
   <g id="patch_40">
    <path clip-path="url(#p7db13e41d7)" d="M 538.917567 445.58 
L 545.12907 445.58 
L 545.12907 436.095158 
L 538.917567 436.095158 
z
" style="fill:#8172b2;"/>
   </g>
   <g id="patch_41">
    <path clip-path="url(#p7db13e41d7)" d="M 601.032595 445.58 
L 607.244097 445.58 
L 607.244097 445.58 
L 601.032595 445.58 
z
" style="fill:#8172b2;"/>
   </g>
   <g id="patch_42">
    <path clip-path="url(#p7db13e41d7)" d="M 663.147622 445.58 
L 669.359125 445.58 
L 669.359125 436.095158 
L 663.147622 436.095158 
z
" style="fill:#8172b2;"/>
   </g>
   <g id="patch_43">
    <path clip-path="url(#p7db13e41d7)" d="M 110.323875 445.58 
L 116.535378 445.58 
L 116.535378 445.58 
L 110.323875 445.58 
z
" style="fill:#ccb974;"/>
   </g>
   <g id="patch_44">
    <path clip-path="url(#p7db13e41d7)" d="M 172.438903 445.58 
L 178.650405 445.58 
L 178.650405 37.731799 
L 172.438903 37.731799 
z
" style="fill:#ccb974;"/>
   </g>
   <g id="patch_45">
    <path clip-path="url(#p7db13e41d7)" d="M 234.55393 445.58 
L 240.765433 445.58 
L 240.765433 407.640632 
L 234.55393 407.640632 
z
" style="fill:#ccb974;"/>
   </g>
   <g id="patch_46">
    <path clip-path="url(#p7db13e41d7)" d="M 296.668958 445.58 
L 302.880461 445.58 
L 302.880461 439.256772 
L 296.668958 439.256772 
z
" style="fill:#ccb974;"/>
   </g>
   <g id="patch_47">
    <path clip-path="url(#p7db13e41d7)" d="M 358.783986 445.58 
L 364.995489 445.58 
L 364.995489 445.58 
L 358.783986 445.58 
z
" style="fill:#ccb974;"/>
   </g>
   <g id="patch_48">
    <path clip-path="url(#p7db13e41d7)" d="M 420.899014 445.58 
L 427.110517 445.58 
L 427.110517 445.58 
L 420.899014 445.58 
z
" style="fill:#ccb974;"/>
   </g>
   <g id="patch_49">
    <path clip-path="url(#p7db13e41d7)" d="M 483.014042 445.58 
L 489.225545 445.58 
L 489.225545 445.58 
L 483.014042 445.58 
z
" style="fill:#ccb974;"/>
   </g>
   <g id="patch_50">
    <path clip-path="url(#p7db13e41d7)" d="M 545.12907 445.58 
L 551.340572 445.58 
L 551.340572 445.58 
L 545.12907 445.58 
z
" style="fill:#ccb974;"/>
   </g>
   <g id="patch_51">
    <path clip-path="url(#p7db13e41d7)" d="M 607.244097 445.58 
L 613.4556 445.58 
L 613.4556 445.58 
L 607.244097 445.58 
z
" style="fill:#ccb974;"/>
   </g>
   <g id="patch_52">
    <path clip-path="url(#p7db13e41d7)" d="M 669.359125 445.58 
L 675.570628 445.58 
L 675.570628 445.58 
L 669.359125 445.58 
z
" style="fill:#ccb974;"/>
   </g>
   <g id="patch_53">
    <path clip-path="url(#p7db13e41d7)" d="M 116.535378 445.58 
L 122.74688 445.58 
L 122.74688 445.58 
L 116.535378 445.58 
z
" style="fill:#64b5cd;"/>
   </g>
   <g id="patch_54">
    <path clip-path="url(#p7db13e41d7)" d="M 178.650405 445.58 
L 184.861908 445.58 
L 184.861908 91.479237 
L 178.650405 91.479237 
z
" style="fill:#64b5cd;"/>
   </g>
   <g id="patch_55">
    <path clip-path="url(#p7db13e41d7)" d="M 240.765433 445.58 
L 246.976936 445.58 
L 246.976936 328.600284 
L 240.765433 328.600284 
z
" style="fill:#64b5cd;"/>
   </g>
   <g id="patch_56">
    <path clip-path="url(#p7db13e41d7)" d="M 302.880461 445.58 
L 309.091964 445.58 
L 309.091964 407.640632 
L 302.880461 407.640632 
z
" style="fill:#64b5cd;"/>
   </g>
   <g id="patch_57">
    <path clip-path="url(#p7db13e41d7)" d="M 364.995489 445.58 
L 371.206992 445.58 
L 371.206992 429.77193 
L 364.995489 429.77193 
z
" style="fill:#64b5cd;"/>
   </g>
   <g id="patch_58">
    <path clip-path="url(#p7db13e41d7)" d="M 427.110517 445.58 
L 433.322019 445.58 
L 433.322019 429.77193 
L 427.110517 429.77193 
z
" style="fill:#64b5cd;"/>
   </g>
   <g id="patch_59">
    <path clip-path="url(#p7db13e41d7)" d="M 489.225545 445.58 
L 495.437047 445.58 
L 495.437047 442.418386 
L 489.225545 442.418386 
z
" style="fill:#64b5cd;"/>
   </g>
   <g id="patch_60">
    <path clip-path="url(#p7db13e41d7)" d="M 551.340572 445.58 
L 557.552075 445.58 
L 557.552075 436.095158 
L 551.340572 436.095158 
z
" style="fill:#64b5cd;"/>
   </g>
   <g id="patch_61">
    <path clip-path="url(#p7db13e41d7)" d="M 613.4556 445.58 
L 619.667103 445.58 
L 619.667103 445.58 
L 613.4556 445.58 
z
" style="fill:#64b5cd;"/>
   </g>
   <g id="patch_62">
    <path clip-path="url(#p7db13e41d7)" d="M 675.570628 445.58 
L 681.782131 445.58 
L 681.782131 442.418386 
L 675.570628 442.418386 
z
" style="fill:#64b5cd;"/>
   </g>
   <g id="patch_63">
    <path clip-path="url(#p7db13e41d7)" d="M 122.74688 445.58 
L 128.958383 445.58 
L 128.958383 445.58 
L 122.74688 445.58 
z
" style="fill:#4c72b0;"/>
   </g>
   <g id="patch_64">
    <path clip-path="url(#p7db13e41d7)" d="M 184.861908 445.58 
L 191.073411 445.58 
L 191.073411 37.731799 
L 184.861908 37.731799 
z
" style="fill:#4c72b0;"/>
   </g>
   <g id="patch_65">
    <path clip-path="url(#p7db13e41d7)" d="M 246.976936 445.58 
L 253.188439 445.58 
L 253.188439 407.640632 
L 246.976936 407.640632 
z
" style="fill:#4c72b0;"/>
   </g>
   <g id="patch_66">
    <path clip-path="url(#p7db13e41d7)" d="M 309.091964 445.58 
L 315.303467 445.58 
L 315.303467 439.256772 
L 309.091964 439.256772 
z
" style="fill:#4c72b0;"/>
   </g>
   <g id="patch_67">
    <path clip-path="url(#p7db13e41d7)" d="M 371.206992 445.58 
L 377.418494 445.58 
L 377.418494 445.58 
L 371.206992 445.58 
z
" style="fill:#4c72b0;"/>
   </g>
   <g id="patch_68">
    <path clip-path="url(#p7db13e41d7)" d="M 433.322019 445.58 
L 439.533522 445.58 
L 439.533522 445.58 
L 433.322019 445.58 
z
" style="fill:#4c72b0;"/>
   </g>
   <g id="patch_69">
    <path clip-path="url(#p7db13e41d7)" d="M 495.437047 445.58 
L 501.64855 445.58 
L 501.64855 445.58 
L 495.437047 445.58 
z
" style="fill:#4c72b0;"/>
   </g>
   <g id="patch_70">
    <path clip-path="url(#p7db13e41d7)" d="M 557.552075 445.58 
L 563.763578 445.58 
L 563.763578 445.58 
L 557.552075 445.58 
z
" style="fill:#4c72b0;"/>
   </g>
   <g id="patch_71">
    <path clip-path="url(#p7db13e41d7)" d="M 619.667103 445.58 
L 625.878606 445.58 
L 625.878606 445.58 
L 619.667103 445.58 
z
" style="fill:#4c72b0;"/>
   </g>
   <g id="patch_72">
    <path clip-path="url(#p7db13e41d7)" d="M 681.782131 445.58 
L 687.993634 445.58 
L 687.993634 445.58 
L 681.782131 445.58 
z
" style="fill:#4c72b0;"/>
   </g>
   <g id="patch_73">
    <path clip-path="url(#p7db13e41d7)" d="M 128.958383 445.58 
L 135.169886 445.58 
L 135.169886 445.58 
L 128.958383 445.58 
z
" style="fill:#55a868;"/>
   </g>
   <g id="patch_74">
    <path clip-path="url(#p7db13e41d7)" d="M 191.073411 445.58 
L 197.284914 445.58 
L 197.284914 31.408571 
L 191.073411 31.408571 
z
" style="fill:#55a868;"/>
   </g>
   <g id="patch_75">
    <path clip-path="url(#p7db13e41d7)" d="M 253.188439 445.58 
L 259.399942 445.58 
L 259.399942 357.054809 
L 253.188439 357.054809 
z
" style="fill:#55a868;"/>
   </g>
   <g id="patch_76">
    <path clip-path="url(#p7db13e41d7)" d="M 315.303467 445.58 
L 321.514969 445.58 
L 321.514969 413.96386 
L 315.303467 413.96386 
z
" style="fill:#55a868;"/>
   </g>
   <g id="patch_77">
    <path clip-path="url(#p7db13e41d7)" d="M 377.418494 445.58 
L 383.629997 445.58 
L 383.629997 423.448702 
L 377.418494 423.448702 
z
" style="fill:#55a868;"/>
   </g>
   <g id="patch_78">
    <path clip-path="url(#p7db13e41d7)" d="M 439.533522 445.58 
L 445.745025 445.58 
L 445.745025 426.610316 
L 439.533522 426.610316 
z
" style="fill:#55a868;"/>
   </g>
   <g id="patch_79">
    <path clip-path="url(#p7db13e41d7)" d="M 501.64855 445.58 
L 507.860053 445.58 
L 507.860053 445.58 
L 501.64855 445.58 
z
" style="fill:#55a868;"/>
   </g>
   <g id="patch_80">
    <path clip-path="url(#p7db13e41d7)" d="M 563.763578 445.58 
L 569.975081 445.58 
L 569.975081 445.58 
L 563.763578 445.58 
z
" style="fill:#55a868;"/>
   </g>
   <g id="patch_81">
    <path clip-path="url(#p7db13e41d7)" d="M 625.878606 445.58 
L 632.090109 445.58 
L 632.090109 442.418386 
L 625.878606 442.418386 
z
" style="fill:#55a868;"/>
   </g>
   <g id="patch_82">
    <path clip-path="url(#p7db13e41d7)" d="M 687.993634 445.58 
L 694.205136 445.58 
L 694.205136 445.58 
L 687.993634 445.58 
z
" style="fill:#55a868;"/>
   </g>
   <g id="matplotlib.axis_1">
    <g id="xtick_1">
     <g id="line2d_1">
      <defs>
       <path d="M 0 0 
L 0 3.5 
" id="mba0d727de1" style="stroke:#000000;stroke-width:0.8;"/>
      </defs>
      <g>
       <use style="stroke:#000000;stroke-width:0.8;" x="179.340572" xlink:href="#mba0d727de1" y="445.58"/>
      </g>
     </g>
     <g id="text_1">
      <!-- 2 -->
      <defs>
       <path d="M 19.1875 8.296875 
L 53.609375 8.296875 
L 53.609375 0 
L 7.328125 0 
L 7.328125 8.296875 
Q 12.9375 14.109375 22.625 23.890625 
Q 32.328125 33.6875 34.8125 36.53125 
Q 39.546875 41.84375 41.421875 45.53125 
Q 43.3125 49.21875 43.3125 52.78125 
Q 43.3125 58.59375 39.234375 62.25 
Q 35.15625 65.921875 28.609375 65.921875 
Q 23.96875 65.921875 18.8125 64.3125 
Q 13.671875 62.703125 7.8125 59.421875 
L 7.8125 69.390625 
Q 13.765625 71.78125 18.9375 73 
Q 24.125 74.21875 28.421875 74.21875 
Q 39.75 74.21875 46.484375 68.546875 
Q 53.21875 62.890625 53.21875 53.421875 
Q 53.21875 48.921875 51.53125 44.890625 
Q 49.859375 40.875 45.40625 35.40625 
Q 44.1875 33.984375 37.640625 27.21875 
Q 31.109375 20.453125 19.1875 8.296875 
z
" id="DejaVuSans-32"/>
      </defs>
      <g transform="translate(175.523072 461.698125)scale(0.12 -0.12)">
       <use xlink:href="#DejaVuSans-32"/>
      </g>
     </g>
    </g>
    <g id="xtick_2">
     <g id="line2d_2">
      <g>
       <use style="stroke:#000000;stroke-width:0.8;" x="317.373968" xlink:href="#mba0d727de1" y="445.58"/>
      </g>
     </g>
     <g id="text_2">
      <!-- 4 -->
      <defs>
       <path d="M 37.796875 64.3125 
L 12.890625 25.390625 
L 37.796875 25.390625 
z
M 35.203125 72.90625 
L 47.609375 72.90625 
L 47.609375 25.390625 
L 58.015625 25.390625 
L 58.015625 17.1875 
L 47.609375 17.1875 
L 47.609375 0 
L 37.796875 0 
L 37.796875 17.1875 
L 4.890625 17.1875 
L 4.890625 26.703125 
z
" id="DejaVuSans-34"/>
      </defs>
      <g transform="translate(313.556468 461.698125)scale(0.12 -0.12)">
       <use xlink:href="#DejaVuSans-34"/>
      </g>
     </g>
    </g>
    <g id="xtick_3">
     <g id="line2d_3">
      <g>
       <use style="stroke:#000000;stroke-width:0.8;" x="455.407363" xlink:href="#mba0d727de1" y="445.58"/>
      </g>
     </g>
     <g id="text_3">
      <!-- 6 -->
      <defs>
       <path d="M 33.015625 40.375 
Q 26.375 40.375 22.484375 35.828125 
Q 18.609375 31.296875 18.609375 23.390625 
Q 18.609375 15.53125 22.484375 10.953125 
Q 26.375 6.390625 33.015625 6.390625 
Q 39.65625 6.390625 43.53125 10.953125 
Q 47.40625 15.53125 47.40625 23.390625 
Q 47.40625 31.296875 43.53125 35.828125 
Q 39.65625 40.375 33.015625 40.375 
z
M 52.59375 71.296875 
L 52.59375 62.3125 
Q 48.875 64.0625 45.09375 64.984375 
Q 41.3125 65.921875 37.59375 65.921875 
Q 27.828125 65.921875 22.671875 59.328125 
Q 17.53125 52.734375 16.796875 39.40625 
Q 19.671875 43.65625 24.015625 45.921875 
Q 28.375 48.1875 33.59375 48.1875 
Q 44.578125 48.1875 50.953125 41.515625 
Q 57.328125 34.859375 57.328125 23.390625 
Q 57.328125 12.15625 50.6875 5.359375 
Q 44.046875 -1.421875 33.015625 -1.421875 
Q 20.359375 -1.421875 13.671875 8.265625 
Q 6.984375 17.96875 6.984375 36.375 
Q 6.984375 53.65625 15.1875 63.9375 
Q 23.390625 74.21875 37.203125 74.21875 
Q 40.921875 74.21875 44.703125 73.484375 
Q 48.484375 72.75 52.59375 71.296875 
z
" id="DejaVuSans-36"/>
      </defs>
      <g transform="translate(451.589863 461.698125)scale(0.12 -0.12)">
       <use xlink:href="#DejaVuSans-36"/>
      </g>
     </g>
    </g>
    <g id="xtick_4">
     <g id="line2d_4">
      <g>
       <use style="stroke:#000000;stroke-width:0.8;" x="593.440758" xlink:href="#mba0d727de1" y="445.58"/>
      </g>
     </g>
     <g id="text_4">
      <!-- 8 -->
      <defs>
       <path d="M 31.78125 34.625 
Q 24.75 34.625 20.71875 30.859375 
Q 16.703125 27.09375 16.703125 20.515625 
Q 16.703125 13.921875 20.71875 10.15625 
Q 24.75 6.390625 31.78125 6.390625 
Q 38.8125 6.390625 42.859375 10.171875 
Q 46.921875 13.96875 46.921875 20.515625 
Q 46.921875 27.09375 42.890625 30.859375 
Q 38.875 34.625 31.78125 34.625 
z
M 21.921875 38.8125 
Q 15.578125 40.375 12.03125 44.71875 
Q 8.5 49.078125 8.5 55.328125 
Q 8.5 64.0625 14.71875 69.140625 
Q 20.953125 74.21875 31.78125 74.21875 
Q 42.671875 74.21875 48.875 69.140625 
Q 55.078125 64.0625 55.078125 55.328125 
Q 55.078125 49.078125 51.53125 44.71875 
Q 48 40.375 41.703125 38.8125 
Q 48.828125 37.15625 52.796875 32.3125 
Q 56.78125 27.484375 56.78125 20.515625 
Q 56.78125 9.90625 50.3125 4.234375 
Q 43.84375 -1.421875 31.78125 -1.421875 
Q 19.734375 -1.421875 13.25 4.234375 
Q 6.78125 9.90625 6.78125 20.515625 
Q 6.78125 27.484375 10.78125 32.3125 
Q 14.796875 37.15625 21.921875 38.8125 
z
M 18.3125 54.390625 
Q 18.3125 48.734375 21.84375 45.5625 
Q 25.390625 42.390625 31.78125 42.390625 
Q 38.140625 42.390625 41.71875 45.5625 
Q 45.3125 48.734375 45.3125 54.390625 
Q 45.3125 60.0625 41.71875 63.234375 
Q 38.140625 66.40625 31.78125 66.40625 
Q 25.390625 66.40625 21.84375 63.234375 
Q 18.3125 60.0625 18.3125 54.390625 
z
" id="DejaVuSans-38"/>
      </defs>
      <g transform="translate(589.623258 461.698125)scale(0.12 -0.12)">
       <use xlink:href="#DejaVuSans-38"/>
      </g>
     </g>
    </g>
    <g id="text_5">
     <!-- Liczba kodów składających się na relację -->
     <defs>
      <path d="M 9.8125 72.90625 
L 19.671875 72.90625 
L 19.671875 8.296875 
L 55.171875 8.296875 
L 55.171875 0 
L 9.8125 0 
z
" id="DejaVuSans-4c"/>
      <path d="M 9.421875 54.6875 
L 18.40625 54.6875 
L 18.40625 0 
L 9.421875 0 
z
M 9.421875 75.984375 
L 18.40625 75.984375 
L 18.40625 64.59375 
L 9.421875 64.59375 
z
" id="DejaVuSans-69"/>
      <path d="M 48.78125 52.59375 
L 48.78125 44.1875 
Q 44.96875 46.296875 41.140625 47.34375 
Q 37.3125 48.390625 33.40625 48.390625 
Q 24.65625 48.390625 19.8125 42.84375 
Q 14.984375 37.3125 14.984375 27.296875 
Q 14.984375 17.28125 19.8125 11.734375 
Q 24.65625 6.203125 33.40625 6.203125 
Q 37.3125 6.203125 41.140625 7.25 
Q 44.96875 8.296875 48.78125 10.40625 
L 48.78125 2.09375 
Q 45.015625 0.34375 40.984375 -0.53125 
Q 36.96875 -1.421875 32.421875 -1.421875 
Q 20.0625 -1.421875 12.78125 6.34375 
Q 5.515625 14.109375 5.515625 27.296875 
Q 5.515625 40.671875 12.859375 48.328125 
Q 20.21875 56 33.015625 56 
Q 37.15625 56 41.109375 55.140625 
Q 45.0625 54.296875 48.78125 52.59375 
z
" id="DejaVuSans-63"/>
      <path d="M 5.515625 54.6875 
L 48.1875 54.6875 
L 48.1875 46.484375 
L 14.40625 7.171875 
L 48.1875 7.171875 
L 48.1875 0 
L 4.296875 0 
L 4.296875 8.203125 
L 38.09375 47.515625 
L 5.515625 47.515625 
z
" id="DejaVuSans-7a"/>
      <path d="M 48.6875 27.296875 
Q 48.6875 37.203125 44.609375 42.84375 
Q 40.53125 48.484375 33.40625 48.484375 
Q 26.265625 48.484375 22.1875 42.84375 
Q 18.109375 37.203125 18.109375 27.296875 
Q 18.109375 17.390625 22.1875 11.75 
Q 26.265625 6.109375 33.40625 6.109375 
Q 40.53125 6.109375 44.609375 11.75 
Q 48.6875 17.390625 48.6875 27.296875 
z
M 18.109375 46.390625 
Q 20.953125 51.265625 25.265625 53.625 
Q 29.59375 56 35.59375 56 
Q 45.5625 56 51.78125 48.09375 
Q 58.015625 40.1875 58.015625 27.296875 
Q 58.015625 14.40625 51.78125 6.484375 
Q 45.5625 -1.421875 35.59375 -1.421875 
Q 29.59375 -1.421875 25.265625 0.953125 
Q 20.953125 3.328125 18.109375 8.203125 
L 18.109375 0 
L 9.078125 0 
L 9.078125 75.984375 
L 18.109375 75.984375 
z
" id="DejaVuSans-62"/>
      <path d="M 34.28125 27.484375 
Q 23.390625 27.484375 19.1875 25 
Q 14.984375 22.515625 14.984375 16.5 
Q 14.984375 11.71875 18.140625 8.90625 
Q 21.296875 6.109375 26.703125 6.109375 
Q 34.1875 6.109375 38.703125 11.40625 
Q 43.21875 16.703125 43.21875 25.484375 
L 43.21875 27.484375 
z
M 52.203125 31.203125 
L 52.203125 0 
L 43.21875 0 
L 43.21875 8.296875 
Q 40.140625 3.328125 35.546875 0.953125 
Q 30.953125 -1.421875 24.3125 -1.421875 
Q 15.921875 -1.421875 10.953125 3.296875 
Q 6 8.015625 6 15.921875 
Q 6 25.140625 12.171875 29.828125 
Q 18.359375 34.515625 30.609375 34.515625 
L 43.21875 34.515625 
L 43.21875 35.40625 
Q 43.21875 41.609375 39.140625 45 
Q 35.0625 48.390625 27.6875 48.390625 
Q 23 48.390625 18.546875 47.265625 
Q 14.109375 46.140625 10.015625 43.890625 
L 10.015625 52.203125 
Q 14.9375 54.109375 19.578125 55.046875 
Q 24.21875 56 28.609375 56 
Q 40.484375 56 46.34375 49.84375 
Q 52.203125 43.703125 52.203125 31.203125 
z
" id="DejaVuSans-61"/>
      <path id="DejaVuSans-20"/>
      <path d="M 9.078125 75.984375 
L 18.109375 75.984375 
L 18.109375 31.109375 
L 44.921875 54.6875 
L 56.390625 54.6875 
L 27.390625 29.109375 
L 57.625 0 
L 45.90625 0 
L 18.109375 26.703125 
L 18.109375 0 
L 9.078125 0 
z
" id="DejaVuSans-6b"/>
      <path d="M 30.609375 48.390625 
Q 23.390625 48.390625 19.1875 42.75 
Q 14.984375 37.109375 14.984375 27.296875 
Q 14.984375 17.484375 19.15625 11.84375 
Q 23.34375 6.203125 30.609375 6.203125 
Q 37.796875 6.203125 41.984375 11.859375 
Q 46.1875 17.53125 46.1875 27.296875 
Q 46.1875 37.015625 41.984375 42.703125 
Q 37.796875 48.390625 30.609375 48.390625 
z
M 30.609375 56 
Q 42.328125 56 49.015625 48.375 
Q 55.71875 40.765625 55.71875 27.296875 
Q 55.71875 13.875 49.015625 6.21875 
Q 42.328125 -1.421875 30.609375 -1.421875 
Q 18.84375 -1.421875 12.171875 6.21875 
Q 5.515625 13.875 5.515625 27.296875 
Q 5.515625 40.765625 12.171875 48.375 
Q 18.84375 56 30.609375 56 
z
" id="DejaVuSans-6f"/>
      <path d="M 45.40625 46.390625 
L 45.40625 75.984375 
L 54.390625 75.984375 
L 54.390625 0 
L 45.40625 0 
L 45.40625 8.203125 
Q 42.578125 3.328125 38.25 0.953125 
Q 33.9375 -1.421875 27.875 -1.421875 
Q 17.96875 -1.421875 11.734375 6.484375 
Q 5.515625 14.40625 5.515625 27.296875 
Q 5.515625 40.1875 11.734375 48.09375 
Q 17.96875 56 27.875 56 
Q 33.9375 56 38.25 53.625 
Q 42.578125 51.265625 45.40625 46.390625 
z
M 14.796875 27.296875 
Q 14.796875 17.390625 18.875 11.75 
Q 22.953125 6.109375 30.078125 6.109375 
Q 37.203125 6.109375 41.296875 11.75 
Q 45.40625 17.390625 45.40625 27.296875 
Q 45.40625 37.203125 41.296875 42.84375 
Q 37.203125 48.484375 30.078125 48.484375 
Q 22.953125 48.484375 18.875 42.84375 
Q 14.796875 37.203125 14.796875 27.296875 
z
" id="DejaVuSans-64"/>
      <path d="M 30.609375 48.390625 
Q 23.390625 48.390625 19.1875 42.75 
Q 14.984375 37.109375 14.984375 27.296875 
Q 14.984375 17.484375 19.15625 11.84375 
Q 23.34375 6.203125 30.609375 6.203125 
Q 37.796875 6.203125 41.984375 11.859375 
Q 46.1875 17.53125 46.1875 27.296875 
Q 46.1875 37.015625 41.984375 42.703125 
Q 37.796875 48.390625 30.609375 48.390625 
z
M 30.609375 56 
Q 42.328125 56 49.015625 48.375 
Q 55.71875 40.765625 55.71875 27.296875 
Q 55.71875 13.875 49.015625 6.21875 
Q 42.328125 -1.421875 30.609375 -1.421875 
Q 18.84375 -1.421875 12.171875 6.21875 
Q 5.515625 13.875 5.515625 27.296875 
Q 5.515625 40.765625 12.171875 48.375 
Q 18.84375 56 30.609375 56 
z
M 37.40625 79.984375 
L 47.125 79.984375 
L 31.21875 61.625 
L 23.734375 61.625 
z
" id="DejaVuSans-f3"/>
      <path d="M 4.203125 54.6875 
L 13.1875 54.6875 
L 24.421875 12.015625 
L 35.59375 54.6875 
L 46.1875 54.6875 
L 57.421875 12.015625 
L 68.609375 54.6875 
L 77.59375 54.6875 
L 63.28125 0 
L 52.6875 0 
L 40.921875 44.828125 
L 29.109375 0 
L 18.5 0 
z
" id="DejaVuSans-77"/>
      <path d="M 44.28125 53.078125 
L 44.28125 44.578125 
Q 40.484375 46.53125 36.375 47.5 
Q 32.28125 48.484375 27.875 48.484375 
Q 21.1875 48.484375 17.84375 46.4375 
Q 14.5 44.390625 14.5 40.28125 
Q 14.5 37.15625 16.890625 35.375 
Q 19.28125 33.59375 26.515625 31.984375 
L 29.59375 31.296875 
Q 39.15625 29.25 43.1875 25.515625 
Q 47.21875 21.78125 47.21875 15.09375 
Q 47.21875 7.46875 41.1875 3.015625 
Q 35.15625 -1.421875 24.609375 -1.421875 
Q 20.21875 -1.421875 15.453125 -0.5625 
Q 10.6875 0.296875 5.421875 2 
L 5.421875 11.28125 
Q 10.40625 8.6875 15.234375 7.390625 
Q 20.0625 6.109375 24.8125 6.109375 
Q 31.15625 6.109375 34.5625 8.28125 
Q 37.984375 10.453125 37.984375 14.40625 
Q 37.984375 18.0625 35.515625 20.015625 
Q 33.0625 21.96875 24.703125 23.78125 
L 21.578125 24.515625 
Q 13.234375 26.265625 9.515625 29.90625 
Q 5.8125 33.546875 5.8125 39.890625 
Q 5.8125 47.609375 11.28125 51.796875 
Q 16.75 56 26.8125 56 
Q 31.78125 56 36.171875 55.265625 
Q 40.578125 54.546875 44.28125 53.078125 
z
" id="DejaVuSans-73"/>
      <path d="M 9.71875 75.984375 
L 18.703125 75.984375 
L 18.703125 46.578125 
L 24.8125 50.984375 
L 28.515625 45.796875 
L 18.703125 38.921875 
L 18.703125 0 
L 9.71875 0 
L 9.71875 32.515625 
L 3.71875 28.21875 
L 0.09375 33.40625 
L 9.71875 40.28125 
z
" id="DejaVuSans-142"/>
      <path d="M 9.421875 54.6875 
L 18.40625 54.6875 
L 18.40625 -0.984375 
Q 18.40625 -11.421875 14.421875 -16.109375 
Q 10.453125 -20.796875 1.609375 -20.796875 
L -1.8125 -20.796875 
L -1.8125 -13.1875 
L 0.59375 -13.1875 
Q 5.71875 -13.1875 7.5625 -10.8125 
Q 9.421875 -8.453125 9.421875 -0.984375 
z
M 9.421875 75.984375 
L 18.40625 75.984375 
L 18.40625 64.59375 
L 9.421875 64.59375 
z
" id="DejaVuSans-6a"/>
      <path d="M 34.28125 27.484375 
Q 23.390625 27.484375 19.1875 25 
Q 14.984375 22.515625 14.984375 16.5 
Q 14.984375 11.71875 18.140625 8.90625 
Q 21.296875 6.109375 26.703125 6.109375 
Q 34.1875 6.109375 38.703125 11.40625 
Q 43.21875 16.703125 43.21875 25.484375 
L 43.21875 27.484375 
z
M 52.203125 31.203125 
L 52.203125 0 
L 43.21875 0 
L 43.21875 8.296875 
Q 40.140625 3.328125 35.546875 0.953125 
Q 30.953125 -1.421875 24.3125 -1.421875 
Q 15.921875 -1.421875 10.953125 3.296875 
Q 6 8.015625 6 15.921875 
Q 6 25.140625 12.171875 29.828125 
Q 18.359375 34.515625 30.609375 34.515625 
L 43.21875 34.515625 
L 43.21875 35.40625 
Q 43.21875 41.609375 39.140625 45 
Q 35.0625 48.390625 27.6875 48.390625 
Q 23 48.390625 18.546875 47.265625 
Q 14.109375 46.140625 10.015625 43.890625 
L 10.015625 52.203125 
Q 14.9375 54.109375 19.578125 55.046875 
Q 24.21875 56 28.609375 56 
Q 40.484375 56 46.34375 49.84375 
Q 52.203125 43.703125 52.203125 31.203125 
z
M 43.359375 0 
L 49.171875 0 
Q 46.96875 -2.984375 45.921875 -5.125 
Q 44.875 -7.28125 44.875 -8.796875 
Q 44.875 -11.03125 46.21875 -12.15625 
Q 47.5625 -13.28125 50.203125 -13.28125 
Q 51.765625 -13.28125 53.265625 -12.90625 
Q 54.78125 -12.546875 56.296875 -11.8125 
L 56.296875 -18.3125 
Q 54.4375 -18.796875 52.78125 -19.03125 
Q 51.125 -19.28125 49.65625 -19.28125 
Q 43.703125 -19.28125 40.890625 -17.15625 
Q 38.09375 -15.046875 38.09375 -10.5 
Q 38.09375 -8.15625 39.375 -5.59375 
Q 40.671875 -3.03125 43.359375 0 
z
" id="DejaVuSans-105"/>
      <path d="M 32.171875 -5.078125 
Q 28.375 -14.84375 24.75 -17.8125 
Q 21.140625 -20.796875 15.09375 -20.796875 
L 7.90625 -20.796875 
L 7.90625 -13.28125 
L 13.1875 -13.28125 
Q 16.890625 -13.28125 18.9375 -11.515625 
Q 21 -9.765625 23.484375 -3.21875 
L 25.09375 0.875 
L 2.984375 54.6875 
L 12.5 54.6875 
L 29.59375 11.921875 
L 46.6875 54.6875 
L 56.203125 54.6875 
z
" id="DejaVuSans-79"/>
      <path d="M 54.890625 33.015625 
L 54.890625 0 
L 45.90625 0 
L 45.90625 32.71875 
Q 45.90625 40.484375 42.875 44.328125 
Q 39.84375 48.1875 33.796875 48.1875 
Q 26.515625 48.1875 22.3125 43.546875 
Q 18.109375 38.921875 18.109375 30.90625 
L 18.109375 0 
L 9.078125 0 
L 9.078125 75.984375 
L 18.109375 75.984375 
L 18.109375 46.1875 
Q 21.34375 51.125 25.703125 53.5625 
Q 30.078125 56 35.796875 56 
Q 45.21875 56 50.046875 50.171875 
Q 54.890625 44.34375 54.890625 33.015625 
z
" id="DejaVuSans-68"/>
      <path d="M 56.203125 29.59375 
L 56.203125 25.203125 
L 14.890625 25.203125 
Q 15.484375 15.921875 20.484375 11.0625 
Q 25.484375 6.203125 34.421875 6.203125 
Q 39.59375 6.203125 44.453125 7.46875 
Q 49.3125 8.734375 54.109375 11.28125 
L 54.109375 2.78125 
Q 49.265625 0.734375 44.1875 -0.34375 
Q 39.109375 -1.421875 33.890625 -1.421875 
Q 20.796875 -1.421875 13.15625 6.1875 
Q 5.515625 13.8125 5.515625 26.8125 
Q 5.515625 40.234375 12.765625 48.109375 
Q 20.015625 56 32.328125 56 
Q 43.359375 56 49.78125 48.890625 
Q 56.203125 41.796875 56.203125 29.59375 
z
M 47.21875 32.234375 
Q 47.125 39.59375 43.09375 43.984375 
Q 39.0625 48.390625 32.421875 48.390625 
Q 24.90625 48.390625 20.390625 44.140625 
Q 15.875 39.890625 15.1875 32.171875 
z
M 39.859375 0 
L 45.671875 0 
Q 43.46875 -2.984375 42.421875 -5.125 
Q 41.375 -7.28125 41.375 -8.796875 
Q 41.375 -11.03125 42.71875 -12.15625 
Q 44.0625 -13.28125 46.703125 -13.28125 
Q 48.265625 -13.28125 49.765625 -12.90625 
Q 51.28125 -12.546875 52.796875 -11.8125 
L 52.796875 -18.3125 
Q 50.9375 -18.796875 49.28125 -19.03125 
Q 47.625 -19.28125 46.15625 -19.28125 
Q 40.203125 -19.28125 37.390625 -17.15625 
Q 34.59375 -15.046875 34.59375 -10.5 
Q 34.59375 -8.15625 35.875 -5.59375 
Q 37.171875 -3.03125 39.859375 0 
z
" id="DejaVuSans-119"/>
      <path d="M 54.890625 33.015625 
L 54.890625 0 
L 45.90625 0 
L 45.90625 32.71875 
Q 45.90625 40.484375 42.875 44.328125 
Q 39.84375 48.1875 33.796875 48.1875 
Q 26.515625 48.1875 22.3125 43.546875 
Q 18.109375 38.921875 18.109375 30.90625 
L 18.109375 0 
L 9.078125 0 
L 9.078125 54.6875 
L 18.109375 54.6875 
L 18.109375 46.1875 
Q 21.34375 51.125 25.703125 53.5625 
Q 30.078125 56 35.796875 56 
Q 45.21875 56 50.046875 50.171875 
Q 54.890625 44.34375 54.890625 33.015625 
z
" id="DejaVuSans-6e"/>
      <path d="M 41.109375 46.296875 
Q 39.59375 47.171875 37.8125 47.578125 
Q 36.03125 48 33.890625 48 
Q 26.265625 48 22.1875 43.046875 
Q 18.109375 38.09375 18.109375 28.8125 
L 18.109375 0 
L 9.078125 0 
L 9.078125 54.6875 
L 18.109375 54.6875 
L 18.109375 46.1875 
Q 20.953125 51.171875 25.484375 53.578125 
Q 30.03125 56 36.53125 56 
Q 37.453125 56 38.578125 55.875 
Q 39.703125 55.765625 41.0625 55.515625 
z
" id="DejaVuSans-72"/>
      <path d="M 56.203125 29.59375 
L 56.203125 25.203125 
L 14.890625 25.203125 
Q 15.484375 15.921875 20.484375 11.0625 
Q 25.484375 6.203125 34.421875 6.203125 
Q 39.59375 6.203125 44.453125 7.46875 
Q 49.3125 8.734375 54.109375 11.28125 
L 54.109375 2.78125 
Q 49.265625 0.734375 44.1875 -0.34375 
Q 39.109375 -1.421875 33.890625 -1.421875 
Q 20.796875 -1.421875 13.15625 6.1875 
Q 5.515625 13.8125 5.515625 26.8125 
Q 5.515625 40.234375 12.765625 48.109375 
Q 20.015625 56 32.328125 56 
Q 43.359375 56 49.78125 48.890625 
Q 56.203125 41.796875 56.203125 29.59375 
z
M 47.21875 32.234375 
Q 47.125 39.59375 43.09375 43.984375 
Q 39.0625 48.390625 32.421875 48.390625 
Q 24.90625 48.390625 20.390625 44.140625 
Q 15.875 39.890625 15.1875 32.171875 
z
" id="DejaVuSans-65"/>
      <path d="M 9.421875 75.984375 
L 18.40625 75.984375 
L 18.40625 0 
L 9.421875 0 
z
" id="DejaVuSans-6c"/>
     </defs>
     <g transform="translate(242.368625 479.7115)scale(0.144 -0.144)">
      <use xlink:href="#DejaVuSans-4c"/>
      <use x="55.712891" xlink:href="#DejaVuSans-69"/>
      <use x="83.496094" xlink:href="#DejaVuSans-63"/>
      <use x="138.476562" xlink:href="#DejaVuSans-7a"/>
      <use x="190.966797" xlink:href="#DejaVuSans-62"/>
      <use x="254.443359" xlink:href="#DejaVuSans-61"/>
      <use x="315.722656" xlink:href="#DejaVuSans-20"/>
      <use x="347.509766" xlink:href="#DejaVuSans-6b"/>
      <use x="405.373047" xlink:href="#DejaVuSans-6f"/>
      <use x="466.554688" xlink:href="#DejaVuSans-64"/>
      <use x="530.03125" xlink:href="#DejaVuSans-f3"/>
      <use x="591.212891" xlink:href="#DejaVuSans-77"/>
      <use x="673" xlink:href="#DejaVuSans-20"/>
      <use x="704.787109" xlink:href="#DejaVuSans-73"/>
      <use x="756.886719" xlink:href="#DejaVuSans-6b"/>
      <use x="814.796875" xlink:href="#DejaVuSans-142"/>
      <use x="843.214844" xlink:href="#DejaVuSans-61"/>
      <use x="904.494141" xlink:href="#DejaVuSans-64"/>
      <use x="967.970703" xlink:href="#DejaVuSans-61"/>
      <use x="1029.25" xlink:href="#DejaVuSans-6a"/>
      <use x="1057.033203" xlink:href="#DejaVuSans-105"/>
      <use x="1118.3125" xlink:href="#DejaVuSans-63"/>
      <use x="1173.292969" xlink:href="#DejaVuSans-79"/>
      <use x="1232.472656" xlink:href="#DejaVuSans-63"/>
      <use x="1287.453125" xlink:href="#DejaVuSans-68"/>
      <use x="1350.832031" xlink:href="#DejaVuSans-20"/>
      <use x="1382.619141" xlink:href="#DejaVuSans-73"/>
      <use x="1434.71875" xlink:href="#DejaVuSans-69"/>
      <use x="1462.501953" xlink:href="#DejaVuSans-119"/>
      <use x="1524.025391" xlink:href="#DejaVuSans-20"/>
      <use x="1555.8125" xlink:href="#DejaVuSans-6e"/>
      <use x="1619.191406" xlink:href="#DejaVuSans-61"/>
      <use x="1680.470703" xlink:href="#DejaVuSans-20"/>
      <use x="1712.257812" xlink:href="#DejaVuSans-72"/>
      <use x="1753.339844" xlink:href="#DejaVuSans-65"/>
      <use x="1814.863281" xlink:href="#DejaVuSans-6c"/>
      <use x="1842.646484" xlink:href="#DejaVuSans-61"/>
      <use x="1903.925781" xlink:href="#DejaVuSans-63"/>
      <use x="1958.90625" xlink:href="#DejaVuSans-6a"/>
      <use x="1986.689453" xlink:href="#DejaVuSans-119"/>
     </g>
    </g>
   </g>
   <g id="matplotlib.axis_2">
    <g id="ytick_1">
     <g id="line2d_5">
      <defs>
       <path d="M 0 0 
L -3.5 0 
" id="m6a4e7ec70d" style="stroke:#000000;stroke-width:0.8;"/>
      </defs>
      <g>
       <use style="stroke:#000000;stroke-width:0.8;" x="55.0415" xlink:href="#m6a4e7ec70d" y="445.58"/>
      </g>
     </g>
     <g id="text_6">
      <!-- 0 -->
      <defs>
       <path d="M 31.78125 66.40625 
Q 24.171875 66.40625 20.328125 58.90625 
Q 16.5 51.421875 16.5 36.375 
Q 16.5 21.390625 20.328125 13.890625 
Q 24.171875 6.390625 31.78125 6.390625 
Q 39.453125 6.390625 43.28125 13.890625 
Q 47.125 21.390625 47.125 36.375 
Q 47.125 51.421875 43.28125 58.90625 
Q 39.453125 66.40625 31.78125 66.40625 
z
M 31.78125 74.21875 
Q 44.046875 74.21875 50.515625 64.515625 
Q 56.984375 54.828125 56.984375 36.375 
Q 56.984375 17.96875 50.515625 8.265625 
Q 44.046875 -1.421875 31.78125 -1.421875 
Q 19.53125 -1.421875 13.0625 8.265625 
Q 6.59375 17.96875 6.59375 36.375 
Q 6.59375 54.828125 13.0625 64.515625 
Q 19.53125 74.21875 31.78125 74.21875 
z
" id="DejaVuSans-30"/>
      </defs>
      <g transform="translate(40.4065 450.139062)scale(0.12 -0.12)">
       <use xlink:href="#DejaVuSans-30"/>
      </g>
     </g>
    </g>
    <g id="ytick_2">
     <g id="line2d_6">
      <g>
       <use style="stroke:#000000;stroke-width:0.8;" x="55.0415" xlink:href="#m6a4e7ec70d" y="382.347721"/>
      </g>
     </g>
     <g id="text_7">
      <!-- 20 -->
      <g transform="translate(32.7715 386.906783)scale(0.12 -0.12)">
       <use xlink:href="#DejaVuSans-32"/>
       <use x="63.623047" xlink:href="#DejaVuSans-30"/>
      </g>
     </g>
    </g>
    <g id="ytick_3">
     <g id="line2d_7">
      <g>
       <use style="stroke:#000000;stroke-width:0.8;" x="55.0415" xlink:href="#m6a4e7ec70d" y="319.115442"/>
      </g>
     </g>
     <g id="text_8">
      <!-- 40 -->
      <g transform="translate(32.7715 323.674504)scale(0.12 -0.12)">
       <use xlink:href="#DejaVuSans-34"/>
       <use x="63.623047" xlink:href="#DejaVuSans-30"/>
      </g>
     </g>
    </g>
    <g id="ytick_4">
     <g id="line2d_8">
      <g>
       <use style="stroke:#000000;stroke-width:0.8;" x="55.0415" xlink:href="#m6a4e7ec70d" y="255.883162"/>
      </g>
     </g>
     <g id="text_9">
      <!-- 60 -->
      <g transform="translate(32.7715 260.442225)scale(0.12 -0.12)">
       <use xlink:href="#DejaVuSans-36"/>
       <use x="63.623047" xlink:href="#DejaVuSans-30"/>
      </g>
     </g>
    </g>
    <g id="ytick_5">
     <g id="line2d_9">
      <g>
       <use style="stroke:#000000;stroke-width:0.8;" x="55.0415" xlink:href="#m6a4e7ec70d" y="192.650883"/>
      </g>
     </g>
     <g id="text_10">
      <!-- 80 -->
      <g transform="translate(32.7715 197.209946)scale(0.12 -0.12)">
       <use xlink:href="#DejaVuSans-38"/>
       <use x="63.623047" xlink:href="#DejaVuSans-30"/>
      </g>
     </g>
    </g>
    <g id="ytick_6">
     <g id="line2d_10">
      <g>
       <use style="stroke:#000000;stroke-width:0.8;" x="55.0415" xlink:href="#m6a4e7ec70d" y="129.418604"/>
      </g>
     </g>
     <g id="text_11">
      <!-- 100 -->
      <defs>
       <path d="M 12.40625 8.296875 
L 28.515625 8.296875 
L 28.515625 63.921875 
L 10.984375 60.40625 
L 10.984375 69.390625 
L 28.421875 72.90625 
L 38.28125 72.90625 
L 38.28125 8.296875 
L 54.390625 8.296875 
L 54.390625 0 
L 12.40625 0 
z
" id="DejaVuSans-31"/>
      </defs>
      <g transform="translate(25.1365 133.977667)scale(0.12 -0.12)">
       <use xlink:href="#DejaVuSans-31"/>
       <use x="63.623047" xlink:href="#DejaVuSans-30"/>
       <use x="127.246094" xlink:href="#DejaVuSans-30"/>
      </g>
     </g>
    </g>
    <g id="ytick_7">
     <g id="line2d_11">
      <g>
       <use style="stroke:#000000;stroke-width:0.8;" x="55.0415" xlink:href="#m6a4e7ec70d" y="66.186325"/>
      </g>
     </g>
     <g id="text_12">
      <!-- 120 -->
      <g transform="translate(25.1365 70.745387)scale(0.12 -0.12)">
       <use xlink:href="#DejaVuSans-31"/>
       <use x="63.623047" xlink:href="#DejaVuSans-32"/>
       <use x="127.246094" xlink:href="#DejaVuSans-30"/>
      </g>
     </g>
    </g>
    <g id="text_13">
     <!-- Liczba relacji -->
     <g transform="translate(18.14175 274.920875)rotate(-90)scale(0.144 -0.144)">
      <use xlink:href="#DejaVuSans-4c"/>
      <use x="55.712891" xlink:href="#DejaVuSans-69"/>
      <use x="83.496094" xlink:href="#DejaVuSans-63"/>
      <use x="138.476562" xlink:href="#DejaVuSans-7a"/>
      <use x="190.966797" xlink:href="#DejaVuSans-62"/>
      <use x="254.443359" xlink:href="#DejaVuSans-61"/>
      <use x="315.722656" xlink:href="#DejaVuSans-20"/>
      <use x="347.509766" xlink:href="#DejaVuSans-72"/>
      <use x="388.591797" xlink:href="#DejaVuSans-65"/>
      <use x="450.115234" xlink:href="#DejaVuSans-6c"/>
      <use x="477.898438" xlink:href="#DejaVuSans-61"/>
      <use x="539.177734" xlink:href="#DejaVuSans-63"/>
      <use x="594.158203" xlink:href="#DejaVuSans-6a"/>
      <use x="621.941406" xlink:href="#DejaVuSans-69"/>
     </g>
    </g>
   </g>
   <g id="patch_83">
    <path d="M 55.0415 445.58 
L 55.0415 10.7 
" style="fill:none;stroke:#000000;stroke-linecap:square;stroke-linejoin:miter;stroke-width:0.8;"/>
   </g>
   <g id="patch_84">
    <path d="M 724.6415 445.58 
L 724.6415 10.7 
" style="fill:none;stroke:#000000;stroke-linecap:square;stroke-linejoin:miter;stroke-width:0.8;"/>
   </g>
   <g id="patch_85">
    <path d="M 55.0415 445.58 
L 724.6415 445.58 
" style="fill:none;stroke:#000000;stroke-linecap:square;stroke-linejoin:miter;stroke-width:0.8;"/>
   </g>
   <g id="patch_86">
    <path d="M 55.0415 10.7 
L 724.6415 10.7 
" style="fill:none;stroke:#000000;stroke-linecap:square;stroke-linejoin:miter;stroke-width:0.8;"/>
   </g>
   <g id="legend_1">
    <g id="patch_87">
     <path d="M 598.113375 136.125 
L 717.6415 136.125 
Q 719.6415 136.125 719.6415 134.125 
L 719.6415 17.7 
Q 719.6415 15.7 717.6415 15.7 
L 598.113375 15.7 
Q 596.113375 15.7 596.113375 17.7 
L 596.113375 134.125 
Q 596.113375 136.125 598.113375 136.125 
z
" style="fill:#ffffff;opacity:0.8;stroke:#cccccc;stroke-linejoin:miter;"/>
    </g>
    <g id="patch_88">
     <path d="M 600.113375 27.298437 
L 620.113375 27.298437 
L 620.113375 20.298437 
L 600.113375 20.298437 
z
" style="fill:#4c72b0;"/>
    </g>
    <g id="text_14">
     <!-- GloVe: 50x2 -->
     <defs>
      <path d="M 59.515625 10.40625 
L 59.515625 29.984375 
L 43.40625 29.984375 
L 43.40625 38.09375 
L 69.28125 38.09375 
L 69.28125 6.78125 
Q 63.578125 2.734375 56.6875 0.65625 
Q 49.8125 -1.421875 42 -1.421875 
Q 24.90625 -1.421875 15.25 8.5625 
Q 5.609375 18.5625 5.609375 36.375 
Q 5.609375 54.25 15.25 64.234375 
Q 24.90625 74.21875 42 74.21875 
Q 49.125 74.21875 55.546875 72.453125 
Q 61.96875 70.703125 67.390625 67.28125 
L 67.390625 56.78125 
Q 61.921875 61.421875 55.765625 63.765625 
Q 49.609375 66.109375 42.828125 66.109375 
Q 29.4375 66.109375 22.71875 58.640625 
Q 16.015625 51.171875 16.015625 36.375 
Q 16.015625 21.625 22.71875 14.15625 
Q 29.4375 6.6875 42.828125 6.6875 
Q 48.046875 6.6875 52.140625 7.59375 
Q 56.25 8.5 59.515625 10.40625 
z
" id="DejaVuSans-47"/>
      <path d="M 28.609375 0 
L 0.78125 72.90625 
L 11.078125 72.90625 
L 34.1875 11.53125 
L 57.328125 72.90625 
L 67.578125 72.90625 
L 39.796875 0 
z
" id="DejaVuSans-56"/>
      <path d="M 11.71875 12.40625 
L 22.015625 12.40625 
L 22.015625 0 
L 11.71875 0 
z
M 11.71875 51.703125 
L 22.015625 51.703125 
L 22.015625 39.3125 
L 11.71875 39.3125 
z
" id="DejaVuSans-3a"/>
      <path d="M 10.796875 72.90625 
L 49.515625 72.90625 
L 49.515625 64.59375 
L 19.828125 64.59375 
L 19.828125 46.734375 
Q 21.96875 47.46875 24.109375 47.828125 
Q 26.265625 48.1875 28.421875 48.1875 
Q 40.625 48.1875 47.75 41.5 
Q 54.890625 34.8125 54.890625 23.390625 
Q 54.890625 11.625 47.5625 5.09375 
Q 40.234375 -1.421875 26.90625 -1.421875 
Q 22.3125 -1.421875 17.546875 -0.640625 
Q 12.796875 0.140625 7.71875 1.703125 
L 7.71875 11.625 
Q 12.109375 9.234375 16.796875 8.0625 
Q 21.484375 6.890625 26.703125 6.890625 
Q 35.15625 6.890625 40.078125 11.328125 
Q 45.015625 15.765625 45.015625 23.390625 
Q 45.015625 31 40.078125 35.4375 
Q 35.15625 39.890625 26.703125 39.890625 
Q 22.75 39.890625 18.8125 39.015625 
Q 14.890625 38.140625 10.796875 36.28125 
z
" id="DejaVuSans-35"/>
      <path d="M 54.890625 54.6875 
L 35.109375 28.078125 
L 55.90625 0 
L 45.3125 0 
L 29.390625 21.484375 
L 13.484375 0 
L 2.875 0 
L 24.125 28.609375 
L 4.6875 54.6875 
L 15.28125 54.6875 
L 29.78125 35.203125 
L 44.28125 54.6875 
z
" id="DejaVuSans-78"/>
     </defs>
     <g transform="translate(628.113375 27.298437)scale(0.1 -0.1)">
      <use xlink:href="#DejaVuSans-47"/>
      <use x="77.490234" xlink:href="#DejaVuSans-6c"/>
      <use x="105.273438" xlink:href="#DejaVuSans-6f"/>
      <use x="166.455078" xlink:href="#DejaVuSans-56"/>
      <use x="234.753906" xlink:href="#DejaVuSans-65"/>
      <use x="296.277344" xlink:href="#DejaVuSans-3a"/>
      <use x="329.96875" xlink:href="#DejaVuSans-20"/>
      <use x="361.755859" xlink:href="#DejaVuSans-35"/>
      <use x="425.378906" xlink:href="#DejaVuSans-30"/>
      <use x="489.001953" xlink:href="#DejaVuSans-78"/>
      <use x="548.181641" xlink:href="#DejaVuSans-32"/>
     </g>
    </g>
    <g id="patch_89">
     <path d="M 600.113375 41.976562 
L 620.113375 41.976562 
L 620.113375 34.976562 
L 600.113375 34.976562 
z
" style="fill:#55a868;"/>
    </g>
    <g id="text_15">
     <!-- GloVe: 50x10 -->
     <g transform="translate(628.113375 41.976562)scale(0.1 -0.1)">
      <use xlink:href="#DejaVuSans-47"/>
      <use x="77.490234" xlink:href="#DejaVuSans-6c"/>
      <use x="105.273438" xlink:href="#DejaVuSans-6f"/>
      <use x="166.455078" xlink:href="#DejaVuSans-56"/>
      <use x="234.753906" xlink:href="#DejaVuSans-65"/>
      <use x="296.277344" xlink:href="#DejaVuSans-3a"/>
      <use x="329.96875" xlink:href="#DejaVuSans-20"/>
      <use x="361.755859" xlink:href="#DejaVuSans-35"/>
      <use x="425.378906" xlink:href="#DejaVuSans-30"/>
      <use x="489.001953" xlink:href="#DejaVuSans-78"/>
      <use x="548.181641" xlink:href="#DejaVuSans-31"/>
      <use x="611.804688" xlink:href="#DejaVuSans-30"/>
     </g>
    </g>
    <g id="patch_90">
     <path d="M 600.113375 56.654687 
L 620.113375 56.654687 
L 620.113375 49.654687 
L 600.113375 49.654687 
z
" style="fill:#c44e52;"/>
    </g>
    <g id="text_16">
     <!-- GloVe: 150 x 2 -->
     <g transform="translate(628.113375 56.654687)scale(0.1 -0.1)">
      <use xlink:href="#DejaVuSans-47"/>
      <use x="77.490234" xlink:href="#DejaVuSans-6c"/>
      <use x="105.273438" xlink:href="#DejaVuSans-6f"/>
      <use x="166.455078" xlink:href="#DejaVuSans-56"/>
      <use x="234.753906" xlink:href="#DejaVuSans-65"/>
      <use x="296.277344" xlink:href="#DejaVuSans-3a"/>
      <use x="329.96875" xlink:href="#DejaVuSans-20"/>
      <use x="361.755859" xlink:href="#DejaVuSans-31"/>
      <use x="425.378906" xlink:href="#DejaVuSans-35"/>
      <use x="489.001953" xlink:href="#DejaVuSans-30"/>
      <use x="552.625" xlink:href="#DejaVuSans-20"/>
      <use x="584.412109" xlink:href="#DejaVuSans-78"/>
      <use x="643.591797" xlink:href="#DejaVuSans-20"/>
      <use x="675.378906" xlink:href="#DejaVuSans-32"/>
     </g>
    </g>
    <g id="patch_91">
     <path d="M 600.113375 71.332812 
L 620.113375 71.332812 
L 620.113375 64.332812 
L 600.113375 64.332812 
z
" style="fill:#8172b2;"/>
    </g>
    <g id="text_17">
     <!-- GloVe: 150x10 -->
     <g transform="translate(628.113375 71.332812)scale(0.1 -0.1)">
      <use xlink:href="#DejaVuSans-47"/>
      <use x="77.490234" xlink:href="#DejaVuSans-6c"/>
      <use x="105.273438" xlink:href="#DejaVuSans-6f"/>
      <use x="166.455078" xlink:href="#DejaVuSans-56"/>
      <use x="234.753906" xlink:href="#DejaVuSans-65"/>
      <use x="296.277344" xlink:href="#DejaVuSans-3a"/>
      <use x="329.96875" xlink:href="#DejaVuSans-20"/>
      <use x="361.755859" xlink:href="#DejaVuSans-31"/>
      <use x="425.378906" xlink:href="#DejaVuSans-35"/>
      <use x="489.001953" xlink:href="#DejaVuSans-30"/>
      <use x="552.625" xlink:href="#DejaVuSans-78"/>
      <use x="611.804688" xlink:href="#DejaVuSans-31"/>
      <use x="675.427734" xlink:href="#DejaVuSans-30"/>
     </g>
    </g>
    <g id="patch_92">
     <path d="M 600.113375 86.010937 
L 620.113375 86.010937 
L 620.113375 79.010937 
L 600.113375 79.010937 
z
" style="fill:#ccb974;"/>
    </g>
    <g id="text_18">
     <!-- Doc2vec: 50 x 2 -->
     <defs>
      <path d="M 19.671875 64.796875 
L 19.671875 8.109375 
L 31.59375 8.109375 
Q 46.6875 8.109375 53.6875 14.9375 
Q 60.6875 21.78125 60.6875 36.53125 
Q 60.6875 51.171875 53.6875 57.984375 
Q 46.6875 64.796875 31.59375 64.796875 
z
M 9.8125 72.90625 
L 30.078125 72.90625 
Q 51.265625 72.90625 61.171875 64.09375 
Q 71.09375 55.28125 71.09375 36.53125 
Q 71.09375 17.671875 61.125 8.828125 
Q 51.171875 0 30.078125 0 
L 9.8125 0 
z
" id="DejaVuSans-44"/>
      <path d="M 2.984375 54.6875 
L 12.5 54.6875 
L 29.59375 8.796875 
L 46.6875 54.6875 
L 56.203125 54.6875 
L 35.6875 0 
L 23.484375 0 
z
" id="DejaVuSans-76"/>
     </defs>
     <g transform="translate(628.113375 86.010937)scale(0.1 -0.1)">
      <use xlink:href="#DejaVuSans-44"/>
      <use x="77.001953" xlink:href="#DejaVuSans-6f"/>
      <use x="138.183594" xlink:href="#DejaVuSans-63"/>
      <use x="193.164062" xlink:href="#DejaVuSans-32"/>
      <use x="256.787109" xlink:href="#DejaVuSans-76"/>
      <use x="315.966797" xlink:href="#DejaVuSans-65"/>
      <use x="377.490234" xlink:href="#DejaVuSans-63"/>
      <use x="432.470703" xlink:href="#DejaVuSans-3a"/>
      <use x="466.162109" xlink:href="#DejaVuSans-20"/>
      <use x="497.949219" xlink:href="#DejaVuSans-35"/>
      <use x="561.572266" xlink:href="#DejaVuSans-30"/>
      <use x="625.195312" xlink:href="#DejaVuSans-20"/>
      <use x="656.982422" xlink:href="#DejaVuSans-78"/>
      <use x="716.162109" xlink:href="#DejaVuSans-20"/>
      <use x="747.949219" xlink:href="#DejaVuSans-32"/>
     </g>
    </g>
    <g id="patch_93">
     <path d="M 600.113375 100.689062 
L 620.113375 100.689062 
L 620.113375 93.689062 
L 600.113375 93.689062 
z
" style="fill:#64b5cd;"/>
    </g>
    <g id="text_19">
     <!-- Doc2vec: 50x10 -->
     <g transform="translate(628.113375 100.689062)scale(0.1 -0.1)">
      <use xlink:href="#DejaVuSans-44"/>
      <use x="77.001953" xlink:href="#DejaVuSans-6f"/>
      <use x="138.183594" xlink:href="#DejaVuSans-63"/>
      <use x="193.164062" xlink:href="#DejaVuSans-32"/>
      <use x="256.787109" xlink:href="#DejaVuSans-76"/>
      <use x="315.966797" xlink:href="#DejaVuSans-65"/>
      <use x="377.490234" xlink:href="#DejaVuSans-63"/>
      <use x="432.470703" xlink:href="#DejaVuSans-3a"/>
      <use x="466.162109" xlink:href="#DejaVuSans-20"/>
      <use x="497.949219" xlink:href="#DejaVuSans-35"/>
      <use x="561.572266" xlink:href="#DejaVuSans-30"/>
      <use x="625.195312" xlink:href="#DejaVuSans-78"/>
      <use x="684.375" xlink:href="#DejaVuSans-31"/>
      <use x="747.998047" xlink:href="#DejaVuSans-30"/>
     </g>
    </g>
    <g id="patch_94">
     <path d="M 600.113375 115.367187 
L 620.113375 115.367187 
L 620.113375 108.367187 
L 600.113375 108.367187 
z
" style="fill:#4c72b0;"/>
    </g>
    <g id="text_20">
     <!-- Doc2vec: 150 x 2 -->
     <g transform="translate(628.113375 115.367187)scale(0.1 -0.1)">
      <use xlink:href="#DejaVuSans-44"/>
      <use x="77.001953" xlink:href="#DejaVuSans-6f"/>
      <use x="138.183594" xlink:href="#DejaVuSans-63"/>
      <use x="193.164062" xlink:href="#DejaVuSans-32"/>
      <use x="256.787109" xlink:href="#DejaVuSans-76"/>
      <use x="315.966797" xlink:href="#DejaVuSans-65"/>
      <use x="377.490234" xlink:href="#DejaVuSans-63"/>
      <use x="432.470703" xlink:href="#DejaVuSans-3a"/>
      <use x="466.162109" xlink:href="#DejaVuSans-20"/>
      <use x="497.949219" xlink:href="#DejaVuSans-31"/>
      <use x="561.572266" xlink:href="#DejaVuSans-35"/>
      <use x="625.195312" xlink:href="#DejaVuSans-30"/>
      <use x="688.818359" xlink:href="#DejaVuSans-20"/>
      <use x="720.605469" xlink:href="#DejaVuSans-78"/>
      <use x="779.785156" xlink:href="#DejaVuSans-20"/>
      <use x="811.572266" xlink:href="#DejaVuSans-32"/>
     </g>
    </g>
    <g id="patch_95">
     <path d="M 600.113375 130.045312 
L 620.113375 130.045312 
L 620.113375 123.045312 
L 600.113375 123.045312 
z
" style="fill:#55a868;"/>
    </g>
    <g id="text_21">
     <!-- Doc2vec: 150x10 -->
     <g transform="translate(628.113375 130.045312)scale(0.1 -0.1)">
      <use xlink:href="#DejaVuSans-44"/>
      <use x="77.001953" xlink:href="#DejaVuSans-6f"/>
      <use x="138.183594" xlink:href="#DejaVuSans-63"/>
      <use x="193.164062" xlink:href="#DejaVuSans-32"/>
      <use x="256.787109" xlink:href="#DejaVuSans-76"/>
      <use x="315.966797" xlink:href="#DejaVuSans-65"/>
      <use x="377.490234" xlink:href="#DejaVuSans-63"/>
      <use x="432.470703" xlink:href="#DejaVuSans-3a"/>
      <use x="466.162109" xlink:href="#DejaVuSans-20"/>
      <use x="497.949219" xlink:href="#DejaVuSans-31"/>
      <use x="561.572266" xlink:href="#DejaVuSans-35"/>
      <use x="625.195312" xlink:href="#DejaVuSans-30"/>
      <use x="688.818359" xlink:href="#DejaVuSans-78"/>
      <use x="747.998047" xlink:href="#DejaVuSans-31"/>
      <use x="811.621094" xlink:href="#DejaVuSans-30"/>
     </g>
    </g>
   </g>
  </g>
 </g>
 <defs>
  <clipPath id="p7db13e41d7">
   <rect height="434.88" width="669.6" x="55.0415" y="10.7"/>
  </clipPath>
 </defs>
</svg>
