<?xml version="1.0" encoding="utf-8" standalone="no"?>
<!DOCTYPE svg PUBLIC "-//W3C//DTD SVG 1.1//EN"
  "http://www.w3.org/Graphics/SVG/1.1/DTD/svg11.dtd">
<!-- Created with matplotlib (http://matplotlib.org/) -->
<svg height="849pt" version="1.1" viewBox="0 0 1165 849" width="1165pt" xmlns="http://www.w3.org/2000/svg" xmlns:xlink="http://www.w3.org/1999/xlink">
 <defs>
  <style type="text/css">
*{stroke-linecap:butt;stroke-linejoin:round;}
  </style>
 </defs>
 <g id="figure_1">
  <g id="patch_1">
   <path d="M 0 849.978125 
L 1165.182812 849.978125 
L 1165.182812 0 
L 0 0 
z
" style="fill:#ffffff;"/>
  </g>
  <g id="axes_1">
   <g id="patch_2">
    <path d="M 38.482813 826.1 
L 1154.482812 826.1 
L 1154.482812 10.7 
L 38.482813 10.7 
z
" style="fill:#ffffff;"/>
   </g>
   <g id="PathCollection_1">
    <defs>
     <path d="M 0 3 
C 0.795609 3 1.55874 2.683901 2.12132 2.12132 
C 2.683901 1.55874 3 0.795609 3 0 
C 3 -0.795609 2.683901 -1.55874 2.12132 -2.12132 
C 1.55874 -2.683901 0.795609 -3 0 -3 
C -0.795609 -3 -1.55874 -2.683901 -2.12132 -2.12132 
C -2.683901 -1.55874 -3 -0.795609 -3 0 
C -3 0.795609 -2.683901 1.55874 -2.12132 2.12132 
C -1.55874 2.683901 -0.795609 3 0 3 
z
" id="md671630d33" style="stroke:#1f77b4;"/>
    </defs>
    <g clip-path="url(#pbb74467769)">
     <use style="fill:#1f77b4;stroke:#1f77b4;" x="856.02555" xlink:href="#md671630d33" y="112.519941"/>
     <use style="fill:#1f77b4;stroke:#1f77b4;" x="899.871454" xlink:href="#md671630d33" y="61.380312"/>
     <use style="fill:#1f77b4;stroke:#1f77b4;" x="793.660133" xlink:href="#md671630d33" y="184.860194"/>
    </g>
   </g>
   <g id="PathCollection_2">
    <defs>
     <path d="M 0 3 
C 0.795609 3 1.55874 2.683901 2.12132 2.12132 
C 2.683901 1.55874 3 0.795609 3 0 
C 3 -0.795609 2.683901 -1.55874 2.12132 -2.12132 
C 1.55874 -2.683901 0.795609 -3 0 -3 
C -0.795609 -3 -1.55874 -2.683901 -2.12132 -2.12132 
C -2.683901 -1.55874 -3 -0.795609 -3 0 
C -3 0.795609 -2.683901 1.55874 -2.12132 2.12132 
C -1.55874 2.683901 -0.795609 3 0 3 
z
" id="m96647c7ab1" style="stroke:#ff7f0e;"/>
    </defs>
    <g clip-path="url(#pbb74467769)">
     <use style="fill:#ff7f0e;stroke:#ff7f0e;" x="856.02555" xlink:href="#m96647c7ab1" y="112.519941"/>
     <use style="fill:#ff7f0e;stroke:#ff7f0e;" x="899.871454" xlink:href="#m96647c7ab1" y="61.380312"/>
     <use style="fill:#ff7f0e;stroke:#ff7f0e;" x="793.660133" xlink:href="#m96647c7ab1" y="184.860194"/>
    </g>
   </g>
   <g id="PathCollection_3">
    <defs>
     <path d="M 0 3 
C 0.795609 3 1.55874 2.683901 2.12132 2.12132 
C 2.683901 1.55874 3 0.795609 3 0 
C 3 -0.795609 2.683901 -1.55874 2.12132 -2.12132 
C 1.55874 -2.683901 0.795609 -3 0 -3 
C -0.795609 -3 -1.55874 -2.683901 -2.12132 -2.12132 
C -2.683901 -1.55874 -3 -0.795609 -3 0 
C -3 0.795609 -2.683901 1.55874 -2.12132 2.12132 
C -1.55874 2.683901 -0.795609 3 0 3 
z
" id="m5c37fafb73" style="stroke:#2ca02c;"/>
    </defs>
    <g clip-path="url(#pbb74467769)">
     <use style="fill:#2ca02c;stroke:#2ca02c;" x="856.02555" xlink:href="#m5c37fafb73" y="112.519941"/>
     <use style="fill:#2ca02c;stroke:#2ca02c;" x="899.871454" xlink:href="#m5c37fafb73" y="61.380312"/>
     <use style="fill:#2ca02c;stroke:#2ca02c;" x="793.660133" xlink:href="#m5c37fafb73" y="184.860194"/>
    </g>
   </g>
   <g id="PathCollection_4">
    <defs>
     <path d="M 0 3 
C 0.795609 3 1.55874 2.683901 2.12132 2.12132 
C 2.683901 1.55874 3 0.795609 3 0 
C 3 -0.795609 2.683901 -1.55874 2.12132 -2.12132 
C 1.55874 -2.683901 0.795609 -3 0 -3 
C -0.795609 -3 -1.55874 -2.683901 -2.12132 -2.12132 
C -2.683901 -1.55874 -3 -0.795609 -3 0 
C -3 0.795609 -2.683901 1.55874 -2.12132 2.12132 
C -1.55874 2.683901 -0.795609 3 0 3 
z
" id="m713c5ad5cd" style="stroke:#d62728;"/>
    </defs>
    <g clip-path="url(#pbb74467769)">
     <use style="fill:#d62728;stroke:#d62728;" x="669.517468" xlink:href="#m713c5ad5cd" y="571.750824"/>
     <use style="fill:#d62728;stroke:#d62728;" x="772.676378" xlink:href="#m713c5ad5cd" y="786.067394"/>
     <use style="fill:#d62728;stroke:#d62728;" x="650.953623" xlink:href="#m713c5ad5cd" y="533.199011"/>
    </g>
   </g>
   <g id="PathCollection_5">
    <defs>
     <path d="M 0 3 
C 0.795609 3 1.55874 2.683901 2.12132 2.12132 
C 2.683901 1.55874 3 0.795609 3 0 
C 3 -0.795609 2.683901 -1.55874 2.12132 -2.12132 
C 1.55874 -2.683901 0.795609 -3 0 -3 
C -0.795609 -3 -1.55874 -2.683901 -2.12132 -2.12132 
C -2.683901 -1.55874 -3 -0.795609 -3 0 
C -3 0.795609 -2.683901 1.55874 -2.12132 2.12132 
C -1.55874 2.683901 -0.795609 3 0 3 
z
" id="m8aa41cdc8f" style="stroke:#9467bd;"/>
    </defs>
    <g clip-path="url(#pbb74467769)">
     <use style="fill:#9467bd;stroke:#9467bd;" x="669.517468" xlink:href="#m8aa41cdc8f" y="571.750824"/>
     <use style="fill:#9467bd;stroke:#9467bd;" x="772.676378" xlink:href="#m8aa41cdc8f" y="786.067394"/>
     <use style="fill:#9467bd;stroke:#9467bd;" x="650.953623" xlink:href="#m8aa41cdc8f" y="533.199011"/>
    </g>
   </g>
   <g id="PathCollection_6">
    <defs>
     <path d="M 0 3 
C 0.795609 3 1.55874 2.683901 2.12132 2.12132 
C 2.683901 1.55874 3 0.795609 3 0 
C 3 -0.795609 2.683901 -1.55874 2.12132 -2.12132 
C 1.55874 -2.683901 0.795609 -3 0 -3 
C -0.795609 -3 -1.55874 -2.683901 -2.12132 -2.12132 
C -2.683901 -1.55874 -3 -0.795609 -3 0 
C -3 0.795609 -2.683901 1.55874 -2.12132 2.12132 
C -1.55874 2.683901 -0.795609 3 0 3 
z
" id="m03e3d4e19a" style="stroke:#8c564b;"/>
    </defs>
    <g clip-path="url(#pbb74467769)">
     <use style="fill:#8c564b;stroke:#8c564b;" x="669.517468" xlink:href="#m03e3d4e19a" y="571.750824"/>
     <use style="fill:#8c564b;stroke:#8c564b;" x="772.676378" xlink:href="#m03e3d4e19a" y="786.067394"/>
     <use style="fill:#8c564b;stroke:#8c564b;" x="650.953623" xlink:href="#m03e3d4e19a" y="533.199011"/>
    </g>
   </g>
   <g id="PathCollection_7">
    <defs>
     <path d="M 0 3 
C 0.795609 3 1.55874 2.683901 2.12132 2.12132 
C 2.683901 1.55874 3 0.795609 3 0 
C 3 -0.795609 2.683901 -1.55874 2.12132 -2.12132 
C 1.55874 -2.683901 0.795609 -3 0 -3 
C -0.795609 -3 -1.55874 -2.683901 -2.12132 -2.12132 
C -2.683901 -1.55874 -3 -0.795609 -3 0 
C -3 0.795609 -2.683901 1.55874 -2.12132 2.12132 
C -1.55874 2.683901 -0.795609 3 0 3 
z
" id="mf835ff9d2e" style="stroke:#e377c2;"/>
    </defs>
    <g clip-path="url(#pbb74467769)">
     <use style="fill:#e377c2;stroke:#e377c2;" x="859.256801" xlink:href="#mf835ff9d2e" y="569.730279"/>
     <use style="fill:#e377c2;stroke:#e377c2;" x="976.633347" xlink:href="#mf835ff9d2e" y="637.597067"/>
     <use style="fill:#e377c2;stroke:#e377c2;" x="1049.745721" xlink:href="#mf835ff9d2e" y="680.211932"/>
    </g>
   </g>
   <g id="PathCollection_8">
    <defs>
     <path d="M 0 3 
C 0.795609 3 1.55874 2.683901 2.12132 2.12132 
C 2.683901 1.55874 3 0.795609 3 0 
C 3 -0.795609 2.683901 -1.55874 2.12132 -2.12132 
C 1.55874 -2.683901 0.795609 -3 0 -3 
C -0.795609 -3 -1.55874 -2.683901 -2.12132 -2.12132 
C -2.683901 -1.55874 -3 -0.795609 -3 0 
C -3 0.795609 -2.683901 1.55874 -2.12132 2.12132 
C -1.55874 2.683901 -0.795609 3 0 3 
z
" id="m98e2cd7ca2" style="stroke:#7f7f7f;"/>
    </defs>
    <g clip-path="url(#pbb74467769)">
     <use style="fill:#7f7f7f;stroke:#7f7f7f;" x="859.256801" xlink:href="#m98e2cd7ca2" y="569.730279"/>
     <use style="fill:#7f7f7f;stroke:#7f7f7f;" x="976.633347" xlink:href="#m98e2cd7ca2" y="637.597067"/>
     <use style="fill:#7f7f7f;stroke:#7f7f7f;" x="1049.745721" xlink:href="#m98e2cd7ca2" y="680.211932"/>
    </g>
   </g>
   <g id="PathCollection_9">
    <defs>
     <path d="M 0 3 
C 0.795609 3 1.55874 2.683901 2.12132 2.12132 
C 2.683901 1.55874 3 0.795609 3 0 
C 3 -0.795609 2.683901 -1.55874 2.12132 -2.12132 
C 1.55874 -2.683901 0.795609 -3 0 -3 
C -0.795609 -3 -1.55874 -2.683901 -2.12132 -2.12132 
C -2.683901 -1.55874 -3 -0.795609 -3 0 
C -3 0.795609 -2.683901 1.55874 -2.12132 2.12132 
C -1.55874 2.683901 -0.795609 3 0 3 
z
" id="mcc5462d261" style="stroke:#bcbd22;"/>
    </defs>
    <g clip-path="url(#pbb74467769)">
     <use style="fill:#bcbd22;stroke:#bcbd22;" x="859.256801" xlink:href="#mcc5462d261" y="569.730279"/>
     <use style="fill:#bcbd22;stroke:#bcbd22;" x="976.633347" xlink:href="#mcc5462d261" y="637.597067"/>
     <use style="fill:#bcbd22;stroke:#bcbd22;" x="1049.745721" xlink:href="#mcc5462d261" y="680.211932"/>
    </g>
   </g>
   <g id="PathCollection_10">
    <defs>
     <path d="M 0 3 
C 0.795609 3 1.55874 2.683901 2.12132 2.12132 
C 2.683901 1.55874 3 0.795609 3 0 
C 3 -0.795609 2.683901 -1.55874 2.12132 -2.12132 
C 1.55874 -2.683901 0.795609 -3 0 -3 
C -0.795609 -3 -1.55874 -2.683901 -2.12132 -2.12132 
C -2.683901 -1.55874 -3 -0.795609 -3 0 
C -3 0.795609 -2.683901 1.55874 -2.12132 2.12132 
C -1.55874 2.683901 -0.795609 3 0 3 
z
" id="mef1ace0562" style="stroke:#17becf;"/>
    </defs>
    <g clip-path="url(#pbb74467769)">
     <use style="fill:#17becf;stroke:#17becf;" x="284.493165" xlink:href="#mef1ace0562" y="339.476785"/>
     <use style="fill:#17becf;stroke:#17becf;" x="103.215234" xlink:href="#mef1ace0562" y="294.69484"/>
     <use style="fill:#17becf;stroke:#17becf;" x="104.19525" xlink:href="#mef1ace0562" y="295.065406"/>
    </g>
   </g>
   <g id="PathCollection_11">
    <g clip-path="url(#pbb74467769)">
     <use style="fill:#1f77b4;stroke:#1f77b4;" x="284.493165" xlink:href="#md671630d33" y="339.476785"/>
     <use style="fill:#1f77b4;stroke:#1f77b4;" x="103.215234" xlink:href="#md671630d33" y="294.69484"/>
     <use style="fill:#1f77b4;stroke:#1f77b4;" x="104.19525" xlink:href="#md671630d33" y="295.065406"/>
    </g>
   </g>
   <g id="PathCollection_12">
    <g clip-path="url(#pbb74467769)">
     <use style="fill:#ff7f0e;stroke:#ff7f0e;" x="284.493165" xlink:href="#m96647c7ab1" y="339.476785"/>
     <use style="fill:#ff7f0e;stroke:#ff7f0e;" x="103.215234" xlink:href="#m96647c7ab1" y="294.69484"/>
     <use style="fill:#ff7f0e;stroke:#ff7f0e;" x="104.19525" xlink:href="#m96647c7ab1" y="295.065406"/>
    </g>
   </g>
   <g id="PathCollection_13">
    <g clip-path="url(#pbb74467769)">
     <use style="fill:#2ca02c;stroke:#2ca02c;" x="299.506487" xlink:href="#m5c37fafb73" y="160.076077"/>
     <use style="fill:#2ca02c;stroke:#2ca02c;" x="387.054144" xlink:href="#m5c37fafb73" y="235.964755"/>
     <use style="fill:#2ca02c;stroke:#2ca02c;" x="173.489456" xlink:href="#m5c37fafb73" y="50.763636"/>
     <use style="fill:#2ca02c;stroke:#2ca02c;" x="328.688785" xlink:href="#m5c37fafb73" y="185.510628"/>
    </g>
   </g>
   <g id="PathCollection_14">
    <g clip-path="url(#pbb74467769)">
     <use style="fill:#d62728;stroke:#d62728;" x="299.506487" xlink:href="#m713c5ad5cd" y="160.076077"/>
     <use style="fill:#d62728;stroke:#d62728;" x="387.054144" xlink:href="#m713c5ad5cd" y="235.964755"/>
     <use style="fill:#d62728;stroke:#d62728;" x="173.489456" xlink:href="#m713c5ad5cd" y="50.763636"/>
     <use style="fill:#d62728;stroke:#d62728;" x="328.688785" xlink:href="#m713c5ad5cd" y="185.510628"/>
    </g>
   </g>
   <g id="PathCollection_15">
    <g clip-path="url(#pbb74467769)">
     <use style="fill:#9467bd;stroke:#9467bd;" x="299.506487" xlink:href="#m8aa41cdc8f" y="160.076077"/>
     <use style="fill:#9467bd;stroke:#9467bd;" x="387.054144" xlink:href="#m8aa41cdc8f" y="235.964755"/>
     <use style="fill:#9467bd;stroke:#9467bd;" x="173.489456" xlink:href="#m8aa41cdc8f" y="50.763636"/>
     <use style="fill:#9467bd;stroke:#9467bd;" x="328.688785" xlink:href="#m8aa41cdc8f" y="185.510628"/>
    </g>
   </g>
   <g id="PathCollection_16">
    <g clip-path="url(#pbb74467769)">
     <use style="fill:#8c564b;stroke:#8c564b;" x="299.506487" xlink:href="#m03e3d4e19a" y="160.076077"/>
     <use style="fill:#8c564b;stroke:#8c564b;" x="387.054144" xlink:href="#m03e3d4e19a" y="235.964755"/>
     <use style="fill:#8c564b;stroke:#8c564b;" x="173.489456" xlink:href="#m03e3d4e19a" y="50.763636"/>
     <use style="fill:#8c564b;stroke:#8c564b;" x="328.688785" xlink:href="#m03e3d4e19a" y="185.510628"/>
    </g>
   </g>
   <g id="PathCollection_17">
    <g clip-path="url(#pbb74467769)">
     <use style="fill:#e377c2;stroke:#e377c2;" x="942.134652" xlink:href="#mf835ff9d2e" y="330.868273"/>
     <use style="fill:#e377c2;stroke:#e377c2;" x="819.403252" xlink:href="#mf835ff9d2e" y="361.045127"/>
     <use style="fill:#e377c2;stroke:#e377c2;" x="1100.788643" xlink:href="#mf835ff9d2e" y="292.245347"/>
    </g>
   </g>
   <g id="PathCollection_18">
    <g clip-path="url(#pbb74467769)">
     <use style="fill:#7f7f7f;stroke:#7f7f7f;" x="942.134652" xlink:href="#m98e2cd7ca2" y="330.868273"/>
     <use style="fill:#7f7f7f;stroke:#7f7f7f;" x="819.403252" xlink:href="#m98e2cd7ca2" y="361.045127"/>
     <use style="fill:#7f7f7f;stroke:#7f7f7f;" x="1100.788643" xlink:href="#m98e2cd7ca2" y="292.245347"/>
    </g>
   </g>
   <g id="PathCollection_19">
    <g clip-path="url(#pbb74467769)">
     <use style="fill:#bcbd22;stroke:#bcbd22;" x="942.134652" xlink:href="#mcc5462d261" y="330.868273"/>
     <use style="fill:#bcbd22;stroke:#bcbd22;" x="819.403252" xlink:href="#mcc5462d261" y="361.045127"/>
     <use style="fill:#bcbd22;stroke:#bcbd22;" x="1100.788643" xlink:href="#mcc5462d261" y="292.245347"/>
    </g>
   </g>
   <g id="PathCollection_20">
    <g clip-path="url(#pbb74467769)">
     <use style="fill:#17becf;stroke:#17becf;" x="753.009343" xlink:href="#mef1ace0562" y="756.104158"/>
     <use style="fill:#17becf;stroke:#17becf;" x="672.949303" xlink:href="#mef1ace0562" y="584.367481"/>
     <use style="fill:#17becf;stroke:#17becf;" x="693.972643" xlink:href="#mef1ace0562" y="629.439273"/>
    </g>
   </g>
   <g id="PathCollection_21">
    <g clip-path="url(#pbb74467769)">
     <use style="fill:#1f77b4;stroke:#1f77b4;" x="753.009343" xlink:href="#md671630d33" y="756.104158"/>
     <use style="fill:#1f77b4;stroke:#1f77b4;" x="672.949303" xlink:href="#md671630d33" y="584.367481"/>
     <use style="fill:#1f77b4;stroke:#1f77b4;" x="693.972643" xlink:href="#md671630d33" y="629.439273"/>
    </g>
   </g>
   <g id="PathCollection_22">
    <g clip-path="url(#pbb74467769)">
     <use style="fill:#ff7f0e;stroke:#ff7f0e;" x="753.009343" xlink:href="#m96647c7ab1" y="756.104158"/>
     <use style="fill:#ff7f0e;stroke:#ff7f0e;" x="672.949303" xlink:href="#m96647c7ab1" y="584.367481"/>
     <use style="fill:#ff7f0e;stroke:#ff7f0e;" x="693.972643" xlink:href="#m96647c7ab1" y="629.439273"/>
    </g>
   </g>
   <g id="PathCollection_23">
    <g clip-path="url(#pbb74467769)">
     <use style="fill:#2ca02c;stroke:#2ca02c;" x="948.779805" xlink:href="#m5c37fafb73" y="101.820411"/>
     <use style="fill:#2ca02c;stroke:#2ca02c;" x="806.133598" xlink:href="#m5c37fafb73" y="228.171084"/>
     <use style="fill:#2ca02c;stroke:#2ca02c;" x="933.923723" xlink:href="#m5c37fafb73" y="114.790402"/>
    </g>
   </g>
   <g id="PathCollection_24">
    <g clip-path="url(#pbb74467769)">
     <use style="fill:#d62728;stroke:#d62728;" x="948.779805" xlink:href="#m713c5ad5cd" y="101.820411"/>
     <use style="fill:#d62728;stroke:#d62728;" x="806.133598" xlink:href="#m713c5ad5cd" y="228.171084"/>
     <use style="fill:#d62728;stroke:#d62728;" x="933.923723" xlink:href="#m713c5ad5cd" y="114.790402"/>
    </g>
   </g>
   <g id="PathCollection_25">
    <g clip-path="url(#pbb74467769)">
     <use style="fill:#9467bd;stroke:#9467bd;" x="948.779805" xlink:href="#m8aa41cdc8f" y="101.820411"/>
     <use style="fill:#9467bd;stroke:#9467bd;" x="806.133598" xlink:href="#m8aa41cdc8f" y="228.171084"/>
     <use style="fill:#9467bd;stroke:#9467bd;" x="933.923723" xlink:href="#m8aa41cdc8f" y="114.790402"/>
    </g>
   </g>
   <g id="PathCollection_26">
    <g clip-path="url(#pbb74467769)">
     <use style="fill:#8c564b;stroke:#8c564b;" x="570.655828" xlink:href="#m03e3d4e19a" y="327.48957"/>
     <use style="fill:#8c564b;stroke:#8c564b;" x="504.796629" xlink:href="#m03e3d4e19a" y="83.041646"/>
     <use style="fill:#8c564b;stroke:#8c564b;" x="526.345611" xlink:href="#m03e3d4e19a" y="162.611563"/>
    </g>
   </g>
   <g id="PathCollection_27">
    <g clip-path="url(#pbb74467769)">
     <use style="fill:#e377c2;stroke:#e377c2;" x="570.655828" xlink:href="#mf835ff9d2e" y="327.48957"/>
     <use style="fill:#e377c2;stroke:#e377c2;" x="504.796629" xlink:href="#mf835ff9d2e" y="83.041646"/>
     <use style="fill:#e377c2;stroke:#e377c2;" x="526.345611" xlink:href="#mf835ff9d2e" y="162.611563"/>
    </g>
   </g>
   <g id="PathCollection_28">
    <g clip-path="url(#pbb74467769)">
     <use style="fill:#7f7f7f;stroke:#7f7f7f;" x="570.655828" xlink:href="#m98e2cd7ca2" y="327.48957"/>
     <use style="fill:#7f7f7f;stroke:#7f7f7f;" x="504.796629" xlink:href="#m98e2cd7ca2" y="83.041646"/>
     <use style="fill:#7f7f7f;stroke:#7f7f7f;" x="526.345611" xlink:href="#m98e2cd7ca2" y="162.611563"/>
    </g>
   </g>
   <g id="PathCollection_29">
    <g clip-path="url(#pbb74467769)">
     <use style="fill:#bcbd22;stroke:#bcbd22;" x="242.116569" xlink:href="#mcc5462d261" y="320.739676"/>
     <use style="fill:#bcbd22;stroke:#bcbd22;" x="211.138098" xlink:href="#mcc5462d261" y="312.292217"/>
     <use style="fill:#bcbd22;stroke:#bcbd22;" x="319.964311" xlink:href="#mcc5462d261" y="341.783098"/>
    </g>
   </g>
   <g id="PathCollection_30">
    <g clip-path="url(#pbb74467769)">
     <use style="fill:#17becf;stroke:#17becf;" x="242.116569" xlink:href="#mef1ace0562" y="320.739676"/>
     <use style="fill:#17becf;stroke:#17becf;" x="211.138098" xlink:href="#mef1ace0562" y="312.292217"/>
     <use style="fill:#17becf;stroke:#17becf;" x="319.964311" xlink:href="#mef1ace0562" y="341.783098"/>
    </g>
   </g>
   <g id="PathCollection_31">
    <g clip-path="url(#pbb74467769)">
     <use style="fill:#1f77b4;stroke:#1f77b4;" x="242.116569" xlink:href="#md671630d33" y="320.739676"/>
     <use style="fill:#1f77b4;stroke:#1f77b4;" x="211.138098" xlink:href="#md671630d33" y="312.292217"/>
     <use style="fill:#1f77b4;stroke:#1f77b4;" x="319.964311" xlink:href="#md671630d33" y="341.783098"/>
    </g>
   </g>
   <g id="PathCollection_32">
    <g clip-path="url(#pbb74467769)">
     <use style="fill:#ff7f0e;stroke:#ff7f0e;" x="1010.893804" xlink:href="#m96647c7ab1" y="501.803667"/>
     <use style="fill:#ff7f0e;stroke:#ff7f0e;" x="820.603095" xlink:href="#m96647c7ab1" y="462.53936"/>
     <use style="fill:#ff7f0e;stroke:#ff7f0e;" x="1022.955911" xlink:href="#m96647c7ab1" y="504.079866"/>
    </g>
   </g>
   <g id="PathCollection_33">
    <g clip-path="url(#pbb74467769)">
     <use style="fill:#2ca02c;stroke:#2ca02c;" x="1010.893804" xlink:href="#m5c37fafb73" y="501.803667"/>
     <use style="fill:#2ca02c;stroke:#2ca02c;" x="820.603095" xlink:href="#m5c37fafb73" y="462.53936"/>
     <use style="fill:#2ca02c;stroke:#2ca02c;" x="1022.955911" xlink:href="#m5c37fafb73" y="504.079866"/>
    </g>
   </g>
   <g id="PathCollection_34">
    <g clip-path="url(#pbb74467769)">
     <use style="fill:#d62728;stroke:#d62728;" x="1010.893804" xlink:href="#m713c5ad5cd" y="501.803667"/>
     <use style="fill:#d62728;stroke:#d62728;" x="820.603095" xlink:href="#m713c5ad5cd" y="462.53936"/>
     <use style="fill:#d62728;stroke:#d62728;" x="1022.955911" xlink:href="#m713c5ad5cd" y="504.079866"/>
    </g>
   </g>
   <g id="PathCollection_35">
    <g clip-path="url(#pbb74467769)">
     <use style="fill:#9467bd;stroke:#9467bd;" x="270.361257" xlink:href="#m8aa41cdc8f" y="169.600651"/>
     <use style="fill:#9467bd;stroke:#9467bd;" x="141.852617" xlink:href="#m8aa41cdc8f" y="71.457091"/>
     <use style="fill:#9467bd;stroke:#9467bd;" x="150.336717" xlink:href="#m8aa41cdc8f" y="78.184461"/>
    </g>
   </g>
   <g id="PathCollection_36">
    <g clip-path="url(#pbb74467769)">
     <use style="fill:#8c564b;stroke:#8c564b;" x="270.361257" xlink:href="#m03e3d4e19a" y="169.600651"/>
     <use style="fill:#8c564b;stroke:#8c564b;" x="141.852617" xlink:href="#m03e3d4e19a" y="71.457091"/>
     <use style="fill:#8c564b;stroke:#8c564b;" x="150.336717" xlink:href="#m03e3d4e19a" y="78.184461"/>
    </g>
   </g>
   <g id="PathCollection_37">
    <g clip-path="url(#pbb74467769)">
     <use style="fill:#e377c2;stroke:#e377c2;" x="270.361257" xlink:href="#mf835ff9d2e" y="169.600651"/>
     <use style="fill:#e377c2;stroke:#e377c2;" x="141.852617" xlink:href="#mf835ff9d2e" y="71.457091"/>
     <use style="fill:#e377c2;stroke:#e377c2;" x="150.336717" xlink:href="#mf835ff9d2e" y="78.184461"/>
    </g>
   </g>
   <g id="PathCollection_38">
    <g clip-path="url(#pbb74467769)">
     <use style="fill:#7f7f7f;stroke:#7f7f7f;" x="437.023038" xlink:href="#m98e2cd7ca2" y="319.366537"/>
     <use style="fill:#7f7f7f;stroke:#7f7f7f;" x="361.322664" xlink:href="#m98e2cd7ca2" y="272.707094"/>
     <use style="fill:#7f7f7f;stroke:#7f7f7f;" x="309.953427" xlink:href="#m98e2cd7ca2" y="241.256862"/>
     <use style="fill:#7f7f7f;stroke:#7f7f7f;" x="92.210085" xlink:href="#m98e2cd7ca2" y="107.230042"/>
    </g>
   </g>
   <g id="PathCollection_39">
    <g clip-path="url(#pbb74467769)">
     <use style="fill:#bcbd22;stroke:#bcbd22;" x="437.023038" xlink:href="#mcc5462d261" y="319.366537"/>
     <use style="fill:#bcbd22;stroke:#bcbd22;" x="361.322664" xlink:href="#mcc5462d261" y="272.707094"/>
     <use style="fill:#bcbd22;stroke:#bcbd22;" x="309.953427" xlink:href="#mcc5462d261" y="241.256862"/>
     <use style="fill:#bcbd22;stroke:#bcbd22;" x="92.210085" xlink:href="#mcc5462d261" y="107.230042"/>
    </g>
   </g>
   <g id="PathCollection_40">
    <g clip-path="url(#pbb74467769)">
     <use style="fill:#17becf;stroke:#17becf;" x="437.023038" xlink:href="#mef1ace0562" y="319.366537"/>
     <use style="fill:#17becf;stroke:#17becf;" x="361.322664" xlink:href="#mef1ace0562" y="272.707094"/>
     <use style="fill:#17becf;stroke:#17becf;" x="309.953427" xlink:href="#mef1ace0562" y="241.256862"/>
     <use style="fill:#17becf;stroke:#17becf;" x="92.210085" xlink:href="#mef1ace0562" y="107.230042"/>
    </g>
   </g>
   <g id="PathCollection_41">
    <g clip-path="url(#pbb74467769)">
     <use style="fill:#1f77b4;stroke:#1f77b4;" x="437.023038" xlink:href="#md671630d33" y="319.366537"/>
     <use style="fill:#1f77b4;stroke:#1f77b4;" x="361.322664" xlink:href="#md671630d33" y="272.707094"/>
     <use style="fill:#1f77b4;stroke:#1f77b4;" x="309.953427" xlink:href="#md671630d33" y="241.256862"/>
     <use style="fill:#1f77b4;stroke:#1f77b4;" x="92.210085" xlink:href="#md671630d33" y="107.230042"/>
    </g>
   </g>
   <g id="PathCollection_42">
    <g clip-path="url(#pbb74467769)">
     <use style="fill:#ff7f0e;stroke:#ff7f0e;" x="490.760326" xlink:href="#m96647c7ab1" y="699.864644"/>
     <use style="fill:#ff7f0e;stroke:#ff7f0e;" x="575.888236" xlink:href="#m96647c7ab1" y="466.883056"/>
     <use style="fill:#ff7f0e;stroke:#ff7f0e;" x="504.323492" xlink:href="#m96647c7ab1" y="662.546724"/>
    </g>
   </g>
   <g id="PathCollection_43">
    <g clip-path="url(#pbb74467769)">
     <use style="fill:#2ca02c;stroke:#2ca02c;" x="490.760326" xlink:href="#m5c37fafb73" y="699.864644"/>
     <use style="fill:#2ca02c;stroke:#2ca02c;" x="575.888236" xlink:href="#m5c37fafb73" y="466.883056"/>
     <use style="fill:#2ca02c;stroke:#2ca02c;" x="504.323492" xlink:href="#m5c37fafb73" y="662.546724"/>
    </g>
   </g>
   <g id="PathCollection_44">
    <g clip-path="url(#pbb74467769)">
     <use style="fill:#d62728;stroke:#d62728;" x="490.760326" xlink:href="#m713c5ad5cd" y="699.864644"/>
     <use style="fill:#d62728;stroke:#d62728;" x="575.888236" xlink:href="#m713c5ad5cd" y="466.883056"/>
     <use style="fill:#d62728;stroke:#d62728;" x="504.323492" xlink:href="#m713c5ad5cd" y="662.546724"/>
    </g>
   </g>
   <g id="matplotlib.axis_1">
    <g id="xtick_1">
     <g id="line2d_1">
      <defs>
       <path d="M 0 0 
L 0 3.5 
" id="ma684ac8faa" style="stroke:#000000;stroke-width:0.8;"/>
      </defs>
      <g>
       <use style="stroke:#000000;stroke-width:0.8;" x="185.01377" xlink:href="#ma684ac8faa" y="826.1"/>
      </g>
     </g>
     <g id="text_1">
      <!-- −0.2 -->
      <defs>
       <path d="M 10.59375 35.5 
L 73.1875 35.5 
L 73.1875 27.203125 
L 10.59375 27.203125 
z
" id="DejaVuSans-2212"/>
       <path d="M 31.78125 66.40625 
Q 24.171875 66.40625 20.328125 58.90625 
Q 16.5 51.421875 16.5 36.375 
Q 16.5 21.390625 20.328125 13.890625 
Q 24.171875 6.390625 31.78125 6.390625 
Q 39.453125 6.390625 43.28125 13.890625 
Q 47.125 21.390625 47.125 36.375 
Q 47.125 51.421875 43.28125 58.90625 
Q 39.453125 66.40625 31.78125 66.40625 
z
M 31.78125 74.21875 
Q 44.046875 74.21875 50.515625 64.515625 
Q 56.984375 54.828125 56.984375 36.375 
Q 56.984375 17.96875 50.515625 8.265625 
Q 44.046875 -1.421875 31.78125 -1.421875 
Q 19.53125 -1.421875 13.0625 8.265625 
Q 6.59375 17.96875 6.59375 36.375 
Q 6.59375 54.828125 13.0625 64.515625 
Q 19.53125 74.21875 31.78125 74.21875 
z
" id="DejaVuSans-30"/>
       <path d="M 10.6875 12.40625 
L 21 12.40625 
L 21 0 
L 10.6875 0 
z
" id="DejaVuSans-2e"/>
       <path d="M 19.1875 8.296875 
L 53.609375 8.296875 
L 53.609375 0 
L 7.328125 0 
L 7.328125 8.296875 
Q 12.9375 14.109375 22.625 23.890625 
Q 32.328125 33.6875 34.8125 36.53125 
Q 39.546875 41.84375 41.421875 45.53125 
Q 43.3125 49.21875 43.3125 52.78125 
Q 43.3125 58.59375 39.234375 62.25 
Q 35.15625 65.921875 28.609375 65.921875 
Q 23.96875 65.921875 18.8125 64.3125 
Q 13.671875 62.703125 7.8125 59.421875 
L 7.8125 69.390625 
Q 13.765625 71.78125 18.9375 73 
Q 24.125 74.21875 28.421875 74.21875 
Q 39.75 74.21875 46.484375 68.546875 
Q 53.21875 62.890625 53.21875 53.421875 
Q 53.21875 48.921875 51.53125 44.890625 
Q 49.859375 40.875 45.40625 35.40625 
Q 44.1875 33.984375 37.640625 27.21875 
Q 31.109375 20.453125 19.1875 8.296875 
z
" id="DejaVuSans-32"/>
      </defs>
      <g transform="translate(172.872364 840.698437)scale(0.1 -0.1)">
       <use xlink:href="#DejaVuSans-2212"/>
       <use x="83.789062" xlink:href="#DejaVuSans-30"/>
       <use x="147.412109" xlink:href="#DejaVuSans-2e"/>
       <use x="179.199219" xlink:href="#DejaVuSans-32"/>
      </g>
     </g>
    </g>
    <g id="xtick_2">
     <g id="line2d_2">
      <g>
       <use style="stroke:#000000;stroke-width:0.8;" x="389.751152" xlink:href="#ma684ac8faa" y="826.1"/>
      </g>
     </g>
     <g id="text_2">
      <!-- −0.1 -->
      <defs>
       <path d="M 12.40625 8.296875 
L 28.515625 8.296875 
L 28.515625 63.921875 
L 10.984375 60.40625 
L 10.984375 69.390625 
L 28.421875 72.90625 
L 38.28125 72.90625 
L 38.28125 8.296875 
L 54.390625 8.296875 
L 54.390625 0 
L 12.40625 0 
z
" id="DejaVuSans-31"/>
      </defs>
      <g transform="translate(377.609746 840.698437)scale(0.1 -0.1)">
       <use xlink:href="#DejaVuSans-2212"/>
       <use x="83.789062" xlink:href="#DejaVuSans-30"/>
       <use x="147.412109" xlink:href="#DejaVuSans-2e"/>
       <use x="179.199219" xlink:href="#DejaVuSans-31"/>
      </g>
     </g>
    </g>
    <g id="xtick_3">
     <g id="line2d_3">
      <g>
       <use style="stroke:#000000;stroke-width:0.8;" x="594.488535" xlink:href="#ma684ac8faa" y="826.1"/>
      </g>
     </g>
     <g id="text_3">
      <!-- 0.0 -->
      <g transform="translate(586.536973 840.698437)scale(0.1 -0.1)">
       <use xlink:href="#DejaVuSans-30"/>
       <use x="63.623047" xlink:href="#DejaVuSans-2e"/>
       <use x="95.410156" xlink:href="#DejaVuSans-30"/>
      </g>
     </g>
    </g>
    <g id="xtick_4">
     <g id="line2d_4">
      <g>
       <use style="stroke:#000000;stroke-width:0.8;" x="799.225918" xlink:href="#ma684ac8faa" y="826.1"/>
      </g>
     </g>
     <g id="text_4">
      <!-- 0.1 -->
      <g transform="translate(791.274355 840.698437)scale(0.1 -0.1)">
       <use xlink:href="#DejaVuSans-30"/>
       <use x="63.623047" xlink:href="#DejaVuSans-2e"/>
       <use x="95.410156" xlink:href="#DejaVuSans-31"/>
      </g>
     </g>
    </g>
    <g id="xtick_5">
     <g id="line2d_5">
      <g>
       <use style="stroke:#000000;stroke-width:0.8;" x="1003.9633" xlink:href="#ma684ac8faa" y="826.1"/>
      </g>
     </g>
     <g id="text_5">
      <!-- 0.2 -->
      <g transform="translate(996.011738 840.698437)scale(0.1 -0.1)">
       <use xlink:href="#DejaVuSans-30"/>
       <use x="63.623047" xlink:href="#DejaVuSans-2e"/>
       <use x="95.410156" xlink:href="#DejaVuSans-32"/>
      </g>
     </g>
    </g>
   </g>
   <g id="matplotlib.axis_2">
    <g id="ytick_1">
     <g id="line2d_6">
      <defs>
       <path d="M 0 0 
L -3.5 0 
" id="m10ddb21af1" style="stroke:#000000;stroke-width:0.8;"/>
      </defs>
      <g>
       <use style="stroke:#000000;stroke-width:0.8;" x="38.482813" xlink:href="#m10ddb21af1" y="739.916674"/>
      </g>
     </g>
     <g id="text_6">
      <!-- −0.2 -->
      <g transform="translate(7.2 743.715892)scale(0.1 -0.1)">
       <use xlink:href="#DejaVuSans-2212"/>
       <use x="83.789062" xlink:href="#DejaVuSans-30"/>
       <use x="147.412109" xlink:href="#DejaVuSans-2e"/>
       <use x="179.199219" xlink:href="#DejaVuSans-32"/>
      </g>
     </g>
    </g>
    <g id="ytick_2">
     <g id="line2d_7">
      <g>
       <use style="stroke:#000000;stroke-width:0.8;" x="38.482813" xlink:href="#m10ddb21af1" y="577.950495"/>
      </g>
     </g>
     <g id="text_7">
      <!-- −0.1 -->
      <g transform="translate(7.2 581.749714)scale(0.1 -0.1)">
       <use xlink:href="#DejaVuSans-2212"/>
       <use x="83.789062" xlink:href="#DejaVuSans-30"/>
       <use x="147.412109" xlink:href="#DejaVuSans-2e"/>
       <use x="179.199219" xlink:href="#DejaVuSans-31"/>
      </g>
     </g>
    </g>
    <g id="ytick_3">
     <g id="line2d_8">
      <g>
       <use style="stroke:#000000;stroke-width:0.8;" x="38.482813" xlink:href="#m10ddb21af1" y="415.984316"/>
      </g>
     </g>
     <g id="text_8">
      <!-- 0.0 -->
      <g transform="translate(15.579688 419.783535)scale(0.1 -0.1)">
       <use xlink:href="#DejaVuSans-30"/>
       <use x="63.623047" xlink:href="#DejaVuSans-2e"/>
       <use x="95.410156" xlink:href="#DejaVuSans-30"/>
      </g>
     </g>
    </g>
    <g id="ytick_4">
     <g id="line2d_9">
      <g>
       <use style="stroke:#000000;stroke-width:0.8;" x="38.482813" xlink:href="#m10ddb21af1" y="254.018138"/>
      </g>
     </g>
     <g id="text_9">
      <!-- 0.1 -->
      <g transform="translate(15.579688 257.817356)scale(0.1 -0.1)">
       <use xlink:href="#DejaVuSans-30"/>
       <use x="63.623047" xlink:href="#DejaVuSans-2e"/>
       <use x="95.410156" xlink:href="#DejaVuSans-31"/>
      </g>
     </g>
    </g>
    <g id="ytick_5">
     <g id="line2d_10">
      <g>
       <use style="stroke:#000000;stroke-width:0.8;" x="38.482813" xlink:href="#m10ddb21af1" y="92.051959"/>
      </g>
     </g>
     <g id="text_10">
      <!-- 0.2 -->
      <g transform="translate(15.579688 95.851178)scale(0.1 -0.1)">
       <use xlink:href="#DejaVuSans-30"/>
       <use x="63.623047" xlink:href="#DejaVuSans-2e"/>
       <use x="95.410156" xlink:href="#DejaVuSans-32"/>
      </g>
     </g>
    </g>
   </g>
   <g id="patch_3">
    <path d="M 38.482813 826.1 
L 38.482813 10.7 
" style="fill:none;stroke:#000000;stroke-linecap:square;stroke-linejoin:miter;stroke-width:0.8;"/>
   </g>
   <g id="patch_4">
    <path d="M 1154.482812 826.1 
L 1154.482812 10.7 
" style="fill:none;stroke:#000000;stroke-linecap:square;stroke-linejoin:miter;stroke-width:0.8;"/>
   </g>
   <g id="patch_5">
    <path d="M 38.482813 826.1 
L 1154.482812 826.1 
" style="fill:none;stroke:#000000;stroke-linecap:square;stroke-linejoin:miter;stroke-width:0.8;"/>
   </g>
   <g id="patch_6">
    <path d="M 38.482813 10.7 
L 1154.482812 10.7 
" style="fill:none;stroke:#000000;stroke-linecap:square;stroke-linejoin:miter;stroke-width:0.8;"/>
   </g>
   <g id="patch_7">
    <path d="M 854.799744 108.027969 
Q 855.149889 109.311076 855.205698 109.515589 
" style="fill:none;stroke:#000000;stroke-linecap:round;"/>
    <path d="M 856.082098 105.130167 
L 855.205698 109.515589 
L 852.223201 106.183215 
" style="fill:none;stroke:#000000;stroke-linecap:round;"/>
   </g>
   <g id="text_11">
    <g id="patch_8">
     <path d="M 842.02555 105.599628 
L 860.878675 105.599628 
Q 865.878675 105.599628 865.878675 100.599628 
L 865.878675 90.921503 
Q 865.878675 85.921503 860.878675 85.921503 
L 842.02555 85.921503 
Q 837.02555 85.921503 837.02555 90.921503 
L 837.02555 100.599628 
Q 837.02555 105.599628 842.02555 105.599628 
z
" style="fill:#ffff00;opacity:0.5;stroke:#000000;stroke-linejoin:miter;"/>
    </g>
    <!-- a58 -->
    <defs>
     <path d="M 34.28125 27.484375 
Q 23.390625 27.484375 19.1875 25 
Q 14.984375 22.515625 14.984375 16.5 
Q 14.984375 11.71875 18.140625 8.90625 
Q 21.296875 6.109375 26.703125 6.109375 
Q 34.1875 6.109375 38.703125 11.40625 
Q 43.21875 16.703125 43.21875 25.484375 
L 43.21875 27.484375 
z
M 52.203125 31.203125 
L 52.203125 0 
L 43.21875 0 
L 43.21875 8.296875 
Q 40.140625 3.328125 35.546875 0.953125 
Q 30.953125 -1.421875 24.3125 -1.421875 
Q 15.921875 -1.421875 10.953125 3.296875 
Q 6 8.015625 6 15.921875 
Q 6 25.140625 12.171875 29.828125 
Q 18.359375 34.515625 30.609375 34.515625 
L 43.21875 34.515625 
L 43.21875 35.40625 
Q 43.21875 41.609375 39.140625 45 
Q 35.0625 48.390625 27.6875 48.390625 
Q 23 48.390625 18.546875 47.265625 
Q 14.109375 46.140625 10.015625 43.890625 
L 10.015625 52.203125 
Q 14.9375 54.109375 19.578125 55.046875 
Q 24.21875 56 28.609375 56 
Q 40.484375 56 46.34375 49.84375 
Q 52.203125 43.703125 52.203125 31.203125 
z
" id="DejaVuSans-61"/>
     <path d="M 10.796875 72.90625 
L 49.515625 72.90625 
L 49.515625 64.59375 
L 19.828125 64.59375 
L 19.828125 46.734375 
Q 21.96875 47.46875 24.109375 47.828125 
Q 26.265625 48.1875 28.421875 48.1875 
Q 40.625 48.1875 47.75 41.5 
Q 54.890625 34.8125 54.890625 23.390625 
Q 54.890625 11.625 47.5625 5.09375 
Q 40.234375 -1.421875 26.90625 -1.421875 
Q 22.3125 -1.421875 17.546875 -0.640625 
Q 12.796875 0.140625 7.71875 1.703125 
L 7.71875 11.625 
Q 12.109375 9.234375 16.796875 8.0625 
Q 21.484375 6.890625 26.703125 6.890625 
Q 35.15625 6.890625 40.078125 11.328125 
Q 45.015625 15.765625 45.015625 23.390625 
Q 45.015625 31 40.078125 35.4375 
Q 35.15625 39.890625 26.703125 39.890625 
Q 22.75 39.890625 18.8125 39.015625 
Q 14.890625 38.140625 10.796875 36.28125 
z
" id="DejaVuSans-35"/>
     <path d="M 31.78125 34.625 
Q 24.75 34.625 20.71875 30.859375 
Q 16.703125 27.09375 16.703125 20.515625 
Q 16.703125 13.921875 20.71875 10.15625 
Q 24.75 6.390625 31.78125 6.390625 
Q 38.8125 6.390625 42.859375 10.171875 
Q 46.921875 13.96875 46.921875 20.515625 
Q 46.921875 27.09375 42.890625 30.859375 
Q 38.875 34.625 31.78125 34.625 
z
M 21.921875 38.8125 
Q 15.578125 40.375 12.03125 44.71875 
Q 8.5 49.078125 8.5 55.328125 
Q 8.5 64.0625 14.71875 69.140625 
Q 20.953125 74.21875 31.78125 74.21875 
Q 42.671875 74.21875 48.875 69.140625 
Q 55.078125 64.0625 55.078125 55.328125 
Q 55.078125 49.078125 51.53125 44.71875 
Q 48 40.375 41.703125 38.8125 
Q 48.828125 37.15625 52.796875 32.3125 
Q 56.78125 27.484375 56.78125 20.515625 
Q 56.78125 9.90625 50.3125 4.234375 
Q 43.84375 -1.421875 31.78125 -1.421875 
Q 19.734375 -1.421875 13.25 4.234375 
Q 6.78125 9.90625 6.78125 20.515625 
Q 6.78125 27.484375 10.78125 32.3125 
Q 14.796875 37.15625 21.921875 38.8125 
z
M 18.3125 54.390625 
Q 18.3125 48.734375 21.84375 45.5625 
Q 25.390625 42.390625 31.78125 42.390625 
Q 38.140625 42.390625 41.71875 45.5625 
Q 45.3125 48.734375 45.3125 54.390625 
Q 45.3125 60.0625 41.71875 63.234375 
Q 38.140625 66.40625 31.78125 66.40625 
Q 25.390625 66.40625 21.84375 63.234375 
Q 18.3125 60.0625 18.3125 54.390625 
z
" id="DejaVuSans-38"/>
    </defs>
    <g transform="translate(842.02555 98.519941)scale(0.1 -0.1)">
     <use xlink:href="#DejaVuSans-61"/>
     <use x="61.279297" xlink:href="#DejaVuSans-35"/>
     <use x="124.902344" xlink:href="#DejaVuSans-38"/>
    </g>
   </g>
   <g id="patch_9">
    <path d="M 899.502279 56.951033 
Q 899.603766 58.168652 899.612388 58.272101 
" style="fill:none;stroke:#000000;stroke-linecap:round;"/>
    <path d="M 901.273234 54.119801 
L 899.612388 58.272101 
L 897.287056 54.452044 
" style="fill:none;stroke:#000000;stroke-linecap:round;"/>
   </g>
   <g id="text_12">
    <g id="patch_10">
     <path d="M 885.871454 54.459999 
L 911.077704 54.459999 
Q 916.077704 54.459999 916.077704 49.459999 
L 916.077704 39.781874 
Q 916.077704 34.781874 911.077704 34.781874 
L 885.871454 34.781874 
Q 880.871454 34.781874 880.871454 39.781874 
L 880.871454 49.459999 
Q 880.871454 54.459999 885.871454 54.459999 
z
" style="fill:#ffff00;opacity:0.5;stroke:#000000;stroke-linejoin:miter;"/>
    </g>
    <!-- o163 -->
    <defs>
     <path d="M 30.609375 48.390625 
Q 23.390625 48.390625 19.1875 42.75 
Q 14.984375 37.109375 14.984375 27.296875 
Q 14.984375 17.484375 19.15625 11.84375 
Q 23.34375 6.203125 30.609375 6.203125 
Q 37.796875 6.203125 41.984375 11.859375 
Q 46.1875 17.53125 46.1875 27.296875 
Q 46.1875 37.015625 41.984375 42.703125 
Q 37.796875 48.390625 30.609375 48.390625 
z
M 30.609375 56 
Q 42.328125 56 49.015625 48.375 
Q 55.71875 40.765625 55.71875 27.296875 
Q 55.71875 13.875 49.015625 6.21875 
Q 42.328125 -1.421875 30.609375 -1.421875 
Q 18.84375 -1.421875 12.171875 6.21875 
Q 5.515625 13.875 5.515625 27.296875 
Q 5.515625 40.765625 12.171875 48.375 
Q 18.84375 56 30.609375 56 
z
" id="DejaVuSans-6f"/>
     <path d="M 33.015625 40.375 
Q 26.375 40.375 22.484375 35.828125 
Q 18.609375 31.296875 18.609375 23.390625 
Q 18.609375 15.53125 22.484375 10.953125 
Q 26.375 6.390625 33.015625 6.390625 
Q 39.65625 6.390625 43.53125 10.953125 
Q 47.40625 15.53125 47.40625 23.390625 
Q 47.40625 31.296875 43.53125 35.828125 
Q 39.65625 40.375 33.015625 40.375 
z
M 52.59375 71.296875 
L 52.59375 62.3125 
Q 48.875 64.0625 45.09375 64.984375 
Q 41.3125 65.921875 37.59375 65.921875 
Q 27.828125 65.921875 22.671875 59.328125 
Q 17.53125 52.734375 16.796875 39.40625 
Q 19.671875 43.65625 24.015625 45.921875 
Q 28.375 48.1875 33.59375 48.1875 
Q 44.578125 48.1875 50.953125 41.515625 
Q 57.328125 34.859375 57.328125 23.390625 
Q 57.328125 12.15625 50.6875 5.359375 
Q 44.046875 -1.421875 33.015625 -1.421875 
Q 20.359375 -1.421875 13.671875 8.265625 
Q 6.984375 17.96875 6.984375 36.375 
Q 6.984375 53.65625 15.1875 63.9375 
Q 23.390625 74.21875 37.203125 74.21875 
Q 40.921875 74.21875 44.703125 73.484375 
Q 48.484375 72.75 52.59375 71.296875 
z
" id="DejaVuSans-36"/>
     <path d="M 40.578125 39.3125 
Q 47.65625 37.796875 51.625 33 
Q 55.609375 28.21875 55.609375 21.1875 
Q 55.609375 10.40625 48.1875 4.484375 
Q 40.765625 -1.421875 27.09375 -1.421875 
Q 22.515625 -1.421875 17.65625 -0.515625 
Q 12.796875 0.390625 7.625 2.203125 
L 7.625 11.71875 
Q 11.71875 9.328125 16.59375 8.109375 
Q 21.484375 6.890625 26.8125 6.890625 
Q 36.078125 6.890625 40.9375 10.546875 
Q 45.796875 14.203125 45.796875 21.1875 
Q 45.796875 27.640625 41.28125 31.265625 
Q 36.765625 34.90625 28.71875 34.90625 
L 20.21875 34.90625 
L 20.21875 43.015625 
L 29.109375 43.015625 
Q 36.375 43.015625 40.234375 45.921875 
Q 44.09375 48.828125 44.09375 54.296875 
Q 44.09375 59.90625 40.109375 62.90625 
Q 36.140625 65.921875 28.71875 65.921875 
Q 24.65625 65.921875 20.015625 65.03125 
Q 15.375 64.15625 9.8125 62.3125 
L 9.8125 71.09375 
Q 15.4375 72.65625 20.34375 73.4375 
Q 25.25 74.21875 29.59375 74.21875 
Q 40.828125 74.21875 47.359375 69.109375 
Q 53.90625 64.015625 53.90625 55.328125 
Q 53.90625 49.265625 50.4375 45.09375 
Q 46.96875 40.921875 40.578125 39.3125 
z
" id="DejaVuSans-33"/>
    </defs>
    <g transform="translate(885.871454 47.380312)scale(0.1 -0.1)">
     <use xlink:href="#DejaVuSans-6f"/>
     <use x="61.181641" xlink:href="#DejaVuSans-31"/>
     <use x="124.804688" xlink:href="#DejaVuSans-36"/>
     <use x="188.427734" xlink:href="#DejaVuSans-33"/>
    </g>
   </g>
   <g id="patch_11">
    <path d="M 793.208988 180.430915 
Q 793.333449 181.65286 793.344619 181.762525 
" style="fill:none;stroke:#000000;stroke-linecap:round;"/>
    <path d="M 794.929001 177.580452 
L 793.344619 181.762525 
L 790.94959 177.985776 
" style="fill:none;stroke:#000000;stroke-linecap:round;"/>
   </g>
   <g id="text_13">
    <g id="patch_12">
     <path d="M 779.660133 177.939881 
L 804.246071 177.939881 
Q 809.246071 177.939881 809.246071 172.939881 
L 809.246071 163.261756 
Q 809.246071 158.261756 804.246071 158.261756 
L 779.660133 158.261756 
Q 774.660133 158.261756 774.660133 163.261756 
L 774.660133 172.939881 
Q 774.660133 177.939881 779.660133 177.939881 
z
" style="fill:#ffff00;opacity:0.5;stroke:#000000;stroke-linejoin:miter;"/>
    </g>
    <!-- c430 -->
    <defs>
     <path d="M 48.78125 52.59375 
L 48.78125 44.1875 
Q 44.96875 46.296875 41.140625 47.34375 
Q 37.3125 48.390625 33.40625 48.390625 
Q 24.65625 48.390625 19.8125 42.84375 
Q 14.984375 37.3125 14.984375 27.296875 
Q 14.984375 17.28125 19.8125 11.734375 
Q 24.65625 6.203125 33.40625 6.203125 
Q 37.3125 6.203125 41.140625 7.25 
Q 44.96875 8.296875 48.78125 10.40625 
L 48.78125 2.09375 
Q 45.015625 0.34375 40.984375 -0.53125 
Q 36.96875 -1.421875 32.421875 -1.421875 
Q 20.0625 -1.421875 12.78125 6.34375 
Q 5.515625 14.109375 5.515625 27.296875 
Q 5.515625 40.671875 12.859375 48.328125 
Q 20.21875 56 33.015625 56 
Q 37.15625 56 41.109375 55.140625 
Q 45.0625 54.296875 48.78125 52.59375 
z
" id="DejaVuSans-63"/>
     <path d="M 37.796875 64.3125 
L 12.890625 25.390625 
L 37.796875 25.390625 
z
M 35.203125 72.90625 
L 47.609375 72.90625 
L 47.609375 25.390625 
L 58.015625 25.390625 
L 58.015625 17.1875 
L 47.609375 17.1875 
L 47.609375 0 
L 37.796875 0 
L 37.796875 17.1875 
L 4.890625 17.1875 
L 4.890625 26.703125 
z
" id="DejaVuSans-34"/>
    </defs>
    <g transform="translate(779.660133 170.860194)scale(0.1 -0.1)">
     <use xlink:href="#DejaVuSans-63"/>
     <use x="54.980469" xlink:href="#DejaVuSans-34"/>
     <use x="118.603516" xlink:href="#DejaVuSans-33"/>
     <use x="182.226562" xlink:href="#DejaVuSans-30"/>
    </g>
   </g>
   <g id="patch_13">
    <path d="M 669.152835 567.321545 
Q 669.253073 568.539164 669.261582 568.642519 
" style="fill:none;stroke:#000000;stroke-linecap:round;"/>
    <path d="M 670.926656 564.491913 
L 669.261582 568.642519 
L 666.940142 564.820096 
" style="fill:none;stroke:#000000;stroke-linecap:round;"/>
   </g>
   <g id="text_14">
    <g id="patch_14">
     <path d="M 655.517468 564.830511 
L 680.758093 564.830511 
Q 685.758093 564.830511 685.758093 559.830511 
L 685.758093 550.152386 
Q 685.758093 545.152386 680.758093 545.152386 
L 655.517468 545.152386 
Q 650.517468 545.152386 650.517468 550.152386 
L 650.517468 559.830511 
Q 650.517468 564.830511 655.517468 564.830511 
z
" style="fill:#ffff00;opacity:0.5;stroke:#000000;stroke-linejoin:miter;"/>
    </g>
    <!-- e321 -->
    <defs>
     <path d="M 56.203125 29.59375 
L 56.203125 25.203125 
L 14.890625 25.203125 
Q 15.484375 15.921875 20.484375 11.0625 
Q 25.484375 6.203125 34.421875 6.203125 
Q 39.59375 6.203125 44.453125 7.46875 
Q 49.3125 8.734375 54.109375 11.28125 
L 54.109375 2.78125 
Q 49.265625 0.734375 44.1875 -0.34375 
Q 39.109375 -1.421875 33.890625 -1.421875 
Q 20.796875 -1.421875 13.15625 6.1875 
Q 5.515625 13.8125 5.515625 26.8125 
Q 5.515625 40.234375 12.765625 48.109375 
Q 20.015625 56 32.328125 56 
Q 43.359375 56 49.78125 48.890625 
Q 56.203125 41.796875 56.203125 29.59375 
z
M 47.21875 32.234375 
Q 47.125 39.59375 43.09375 43.984375 
Q 39.0625 48.390625 32.421875 48.390625 
Q 24.90625 48.390625 20.390625 44.140625 
Q 15.875 39.890625 15.1875 32.171875 
z
" id="DejaVuSans-65"/>
    </defs>
    <g transform="translate(655.517468 557.750824)scale(0.1 -0.1)">
     <use xlink:href="#DejaVuSans-65"/>
     <use x="61.523438" xlink:href="#DejaVuSans-33"/>
     <use x="125.146484" xlink:href="#DejaVuSans-32"/>
     <use x="188.769531" xlink:href="#DejaVuSans-31"/>
    </g>
   </g>
   <g id="patch_15">
    <path d="M 772.338034 781.644385 
Q 772.431045 782.860281 772.43878 782.961399 
" style="fill:none;stroke:#000000;stroke-linecap:round;"/>
    <path d="M 774.12786 778.820504 
L 772.43878 782.961399 
L 770.139512 779.125598 
" style="fill:none;stroke:#000000;stroke-linecap:round;"/>
   </g>
   <g id="text_15">
    <g id="patch_16">
     <path d="M 758.676378 779.147082 
L 784.112315 779.147082 
Q 789.112315 779.147082 789.112315 774.147082 
L 789.112315 764.468957 
Q 789.112315 759.468957 784.112315 759.468957 
L 758.676378 759.468957 
Q 753.676378 759.468957 753.676378 764.468957 
L 753.676378 774.147082 
Q 753.676378 779.147082 758.676378 779.147082 
z
" style="fill:#ffff00;opacity:0.5;stroke:#000000;stroke-linejoin:miter;"/>
    </g>
    <!-- g129 -->
    <defs>
     <path d="M 45.40625 27.984375 
Q 45.40625 37.75 41.375 43.109375 
Q 37.359375 48.484375 30.078125 48.484375 
Q 22.859375 48.484375 18.828125 43.109375 
Q 14.796875 37.75 14.796875 27.984375 
Q 14.796875 18.265625 18.828125 12.890625 
Q 22.859375 7.515625 30.078125 7.515625 
Q 37.359375 7.515625 41.375 12.890625 
Q 45.40625 18.265625 45.40625 27.984375 
z
M 54.390625 6.78125 
Q 54.390625 -7.171875 48.1875 -13.984375 
Q 42 -20.796875 29.203125 -20.796875 
Q 24.46875 -20.796875 20.265625 -20.09375 
Q 16.0625 -19.390625 12.109375 -17.921875 
L 12.109375 -9.1875 
Q 16.0625 -11.328125 19.921875 -12.34375 
Q 23.78125 -13.375 27.78125 -13.375 
Q 36.625 -13.375 41.015625 -8.765625 
Q 45.40625 -4.15625 45.40625 5.171875 
L 45.40625 9.625 
Q 42.625 4.78125 38.28125 2.390625 
Q 33.9375 0 27.875 0 
Q 17.828125 0 11.671875 7.65625 
Q 5.515625 15.328125 5.515625 27.984375 
Q 5.515625 40.671875 11.671875 48.328125 
Q 17.828125 56 27.875 56 
Q 33.9375 56 38.28125 53.609375 
Q 42.625 51.21875 45.40625 46.390625 
L 45.40625 54.6875 
L 54.390625 54.6875 
z
" id="DejaVuSans-67"/>
     <path d="M 10.984375 1.515625 
L 10.984375 10.5 
Q 14.703125 8.734375 18.5 7.8125 
Q 22.3125 6.890625 25.984375 6.890625 
Q 35.75 6.890625 40.890625 13.453125 
Q 46.046875 20.015625 46.78125 33.40625 
Q 43.953125 29.203125 39.59375 26.953125 
Q 35.25 24.703125 29.984375 24.703125 
Q 19.046875 24.703125 12.671875 31.3125 
Q 6.296875 37.9375 6.296875 49.421875 
Q 6.296875 60.640625 12.9375 67.421875 
Q 19.578125 74.21875 30.609375 74.21875 
Q 43.265625 74.21875 49.921875 64.515625 
Q 56.59375 54.828125 56.59375 36.375 
Q 56.59375 19.140625 48.40625 8.859375 
Q 40.234375 -1.421875 26.421875 -1.421875 
Q 22.703125 -1.421875 18.890625 -0.6875 
Q 15.09375 0.046875 10.984375 1.515625 
z
M 30.609375 32.421875 
Q 37.25 32.421875 41.125 36.953125 
Q 45.015625 41.5 45.015625 49.421875 
Q 45.015625 57.28125 41.125 61.84375 
Q 37.25 66.40625 30.609375 66.40625 
Q 23.96875 66.40625 20.09375 61.84375 
Q 16.21875 57.28125 16.21875 49.421875 
Q 16.21875 41.5 20.09375 36.953125 
Q 23.96875 32.421875 30.609375 32.421875 
z
" id="DejaVuSans-39"/>
    </defs>
    <g transform="translate(758.676378 772.067394)scale(0.1 -0.1)">
     <use xlink:href="#DejaVuSans-67"/>
     <use x="63.476562" xlink:href="#DejaVuSans-31"/>
     <use x="127.099609" xlink:href="#DejaVuSans-32"/>
     <use x="190.722656" xlink:href="#DejaVuSans-39"/>
    </g>
   </g>
   <g id="patch_17">
    <path d="M 650.613835 528.776001 
Q 650.707244 529.991897 650.715014 530.093043 
" style="fill:none;stroke:#000000;stroke-linecap:round;"/>
    <path d="M 652.40275 525.951601 
L 650.715014 530.093043 
L 648.414502 526.257989 
" style="fill:none;stroke:#000000;stroke-linecap:round;"/>
   </g>
   <g id="text_16">
    <g id="patch_18">
     <path d="M 636.953623 526.278698 
L 662.378623 526.278698 
Q 667.378623 526.278698 667.378623 521.278698 
L 667.378623 511.600573 
Q 667.378623 506.600573 662.378623 506.600573 
L 636.953623 506.600573 
Q 631.953623 506.600573 631.953623 511.600573 
L 631.953623 521.278698 
Q 631.953623 526.278698 636.953623 526.278698 
z
" style="fill:#ffff00;opacity:0.5;stroke:#000000;stroke-linejoin:miter;"/>
    </g>
    <!-- n651 -->
    <defs>
     <path d="M 54.890625 33.015625 
L 54.890625 0 
L 45.90625 0 
L 45.90625 32.71875 
Q 45.90625 40.484375 42.875 44.328125 
Q 39.84375 48.1875 33.796875 48.1875 
Q 26.515625 48.1875 22.3125 43.546875 
Q 18.109375 38.921875 18.109375 30.90625 
L 18.109375 0 
L 9.078125 0 
L 9.078125 54.6875 
L 18.109375 54.6875 
L 18.109375 46.1875 
Q 21.34375 51.125 25.703125 53.5625 
Q 30.078125 56 35.796875 56 
Q 45.21875 56 50.046875 50.171875 
Q 54.890625 44.34375 54.890625 33.015625 
z
" id="DejaVuSans-6e"/>
    </defs>
    <g transform="translate(636.953623 519.199011)scale(0.1 -0.1)">
     <use xlink:href="#DejaVuSans-6e"/>
     <use x="63.378906" xlink:href="#DejaVuSans-36"/>
     <use x="127.001953" xlink:href="#DejaVuSans-35"/>
     <use x="190.625" xlink:href="#DejaVuSans-31"/>
    </g>
   </g>
   <g id="patch_19">
    <path d="M 858.62051 565.288461 
Q 858.796671 566.518203 858.814291 566.641208 
" style="fill:none;stroke:#000000;stroke-linecap:round;"/>
    <path d="M 860.226871 562.398023 
L 858.814291 566.641208 
L 856.267291 562.965233 
" style="fill:none;stroke:#000000;stroke-linecap:round;"/>
   </g>
   <g id="text_17">
    <g id="patch_20">
     <path d="M 845.256801 562.809966 
L 868.455238 562.809966 
Q 873.455238 562.809966 873.455238 557.809966 
L 873.455238 548.131841 
Q 873.455238 543.131841 868.455238 543.131841 
L 845.256801 543.131841 
Q 840.256801 543.131841 840.256801 548.131841 
L 840.256801 557.809966 
Q 840.256801 562.809966 845.256801 562.809966 
z
" style="fill:#ffff00;opacity:0.5;stroke:#000000;stroke-linejoin:miter;"/>
    </g>
    <!-- r063 -->
    <defs>
     <path d="M 41.109375 46.296875 
Q 39.59375 47.171875 37.8125 47.578125 
Q 36.03125 48 33.890625 48 
Q 26.265625 48 22.1875 43.046875 
Q 18.109375 38.09375 18.109375 28.8125 
L 18.109375 0 
L 9.078125 0 
L 9.078125 54.6875 
L 18.109375 54.6875 
L 18.109375 46.1875 
Q 20.953125 51.171875 25.484375 53.578125 
Q 30.03125 56 36.53125 56 
Q 37.453125 56 38.578125 55.875 
Q 39.703125 55.765625 41.0625 55.515625 
z
" id="DejaVuSans-72"/>
    </defs>
    <g transform="translate(845.256801 555.730279)scale(0.1 -0.1)">
     <use xlink:href="#DejaVuSans-72"/>
     <use x="41.113281" xlink:href="#DejaVuSans-30"/>
     <use x="104.736328" xlink:href="#DejaVuSans-36"/>
     <use x="168.359375" xlink:href="#DejaVuSans-33"/>
    </g>
   </g>
   <g id="patch_21">
    <path d="M 975.91778 633.14898 
Q 976.116587 634.384801 976.137819 634.51678 
" style="fill:none;stroke:#000000;stroke-linecap:round;"/>
    <path d="M 977.477117 630.249898 
L 976.137819 634.51678 
L 973.527892 630.885213 
" style="fill:none;stroke:#000000;stroke-linecap:round;"/>
   </g>
   <g id="text_18">
    <g id="patch_22">
     <path d="M 962.633347 630.676754 
L 985.24116 630.676754 
Q 990.24116 630.676754 990.24116 625.676754 
L 990.24116 615.998629 
Q 990.24116 610.998629 985.24116 610.998629 
L 962.633347 610.998629 
Q 957.633347 610.998629 957.633347 615.998629 
L 957.633347 625.676754 
Q 957.633347 630.676754 962.633347 630.676754 
z
" style="fill:#ffff00;opacity:0.5;stroke:#000000;stroke-linejoin:miter;"/>
    </g>
    <!-- f951 -->
    <defs>
     <path d="M 37.109375 75.984375 
L 37.109375 68.5 
L 28.515625 68.5 
Q 23.6875 68.5 21.796875 66.546875 
Q 19.921875 64.59375 19.921875 59.515625 
L 19.921875 54.6875 
L 34.71875 54.6875 
L 34.71875 47.703125 
L 19.921875 47.703125 
L 19.921875 0 
L 10.890625 0 
L 10.890625 47.703125 
L 2.296875 47.703125 
L 2.296875 54.6875 
L 10.890625 54.6875 
L 10.890625 58.5 
Q 10.890625 67.625 15.140625 71.796875 
Q 19.390625 75.984375 28.609375 75.984375 
z
" id="DejaVuSans-66"/>
    </defs>
    <g transform="translate(962.633347 623.597067)scale(0.1 -0.1)">
     <use xlink:href="#DejaVuSans-66"/>
     <use x="35.205078" xlink:href="#DejaVuSans-39"/>
     <use x="98.828125" xlink:href="#DejaVuSans-35"/>
     <use x="162.451172" xlink:href="#DejaVuSans-31"/>
    </g>
   </g>
   <g id="patch_23">
    <path d="M 1049.333187 675.782653 
Q 1049.446593 677.000272 1049.456317 677.104675 
" style="fill:none;stroke:#000000;stroke-linecap:round;"/>
    <path d="M 1051.076751 672.936439 
L 1049.456317 677.104675 
L 1047.093989 673.307386 
" style="fill:none;stroke:#000000;stroke-linecap:round;"/>
   </g>
   <g id="text_19">
    <g id="patch_24">
     <path d="M 1035.745721 673.291619 
L 1060.623846 673.291619 
Q 1065.623846 673.291619 1065.623846 668.291619 
L 1065.623846 658.613494 
Q 1065.623846 653.613494 1060.623846 653.613494 
L 1035.745721 653.613494 
Q 1030.745721 653.613494 1030.745721 658.613494 
L 1030.745721 668.291619 
Q 1030.745721 673.291619 1035.745721 673.291619 
z
" style="fill:#ffff00;opacity:0.5;stroke:#000000;stroke-linejoin:miter;"/>
    </g>
    <!-- k219 -->
    <defs>
     <path d="M 9.078125 75.984375 
L 18.109375 75.984375 
L 18.109375 31.109375 
L 44.921875 54.6875 
L 56.390625 54.6875 
L 27.390625 29.109375 
L 57.625 0 
L 45.90625 0 
L 18.109375 26.703125 
L 18.109375 0 
L 9.078125 0 
z
" id="DejaVuSans-6b"/>
    </defs>
    <g transform="translate(1035.745721 666.211932)scale(0.1 -0.1)">
     <use xlink:href="#DejaVuSans-6b"/>
     <use x="57.910156" xlink:href="#DejaVuSans-32"/>
     <use x="121.533203" xlink:href="#DejaVuSans-31"/>
     <use x="185.15625" xlink:href="#DejaVuSans-39"/>
    </g>
   </g>
   <g id="patch_25">
    <path d="M 283.856875 335.034967 
Q 284.033035 336.264709 284.050656 336.387714 
" style="fill:none;stroke:#000000;stroke-linecap:round;"/>
    <path d="M 285.463236 332.144529 
L 284.050656 336.387714 
L 281.503656 332.711739 
" style="fill:none;stroke:#000000;stroke-linecap:round;"/>
   </g>
   <g id="text_20">
    <g id="patch_26">
     <path d="M 270.493165 332.556472 
L 293.691603 332.556472 
Q 298.691603 332.556472 298.691603 327.556472 
L 298.691603 317.878347 
Q 298.691603 312.878347 293.691603 312.878347 
L 270.493165 312.878347 
Q 265.493165 312.878347 265.493165 317.878347 
L 265.493165 327.556472 
Q 265.493165 332.556472 270.493165 332.556472 
z
" style="fill:#ffff00;opacity:0.5;stroke:#000000;stroke-linejoin:miter;"/>
    </g>
    <!-- r479 -->
    <defs>
     <path d="M 8.203125 72.90625 
L 55.078125 72.90625 
L 55.078125 68.703125 
L 28.609375 0 
L 18.3125 0 
L 43.21875 64.59375 
L 8.203125 64.59375 
z
" id="DejaVuSans-37"/>
    </defs>
    <g transform="translate(270.493165 325.476785)scale(0.1 -0.1)">
     <use xlink:href="#DejaVuSans-72"/>
     <use x="41.113281" xlink:href="#DejaVuSans-34"/>
     <use x="104.736328" xlink:href="#DejaVuSans-37"/>
     <use x="168.359375" xlink:href="#DejaVuSans-39"/>
    </g>
   </g>
   <g id="patch_27">
    <path d="M 102.87689 290.27183 
Q 102.969901 291.487726 102.977636 291.588845 
" style="fill:none;stroke:#000000;stroke-linecap:round;"/>
    <path d="M 104.666716 287.44795 
L 102.977636 291.588845 
L 100.678368 287.753044 
" style="fill:none;stroke:#000000;stroke-linecap:round;"/>
   </g>
   <g id="text_21">
    <g id="patch_28">
     <path d="M 89.215234 287.774527 
L 114.651171 287.774527 
Q 119.651171 287.774527 119.651171 282.774527 
L 119.651171 273.096402 
Q 119.651171 268.096402 114.651171 268.096402 
L 89.215234 268.096402 
Q 84.215234 268.096402 84.215234 273.096402 
L 84.215234 282.774527 
Q 84.215234 287.774527 89.215234 287.774527 
z
" style="fill:#ffff00;opacity:0.5;stroke:#000000;stroke-linejoin:miter;"/>
    </g>
    <!-- p143 -->
    <defs>
     <path d="M 18.109375 8.203125 
L 18.109375 -20.796875 
L 9.078125 -20.796875 
L 9.078125 54.6875 
L 18.109375 54.6875 
L 18.109375 46.390625 
Q 20.953125 51.265625 25.265625 53.625 
Q 29.59375 56 35.59375 56 
Q 45.5625 56 51.78125 48.09375 
Q 58.015625 40.1875 58.015625 27.296875 
Q 58.015625 14.40625 51.78125 6.484375 
Q 45.5625 -1.421875 35.59375 -1.421875 
Q 29.59375 -1.421875 25.265625 0.953125 
Q 20.953125 3.328125 18.109375 8.203125 
z
M 48.6875 27.296875 
Q 48.6875 37.203125 44.609375 42.84375 
Q 40.53125 48.484375 33.40625 48.484375 
Q 26.265625 48.484375 22.1875 42.84375 
Q 18.109375 37.203125 18.109375 27.296875 
Q 18.109375 17.390625 22.1875 11.75 
Q 26.265625 6.109375 33.40625 6.109375 
Q 40.53125 6.109375 44.609375 11.75 
Q 48.6875 17.390625 48.6875 27.296875 
z
" id="DejaVuSans-70"/>
    </defs>
    <g transform="translate(89.215234 280.69484)scale(0.1 -0.1)">
     <use xlink:href="#DejaVuSans-70"/>
     <use x="63.476562" xlink:href="#DejaVuSans-31"/>
     <use x="127.099609" xlink:href="#DejaVuSans-34"/>
     <use x="190.722656" xlink:href="#DejaVuSans-33"/>
    </g>
   </g>
   <g id="patch_29">
    <path d="M 103.856906 290.642397 
Q 103.949918 291.858292 103.957653 291.959411 
" style="fill:none;stroke:#000000;stroke-linecap:round;"/>
    <path d="M 105.646733 287.818516 
L 103.957653 291.959411 
L 101.658385 288.12361 
" style="fill:none;stroke:#000000;stroke-linecap:round;"/>
   </g>
   <g id="text_22">
    <g id="patch_30">
     <path d="M 90.19525 288.145094 
L 115.631188 288.145094 
Q 120.631188 288.145094 120.631188 283.145094 
L 120.631188 273.466969 
Q 120.631188 268.466969 115.631188 268.466969 
L 90.19525 268.466969 
Q 85.19525 268.466969 85.19525 273.466969 
L 85.19525 283.145094 
Q 85.19525 288.145094 90.19525 288.145094 
z
" style="fill:#ffff00;opacity:0.5;stroke:#000000;stroke-linejoin:miter;"/>
    </g>
    <!-- p018 -->
    <g transform="translate(90.19525 281.065406)scale(0.1 -0.1)">
     <use xlink:href="#DejaVuSans-70"/>
     <use x="63.476562" xlink:href="#DejaVuSans-30"/>
     <use x="127.099609" xlink:href="#DejaVuSans-31"/>
     <use x="190.722656" xlink:href="#DejaVuSans-38"/>
    </g>
   </g>
   <g id="patch_31">
    <path d="M 299.138551 155.646798 
Q 299.239698 156.864417 299.248289 156.96784 
" style="fill:none;stroke:#000000;stroke-linecap:round;"/>
    <path d="M 300.910288 152.816002 
L 299.248289 156.96784 
L 296.924018 153.147138 
" style="fill:none;stroke:#000000;stroke-linecap:round;"/>
   </g>
   <g id="text_23">
    <g id="patch_32">
     <path d="M 285.506487 153.155764 
L 310.722112 153.155764 
Q 315.722112 153.155764 315.722112 148.155764 
L 315.722112 138.477639 
Q 315.722112 133.477639 310.722112 133.477639 
L 285.506487 133.477639 
Q 280.506487 133.477639 280.506487 138.477639 
L 280.506487 148.155764 
Q 280.506487 153.155764 285.506487 153.155764 
z
" style="fill:#ffff00;opacity:0.5;stroke:#000000;stroke-linejoin:miter;"/>
    </g>
    <!-- a305 -->
    <g transform="translate(285.506487 146.076077)scale(0.1 -0.1)">
     <use xlink:href="#DejaVuSans-61"/>
     <use x="61.279297" xlink:href="#DejaVuSans-33"/>
     <use x="124.902344" xlink:href="#DejaVuSans-30"/>
     <use x="188.525391" xlink:href="#DejaVuSans-35"/>
    </g>
   </g>
   <g id="patch_33">
    <path d="M 386.714357 231.541745 
Q 386.807765 232.757641 386.815535 232.858787 
" style="fill:none;stroke:#000000;stroke-linecap:round;"/>
    <path d="M 388.503272 228.717345 
L 386.815535 232.858787 
L 384.515023 229.023733 
" style="fill:none;stroke:#000000;stroke-linecap:round;"/>
   </g>
   <g id="text_24">
    <g id="patch_34">
     <path d="M 373.054144 229.044442 
L 398.479144 229.044442 
Q 403.479144 229.044442 403.479144 224.044442 
L 403.479144 214.366317 
Q 403.479144 209.366317 398.479144 209.366317 
L 373.054144 209.366317 
Q 368.054144 209.366317 368.054144 214.366317 
L 368.054144 224.044442 
Q 368.054144 229.044442 373.054144 229.044442 
z
" style="fill:#ffff00;opacity:0.5;stroke:#000000;stroke-linejoin:miter;"/>
    </g>
    <!-- n922 -->
    <g transform="translate(373.054144 221.964755)scale(0.1 -0.1)">
     <use xlink:href="#DejaVuSans-6e"/>
     <use x="63.378906" xlink:href="#DejaVuSans-39"/>
     <use x="127.001953" xlink:href="#DejaVuSans-32"/>
     <use x="190.625" xlink:href="#DejaVuSans-32"/>
    </g>
   </g>
   <g id="patch_35">
    <path d="M 172.67425 46.30928 
Q 172.901537 47.551193 172.927551 47.693338 
" style="fill:none;stroke:#000000;stroke-linecap:round;"/>
    <path d="M 174.174783 43.398642 
L 172.927551 47.693338 
L 170.240133 44.118735 
" style="fill:none;stroke:#000000;stroke-linecap:round;"/>
   </g>
   <g id="text_25">
    <g id="patch_36">
     <path d="M 159.489456 43.843324 
L 181.355081 43.843324 
Q 186.355081 43.843324 186.355081 38.843324 
L 186.355081 29.165199 
Q 186.355081 24.165199 181.355081 24.165199 
L 159.489456 24.165199 
Q 154.489456 24.165199 154.489456 29.165199 
L 154.489456 38.843324 
Q 154.489456 43.843324 159.489456 43.843324 
z
" style="fill:#ffff00;opacity:0.5;stroke:#000000;stroke-linejoin:miter;"/>
    </g>
    <!-- l138 -->
    <defs>
     <path d="M 9.421875 75.984375 
L 18.40625 75.984375 
L 18.40625 0 
L 9.421875 0 
z
" id="DejaVuSans-6c"/>
    </defs>
    <g transform="translate(159.489456 36.763636)scale(0.1 -0.1)">
     <use xlink:href="#DejaVuSans-6c"/>
     <use x="27.783203" xlink:href="#DejaVuSans-31"/>
     <use x="91.40625" xlink:href="#DejaVuSans-33"/>
     <use x="155.029297" xlink:href="#DejaVuSans-38"/>
    </g>
   </g>
   <g id="patch_37">
    <path d="M 328.348998 181.087618 
Q 328.442406 182.303514 328.450177 182.40466 
" style="fill:none;stroke:#000000;stroke-linecap:round;"/>
    <path d="M 330.137913 178.263218 
L 328.450177 182.40466 
L 326.149664 178.569606 
" style="fill:none;stroke:#000000;stroke-linecap:round;"/>
   </g>
   <g id="text_26">
    <g id="patch_38">
     <path d="M 314.688785 178.590315 
L 340.113785 178.590315 
Q 345.113785 178.590315 345.113785 173.590315 
L 345.113785 163.91219 
Q 345.113785 158.91219 340.113785 158.91219 
L 314.688785 158.91219 
Q 309.688785 158.91219 309.688785 163.91219 
L 309.688785 173.590315 
Q 309.688785 178.590315 314.688785 178.590315 
z
" style="fill:#ffff00;opacity:0.5;stroke:#000000;stroke-linejoin:miter;"/>
    </g>
    <!-- n319 -->
    <g transform="translate(314.688785 171.510628)scale(0.1 -0.1)">
     <use xlink:href="#DejaVuSans-6e"/>
     <use x="63.378906" xlink:href="#DejaVuSans-33"/>
     <use x="127.001953" xlink:href="#DejaVuSans-31"/>
     <use x="190.625" xlink:href="#DejaVuSans-39"/>
    </g>
   </g>
   <g id="patch_39">
    <path d="M 941.766715 326.438994 
Q 941.867862 327.656613 941.876453 327.760036 
" style="fill:none;stroke:#000000;stroke-linecap:round;"/>
    <path d="M 943.538452 323.608198 
L 941.876453 327.760036 
L 939.552182 323.939334 
" style="fill:none;stroke:#000000;stroke-linecap:round;"/>
   </g>
   <g id="text_27">
    <g id="patch_40">
     <path d="M 928.134652 323.94796 
L 953.350277 323.94796 
Q 958.350277 323.94796 958.350277 318.94796 
L 958.350277 309.269835 
Q 958.350277 304.269835 953.350277 304.269835 
L 928.134652 304.269835 
Q 923.134652 304.269835 923.134652 309.269835 
L 923.134652 318.94796 
Q 923.134652 323.94796 928.134652 323.94796 
z
" style="fill:#ffff00;opacity:0.5;stroke:#000000;stroke-linejoin:miter;"/>
    </g>
    <!-- a380 -->
    <g transform="translate(928.134652 316.868273)scale(0.1 -0.1)">
     <use xlink:href="#DejaVuSans-61"/>
     <use x="61.279297" xlink:href="#DejaVuSans-33"/>
     <use x="124.902344" xlink:href="#DejaVuSans-38"/>
     <use x="188.525391" xlink:href="#DejaVuSans-30"/>
    </g>
   </g>
   <g id="patch_41">
    <path d="M 819.064908 356.622117 
Q 819.157919 357.838013 819.165654 357.939132 
" style="fill:none;stroke:#000000;stroke-linecap:round;"/>
    <path d="M 820.854734 353.798237 
L 819.165654 357.939132 
L 816.866387 354.103331 
" style="fill:none;stroke:#000000;stroke-linecap:round;"/>
   </g>
   <g id="text_28">
    <g id="patch_42">
     <path d="M 805.403252 354.124815 
L 830.839189 354.124815 
Q 835.839189 354.124815 835.839189 349.124815 
L 835.839189 339.44669 
Q 835.839189 334.44669 830.839189 334.44669 
L 805.403252 334.44669 
Q 800.403252 334.44669 800.403252 339.44669 
L 800.403252 349.124815 
Q 800.403252 354.124815 805.403252 354.124815 
z
" style="fill:#ffff00;opacity:0.5;stroke:#000000;stroke-linejoin:miter;"/>
    </g>
    <!-- p615 -->
    <g transform="translate(805.403252 347.045127)scale(0.1 -0.1)">
     <use xlink:href="#DejaVuSans-70"/>
     <use x="63.476562" xlink:href="#DejaVuSans-36"/>
     <use x="127.099609" xlink:href="#DejaVuSans-31"/>
     <use x="190.722656" xlink:href="#DejaVuSans-35"/>
    </g>
   </g>
   <g id="patch_43">
    <path d="M 1099.56158 287.753375 
Q 1099.912084 289.036482 1099.967971 289.241071 
" style="fill:none;stroke:#000000;stroke-linecap:round;"/>
    <path d="M 1100.84323 284.855422 
L 1099.967971 289.241071 
L 1096.984607 285.909474 
" style="fill:none;stroke:#000000;stroke-linecap:round;"/>
   </g>
   <g id="text_29">
    <g id="patch_44">
     <path d="M 1086.788643 285.325034 
L 1105.632393 285.325034 
Q 1110.632393 285.325034 1110.632393 280.325034 
L 1110.632393 270.646909 
Q 1110.632393 265.646909 1105.632393 265.646909 
L 1086.788643 265.646909 
Q 1081.788643 265.646909 1081.788643 270.646909 
L 1081.788643 280.325034 
Q 1081.788643 285.325034 1086.788643 285.325034 
z
" style="fill:#ffff00;opacity:0.5;stroke:#000000;stroke-linejoin:miter;"/>
    </g>
    <!-- o80 -->
    <g transform="translate(1086.788643 278.245347)scale(0.1 -0.1)">
     <use xlink:href="#DejaVuSans-6f"/>
     <use x="61.181641" xlink:href="#DejaVuSans-38"/>
     <use x="124.804688" xlink:href="#DejaVuSans-30"/>
    </g>
   </g>
   <g id="patch_45">
    <path d="M 752.613739 751.674879 
Q 752.722491 752.892498 752.731782 752.996516 
" style="fill:none;stroke:#000000;stroke-linecap:round;"/>
    <path d="M 754.368006 748.834453 
L 752.731782 752.996516 
L 750.383865 749.190299 
" style="fill:none;stroke:#000000;stroke-linecap:round;"/>
   </g>
   <g id="text_30">
    <g id="patch_46">
     <path d="M 739.009343 749.183845 
L 764.015593 749.183845 
Q 769.015593 749.183845 769.015593 744.183845 
L 769.015593 734.50572 
Q 769.015593 729.50572 764.015593 729.50572 
L 739.009343 729.50572 
Q 734.009343 729.50572 734.009343 734.50572 
L 734.009343 744.183845 
Q 734.009343 749.183845 739.009343 749.183845 
z
" style="fill:#ffff00;opacity:0.5;stroke:#000000;stroke-linejoin:miter;"/>
    </g>
    <!-- y842 -->
    <defs>
     <path d="M 32.171875 -5.078125 
Q 28.375 -14.84375 24.75 -17.8125 
Q 21.140625 -20.796875 15.09375 -20.796875 
L 7.90625 -20.796875 
L 7.90625 -13.28125 
L 13.1875 -13.28125 
Q 16.890625 -13.28125 18.9375 -11.515625 
Q 21 -9.765625 23.484375 -3.21875 
L 25.09375 0.875 
L 2.984375 54.6875 
L 12.5 54.6875 
L 29.59375 11.921875 
L 46.6875 54.6875 
L 56.203125 54.6875 
z
" id="DejaVuSans-79"/>
    </defs>
    <g transform="translate(739.009343 742.104158)scale(0.1 -0.1)">
     <use xlink:href="#DejaVuSans-79"/>
     <use x="59.179688" xlink:href="#DejaVuSans-38"/>
     <use x="122.802734" xlink:href="#DejaVuSans-34"/>
     <use x="186.425781" xlink:href="#DejaVuSans-32"/>
    </g>
   </g>
   <g id="patch_47">
    <path d="M 671.676492 579.86924 
Q 672.040064 581.154138 672.09923 581.363239 
" style="fill:none;stroke:#000000;stroke-linecap:round;"/>
    <path d="M 672.934603 576.969818 
L 672.09923 581.363239 
L 669.085717 578.058888 
" style="fill:none;stroke:#000000;stroke-linecap:round;"/>
   </g>
   <g id="text_31">
    <g id="patch_48">
     <path d="M 658.949303 577.447168 
L 677.464928 577.447168 
Q 682.464928 577.447168 682.464928 572.447168 
L 682.464928 562.769043 
Q 682.464928 557.769043 677.464928 557.769043 
L 658.949303 557.769043 
Q 653.949303 557.769043 653.949303 562.769043 
L 653.949303 572.447168 
Q 653.949303 577.447168 658.949303 577.447168 
z
" style="fill:#ffff00;opacity:0.5;stroke:#000000;stroke-linejoin:miter;"/>
    </g>
    <!-- k37 -->
    <g transform="translate(658.949303 570.367481)scale(0.1 -0.1)">
     <use xlink:href="#DejaVuSans-6b"/>
     <use x="57.910156" xlink:href="#DejaVuSans-33"/>
     <use x="121.533203" xlink:href="#DejaVuSans-37"/>
    </g>
   </g>
   <g id="patch_49">
    <path d="M 693.604706 625.009994 
Q 693.705853 626.227613 693.714444 626.331036 
" style="fill:none;stroke:#000000;stroke-linecap:round;"/>
    <path d="M 695.376443 622.179198 
L 693.714444 626.331036 
L 691.390173 622.510334 
" style="fill:none;stroke:#000000;stroke-linecap:round;"/>
   </g>
   <g id="text_32">
    <g id="patch_50">
     <path d="M 679.972643 622.518961 
L 705.188268 622.518961 
Q 710.188268 622.518961 710.188268 617.518961 
L 710.188268 607.840836 
Q 710.188268 602.840836 705.188268 602.840836 
L 679.972643 602.840836 
Q 674.972643 602.840836 674.972643 607.840836 
L 674.972643 617.518961 
Q 674.972643 622.518961 679.972643 622.518961 
z
" style="fill:#ffff00;opacity:0.5;stroke:#000000;stroke-linejoin:miter;"/>
    </g>
    <!-- a506 -->
    <g transform="translate(679.972643 615.439273)scale(0.1 -0.1)">
     <use xlink:href="#DejaVuSans-61"/>
     <use x="61.279297" xlink:href="#DejaVuSans-35"/>
     <use x="124.902344" xlink:href="#DejaVuSans-30"/>
     <use x="188.525391" xlink:href="#DejaVuSans-36"/>
    </g>
   </g>
   <g id="patch_51">
    <path d="M 947.964599 97.366054 
Q 948.191886 98.607967 948.2179 98.750112 
" style="fill:none;stroke:#000000;stroke-linecap:round;"/>
    <path d="M 949.465132 94.455416 
L 948.2179 98.750112 
L 945.530482 95.175509 
" style="fill:none;stroke:#000000;stroke-linecap:round;"/>
   </g>
   <g id="text_33">
    <g id="patch_52">
     <path d="M 934.779805 94.900098 
L 956.64543 94.900098 
Q 961.64543 94.900098 961.64543 89.900098 
L 961.64543 80.221973 
Q 961.64543 75.221973 956.64543 75.221973 
L 934.779805 75.221973 
Q 929.779805 75.221973 929.779805 80.221973 
L 929.779805 89.900098 
Q 929.779805 94.900098 934.779805 94.900098 
z
" style="fill:#ffff00;opacity:0.5;stroke:#000000;stroke-linejoin:miter;"/>
    </g>
    <!-- i241 -->
    <defs>
     <path d="M 9.421875 54.6875 
L 18.40625 54.6875 
L 18.40625 0 
L 9.421875 0 
z
M 9.421875 75.984375 
L 18.40625 75.984375 
L 18.40625 64.59375 
L 9.421875 64.59375 
z
" id="DejaVuSans-69"/>
    </defs>
    <g transform="translate(934.779805 87.820411)scale(0.1 -0.1)">
     <use xlink:href="#DejaVuSans-69"/>
     <use x="27.783203" xlink:href="#DejaVuSans-32"/>
     <use x="91.40625" xlink:href="#DejaVuSans-34"/>
     <use x="155.029297" xlink:href="#DejaVuSans-31"/>
    </g>
   </g>
   <g id="patch_53">
    <path d="M 805.793811 223.748074 
Q 805.887219 224.96397 805.894989 225.065116 
" style="fill:none;stroke:#000000;stroke-linecap:round;"/>
    <path d="M 807.582726 220.923674 
L 805.894989 225.065116 
L 803.594477 221.230062 
" style="fill:none;stroke:#000000;stroke-linecap:round;"/>
   </g>
   <g id="text_34">
    <g id="patch_54">
     <path d="M 792.133598 221.250771 
L 817.558598 221.250771 
Q 822.558598 221.250771 822.558598 216.250771 
L 822.558598 206.572646 
Q 822.558598 201.572646 817.558598 201.572646 
L 792.133598 201.572646 
Q 787.133598 201.572646 787.133598 206.572646 
L 787.133598 216.250771 
Q 787.133598 221.250771 792.133598 221.250771 
z
" style="fill:#ffff00;opacity:0.5;stroke:#000000;stroke-linejoin:miter;"/>
    </g>
    <!-- n812 -->
    <g transform="translate(792.133598 214.171084)scale(0.1 -0.1)">
     <use xlink:href="#DejaVuSans-6e"/>
     <use x="63.378906" xlink:href="#DejaVuSans-38"/>
     <use x="127.001953" xlink:href="#DejaVuSans-31"/>
     <use x="190.625" xlink:href="#DejaVuSans-32"/>
    </g>
   </g>
   <g id="patch_55">
    <path d="M 933.555786 110.361123 
Q 933.656933 111.578742 933.665524 111.682165 
" style="fill:none;stroke:#000000;stroke-linecap:round;"/>
    <path d="M 935.327523 107.530327 
L 933.665524 111.682165 
L 931.341253 107.861463 
" style="fill:none;stroke:#000000;stroke-linecap:round;"/>
   </g>
   <g id="text_35">
    <g id="patch_56">
     <path d="M 919.923723 107.870089 
L 945.139348 107.870089 
Q 950.139348 107.870089 950.139348 102.870089 
L 950.139348 93.191964 
Q 950.139348 88.191964 945.139348 88.191964 
L 919.923723 88.191964 
Q 914.923723 88.191964 914.923723 93.191964 
L 914.923723 102.870089 
Q 914.923723 107.870089 919.923723 107.870089 
z
" style="fill:#ffff00;opacity:0.5;stroke:#000000;stroke-linejoin:miter;"/>
    </g>
    <!-- a320 -->
    <g transform="translate(919.923723 100.790402)scale(0.1 -0.1)">
     <use xlink:href="#DejaVuSans-61"/>
     <use x="61.279297" xlink:href="#DejaVuSans-33"/>
     <use x="124.902344" xlink:href="#DejaVuSans-32"/>
     <use x="188.525391" xlink:href="#DejaVuSans-30"/>
    </g>
   </g>
   <g id="patch_57">
    <path d="M 569.30838 322.985059 
Q 569.695903 324.280546 569.763013 324.504895 
" style="fill:none;stroke:#000000;stroke-linecap:round;"/>
    <path d="M 570.53278 320.099505 
L 569.763013 324.504895 
L 566.700561 321.245848 
" style="fill:none;stroke:#000000;stroke-linecap:round;"/>
   </g>
   <g id="text_36">
    <g id="patch_58">
     <path d="M 556.655828 320.569258 
L 574.629265 320.569258 
Q 579.629265 320.569258 579.629265 315.569258 
L 579.629265 305.891133 
Q 579.629265 300.891133 574.629265 300.891133 
L 556.655828 300.891133 
Q 551.655828 300.891133 551.655828 305.891133 
L 551.655828 315.569258 
Q 551.655828 320.569258 556.655828 320.569258 
z
" style="fill:#ffff00;opacity:0.5;stroke:#000000;stroke-linejoin:miter;"/>
    </g>
    <!-- z21 -->
    <defs>
     <path d="M 5.515625 54.6875 
L 48.1875 54.6875 
L 48.1875 46.484375 
L 14.40625 7.171875 
L 48.1875 7.171875 
L 48.1875 0 
L 4.296875 0 
L 4.296875 8.203125 
L 38.09375 47.515625 
L 5.515625 47.515625 
z
" id="DejaVuSans-7a"/>
    </defs>
    <g transform="translate(556.655828 313.48957)scale(0.1 -0.1)">
     <use xlink:href="#DejaVuSans-7a"/>
     <use x="52.490234" xlink:href="#DejaVuSans-32"/>
     <use x="116.113281" xlink:href="#DejaVuSans-31"/>
    </g>
   </g>
   <g id="patch_59">
    <path d="M 504.431996 78.612367 
Q 504.532235 79.829986 504.540743 79.93334 
" style="fill:none;stroke:#000000;stroke-linecap:round;"/>
    <path d="M 506.205817 75.782735 
L 504.540743 79.93334 
L 502.219303 76.110918 
" style="fill:none;stroke:#000000;stroke-linecap:round;"/>
   </g>
   <g id="text_37">
    <g id="patch_60">
     <path d="M 490.796629 76.121333 
L 516.037254 76.121333 
Q 521.037254 76.121333 521.037254 71.121333 
L 521.037254 61.443208 
Q 521.037254 56.443208 516.037254 56.443208 
L 490.796629 56.443208 
Q 485.796629 56.443208 485.796629 61.443208 
L 485.796629 71.121333 
Q 485.796629 76.121333 490.796629 76.121333 
z
" style="fill:#ffff00;opacity:0.5;stroke:#000000;stroke-linejoin:miter;"/>
    </g>
    <!-- e200 -->
    <g transform="translate(490.796629 69.041646)scale(0.1 -0.1)">
     <use xlink:href="#DejaVuSans-65"/>
     <use x="61.523438" xlink:href="#DejaVuSans-32"/>
     <use x="125.146484" xlink:href="#DejaVuSans-30"/>
     <use x="188.769531" xlink:href="#DejaVuSans-30"/>
    </g>
   </g>
   <g id="patch_61">
    <path d="M 526.005824 158.188553 
Q 526.099232 159.404449 526.107002 159.505595 
" style="fill:none;stroke:#000000;stroke-linecap:round;"/>
    <path d="M 527.794739 155.364153 
L 526.107002 159.505595 
L 523.80649 155.670541 
" style="fill:none;stroke:#000000;stroke-linecap:round;"/>
   </g>
   <g id="text_38">
    <g id="patch_62">
     <path d="M 512.345611 155.69125 
L 537.770611 155.69125 
Q 542.770611 155.69125 542.770611 150.69125 
L 542.770611 141.013125 
Q 542.770611 136.013125 537.770611 136.013125 
L 512.345611 136.013125 
Q 507.345611 136.013125 507.345611 141.013125 
L 507.345611 150.69125 
Q 507.345611 155.69125 512.345611 155.69125 
z
" style="fill:#ffff00;opacity:0.5;stroke:#000000;stroke-linejoin:miter;"/>
    </g>
    <!-- n828 -->
    <g transform="translate(512.345611 148.611563)scale(0.1 -0.1)">
     <use xlink:href="#DejaVuSans-6e"/>
     <use x="63.378906" xlink:href="#DejaVuSans-38"/>
     <use x="127.001953" xlink:href="#DejaVuSans-32"/>
     <use x="190.625" xlink:href="#DejaVuSans-38"/>
    </g>
   </g>
   <g id="patch_63">
    <path d="M 241.778225 316.316667 
Q 241.871236 317.532563 241.878972 317.633681 
" style="fill:none;stroke:#000000;stroke-linecap:round;"/>
    <path d="M 243.568051 313.492786 
L 241.878972 317.633681 
L 239.579704 313.797881 
" style="fill:none;stroke:#000000;stroke-linecap:round;"/>
   </g>
   <g id="text_39">
    <g id="patch_64">
     <path d="M 228.116569 313.819364 
L 253.552507 313.819364 
Q 258.552507 313.819364 258.552507 308.819364 
L 258.552507 299.141239 
Q 258.552507 294.141239 253.552507 294.141239 
L 228.116569 294.141239 
Q 223.116569 294.141239 223.116569 299.141239 
L 223.116569 308.819364 
Q 223.116569 313.819364 228.116569 313.819364 
z
" style="fill:#ffff00;opacity:0.5;stroke:#000000;stroke-linejoin:miter;"/>
    </g>
    <!-- d213 -->
    <defs>
     <path d="M 45.40625 46.390625 
L 45.40625 75.984375 
L 54.390625 75.984375 
L 54.390625 0 
L 45.40625 0 
L 45.40625 8.203125 
Q 42.578125 3.328125 38.25 0.953125 
Q 33.9375 -1.421875 27.875 -1.421875 
Q 17.96875 -1.421875 11.734375 6.484375 
Q 5.515625 14.40625 5.515625 27.296875 
Q 5.515625 40.1875 11.734375 48.09375 
Q 17.96875 56 27.875 56 
Q 33.9375 56 38.25 53.625 
Q 42.578125 51.265625 45.40625 46.390625 
z
M 14.796875 27.296875 
Q 14.796875 17.390625 18.875 11.75 
Q 22.953125 6.109375 30.078125 6.109375 
Q 37.203125 6.109375 41.296875 11.75 
Q 45.40625 17.390625 45.40625 27.296875 
Q 45.40625 37.203125 41.296875 42.84375 
Q 37.203125 48.484375 30.078125 48.484375 
Q 22.953125 48.484375 18.875 42.84375 
Q 14.796875 37.203125 14.796875 27.296875 
z
" id="DejaVuSans-64"/>
    </defs>
    <g transform="translate(228.116569 306.739676)scale(0.1 -0.1)">
     <use xlink:href="#DejaVuSans-64"/>
     <use x="63.476562" xlink:href="#DejaVuSans-32"/>
     <use x="127.099609" xlink:href="#DejaVuSans-31"/>
     <use x="190.722656" xlink:href="#DejaVuSans-33"/>
    </g>
   </g>
   <g id="patch_65">
    <path d="M 210.686952 307.862938 
Q 210.811414 309.084882 210.822584 309.194548 
" style="fill:none;stroke:#000000;stroke-linecap:round;"/>
    <path d="M 212.406965 305.012475 
L 210.822584 309.194548 
L 208.427554 305.417799 
" style="fill:none;stroke:#000000;stroke-linecap:round;"/>
   </g>
   <g id="text_40">
    <g id="patch_66">
     <path d="M 197.138098 305.371904 
L 221.724035 305.371904 
Q 226.724035 305.371904 226.724035 300.371904 
L 226.724035 290.693779 
Q 226.724035 285.693779 221.724035 285.693779 
L 197.138098 285.693779 
Q 192.138098 285.693779 192.138098 290.693779 
L 192.138098 300.371904 
Q 192.138098 305.371904 197.138098 305.371904 
z
" style="fill:#ffff00;opacity:0.5;stroke:#000000;stroke-linejoin:miter;"/>
    </g>
    <!-- c161 -->
    <g transform="translate(197.138098 298.292217)scale(0.1 -0.1)">
     <use xlink:href="#DejaVuSans-63"/>
     <use x="54.980469" xlink:href="#DejaVuSans-31"/>
     <use x="118.603516" xlink:href="#DejaVuSans-36"/>
     <use x="182.226562" xlink:href="#DejaVuSans-31"/>
    </g>
   </g>
   <g id="patch_67">
    <path d="M 319.149105 337.328742 
Q 319.376392 338.570655 319.402406 338.7128 
" style="fill:none;stroke:#000000;stroke-linecap:round;"/>
    <path d="M 320.649638 334.418104 
L 319.402406 338.7128 
L 316.714988 335.138197 
" style="fill:none;stroke:#000000;stroke-linecap:round;"/>
   </g>
   <g id="text_41">
    <g id="patch_68">
     <path d="M 305.964311 334.862786 
L 327.829936 334.862786 
Q 332.829936 334.862786 332.829936 329.862786 
L 332.829936 320.184661 
Q 332.829936 315.184661 327.829936 315.184661 
L 305.964311 315.184661 
Q 300.964311 315.184661 300.964311 320.184661 
L 300.964311 329.862786 
Q 300.964311 334.862786 305.964311 334.862786 
z
" style="fill:#ffff00;opacity:0.5;stroke:#000000;stroke-linejoin:miter;"/>
    </g>
    <!-- l131 -->
    <g transform="translate(305.964311 327.783098)scale(0.1 -0.1)">
     <use xlink:href="#DejaVuSans-6c"/>
     <use x="27.783203" xlink:href="#DejaVuSans-31"/>
     <use x="91.40625" xlink:href="#DejaVuSans-33"/>
     <use x="155.029297" xlink:href="#DejaVuSans-31"/>
    </g>
   </g>
   <g id="patch_69">
    <path d="M 1010.078598 497.349311 
Q 1010.305884 498.591224 1010.331899 498.733368 
" style="fill:none;stroke:#000000;stroke-linecap:round;"/>
    <path d="M 1011.57913 494.438673 
L 1010.331899 498.733368 
L 1007.644481 495.158765 
" style="fill:none;stroke:#000000;stroke-linecap:round;"/>
   </g>
   <g id="text_42">
    <g id="patch_70">
     <path d="M 996.893804 494.883354 
L 1018.759429 494.883354 
Q 1023.759429 494.883354 1023.759429 489.883354 
L 1023.759429 480.205229 
Q 1023.759429 475.205229 1018.759429 475.205229 
L 996.893804 475.205229 
Q 991.893804 475.205229 991.893804 480.205229 
L 991.893804 489.883354 
Q 991.893804 494.883354 996.893804 494.883354 
z
" style="fill:#ffff00;opacity:0.5;stroke:#000000;stroke-linejoin:miter;"/>
    </g>
    <!-- i745 -->
    <g transform="translate(996.893804 487.803667)scale(0.1 -0.1)">
     <use xlink:href="#DejaVuSans-69"/>
     <use x="27.783203" xlink:href="#DejaVuSans-37"/>
     <use x="91.40625" xlink:href="#DejaVuSans-34"/>
     <use x="155.029297" xlink:href="#DejaVuSans-35"/>
    </g>
   </g>
   <g id="patch_71">
    <path d="M 820.263308 458.116351 
Q 820.356716 459.332246 820.364487 459.433393 
" style="fill:none;stroke:#000000;stroke-linecap:round;"/>
    <path d="M 822.052223 455.29195 
L 820.364487 459.433393 
L 818.063975 455.598338 
" style="fill:none;stroke:#000000;stroke-linecap:round;"/>
   </g>
   <g id="text_43">
    <g id="patch_72">
     <path d="M 806.603095 455.619048 
L 832.028095 455.619048 
Q 837.028095 455.619048 837.028095 450.619048 
L 837.028095 440.940923 
Q 837.028095 435.940923 832.028095 435.940923 
L 806.603095 435.940923 
Q 801.603095 435.940923 801.603095 440.940923 
L 801.603095 450.619048 
Q 801.603095 455.619048 806.603095 455.619048 
z
" style="fill:#ffff00;opacity:0.5;stroke:#000000;stroke-linejoin:miter;"/>
    </g>
    <!-- n521 -->
    <g transform="translate(806.603095 448.53936)scale(0.1 -0.1)">
     <use xlink:href="#DejaVuSans-6e"/>
     <use x="63.378906" xlink:href="#DejaVuSans-35"/>
     <use x="127.001953" xlink:href="#DejaVuSans-32"/>
     <use x="190.625" xlink:href="#DejaVuSans-31"/>
    </g>
   </g>
   <g id="patch_73">
    <path d="M 1022.586735 499.650587 
Q 1022.688223 500.868206 1022.696845 500.971655 
" style="fill:none;stroke:#000000;stroke-linecap:round;"/>
    <path d="M 1024.35769 496.819355 
L 1022.696845 500.971655 
L 1020.371512 497.151599 
" style="fill:none;stroke:#000000;stroke-linecap:round;"/>
   </g>
   <g id="text_44">
    <g id="patch_74">
     <path d="M 1008.955911 497.159554 
L 1034.162161 497.159554 
Q 1039.162161 497.159554 1039.162161 492.159554 
L 1039.162161 482.481429 
Q 1039.162161 477.481429 1034.162161 477.481429 
L 1008.955911 477.481429 
Q 1003.955911 477.481429 1003.955911 482.481429 
L 1003.955911 492.159554 
Q 1003.955911 497.159554 1008.955911 497.159554 
z
" style="fill:#ffff00;opacity:0.5;stroke:#000000;stroke-linejoin:miter;"/>
    </g>
    <!-- o114 -->
    <g transform="translate(1008.955911 490.079866)scale(0.1 -0.1)">
     <use xlink:href="#DejaVuSans-6f"/>
     <use x="61.181641" xlink:href="#DejaVuSans-31"/>
     <use x="124.804688" xlink:href="#DejaVuSans-31"/>
     <use x="188.427734" xlink:href="#DejaVuSans-34"/>
    </g>
   </g>
   <g id="patch_75">
    <path d="M 270.022913 165.177641 
Q 270.115924 166.393537 270.12366 166.494656 
" style="fill:none;stroke:#000000;stroke-linecap:round;"/>
    <path d="M 271.812739 162.353761 
L 270.12366 166.494656 
L 267.824392 162.658855 
" style="fill:none;stroke:#000000;stroke-linecap:round;"/>
   </g>
   <g id="text_45">
    <g id="patch_76">
     <path d="M 256.361257 162.680338 
L 281.797195 162.680338 
Q 286.797195 162.680338 286.797195 157.680338 
L 286.797195 148.002213 
Q 286.797195 143.002213 281.797195 143.002213 
L 256.361257 143.002213 
Q 251.361257 143.002213 251.361257 148.002213 
L 251.361257 157.680338 
Q 251.361257 162.680338 256.361257 162.680338 
z
" style="fill:#ffff00;opacity:0.5;stroke:#000000;stroke-linejoin:miter;"/>
    </g>
    <!-- d290 -->
    <g transform="translate(256.361257 155.600651)scale(0.1 -0.1)">
     <use xlink:href="#DejaVuSans-64"/>
     <use x="63.476562" xlink:href="#DejaVuSans-32"/>
     <use x="127.099609" xlink:href="#DejaVuSans-39"/>
     <use x="190.722656" xlink:href="#DejaVuSans-30"/>
    </g>
   </g>
   <g id="patch_77">
    <path d="M 141.514273 67.034081 
Q 141.607285 68.249977 141.61502 68.351095 
" style="fill:none;stroke:#000000;stroke-linecap:round;"/>
    <path d="M 143.3041 64.210201 
L 141.61502 68.351095 
L 139.315752 64.515295 
" style="fill:none;stroke:#000000;stroke-linecap:round;"/>
   </g>
   <g id="text_46">
    <g id="patch_78">
     <path d="M 127.852617 64.536778 
L 153.288555 64.536778 
Q 158.288555 64.536778 158.288555 59.536778 
L 158.288555 49.858653 
Q 158.288555 44.858653 153.288555 44.858653 
L 127.852617 44.858653 
Q 122.852617 44.858653 122.852617 49.858653 
L 122.852617 59.536778 
Q 122.852617 64.536778 127.852617 64.536778 
z
" style="fill:#ffff00;opacity:0.5;stroke:#000000;stroke-linejoin:miter;"/>
    </g>
    <!-- d137 -->
    <g transform="translate(127.852617 57.457091)scale(0.1 -0.1)">
     <use xlink:href="#DejaVuSans-64"/>
     <use x="63.476562" xlink:href="#DejaVuSans-31"/>
     <use x="127.099609" xlink:href="#DejaVuSans-33"/>
     <use x="190.722656" xlink:href="#DejaVuSans-37"/>
    </g>
   </g>
   <g id="patch_79">
    <path d="M 149.700426 73.742643 
Q 149.876587 74.972384 149.894207 75.09539 
" style="fill:none;stroke:#000000;stroke-linecap:round;"/>
    <path d="M 151.306787 70.852205 
L 149.894207 75.09539 
L 147.347207 71.419415 
" style="fill:none;stroke:#000000;stroke-linecap:round;"/>
   </g>
   <g id="text_47">
    <g id="patch_80">
     <path d="M 136.336717 71.264148 
L 159.535154 71.264148 
Q 164.535154 71.264148 164.535154 66.264148 
L 164.535154 56.586023 
Q 164.535154 51.586023 159.535154 51.586023 
L 136.336717 51.586023 
Q 131.336717 51.586023 131.336717 56.586023 
L 131.336717 66.264148 
Q 131.336717 71.264148 136.336717 71.264148 
z
" style="fill:#ffff00;opacity:0.5;stroke:#000000;stroke-linejoin:miter;"/>
    </g>
    <!-- r483 -->
    <g transform="translate(136.336717 64.184461)scale(0.1 -0.1)">
     <use xlink:href="#DejaVuSans-72"/>
     <use x="41.113281" xlink:href="#DejaVuSans-34"/>
     <use x="104.736328" xlink:href="#DejaVuSans-38"/>
     <use x="168.359375" xlink:href="#DejaVuSans-33"/>
    </g>
   </g>
   <g id="patch_81">
    <path d="M 436.684694 314.943527 
Q 436.777706 316.159423 436.785441 316.260541 
" style="fill:none;stroke:#000000;stroke-linecap:round;"/>
    <path d="M 438.47452 312.119647 
L 436.785441 316.260541 
L 434.486173 312.424741 
" style="fill:none;stroke:#000000;stroke-linecap:round;"/>
   </g>
   <g id="text_48">
    <g id="patch_82">
     <path d="M 423.023038 312.446224 
L 448.458976 312.446224 
Q 453.458976 312.446224 453.458976 307.446224 
L 453.458976 297.768099 
Q 453.458976 292.768099 448.458976 292.768099 
L 423.023038 292.768099 
Q 418.023038 292.768099 418.023038 297.768099 
L 418.023038 307.446224 
Q 418.023038 312.446224 423.023038 312.446224 
z
" style="fill:#ffff00;opacity:0.5;stroke:#000000;stroke-linejoin:miter;"/>
    </g>
    <!-- p371 -->
    <g transform="translate(423.023038 305.366537)scale(0.1 -0.1)">
     <use xlink:href="#DejaVuSans-70"/>
     <use x="63.476562" xlink:href="#DejaVuSans-33"/>
     <use x="127.099609" xlink:href="#DejaVuSans-37"/>
     <use x="190.722656" xlink:href="#DejaVuSans-31"/>
    </g>
   </g>
   <g id="patch_83">
    <path d="M 360.98432 268.284085 
Q 361.077332 269.499981 361.085067 269.601099 
" style="fill:none;stroke:#000000;stroke-linecap:round;"/>
    <path d="M 362.774147 265.460204 
L 361.085067 269.601099 
L 358.785799 265.765299 
" style="fill:none;stroke:#000000;stroke-linecap:round;"/>
   </g>
   <g id="text_49">
    <g id="patch_84">
     <path d="M 347.322664 265.786782 
L 372.758602 265.786782 
Q 377.758602 265.786782 377.758602 260.786782 
L 377.758602 251.108657 
Q 377.758602 246.108657 372.758602 246.108657 
L 347.322664 246.108657 
Q 342.322664 246.108657 342.322664 251.108657 
L 342.322664 260.786782 
Q 342.322664 265.786782 347.322664 265.786782 
z
" style="fill:#ffff00;opacity:0.5;stroke:#000000;stroke-linejoin:miter;"/>
    </g>
    <!-- p148 -->
    <g transform="translate(347.322664 258.707094)scale(0.1 -0.1)">
     <use xlink:href="#DejaVuSans-70"/>
     <use x="63.476562" xlink:href="#DejaVuSans-31"/>
     <use x="127.099609" xlink:href="#DejaVuSans-34"/>
     <use x="190.722656" xlink:href="#DejaVuSans-38"/>
    </g>
   </g>
   <g id="patch_85">
    <path d="M 309.588794 236.827583 
Q 309.689032 238.045202 309.697541 238.148557 
" style="fill:none;stroke:#000000;stroke-linecap:round;"/>
    <path d="M 311.362615 233.997951 
L 309.697541 238.148557 
L 307.3761 234.326134 
" style="fill:none;stroke:#000000;stroke-linecap:round;"/>
   </g>
   <g id="text_50">
    <g id="patch_86">
     <path d="M 295.953427 234.336549 
L 321.194052 234.336549 
Q 326.194052 234.336549 326.194052 229.336549 
L 326.194052 219.658424 
Q 326.194052 214.658424 321.194052 214.658424 
L 295.953427 214.658424 
Q 290.953427 214.658424 290.953427 219.658424 
L 290.953427 229.336549 
Q 290.953427 234.336549 295.953427 234.336549 
z
" style="fill:#ffff00;opacity:0.5;stroke:#000000;stroke-linejoin:miter;"/>
    </g>
    <!-- e610 -->
    <g transform="translate(295.953427 227.256862)scale(0.1 -0.1)">
     <use xlink:href="#DejaVuSans-65"/>
     <use x="61.523438" xlink:href="#DejaVuSans-36"/>
     <use x="125.146484" xlink:href="#DejaVuSans-31"/>
     <use x="188.769531" xlink:href="#DejaVuSans-30"/>
    </g>
   </g>
   <g id="patch_87">
    <path d="M 91.870298 102.807033 
Q 91.963706 104.022928 91.971476 104.124075 
" style="fill:none;stroke:#000000;stroke-linecap:round;"/>
    <path d="M 93.659213 99.982632 
L 91.971476 104.124075 
L 89.670964 100.28902 
" style="fill:none;stroke:#000000;stroke-linecap:round;"/>
   </g>
   <g id="text_51">
    <g id="patch_88">
     <path d="M 78.210085 100.30973 
L 103.635085 100.30973 
Q 108.635085 100.30973 108.635085 95.30973 
L 108.635085 85.631605 
Q 108.635085 80.631605 103.635085 80.631605 
L 78.210085 80.631605 
Q 73.210085 80.631605 73.210085 85.631605 
L 73.210085 95.30973 
Q 73.210085 100.30973 78.210085 100.30973 
z
" style="fill:#ffff00;opacity:0.5;stroke:#000000;stroke-linejoin:miter;"/>
    </g>
    <!-- n503 -->
    <g transform="translate(78.210085 93.230042)scale(0.1 -0.1)">
     <use xlink:href="#DejaVuSans-6e"/>
     <use x="63.378906" xlink:href="#DejaVuSans-35"/>
     <use x="127.001953" xlink:href="#DejaVuSans-30"/>
     <use x="190.625" xlink:href="#DejaVuSans-33"/>
    </g>
   </g>
   <g id="patch_89">
    <path d="M 489.253748 695.341325 
Q 489.69145 696.655473 489.775851 696.908876 
" style="fill:none;stroke:#000000;stroke-linecap:round;"/>
    <path d="M 490.409359 692.481838 
L 489.775851 696.908876 
L 486.614325 693.745847 
" style="fill:none;stroke:#000000;stroke-linecap:round;"/>
   </g>
   <g id="text_52">
    <g id="patch_90">
     <path d="M 476.760326 692.944331 
L 493.596264 692.944331 
Q 498.596264 692.944331 498.596264 687.944331 
L 498.596264 678.266206 
Q 498.596264 673.266206 493.596264 673.266206 
L 476.760326 673.266206 
Q 471.760326 673.266206 471.760326 678.266206 
L 471.760326 687.944331 
Q 471.760326 692.944331 476.760326 692.944331 
z
" style="fill:#ffff00;opacity:0.5;stroke:#000000;stroke-linejoin:miter;"/>
    </g>
    <!-- r75 -->
    <g transform="translate(476.760326 685.864644)scale(0.1 -0.1)">
     <use xlink:href="#DejaVuSans-72"/>
     <use x="41.113281" xlink:href="#DejaVuSans-37"/>
     <use x="104.736328" xlink:href="#DejaVuSans-35"/>
    </g>
   </g>
   <g id="patch_91">
    <path d="M 574.693624 462.397353 
Q 575.033692 463.674289 575.086038 463.870847 
" style="fill:none;stroke:#000000;stroke-linecap:round;"/>
    <path d="M 575.989294 459.490877 
L 575.086038 463.870847 
L 572.124016 460.520261 
" style="fill:none;stroke:#000000;stroke-linecap:round;"/>
   </g>
   <g id="text_53">
    <g id="patch_92">
     <path d="M 561.888236 459.962743 
L 580.961674 459.962743 
Q 585.961674 459.962743 585.961674 454.962743 
L 585.961674 445.284618 
Q 585.961674 440.284618 580.961674 440.284618 
L 561.888236 440.284618 
Q 556.888236 440.284618 556.888236 445.284618 
L 556.888236 454.962743 
Q 556.888236 459.962743 561.888236 459.962743 
z
" style="fill:#ffff00;opacity:0.5;stroke:#000000;stroke-linejoin:miter;"/>
    </g>
    <!-- b91 -->
    <defs>
     <path d="M 48.6875 27.296875 
Q 48.6875 37.203125 44.609375 42.84375 
Q 40.53125 48.484375 33.40625 48.484375 
Q 26.265625 48.484375 22.1875 42.84375 
Q 18.109375 37.203125 18.109375 27.296875 
Q 18.109375 17.390625 22.1875 11.75 
Q 26.265625 6.109375 33.40625 6.109375 
Q 40.53125 6.109375 44.609375 11.75 
Q 48.6875 17.390625 48.6875 27.296875 
z
M 18.109375 46.390625 
Q 20.953125 51.265625 25.265625 53.625 
Q 29.59375 56 35.59375 56 
Q 45.5625 56 51.78125 48.09375 
Q 58.015625 40.1875 58.015625 27.296875 
Q 58.015625 14.40625 51.78125 6.484375 
Q 45.5625 -1.421875 35.59375 -1.421875 
Q 29.59375 -1.421875 25.265625 0.953125 
Q 20.953125 3.328125 18.109375 8.203125 
L 18.109375 0 
L 9.078125 0 
L 9.078125 75.984375 
L 18.109375 75.984375 
z
" id="DejaVuSans-62"/>
    </defs>
    <g transform="translate(561.888236 452.883056)scale(0.1 -0.1)">
     <use xlink:href="#DejaVuSans-62"/>
     <use x="63.476562" xlink:href="#DejaVuSans-39"/>
     <use x="127.099609" xlink:href="#DejaVuSans-31"/>
    </g>
   </g>
   <g id="patch_93">
    <path d="M 503.985148 658.123715 
Q 504.078159 659.339611 504.085895 659.440729 
" style="fill:none;stroke:#000000;stroke-linecap:round;"/>
    <path d="M 505.774974 655.299834 
L 504.085895 659.440729 
L 501.786627 655.604928 
" style="fill:none;stroke:#000000;stroke-linecap:round;"/>
   </g>
   <g id="text_54">
    <g id="patch_94">
     <path d="M 490.323492 655.626412 
L 515.75943 655.626412 
Q 520.75943 655.626412 520.75943 650.626412 
L 520.75943 640.948287 
Q 520.75943 635.948287 515.75943 635.948287 
L 490.323492 635.948287 
Q 485.323492 635.948287 485.323492 640.948287 
L 485.323492 650.626412 
Q 485.323492 655.626412 490.323492 655.626412 
z
" style="fill:#ffff00;opacity:0.5;stroke:#000000;stroke-linejoin:miter;"/>
    </g>
    <!-- p153 -->
    <g transform="translate(490.323492 648.546724)scale(0.1 -0.1)">
     <use xlink:href="#DejaVuSans-70"/>
     <use x="63.476562" xlink:href="#DejaVuSans-31"/>
     <use x="127.099609" xlink:href="#DejaVuSans-35"/>
     <use x="190.722656" xlink:href="#DejaVuSans-33"/>
    </g>
   </g>
  </g>
 </g>
 <defs>
  <clipPath id="pbb74467769">
   <rect height="815.4" width="1116" x="38.482813" y="10.7"/>
  </clipPath>
 </defs>
</svg>
