<?xml version="1.0" encoding="utf-8" standalone="no"?>
<!DOCTYPE svg PUBLIC "-//W3C//DTD SVG 1.1//EN"
  "http://www.w3.org/Graphics/SVG/1.1/DTD/svg11.dtd">
<!-- Created with matplotlib (http://matplotlib.org/) -->
<svg height="849pt" version="1.1" viewBox="0 0 1165 849" width="1165pt" xmlns="http://www.w3.org/2000/svg" xmlns:xlink="http://www.w3.org/1999/xlink">
 <defs>
  <style type="text/css">
*{stroke-linecap:butt;stroke-linejoin:round;}
  </style>
 </defs>
 <g id="figure_1">
  <g id="patch_1">
   <path d="M 0 849.978125 
L 1165.182812 849.978125 
L 1165.182812 0 
L 0 0 
z
" style="fill:#ffffff;"/>
  </g>
  <g id="axes_1">
   <g id="patch_2">
    <path d="M 38.482813 826.1 
L 1154.482812 826.1 
L 1154.482812 10.7 
L 38.482813 10.7 
z
" style="fill:#ffffff;"/>
   </g>
   <g id="PathCollection_1">
    <defs>
     <path d="M 0 3 
C 0.795609 3 1.55874 2.683901 2.12132 2.12132 
C 2.683901 1.55874 3 0.795609 3 0 
C 3 -0.795609 2.683901 -1.55874 2.12132 -2.12132 
C 1.55874 -2.683901 0.795609 -3 0 -3 
C -0.795609 -3 -1.55874 -2.683901 -2.12132 -2.12132 
C -2.683901 -1.55874 -3 -0.795609 -3 0 
C -3 0.795609 -2.683901 1.55874 -2.12132 2.12132 
C -1.55874 2.683901 -0.795609 3 0 3 
z
" id="m7e4e5e2dbd" style="stroke:#1f77b4;"/>
    </defs>
    <g clip-path="url(#p975def9cc2)">
     <use style="fill:#1f77b4;stroke:#1f77b4;" x="542.142089" xlink:href="#m7e4e5e2dbd" y="145.387004"/>
     <use style="fill:#1f77b4;stroke:#1f77b4;" x="641.56517" xlink:href="#m7e4e5e2dbd" y="135.087785"/>
     <use style="fill:#1f77b4;stroke:#1f77b4;" x="723.797151" xlink:href="#m7e4e5e2dbd" y="126.531453"/>
    </g>
   </g>
   <g id="PathCollection_2">
    <defs>
     <path d="M 0 3 
C 0.795609 3 1.55874 2.683901 2.12132 2.12132 
C 2.683901 1.55874 3 0.795609 3 0 
C 3 -0.795609 2.683901 -1.55874 2.12132 -2.12132 
C 1.55874 -2.683901 0.795609 -3 0 -3 
C -0.795609 -3 -1.55874 -2.683901 -2.12132 -2.12132 
C -2.683901 -1.55874 -3 -0.795609 -3 0 
C -3 0.795609 -2.683901 1.55874 -2.12132 2.12132 
C -1.55874 2.683901 -0.795609 3 0 3 
z
" id="md2ed316ff7" style="stroke:#ff7f0e;"/>
    </defs>
    <g clip-path="url(#p975def9cc2)">
     <use style="fill:#ff7f0e;stroke:#ff7f0e;" x="542.142089" xlink:href="#md2ed316ff7" y="145.387004"/>
     <use style="fill:#ff7f0e;stroke:#ff7f0e;" x="641.56517" xlink:href="#md2ed316ff7" y="135.087785"/>
     <use style="fill:#ff7f0e;stroke:#ff7f0e;" x="723.797151" xlink:href="#md2ed316ff7" y="126.531453"/>
    </g>
   </g>
   <g id="PathCollection_3">
    <defs>
     <path d="M 0 3 
C 0.795609 3 1.55874 2.683901 2.12132 2.12132 
C 2.683901 1.55874 3 0.795609 3 0 
C 3 -0.795609 2.683901 -1.55874 2.12132 -2.12132 
C 1.55874 -2.683901 0.795609 -3 0 -3 
C -0.795609 -3 -1.55874 -2.683901 -2.12132 -2.12132 
C -2.683901 -1.55874 -3 -0.795609 -3 0 
C -3 0.795609 -2.683901 1.55874 -2.12132 2.12132 
C -1.55874 2.683901 -0.795609 3 0 3 
z
" id="m4a9eeec845" style="stroke:#2ca02c;"/>
    </defs>
    <g clip-path="url(#p975def9cc2)">
     <use style="fill:#2ca02c;stroke:#2ca02c;" x="542.142089" xlink:href="#m4a9eeec845" y="145.387004"/>
     <use style="fill:#2ca02c;stroke:#2ca02c;" x="641.56517" xlink:href="#m4a9eeec845" y="135.087785"/>
     <use style="fill:#2ca02c;stroke:#2ca02c;" x="723.797151" xlink:href="#m4a9eeec845" y="126.531453"/>
    </g>
   </g>
   <g id="PathCollection_4">
    <defs>
     <path d="M 0 3 
C 0.795609 3 1.55874 2.683901 2.12132 2.12132 
C 2.683901 1.55874 3 0.795609 3 0 
C 3 -0.795609 2.683901 -1.55874 2.12132 -2.12132 
C 1.55874 -2.683901 0.795609 -3 0 -3 
C -0.795609 -3 -1.55874 -2.683901 -2.12132 -2.12132 
C -2.683901 -1.55874 -3 -0.795609 -3 0 
C -3 0.795609 -2.683901 1.55874 -2.12132 2.12132 
C -1.55874 2.683901 -0.795609 3 0 3 
z
" id="m486e63e93b" style="stroke:#d62728;"/>
    </defs>
    <g clip-path="url(#p975def9cc2)">
     <use style="fill:#d62728;stroke:#d62728;" x="215.987543" xlink:href="#m486e63e93b" y="136.729416"/>
     <use style="fill:#d62728;stroke:#d62728;" x="755.581876" xlink:href="#m486e63e93b" y="48.163731"/>
     <use style="fill:#d62728;stroke:#d62728;" x="624.065917" xlink:href="#m486e63e93b" y="69.776752"/>
    </g>
   </g>
   <g id="PathCollection_5">
    <defs>
     <path d="M 0 3 
C 0.795609 3 1.55874 2.683901 2.12132 2.12132 
C 2.683901 1.55874 3 0.795609 3 0 
C 3 -0.795609 2.683901 -1.55874 2.12132 -2.12132 
C 1.55874 -2.683901 0.795609 -3 0 -3 
C -0.795609 -3 -1.55874 -2.683901 -2.12132 -2.12132 
C -2.683901 -1.55874 -3 -0.795609 -3 0 
C -3 0.795609 -2.683901 1.55874 -2.12132 2.12132 
C -1.55874 2.683901 -0.795609 3 0 3 
z
" id="m618ba3e195" style="stroke:#9467bd;"/>
    </defs>
    <g clip-path="url(#p975def9cc2)">
     <use style="fill:#9467bd;stroke:#9467bd;" x="215.987543" xlink:href="#m618ba3e195" y="136.729416"/>
     <use style="fill:#9467bd;stroke:#9467bd;" x="755.581876" xlink:href="#m618ba3e195" y="48.163731"/>
     <use style="fill:#9467bd;stroke:#9467bd;" x="624.065917" xlink:href="#m618ba3e195" y="69.776752"/>
    </g>
   </g>
   <g id="PathCollection_6">
    <defs>
     <path d="M 0 3 
C 0.795609 3 1.55874 2.683901 2.12132 2.12132 
C 2.683901 1.55874 3 0.795609 3 0 
C 3 -0.795609 2.683901 -1.55874 2.12132 -2.12132 
C 1.55874 -2.683901 0.795609 -3 0 -3 
C -0.795609 -3 -1.55874 -2.683901 -2.12132 -2.12132 
C -2.683901 -1.55874 -3 -0.795609 -3 0 
C -3 0.795609 -2.683901 1.55874 -2.12132 2.12132 
C -1.55874 2.683901 -0.795609 3 0 3 
z
" id="m7aca1174fb" style="stroke:#8c564b;"/>
    </defs>
    <g clip-path="url(#p975def9cc2)">
     <use style="fill:#8c564b;stroke:#8c564b;" x="215.987543" xlink:href="#m7aca1174fb" y="136.729416"/>
     <use style="fill:#8c564b;stroke:#8c564b;" x="755.581876" xlink:href="#m7aca1174fb" y="48.163731"/>
     <use style="fill:#8c564b;stroke:#8c564b;" x="624.065917" xlink:href="#m7aca1174fb" y="69.776752"/>
    </g>
   </g>
   <g id="PathCollection_7">
    <defs>
     <path d="M 0 3 
C 0.795609 3 1.55874 2.683901 2.12132 2.12132 
C 2.683901 1.55874 3 0.795609 3 0 
C 3 -0.795609 2.683901 -1.55874 2.12132 -2.12132 
C 1.55874 -2.683901 0.795609 -3 0 -3 
C -0.795609 -3 -1.55874 -2.683901 -2.12132 -2.12132 
C -2.683901 -1.55874 -3 -0.795609 -3 0 
C -3 0.795609 -2.683901 1.55874 -2.12132 2.12132 
C -1.55874 2.683901 -0.795609 3 0 3 
z
" id="mde02bf5567" style="stroke:#e377c2;"/>
    </defs>
    <g clip-path="url(#p975def9cc2)">
     <use style="fill:#e377c2;stroke:#e377c2;" x="467.00662" xlink:href="#mde02bf5567" y="210.513689"/>
     <use style="fill:#e377c2;stroke:#e377c2;" x="563.662742" xlink:href="#mde02bf5567" y="206.298262"/>
     <use style="fill:#e377c2;stroke:#e377c2;" x="714.040249" xlink:href="#mde02bf5567" y="199.723999"/>
    </g>
   </g>
   <g id="PathCollection_8">
    <defs>
     <path d="M 0 3 
C 0.795609 3 1.55874 2.683901 2.12132 2.12132 
C 2.683901 1.55874 3 0.795609 3 0 
C 3 -0.795609 2.683901 -1.55874 2.12132 -2.12132 
C 1.55874 -2.683901 0.795609 -3 0 -3 
C -0.795609 -3 -1.55874 -2.683901 -2.12132 -2.12132 
C -2.683901 -1.55874 -3 -0.795609 -3 0 
C -3 0.795609 -2.683901 1.55874 -2.12132 2.12132 
C -1.55874 2.683901 -0.795609 3 0 3 
z
" id="m4eec442367" style="stroke:#7f7f7f;"/>
    </defs>
    <g clip-path="url(#p975def9cc2)">
     <use style="fill:#7f7f7f;stroke:#7f7f7f;" x="467.00662" xlink:href="#m4eec442367" y="210.513689"/>
     <use style="fill:#7f7f7f;stroke:#7f7f7f;" x="563.662742" xlink:href="#m4eec442367" y="206.298262"/>
     <use style="fill:#7f7f7f;stroke:#7f7f7f;" x="714.040249" xlink:href="#m4eec442367" y="199.723999"/>
    </g>
   </g>
   <g id="PathCollection_9">
    <defs>
     <path d="M 0 3 
C 0.795609 3 1.55874 2.683901 2.12132 2.12132 
C 2.683901 1.55874 3 0.795609 3 0 
C 3 -0.795609 2.683901 -1.55874 2.12132 -2.12132 
C 1.55874 -2.683901 0.795609 -3 0 -3 
C -0.795609 -3 -1.55874 -2.683901 -2.12132 -2.12132 
C -2.683901 -1.55874 -3 -0.795609 -3 0 
C -3 0.795609 -2.683901 1.55874 -2.12132 2.12132 
C -1.55874 2.683901 -0.795609 3 0 3 
z
" id="m2f9f70d060" style="stroke:#bcbd22;"/>
    </defs>
    <g clip-path="url(#p975def9cc2)">
     <use style="fill:#bcbd22;stroke:#bcbd22;" x="467.00662" xlink:href="#m2f9f70d060" y="210.513689"/>
     <use style="fill:#bcbd22;stroke:#bcbd22;" x="563.662742" xlink:href="#m2f9f70d060" y="206.298262"/>
     <use style="fill:#bcbd22;stroke:#bcbd22;" x="714.040249" xlink:href="#m2f9f70d060" y="199.723999"/>
    </g>
   </g>
   <g id="PathCollection_10">
    <defs>
     <path d="M 0 3 
C 0.795609 3 1.55874 2.683901 2.12132 2.12132 
C 2.683901 1.55874 3 0.795609 3 0 
C 3 -0.795609 2.683901 -1.55874 2.12132 -2.12132 
C 1.55874 -2.683901 0.795609 -3 0 -3 
C -0.795609 -3 -1.55874 -2.683901 -2.12132 -2.12132 
C -2.683901 -1.55874 -3 -0.795609 -3 0 
C -3 0.795609 -2.683901 1.55874 -2.12132 2.12132 
C -1.55874 2.683901 -0.795609 3 0 3 
z
" id="m191b2a85a9" style="stroke:#17becf;"/>
    </defs>
    <g clip-path="url(#p975def9cc2)">
     <use style="fill:#17becf;stroke:#17becf;" x="872.17423" xlink:href="#m191b2a85a9" y="709.175752"/>
     <use style="fill:#17becf;stroke:#17becf;" x="1101.125682" xlink:href="#m191b2a85a9" y="786.036402"/>
     <use style="fill:#17becf;stroke:#17becf;" x="411.740617" xlink:href="#m191b2a85a9" y="554.659875"/>
    </g>
   </g>
   <g id="PathCollection_11">
    <g clip-path="url(#p975def9cc2)">
     <use style="fill:#1f77b4;stroke:#1f77b4;" x="872.17423" xlink:href="#m7e4e5e2dbd" y="709.175752"/>
     <use style="fill:#1f77b4;stroke:#1f77b4;" x="1101.125682" xlink:href="#m7e4e5e2dbd" y="786.036402"/>
     <use style="fill:#1f77b4;stroke:#1f77b4;" x="411.740617" xlink:href="#m7e4e5e2dbd" y="554.659875"/>
    </g>
   </g>
   <g id="PathCollection_12">
    <g clip-path="url(#p975def9cc2)">
     <use style="fill:#ff7f0e;stroke:#ff7f0e;" x="872.17423" xlink:href="#md2ed316ff7" y="709.175752"/>
     <use style="fill:#ff7f0e;stroke:#ff7f0e;" x="1101.125682" xlink:href="#md2ed316ff7" y="786.036402"/>
     <use style="fill:#ff7f0e;stroke:#ff7f0e;" x="411.740617" xlink:href="#md2ed316ff7" y="554.659875"/>
    </g>
   </g>
   <g id="PathCollection_13">
    <g clip-path="url(#p975def9cc2)">
     <use style="fill:#2ca02c;stroke:#2ca02c;" x="436.223393" xlink:href="#m4a9eeec845" y="358.468422"/>
     <use style="fill:#2ca02c;stroke:#2ca02c;" x="784.272229" xlink:href="#m4a9eeec845" y="398.361414"/>
     <use style="fill:#2ca02c;stroke:#2ca02c;" x="311.109318" xlink:href="#m4a9eeec845" y="344.118275"/>
    </g>
   </g>
   <g id="PathCollection_14">
    <g clip-path="url(#p975def9cc2)">
     <use style="fill:#d62728;stroke:#d62728;" x="436.223393" xlink:href="#m486e63e93b" y="358.468422"/>
     <use style="fill:#d62728;stroke:#d62728;" x="784.272229" xlink:href="#m486e63e93b" y="398.361414"/>
     <use style="fill:#d62728;stroke:#d62728;" x="311.109318" xlink:href="#m486e63e93b" y="344.118275"/>
    </g>
   </g>
   <g id="PathCollection_15">
    <g clip-path="url(#p975def9cc2)">
     <use style="fill:#9467bd;stroke:#9467bd;" x="436.223393" xlink:href="#m618ba3e195" y="358.468422"/>
     <use style="fill:#9467bd;stroke:#9467bd;" x="784.272229" xlink:href="#m618ba3e195" y="398.361414"/>
     <use style="fill:#9467bd;stroke:#9467bd;" x="311.109318" xlink:href="#m618ba3e195" y="344.118275"/>
    </g>
   </g>
   <g id="PathCollection_16">
    <g clip-path="url(#p975def9cc2)">
     <use style="fill:#8c564b;stroke:#8c564b;" x="92.210082" xlink:href="#m7aca1174fb" y="157.265285"/>
     <use style="fill:#8c564b;stroke:#8c564b;" x="552.763104" xlink:href="#m7aca1174fb" y="81.888494"/>
     <use style="fill:#8c564b;stroke:#8c564b;" x="526.970677" xlink:href="#m7aca1174fb" y="86.123769"/>
    </g>
   </g>
   <g id="PathCollection_17">
    <g clip-path="url(#p975def9cc2)">
     <use style="fill:#e377c2;stroke:#e377c2;" x="92.210082" xlink:href="#mde02bf5567" y="157.265285"/>
     <use style="fill:#e377c2;stroke:#e377c2;" x="552.763104" xlink:href="#mde02bf5567" y="81.888494"/>
     <use style="fill:#e377c2;stroke:#e377c2;" x="526.970677" xlink:href="#mde02bf5567" y="86.123769"/>
    </g>
   </g>
   <g id="PathCollection_18">
    <g clip-path="url(#p975def9cc2)">
     <use style="fill:#7f7f7f;stroke:#7f7f7f;" x="92.210082" xlink:href="#m4eec442367" y="157.265285"/>
     <use style="fill:#7f7f7f;stroke:#7f7f7f;" x="552.763104" xlink:href="#m4eec442367" y="81.888494"/>
     <use style="fill:#7f7f7f;stroke:#7f7f7f;" x="526.970677" xlink:href="#m4eec442367" y="86.123769"/>
    </g>
   </g>
   <g id="matplotlib.axis_1">
    <g id="xtick_1">
     <g id="line2d_1">
      <defs>
       <path d="M 0 0 
L 0 3.5 
" id="m84f92550a5" style="stroke:#000000;stroke-width:0.8;"/>
      </defs>
      <g>
       <use style="stroke:#000000;stroke-width:0.8;" x="153.28991" xlink:href="#m84f92550a5" y="826.1"/>
      </g>
     </g>
     <g id="text_1">
      <!-- 0.5 -->
      <defs>
       <path d="M 31.78125 66.40625 
Q 24.171875 66.40625 20.328125 58.90625 
Q 16.5 51.421875 16.5 36.375 
Q 16.5 21.390625 20.328125 13.890625 
Q 24.171875 6.390625 31.78125 6.390625 
Q 39.453125 6.390625 43.28125 13.890625 
Q 47.125 21.390625 47.125 36.375 
Q 47.125 51.421875 43.28125 58.90625 
Q 39.453125 66.40625 31.78125 66.40625 
z
M 31.78125 74.21875 
Q 44.046875 74.21875 50.515625 64.515625 
Q 56.984375 54.828125 56.984375 36.375 
Q 56.984375 17.96875 50.515625 8.265625 
Q 44.046875 -1.421875 31.78125 -1.421875 
Q 19.53125 -1.421875 13.0625 8.265625 
Q 6.59375 17.96875 6.59375 36.375 
Q 6.59375 54.828125 13.0625 64.515625 
Q 19.53125 74.21875 31.78125 74.21875 
z
" id="DejaVuSans-30"/>
       <path d="M 10.6875 12.40625 
L 21 12.40625 
L 21 0 
L 10.6875 0 
z
" id="DejaVuSans-2e"/>
       <path d="M 10.796875 72.90625 
L 49.515625 72.90625 
L 49.515625 64.59375 
L 19.828125 64.59375 
L 19.828125 46.734375 
Q 21.96875 47.46875 24.109375 47.828125 
Q 26.265625 48.1875 28.421875 48.1875 
Q 40.625 48.1875 47.75 41.5 
Q 54.890625 34.8125 54.890625 23.390625 
Q 54.890625 11.625 47.5625 5.09375 
Q 40.234375 -1.421875 26.90625 -1.421875 
Q 22.3125 -1.421875 17.546875 -0.640625 
Q 12.796875 0.140625 7.71875 1.703125 
L 7.71875 11.625 
Q 12.109375 9.234375 16.796875 8.0625 
Q 21.484375 6.890625 26.703125 6.890625 
Q 35.15625 6.890625 40.078125 11.328125 
Q 45.015625 15.765625 45.015625 23.390625 
Q 45.015625 31 40.078125 35.4375 
Q 35.15625 39.890625 26.703125 39.890625 
Q 22.75 39.890625 18.8125 39.015625 
Q 14.890625 38.140625 10.796875 36.28125 
z
" id="DejaVuSans-35"/>
      </defs>
      <g transform="translate(145.338348 840.698437)scale(0.1 -0.1)">
       <use xlink:href="#DejaVuSans-30"/>
       <use x="63.623047" xlink:href="#DejaVuSans-2e"/>
       <use x="95.410156" xlink:href="#DejaVuSans-35"/>
      </g>
     </g>
    </g>
    <g id="xtick_2">
     <g id="line2d_2">
      <g>
       <use style="stroke:#000000;stroke-width:0.8;" x="281.687102" xlink:href="#m84f92550a5" y="826.1"/>
      </g>
     </g>
     <g id="text_2">
      <!-- 0.6 -->
      <defs>
       <path d="M 33.015625 40.375 
Q 26.375 40.375 22.484375 35.828125 
Q 18.609375 31.296875 18.609375 23.390625 
Q 18.609375 15.53125 22.484375 10.953125 
Q 26.375 6.390625 33.015625 6.390625 
Q 39.65625 6.390625 43.53125 10.953125 
Q 47.40625 15.53125 47.40625 23.390625 
Q 47.40625 31.296875 43.53125 35.828125 
Q 39.65625 40.375 33.015625 40.375 
z
M 52.59375 71.296875 
L 52.59375 62.3125 
Q 48.875 64.0625 45.09375 64.984375 
Q 41.3125 65.921875 37.59375 65.921875 
Q 27.828125 65.921875 22.671875 59.328125 
Q 17.53125 52.734375 16.796875 39.40625 
Q 19.671875 43.65625 24.015625 45.921875 
Q 28.375 48.1875 33.59375 48.1875 
Q 44.578125 48.1875 50.953125 41.515625 
Q 57.328125 34.859375 57.328125 23.390625 
Q 57.328125 12.15625 50.6875 5.359375 
Q 44.046875 -1.421875 33.015625 -1.421875 
Q 20.359375 -1.421875 13.671875 8.265625 
Q 6.984375 17.96875 6.984375 36.375 
Q 6.984375 53.65625 15.1875 63.9375 
Q 23.390625 74.21875 37.203125 74.21875 
Q 40.921875 74.21875 44.703125 73.484375 
Q 48.484375 72.75 52.59375 71.296875 
z
" id="DejaVuSans-36"/>
      </defs>
      <g transform="translate(273.735539 840.698437)scale(0.1 -0.1)">
       <use xlink:href="#DejaVuSans-30"/>
       <use x="63.623047" xlink:href="#DejaVuSans-2e"/>
       <use x="95.410156" xlink:href="#DejaVuSans-36"/>
      </g>
     </g>
    </g>
    <g id="xtick_3">
     <g id="line2d_3">
      <g>
       <use style="stroke:#000000;stroke-width:0.8;" x="410.084293" xlink:href="#m84f92550a5" y="826.1"/>
      </g>
     </g>
     <g id="text_3">
      <!-- 0.7 -->
      <defs>
       <path d="M 8.203125 72.90625 
L 55.078125 72.90625 
L 55.078125 68.703125 
L 28.609375 0 
L 18.3125 0 
L 43.21875 64.59375 
L 8.203125 64.59375 
z
" id="DejaVuSans-37"/>
      </defs>
      <g transform="translate(402.132731 840.698437)scale(0.1 -0.1)">
       <use xlink:href="#DejaVuSans-30"/>
       <use x="63.623047" xlink:href="#DejaVuSans-2e"/>
       <use x="95.410156" xlink:href="#DejaVuSans-37"/>
      </g>
     </g>
    </g>
    <g id="xtick_4">
     <g id="line2d_4">
      <g>
       <use style="stroke:#000000;stroke-width:0.8;" x="538.481485" xlink:href="#m84f92550a5" y="826.1"/>
      </g>
     </g>
     <g id="text_4">
      <!-- 0.8 -->
      <defs>
       <path d="M 31.78125 34.625 
Q 24.75 34.625 20.71875 30.859375 
Q 16.703125 27.09375 16.703125 20.515625 
Q 16.703125 13.921875 20.71875 10.15625 
Q 24.75 6.390625 31.78125 6.390625 
Q 38.8125 6.390625 42.859375 10.171875 
Q 46.921875 13.96875 46.921875 20.515625 
Q 46.921875 27.09375 42.890625 30.859375 
Q 38.875 34.625 31.78125 34.625 
z
M 21.921875 38.8125 
Q 15.578125 40.375 12.03125 44.71875 
Q 8.5 49.078125 8.5 55.328125 
Q 8.5 64.0625 14.71875 69.140625 
Q 20.953125 74.21875 31.78125 74.21875 
Q 42.671875 74.21875 48.875 69.140625 
Q 55.078125 64.0625 55.078125 55.328125 
Q 55.078125 49.078125 51.53125 44.71875 
Q 48 40.375 41.703125 38.8125 
Q 48.828125 37.15625 52.796875 32.3125 
Q 56.78125 27.484375 56.78125 20.515625 
Q 56.78125 9.90625 50.3125 4.234375 
Q 43.84375 -1.421875 31.78125 -1.421875 
Q 19.734375 -1.421875 13.25 4.234375 
Q 6.78125 9.90625 6.78125 20.515625 
Q 6.78125 27.484375 10.78125 32.3125 
Q 14.796875 37.15625 21.921875 38.8125 
z
M 18.3125 54.390625 
Q 18.3125 48.734375 21.84375 45.5625 
Q 25.390625 42.390625 31.78125 42.390625 
Q 38.140625 42.390625 41.71875 45.5625 
Q 45.3125 48.734375 45.3125 54.390625 
Q 45.3125 60.0625 41.71875 63.234375 
Q 38.140625 66.40625 31.78125 66.40625 
Q 25.390625 66.40625 21.84375 63.234375 
Q 18.3125 60.0625 18.3125 54.390625 
z
" id="DejaVuSans-38"/>
      </defs>
      <g transform="translate(530.529922 840.698437)scale(0.1 -0.1)">
       <use xlink:href="#DejaVuSans-30"/>
       <use x="63.623047" xlink:href="#DejaVuSans-2e"/>
       <use x="95.410156" xlink:href="#DejaVuSans-38"/>
      </g>
     </g>
    </g>
    <g id="xtick_5">
     <g id="line2d_5">
      <g>
       <use style="stroke:#000000;stroke-width:0.8;" x="666.878676" xlink:href="#m84f92550a5" y="826.1"/>
      </g>
     </g>
     <g id="text_5">
      <!-- 0.9 -->
      <defs>
       <path d="M 10.984375 1.515625 
L 10.984375 10.5 
Q 14.703125 8.734375 18.5 7.8125 
Q 22.3125 6.890625 25.984375 6.890625 
Q 35.75 6.890625 40.890625 13.453125 
Q 46.046875 20.015625 46.78125 33.40625 
Q 43.953125 29.203125 39.59375 26.953125 
Q 35.25 24.703125 29.984375 24.703125 
Q 19.046875 24.703125 12.671875 31.3125 
Q 6.296875 37.9375 6.296875 49.421875 
Q 6.296875 60.640625 12.9375 67.421875 
Q 19.578125 74.21875 30.609375 74.21875 
Q 43.265625 74.21875 49.921875 64.515625 
Q 56.59375 54.828125 56.59375 36.375 
Q 56.59375 19.140625 48.40625 8.859375 
Q 40.234375 -1.421875 26.421875 -1.421875 
Q 22.703125 -1.421875 18.890625 -0.6875 
Q 15.09375 0.046875 10.984375 1.515625 
z
M 30.609375 32.421875 
Q 37.25 32.421875 41.125 36.953125 
Q 45.015625 41.5 45.015625 49.421875 
Q 45.015625 57.28125 41.125 61.84375 
Q 37.25 66.40625 30.609375 66.40625 
Q 23.96875 66.40625 20.09375 61.84375 
Q 16.21875 57.28125 16.21875 49.421875 
Q 16.21875 41.5 20.09375 36.953125 
Q 23.96875 32.421875 30.609375 32.421875 
z
" id="DejaVuSans-39"/>
      </defs>
      <g transform="translate(658.927114 840.698437)scale(0.1 -0.1)">
       <use xlink:href="#DejaVuSans-30"/>
       <use x="63.623047" xlink:href="#DejaVuSans-2e"/>
       <use x="95.410156" xlink:href="#DejaVuSans-39"/>
      </g>
     </g>
    </g>
    <g id="xtick_6">
     <g id="line2d_6">
      <g>
       <use style="stroke:#000000;stroke-width:0.8;" x="795.275868" xlink:href="#m84f92550a5" y="826.1"/>
      </g>
     </g>
     <g id="text_6">
      <!-- 1.0 -->
      <defs>
       <path d="M 12.40625 8.296875 
L 28.515625 8.296875 
L 28.515625 63.921875 
L 10.984375 60.40625 
L 10.984375 69.390625 
L 28.421875 72.90625 
L 38.28125 72.90625 
L 38.28125 8.296875 
L 54.390625 8.296875 
L 54.390625 0 
L 12.40625 0 
z
" id="DejaVuSans-31"/>
      </defs>
      <g transform="translate(787.324306 840.698437)scale(0.1 -0.1)">
       <use xlink:href="#DejaVuSans-31"/>
       <use x="63.623047" xlink:href="#DejaVuSans-2e"/>
       <use x="95.410156" xlink:href="#DejaVuSans-30"/>
      </g>
     </g>
    </g>
    <g id="xtick_7">
     <g id="line2d_7">
      <g>
       <use style="stroke:#000000;stroke-width:0.8;" x="923.67306" xlink:href="#m84f92550a5" y="826.1"/>
      </g>
     </g>
     <g id="text_7">
      <!-- 1.1 -->
      <g transform="translate(915.721497 840.698437)scale(0.1 -0.1)">
       <use xlink:href="#DejaVuSans-31"/>
       <use x="63.623047" xlink:href="#DejaVuSans-2e"/>
       <use x="95.410156" xlink:href="#DejaVuSans-31"/>
      </g>
     </g>
    </g>
    <g id="xtick_8">
     <g id="line2d_8">
      <g>
       <use style="stroke:#000000;stroke-width:0.8;" x="1052.070251" xlink:href="#m84f92550a5" y="826.1"/>
      </g>
     </g>
     <g id="text_8">
      <!-- 1.2 -->
      <defs>
       <path d="M 19.1875 8.296875 
L 53.609375 8.296875 
L 53.609375 0 
L 7.328125 0 
L 7.328125 8.296875 
Q 12.9375 14.109375 22.625 23.890625 
Q 32.328125 33.6875 34.8125 36.53125 
Q 39.546875 41.84375 41.421875 45.53125 
Q 43.3125 49.21875 43.3125 52.78125 
Q 43.3125 58.59375 39.234375 62.25 
Q 35.15625 65.921875 28.609375 65.921875 
Q 23.96875 65.921875 18.8125 64.3125 
Q 13.671875 62.703125 7.8125 59.421875 
L 7.8125 69.390625 
Q 13.765625 71.78125 18.9375 73 
Q 24.125 74.21875 28.421875 74.21875 
Q 39.75 74.21875 46.484375 68.546875 
Q 53.21875 62.890625 53.21875 53.421875 
Q 53.21875 48.921875 51.53125 44.890625 
Q 49.859375 40.875 45.40625 35.40625 
Q 44.1875 33.984375 37.640625 27.21875 
Q 31.109375 20.453125 19.1875 8.296875 
z
" id="DejaVuSans-32"/>
      </defs>
      <g transform="translate(1044.118689 840.698437)scale(0.1 -0.1)">
       <use xlink:href="#DejaVuSans-31"/>
       <use x="63.623047" xlink:href="#DejaVuSans-2e"/>
       <use x="95.410156" xlink:href="#DejaVuSans-32"/>
      </g>
     </g>
    </g>
   </g>
   <g id="matplotlib.axis_2">
    <g id="ytick_1">
     <g id="line2d_9">
      <defs>
       <path d="M 0 0 
L -3.5 0 
" id="m5a7a802bbc" style="stroke:#000000;stroke-width:0.8;"/>
      </defs>
      <g>
       <use style="stroke:#000000;stroke-width:0.8;" x="38.482813" xlink:href="#m5a7a802bbc" y="756.966404"/>
      </g>
     </g>
     <g id="text_9">
      <!-- −1.5 -->
      <defs>
       <path d="M 10.59375 35.5 
L 73.1875 35.5 
L 73.1875 27.203125 
L 10.59375 27.203125 
z
" id="DejaVuSans-2212"/>
      </defs>
      <g transform="translate(7.2 760.765623)scale(0.1 -0.1)">
       <use xlink:href="#DejaVuSans-2212"/>
       <use x="83.789062" xlink:href="#DejaVuSans-31"/>
       <use x="147.412109" xlink:href="#DejaVuSans-2e"/>
       <use x="179.199219" xlink:href="#DejaVuSans-35"/>
      </g>
     </g>
    </g>
    <g id="ytick_2">
     <g id="line2d_10">
      <g>
       <use style="stroke:#000000;stroke-width:0.8;" x="38.482813" xlink:href="#m5a7a802bbc" y="588.766452"/>
      </g>
     </g>
     <g id="text_10">
      <!-- −1.0 -->
      <g transform="translate(7.2 592.56567)scale(0.1 -0.1)">
       <use xlink:href="#DejaVuSans-2212"/>
       <use x="83.789062" xlink:href="#DejaVuSans-31"/>
       <use x="147.412109" xlink:href="#DejaVuSans-2e"/>
       <use x="179.199219" xlink:href="#DejaVuSans-30"/>
      </g>
     </g>
    </g>
    <g id="ytick_3">
     <g id="line2d_11">
      <g>
       <use style="stroke:#000000;stroke-width:0.8;" x="38.482813" xlink:href="#m5a7a802bbc" y="420.566499"/>
      </g>
     </g>
     <g id="text_11">
      <!-- −0.5 -->
      <g transform="translate(7.2 424.365718)scale(0.1 -0.1)">
       <use xlink:href="#DejaVuSans-2212"/>
       <use x="83.789062" xlink:href="#DejaVuSans-30"/>
       <use x="147.412109" xlink:href="#DejaVuSans-2e"/>
       <use x="179.199219" xlink:href="#DejaVuSans-35"/>
      </g>
     </g>
    </g>
    <g id="ytick_4">
     <g id="line2d_12">
      <g>
       <use style="stroke:#000000;stroke-width:0.8;" x="38.482813" xlink:href="#m5a7a802bbc" y="252.366547"/>
      </g>
     </g>
     <g id="text_12">
      <!-- 0.0 -->
      <g transform="translate(15.579688 256.165766)scale(0.1 -0.1)">
       <use xlink:href="#DejaVuSans-30"/>
       <use x="63.623047" xlink:href="#DejaVuSans-2e"/>
       <use x="95.410156" xlink:href="#DejaVuSans-30"/>
      </g>
     </g>
    </g>
    <g id="ytick_5">
     <g id="line2d_13">
      <g>
       <use style="stroke:#000000;stroke-width:0.8;" x="38.482813" xlink:href="#m5a7a802bbc" y="84.166595"/>
      </g>
     </g>
     <g id="text_13">
      <!-- 0.5 -->
      <g transform="translate(15.579688 87.965813)scale(0.1 -0.1)">
       <use xlink:href="#DejaVuSans-30"/>
       <use x="63.623047" xlink:href="#DejaVuSans-2e"/>
       <use x="95.410156" xlink:href="#DejaVuSans-35"/>
      </g>
     </g>
    </g>
   </g>
   <g id="patch_3">
    <path d="M 38.482813 826.1 
L 38.482813 10.7 
" style="fill:none;stroke:#000000;stroke-linecap:square;stroke-linejoin:miter;stroke-width:0.8;"/>
   </g>
   <g id="patch_4">
    <path d="M 1154.482812 826.1 
L 1154.482812 10.7 
" style="fill:none;stroke:#000000;stroke-linecap:square;stroke-linejoin:miter;stroke-width:0.8;"/>
   </g>
   <g id="patch_5">
    <path d="M 38.482812 826.1 
L 1154.482812 826.1 
" style="fill:none;stroke:#000000;stroke-linecap:square;stroke-linejoin:miter;stroke-width:0.8;"/>
   </g>
   <g id="patch_6">
    <path d="M 38.482812 10.7 
L 1154.482812 10.7 
" style="fill:none;stroke:#000000;stroke-linecap:square;stroke-linejoin:miter;stroke-width:0.8;"/>
   </g>
   <g id="patch_7">
    <path d="M 541.802301 140.963994 
Q 541.89571 142.17989 541.90348 142.281036 
" style="fill:none;stroke:#000000;stroke-linecap:round;"/>
    <path d="M 543.591216 138.139594 
L 541.90348 142.281036 
L 539.602968 138.445982 
" style="fill:none;stroke:#000000;stroke-linecap:round;"/>
   </g>
   <g id="text_14">
    <g id="patch_8">
     <path d="M 528.142089 138.466691 
L 553.567089 138.466691 
Q 558.567089 138.466691 558.567089 133.466691 
L 558.567089 123.788566 
Q 558.567089 118.788566 553.567089 118.788566 
L 528.142089 118.788566 
Q 523.142089 118.788566 523.142089 123.788566 
L 523.142089 133.466691 
Q 523.142089 138.466691 528.142089 138.466691 
z
" style="fill:#ffff00;opacity:0.5;stroke:#000000;stroke-linejoin:miter;"/>
    </g>
    <!-- n420 -->
    <defs>
     <path d="M 54.890625 33.015625 
L 54.890625 0 
L 45.90625 0 
L 45.90625 32.71875 
Q 45.90625 40.484375 42.875 44.328125 
Q 39.84375 48.1875 33.796875 48.1875 
Q 26.515625 48.1875 22.3125 43.546875 
Q 18.109375 38.921875 18.109375 30.90625 
L 18.109375 0 
L 9.078125 0 
L 9.078125 54.6875 
L 18.109375 54.6875 
L 18.109375 46.1875 
Q 21.34375 51.125 25.703125 53.5625 
Q 30.078125 56 35.796875 56 
Q 45.21875 56 50.046875 50.171875 
Q 54.890625 44.34375 54.890625 33.015625 
z
" id="DejaVuSans-6e"/>
     <path d="M 37.796875 64.3125 
L 12.890625 25.390625 
L 37.796875 25.390625 
z
M 35.203125 72.90625 
L 47.609375 72.90625 
L 47.609375 25.390625 
L 58.015625 25.390625 
L 58.015625 17.1875 
L 47.609375 17.1875 
L 47.609375 0 
L 37.796875 0 
L 37.796875 17.1875 
L 4.890625 17.1875 
L 4.890625 26.703125 
z
" id="DejaVuSans-34"/>
    </defs>
    <g transform="translate(528.142089 131.387004)scale(0.1 -0.1)">
     <use xlink:href="#DejaVuSans-6e"/>
     <use x="63.378906" xlink:href="#DejaVuSans-34"/>
     <use x="127.001953" xlink:href="#DejaVuSans-32"/>
     <use x="190.625" xlink:href="#DejaVuSans-30"/>
    </g>
   </g>
   <g id="patch_9">
    <path d="M 641.226826 130.664775 
Q 641.319838 131.880671 641.327573 131.981789 
" style="fill:none;stroke:#000000;stroke-linecap:round;"/>
    <path d="M 643.016653 127.840894 
L 641.327573 131.981789 
L 639.028305 128.145989 
" style="fill:none;stroke:#000000;stroke-linecap:round;"/>
   </g>
   <g id="text_15">
    <g id="patch_10">
     <path d="M 627.56517 128.167472 
L 653.001108 128.167472 
Q 658.001108 128.167472 658.001108 123.167472 
L 658.001108 113.489347 
Q 658.001108 108.489347 653.001108 108.489347 
L 627.56517 108.489347 
Q 622.56517 108.489347 622.56517 113.489347 
L 622.56517 123.167472 
Q 622.56517 128.167472 627.56517 128.167472 
z
" style="fill:#ffff00;opacity:0.5;stroke:#000000;stroke-linejoin:miter;"/>
    </g>
    <!-- d471 -->
    <defs>
     <path d="M 45.40625 46.390625 
L 45.40625 75.984375 
L 54.390625 75.984375 
L 54.390625 0 
L 45.40625 0 
L 45.40625 8.203125 
Q 42.578125 3.328125 38.25 0.953125 
Q 33.9375 -1.421875 27.875 -1.421875 
Q 17.96875 -1.421875 11.734375 6.484375 
Q 5.515625 14.40625 5.515625 27.296875 
Q 5.515625 40.1875 11.734375 48.09375 
Q 17.96875 56 27.875 56 
Q 33.9375 56 38.25 53.625 
Q 42.578125 51.265625 45.40625 46.390625 
z
M 14.796875 27.296875 
Q 14.796875 17.390625 18.875 11.75 
Q 22.953125 6.109375 30.078125 6.109375 
Q 37.203125 6.109375 41.296875 11.75 
Q 45.40625 17.390625 45.40625 27.296875 
Q 45.40625 37.203125 41.296875 42.84375 
Q 37.203125 48.484375 30.078125 48.484375 
Q 22.953125 48.484375 18.875 42.84375 
Q 14.796875 37.203125 14.796875 27.296875 
z
" id="DejaVuSans-64"/>
    </defs>
    <g transform="translate(627.56517 121.087785)scale(0.1 -0.1)">
     <use xlink:href="#DejaVuSans-64"/>
     <use x="63.476562" xlink:href="#DejaVuSans-34"/>
     <use x="127.099609" xlink:href="#DejaVuSans-37"/>
     <use x="190.722656" xlink:href="#DejaVuSans-31"/>
    </g>
   </g>
   <g id="patch_11">
    <path d="M 724.2998 122.095905 
Q 724.16113 123.319579 724.148353 123.43233 
" style="fill:none;stroke:#000000;stroke-linecap:round;"/>
    <path d="M 726.586041 119.682973 
L 724.148353 123.43233 
L 722.611481 119.232565 
" style="fill:none;stroke:#000000;stroke-linecap:round;"/>
   </g>
   <g id="text_16">
    <g id="patch_12">
     <path d="M 709.797151 119.61114 
L 741.595589 119.61114 
Q 746.595589 119.61114 746.595589 114.61114 
L 746.595589 104.933015 
Q 746.595589 99.933015 741.595589 99.933015 
L 709.797151 99.933015 
Q 704.797151 99.933015 704.797151 104.933015 
L 704.797151 114.61114 
Q 704.797151 119.61114 709.797151 119.61114 
z
" style="fill:#ffff00;opacity:0.5;stroke:#000000;stroke-linejoin:miter;"/>
    </g>
    <!-- p0736 -->
    <defs>
     <path d="M 18.109375 8.203125 
L 18.109375 -20.796875 
L 9.078125 -20.796875 
L 9.078125 54.6875 
L 18.109375 54.6875 
L 18.109375 46.390625 
Q 20.953125 51.265625 25.265625 53.625 
Q 29.59375 56 35.59375 56 
Q 45.5625 56 51.78125 48.09375 
Q 58.015625 40.1875 58.015625 27.296875 
Q 58.015625 14.40625 51.78125 6.484375 
Q 45.5625 -1.421875 35.59375 -1.421875 
Q 29.59375 -1.421875 25.265625 0.953125 
Q 20.953125 3.328125 18.109375 8.203125 
z
M 48.6875 27.296875 
Q 48.6875 37.203125 44.609375 42.84375 
Q 40.53125 48.484375 33.40625 48.484375 
Q 26.265625 48.484375 22.1875 42.84375 
Q 18.109375 37.203125 18.109375 27.296875 
Q 18.109375 17.390625 22.1875 11.75 
Q 26.265625 6.109375 33.40625 6.109375 
Q 40.53125 6.109375 44.609375 11.75 
Q 48.6875 17.390625 48.6875 27.296875 
z
" id="DejaVuSans-70"/>
     <path d="M 40.578125 39.3125 
Q 47.65625 37.796875 51.625 33 
Q 55.609375 28.21875 55.609375 21.1875 
Q 55.609375 10.40625 48.1875 4.484375 
Q 40.765625 -1.421875 27.09375 -1.421875 
Q 22.515625 -1.421875 17.65625 -0.515625 
Q 12.796875 0.390625 7.625 2.203125 
L 7.625 11.71875 
Q 11.71875 9.328125 16.59375 8.109375 
Q 21.484375 6.890625 26.8125 6.890625 
Q 36.078125 6.890625 40.9375 10.546875 
Q 45.796875 14.203125 45.796875 21.1875 
Q 45.796875 27.640625 41.28125 31.265625 
Q 36.765625 34.90625 28.71875 34.90625 
L 20.21875 34.90625 
L 20.21875 43.015625 
L 29.109375 43.015625 
Q 36.375 43.015625 40.234375 45.921875 
Q 44.09375 48.828125 44.09375 54.296875 
Q 44.09375 59.90625 40.109375 62.90625 
Q 36.140625 65.921875 28.71875 65.921875 
Q 24.65625 65.921875 20.015625 65.03125 
Q 15.375 64.15625 9.8125 62.3125 
L 9.8125 71.09375 
Q 15.4375 72.65625 20.34375 73.4375 
Q 25.25 74.21875 29.59375 74.21875 
Q 40.828125 74.21875 47.359375 69.109375 
Q 53.90625 64.015625 53.90625 55.328125 
Q 53.90625 49.265625 50.4375 45.09375 
Q 46.96875 40.921875 40.578125 39.3125 
z
" id="DejaVuSans-33"/>
    </defs>
    <g transform="translate(709.797151 112.531453)scale(0.1 -0.1)">
     <use xlink:href="#DejaVuSans-70"/>
     <use x="63.476562" xlink:href="#DejaVuSans-30"/>
     <use x="127.099609" xlink:href="#DejaVuSans-37"/>
     <use x="190.722656" xlink:href="#DejaVuSans-33"/>
     <use x="254.345703" xlink:href="#DejaVuSans-36"/>
    </g>
   </g>
   <g id="patch_13">
    <path d="M 215.351252 132.287599 
Q 215.527413 133.51734 215.545033 133.640345 
" style="fill:none;stroke:#000000;stroke-linecap:round;"/>
    <path d="M 216.957613 129.39716 
L 215.545033 133.640345 
L 212.998033 129.96437 
" style="fill:none;stroke:#000000;stroke-linecap:round;"/>
   </g>
   <g id="text_17">
    <g id="patch_14">
     <path d="M 201.987543 129.809104 
L 225.18598 129.809104 
Q 230.18598 129.809104 230.18598 124.809104 
L 230.18598 115.130979 
Q 230.18598 110.130979 225.18598 110.130979 
L 201.987543 110.130979 
Q 196.987543 110.130979 196.987543 115.130979 
L 196.987543 124.809104 
Q 196.987543 129.809104 201.987543 129.809104 
z
" style="fill:#ffff00;opacity:0.5;stroke:#000000;stroke-linejoin:miter;"/>
    </g>
    <!-- r010 -->
    <defs>
     <path d="M 41.109375 46.296875 
Q 39.59375 47.171875 37.8125 47.578125 
Q 36.03125 48 33.890625 48 
Q 26.265625 48 22.1875 43.046875 
Q 18.109375 38.09375 18.109375 28.8125 
L 18.109375 0 
L 9.078125 0 
L 9.078125 54.6875 
L 18.109375 54.6875 
L 18.109375 46.1875 
Q 20.953125 51.171875 25.484375 53.578125 
Q 30.03125 56 36.53125 56 
Q 37.453125 56 38.578125 55.875 
Q 39.703125 55.765625 41.0625 55.515625 
z
" id="DejaVuSans-72"/>
    </defs>
    <g transform="translate(201.987543 122.729416)scale(0.1 -0.1)">
     <use xlink:href="#DejaVuSans-72"/>
     <use x="41.113281" xlink:href="#DejaVuSans-30"/>
     <use x="104.736328" xlink:href="#DejaVuSans-31"/>
     <use x="168.359375" xlink:href="#DejaVuSans-30"/>
    </g>
   </g>
   <g id="patch_15">
    <path d="M 755.242089 43.740722 
Q 755.335497 44.956617 755.343267 45.057764 
" style="fill:none;stroke:#000000;stroke-linecap:round;"/>
    <path d="M 757.031004 40.916321 
L 755.343267 45.057764 
L 753.042755 41.222709 
" style="fill:none;stroke:#000000;stroke-linecap:round;"/>
   </g>
   <g id="text_18">
    <g id="patch_16">
     <path d="M 741.581876 41.243419 
L 767.006876 41.243419 
Q 772.006876 41.243419 772.006876 36.243419 
L 772.006876 26.565294 
Q 772.006876 21.565294 767.006876 21.565294 
L 741.581876 21.565294 
Q 736.581876 21.565294 736.581876 26.565294 
L 736.581876 36.243419 
Q 736.581876 41.243419 741.581876 41.243419 
z
" style="fill:#ffff00;opacity:0.5;stroke:#000000;stroke-linejoin:miter;"/>
    </g>
    <!-- n522 -->
    <g transform="translate(741.581876 34.163731)scale(0.1 -0.1)">
     <use xlink:href="#DejaVuSans-6e"/>
     <use x="63.378906" xlink:href="#DejaVuSans-35"/>
     <use x="127.001953" xlink:href="#DejaVuSans-32"/>
     <use x="190.625" xlink:href="#DejaVuSans-32"/>
    </g>
   </g>
   <g id="patch_17">
    <path d="M 623.726129 65.353743 
Q 623.819538 66.569638 623.827308 66.670785 
" style="fill:none;stroke:#000000;stroke-linecap:round;"/>
    <path d="M 625.515044 62.529342 
L 623.827308 66.670785 
L 621.526796 62.83573 
" style="fill:none;stroke:#000000;stroke-linecap:round;"/>
   </g>
   <g id="text_19">
    <g id="patch_18">
     <path d="M 610.065917 62.85644 
L 635.490917 62.85644 
Q 640.490917 62.85644 640.490917 57.85644 
L 640.490917 48.178315 
Q 640.490917 43.178315 635.490917 43.178315 
L 610.065917 43.178315 
Q 605.065917 43.178315 605.065917 48.178315 
L 605.065917 57.85644 
Q 605.065917 62.85644 610.065917 62.85644 
z
" style="fill:#ffff00;opacity:0.5;stroke:#000000;stroke-linejoin:miter;"/>
    </g>
    <!-- n838 -->
    <g transform="translate(610.065917 55.776752)scale(0.1 -0.1)">
     <use xlink:href="#DejaVuSans-6e"/>
     <use x="63.378906" xlink:href="#DejaVuSans-38"/>
     <use x="127.001953" xlink:href="#DejaVuSans-33"/>
     <use x="190.625" xlink:href="#DejaVuSans-38"/>
    </g>
   </g>
   <g id="patch_19">
    <path d="M 466.668276 206.09068 
Q 466.761288 207.306575 466.769023 207.407694 
" style="fill:none;stroke:#000000;stroke-linecap:round;"/>
    <path d="M 468.458103 203.266799 
L 466.769023 207.407694 
L 464.469755 203.571893 
" style="fill:none;stroke:#000000;stroke-linecap:round;"/>
   </g>
   <g id="text_20">
    <g id="patch_20">
     <path d="M 453.00662 203.593377 
L 478.442558 203.593377 
Q 483.442558 203.593377 483.442558 198.593377 
L 483.442558 188.915252 
Q 483.442558 183.915252 478.442558 183.915252 
L 453.00662 183.915252 
Q 448.00662 183.915252 448.00662 188.915252 
L 448.00662 198.593377 
Q 448.00662 203.593377 453.00662 203.593377 
z
" style="fill:#ffff00;opacity:0.5;stroke:#000000;stroke-linejoin:miter;"/>
    </g>
    <!-- q664 -->
    <defs>
     <path d="M 14.796875 27.296875 
Q 14.796875 17.390625 18.875 11.75 
Q 22.953125 6.109375 30.078125 6.109375 
Q 37.203125 6.109375 41.296875 11.75 
Q 45.40625 17.390625 45.40625 27.296875 
Q 45.40625 37.203125 41.296875 42.84375 
Q 37.203125 48.484375 30.078125 48.484375 
Q 22.953125 48.484375 18.875 42.84375 
Q 14.796875 37.203125 14.796875 27.296875 
z
M 45.40625 8.203125 
Q 42.578125 3.328125 38.25 0.953125 
Q 33.9375 -1.421875 27.875 -1.421875 
Q 17.96875 -1.421875 11.734375 6.484375 
Q 5.515625 14.40625 5.515625 27.296875 
Q 5.515625 40.1875 11.734375 48.09375 
Q 17.96875 56 27.875 56 
Q 33.9375 56 38.25 53.625 
Q 42.578125 51.265625 45.40625 46.390625 
L 45.40625 54.6875 
L 54.390625 54.6875 
L 54.390625 -20.796875 
L 45.40625 -20.796875 
z
" id="DejaVuSans-71"/>
    </defs>
    <g transform="translate(453.00662 196.513689)scale(0.1 -0.1)">
     <use xlink:href="#DejaVuSans-71"/>
     <use x="63.476562" xlink:href="#DejaVuSans-36"/>
     <use x="127.099609" xlink:href="#DejaVuSans-36"/>
     <use x="190.722656" xlink:href="#DejaVuSans-34"/>
    </g>
   </g>
   <g id="patch_21">
    <path d="M 563.324398 201.875252 
Q 563.417409 203.091148 563.425145 203.192267 
" style="fill:none;stroke:#000000;stroke-linecap:round;"/>
    <path d="M 565.114224 199.051372 
L 563.425145 203.192267 
L 561.125877 199.356466 
" style="fill:none;stroke:#000000;stroke-linecap:round;"/>
   </g>
   <g id="text_21">
    <g id="patch_22">
     <path d="M 549.662742 199.377949 
L 575.09868 199.377949 
Q 580.09868 199.377949 580.09868 194.377949 
L 580.09868 184.699824 
Q 580.09868 179.699824 575.09868 179.699824 
L 549.662742 179.699824 
Q 544.662742 179.699824 544.662742 184.699824 
L 544.662742 194.377949 
Q 544.662742 199.377949 549.662742 199.377949 
z
" style="fill:#ffff00;opacity:0.5;stroke:#000000;stroke-linejoin:miter;"/>
    </g>
    <!-- q270 -->
    <g transform="translate(549.662742 192.298262)scale(0.1 -0.1)">
     <use xlink:href="#DejaVuSans-71"/>
     <use x="63.476562" xlink:href="#DejaVuSans-32"/>
     <use x="127.099609" xlink:href="#DejaVuSans-37"/>
     <use x="190.722656" xlink:href="#DejaVuSans-30"/>
    </g>
   </g>
   <g id="patch_23">
    <path d="M 713.700461 195.300989 
Q 713.79387 196.516885 713.80164 196.618031 
" style="fill:none;stroke:#000000;stroke-linecap:round;"/>
    <path d="M 715.489376 192.476589 
L 713.80164 196.618031 
L 711.501128 192.782977 
" style="fill:none;stroke:#000000;stroke-linecap:round;"/>
   </g>
   <g id="text_22">
    <g id="patch_24">
     <path d="M 700.040249 192.803686 
L 725.465249 192.803686 
Q 730.465249 192.803686 730.465249 187.803686 
L 730.465249 178.125561 
Q 730.465249 173.125561 725.465249 173.125561 
L 700.040249 173.125561 
Q 695.040249 173.125561 695.040249 178.125561 
L 695.040249 187.803686 
Q 695.040249 192.803686 700.040249 192.803686 
z
" style="fill:#ffff00;opacity:0.5;stroke:#000000;stroke-linejoin:miter;"/>
    </g>
    <!-- n732 -->
    <g transform="translate(700.040249 185.723999)scale(0.1 -0.1)">
     <use xlink:href="#DejaVuSans-6e"/>
     <use x="63.378906" xlink:href="#DejaVuSans-37"/>
     <use x="127.001953" xlink:href="#DejaVuSans-33"/>
     <use x="190.625" xlink:href="#DejaVuSans-32"/>
    </g>
   </g>
   <g id="patch_25">
    <path d="M 871.761695 704.746473 
Q 871.875102 705.964092 871.884826 706.068495 
" style="fill:none;stroke:#000000;stroke-linecap:round;"/>
    <path d="M 873.50526 701.900259 
L 871.884826 706.068495 
L 869.522497 702.271206 
" style="fill:none;stroke:#000000;stroke-linecap:round;"/>
   </g>
   <g id="text_23">
    <g id="patch_26">
     <path d="M 858.17423 702.255439 
L 883.052355 702.255439 
Q 888.052355 702.255439 888.052355 697.255439 
L 888.052355 687.577314 
Q 888.052355 682.577314 883.052355 682.577314 
L 858.17423 682.577314 
Q 853.17423 682.577314 853.17423 687.577314 
L 853.17423 697.255439 
Q 853.17423 702.255439 858.17423 702.255439 
z
" style="fill:#ffff00;opacity:0.5;stroke:#000000;stroke-linejoin:miter;"/>
    </g>
    <!-- k310 -->
    <defs>
     <path d="M 9.078125 75.984375 
L 18.109375 75.984375 
L 18.109375 31.109375 
L 44.921875 54.6875 
L 56.390625 54.6875 
L 27.390625 29.109375 
L 57.625 0 
L 45.90625 0 
L 18.109375 26.703125 
L 18.109375 0 
L 9.078125 0 
z
" id="DejaVuSans-6b"/>
    </defs>
    <g transform="translate(858.17423 695.175752)scale(0.1 -0.1)">
     <use xlink:href="#DejaVuSans-6b"/>
     <use x="57.910156" xlink:href="#DejaVuSans-33"/>
     <use x="121.533203" xlink:href="#DejaVuSans-31"/>
     <use x="185.15625" xlink:href="#DejaVuSans-30"/>
    </g>
   </g>
   <g id="patch_27">
    <path d="M 1100.730078 781.607123 
Q 1100.838831 782.824742 1100.848121 782.92876 
" style="fill:none;stroke:#000000;stroke-linecap:round;"/>
    <path d="M 1102.484345 778.766697 
L 1100.848121 782.92876 
L 1098.500205 779.122543 
" style="fill:none;stroke:#000000;stroke-linecap:round;"/>
   </g>
   <g id="text_24">
    <g id="patch_28">
     <path d="M 1087.125682 779.116089 
L 1112.131932 779.116089 
Q 1117.131932 779.116089 1117.131932 774.116089 
L 1117.131932 764.437964 
Q 1117.131932 759.437964 1112.131932 759.437964 
L 1087.125682 759.437964 
Q 1082.125682 759.437964 1082.125682 764.437964 
L 1082.125682 774.116089 
Q 1082.125682 779.116089 1087.125682 779.116089 
z
" style="fill:#ffff00;opacity:0.5;stroke:#000000;stroke-linejoin:miter;"/>
    </g>
    <!-- y751 -->
    <defs>
     <path d="M 32.171875 -5.078125 
Q 28.375 -14.84375 24.75 -17.8125 
Q 21.140625 -20.796875 15.09375 -20.796875 
L 7.90625 -20.796875 
L 7.90625 -13.28125 
L 13.1875 -13.28125 
Q 16.890625 -13.28125 18.9375 -11.515625 
Q 21 -9.765625 23.484375 -3.21875 
L 25.09375 0.875 
L 2.984375 54.6875 
L 12.5 54.6875 
L 29.59375 11.921875 
L 46.6875 54.6875 
L 56.203125 54.6875 
z
" id="DejaVuSans-79"/>
    </defs>
    <g transform="translate(1087.125682 772.036402)scale(0.1 -0.1)">
     <use xlink:href="#DejaVuSans-79"/>
     <use x="59.179688" xlink:href="#DejaVuSans-37"/>
     <use x="122.802734" xlink:href="#DejaVuSans-35"/>
     <use x="186.425781" xlink:href="#DejaVuSans-31"/>
    </g>
   </g>
   <g id="patch_29">
    <path d="M 411.289471 550.230596 
Q 411.413933 551.45254 411.425103 551.562206 
" style="fill:none;stroke:#000000;stroke-linecap:round;"/>
    <path d="M 413.009484 547.380133 
L 411.425103 551.562206 
L 409.030073 547.785457 
" style="fill:none;stroke:#000000;stroke-linecap:round;"/>
   </g>
   <g id="text_25">
    <g id="patch_30">
     <path d="M 397.740617 547.739562 
L 422.326554 547.739562 
Q 427.326554 547.739562 427.326554 542.739562 
L 427.326554 533.061437 
Q 427.326554 528.061437 422.326554 528.061437 
L 397.740617 528.061437 
Q 392.740617 528.061437 392.740617 533.061437 
L 392.740617 542.739562 
Q 392.740617 547.739562 397.740617 547.739562 
z
" style="fill:#ffff00;opacity:0.5;stroke:#000000;stroke-linejoin:miter;"/>
    </g>
    <!-- c721 -->
    <defs>
     <path d="M 48.78125 52.59375 
L 48.78125 44.1875 
Q 44.96875 46.296875 41.140625 47.34375 
Q 37.3125 48.390625 33.40625 48.390625 
Q 24.65625 48.390625 19.8125 42.84375 
Q 14.984375 37.3125 14.984375 27.296875 
Q 14.984375 17.28125 19.8125 11.734375 
Q 24.65625 6.203125 33.40625 6.203125 
Q 37.3125 6.203125 41.140625 7.25 
Q 44.96875 8.296875 48.78125 10.40625 
L 48.78125 2.09375 
Q 45.015625 0.34375 40.984375 -0.53125 
Q 36.96875 -1.421875 32.421875 -1.421875 
Q 20.0625 -1.421875 12.78125 6.34375 
Q 5.515625 14.109375 5.515625 27.296875 
Q 5.515625 40.671875 12.859375 48.328125 
Q 20.21875 56 33.015625 56 
Q 37.15625 56 41.109375 55.140625 
Q 45.0625 54.296875 48.78125 52.59375 
z
" id="DejaVuSans-63"/>
    </defs>
    <g transform="translate(397.740617 540.659875)scale(0.1 -0.1)">
     <use xlink:href="#DejaVuSans-63"/>
     <use x="54.980469" xlink:href="#DejaVuSans-37"/>
     <use x="118.603516" xlink:href="#DejaVuSans-32"/>
     <use x="182.226562" xlink:href="#DejaVuSans-31"/>
    </g>
   </g>
   <g id="patch_31">
    <path d="M 435.027318 353.98272 
Q 435.367802 355.259656 435.420236 355.456301 
" style="fill:none;stroke:#000000;stroke-linecap:round;"/>
    <path d="M 436.322157 351.076057 
L 435.420236 355.456301 
L 432.457193 352.106618 
" style="fill:none;stroke:#000000;stroke-linecap:round;"/>
   </g>
   <g id="text_26">
    <g id="patch_32">
     <path d="M 422.223393 351.54811 
L 441.285893 351.54811 
Q 446.285893 351.54811 446.285893 346.54811 
L 446.285893 336.869985 
Q 446.285893 331.869985 441.285893 331.869985 
L 422.223393 331.869985 
Q 417.223393 331.869985 417.223393 336.869985 
L 417.223393 346.54811 
Q 417.223393 351.54811 422.223393 351.54811 
z
" style="fill:#ffff00;opacity:0.5;stroke:#000000;stroke-linejoin:miter;"/>
    </g>
    <!-- n08 -->
    <g transform="translate(422.223393 344.468422)scale(0.1 -0.1)">
     <use xlink:href="#DejaVuSans-6e"/>
     <use x="63.378906" xlink:href="#DejaVuSans-30"/>
     <use x="127.001953" xlink:href="#DejaVuSans-38"/>
    </g>
   </g>
   <g id="patch_33">
    <path d="M 783.907596 393.932135 
Q 784.007834 395.149755 784.016343 395.253109 
" style="fill:none;stroke:#000000;stroke-linecap:round;"/>
    <path d="M 785.681417 391.102503 
L 784.016343 395.253109 
L 781.694902 391.430686 
" style="fill:none;stroke:#000000;stroke-linecap:round;"/>
   </g>
   <g id="text_27">
    <g id="patch_34">
     <path d="M 770.272229 391.441102 
L 795.512854 391.441102 
Q 800.512854 391.441102 800.512854 386.441102 
L 800.512854 376.762977 
Q 800.512854 371.762977 795.512854 371.762977 
L 770.272229 371.762977 
Q 765.272229 371.762977 765.272229 376.762977 
L 765.272229 386.441102 
Q 765.272229 391.441102 770.272229 391.441102 
z
" style="fill:#ffff00;opacity:0.5;stroke:#000000;stroke-linejoin:miter;"/>
    </g>
    <!-- e311 -->
    <defs>
     <path d="M 56.203125 29.59375 
L 56.203125 25.203125 
L 14.890625 25.203125 
Q 15.484375 15.921875 20.484375 11.0625 
Q 25.484375 6.203125 34.421875 6.203125 
Q 39.59375 6.203125 44.453125 7.46875 
Q 49.3125 8.734375 54.109375 11.28125 
L 54.109375 2.78125 
Q 49.265625 0.734375 44.1875 -0.34375 
Q 39.109375 -1.421875 33.890625 -1.421875 
Q 20.796875 -1.421875 13.15625 6.1875 
Q 5.515625 13.8125 5.515625 26.8125 
Q 5.515625 40.234375 12.765625 48.109375 
Q 20.015625 56 32.328125 56 
Q 43.359375 56 49.78125 48.890625 
Q 56.203125 41.796875 56.203125 29.59375 
z
M 47.21875 32.234375 
Q 47.125 39.59375 43.09375 43.984375 
Q 39.0625 48.390625 32.421875 48.390625 
Q 24.90625 48.390625 20.390625 44.140625 
Q 15.875 39.890625 15.1875 32.171875 
z
" id="DejaVuSans-65"/>
    </defs>
    <g transform="translate(770.272229 384.361414)scale(0.1 -0.1)">
     <use xlink:href="#DejaVuSans-65"/>
     <use x="61.523438" xlink:href="#DejaVuSans-33"/>
     <use x="125.146484" xlink:href="#DejaVuSans-31"/>
     <use x="188.769531" xlink:href="#DejaVuSans-31"/>
    </g>
   </g>
   <g id="patch_35">
    <path d="M 310.770974 339.695266 
Q 310.863986 340.911161 310.871721 341.01228 
" style="fill:none;stroke:#000000;stroke-linecap:round;"/>
    <path d="M 312.5608 336.871385 
L 310.871721 341.01228 
L 308.572453 337.176479 
" style="fill:none;stroke:#000000;stroke-linecap:round;"/>
   </g>
   <g id="text_28">
    <g id="patch_36">
     <path d="M 297.109318 337.197963 
L 322.545256 337.197963 
Q 327.545256 337.197963 327.545256 332.197963 
L 327.545256 322.519838 
Q 327.545256 317.519838 322.545256 317.519838 
L 297.109318 317.519838 
Q 292.109318 317.519838 292.109318 322.519838 
L 292.109318 332.197963 
Q 292.109318 337.197963 297.109318 337.197963 
z
" style="fill:#ffff00;opacity:0.5;stroke:#000000;stroke-linejoin:miter;"/>
    </g>
    <!-- g518 -->
    <defs>
     <path d="M 45.40625 27.984375 
Q 45.40625 37.75 41.375 43.109375 
Q 37.359375 48.484375 30.078125 48.484375 
Q 22.859375 48.484375 18.828125 43.109375 
Q 14.796875 37.75 14.796875 27.984375 
Q 14.796875 18.265625 18.828125 12.890625 
Q 22.859375 7.515625 30.078125 7.515625 
Q 37.359375 7.515625 41.375 12.890625 
Q 45.40625 18.265625 45.40625 27.984375 
z
M 54.390625 6.78125 
Q 54.390625 -7.171875 48.1875 -13.984375 
Q 42 -20.796875 29.203125 -20.796875 
Q 24.46875 -20.796875 20.265625 -20.09375 
Q 16.0625 -19.390625 12.109375 -17.921875 
L 12.109375 -9.1875 
Q 16.0625 -11.328125 19.921875 -12.34375 
Q 23.78125 -13.375 27.78125 -13.375 
Q 36.625 -13.375 41.015625 -8.765625 
Q 45.40625 -4.15625 45.40625 5.171875 
L 45.40625 9.625 
Q 42.625 4.78125 38.28125 2.390625 
Q 33.9375 0 27.875 0 
Q 17.828125 0 11.671875 7.65625 
Q 5.515625 15.328125 5.515625 27.984375 
Q 5.515625 40.671875 11.671875 48.328125 
Q 17.828125 56 27.875 56 
Q 33.9375 56 38.28125 53.609375 
Q 42.625 51.21875 45.40625 46.390625 
L 45.40625 54.6875 
L 54.390625 54.6875 
z
" id="DejaVuSans-67"/>
    </defs>
    <g transform="translate(297.109318 330.118275)scale(0.1 -0.1)">
     <use xlink:href="#DejaVuSans-67"/>
     <use x="63.476562" xlink:href="#DejaVuSans-35"/>
     <use x="127.099609" xlink:href="#DejaVuSans-31"/>
     <use x="190.722656" xlink:href="#DejaVuSans-38"/>
    </g>
   </g>
   <g id="patch_37">
    <path d="M 91.394876 152.810928 
Q 91.622162 154.052841 91.648177 154.194986 
" style="fill:none;stroke:#000000;stroke-linecap:round;"/>
    <path d="M 92.895408 149.90029 
L 91.648177 154.194986 
L 88.960759 150.620383 
" style="fill:none;stroke:#000000;stroke-linecap:round;"/>
   </g>
   <g id="text_29">
    <g id="patch_38">
     <path d="M 78.210082 150.344972 
L 100.075707 150.344972 
Q 105.075707 150.344972 105.075707 145.344972 
L 105.075707 135.666847 
Q 105.075707 130.666847 100.075707 130.666847 
L 78.210082 130.666847 
Q 73.210082 130.666847 73.210082 135.666847 
L 73.210082 145.344972 
Q 73.210082 150.344972 78.210082 150.344972 
z
" style="fill:#ffff00;opacity:0.5;stroke:#000000;stroke-linejoin:miter;"/>
    </g>
    <!-- i129 -->
    <defs>
     <path d="M 9.421875 54.6875 
L 18.40625 54.6875 
L 18.40625 0 
L 9.421875 0 
z
M 9.421875 75.984375 
L 18.40625 75.984375 
L 18.40625 64.59375 
L 9.421875 64.59375 
z
" id="DejaVuSans-69"/>
    </defs>
    <g transform="translate(78.210082 143.265285)scale(0.1 -0.1)">
     <use xlink:href="#DejaVuSans-69"/>
     <use x="27.783203" xlink:href="#DejaVuSans-31"/>
     <use x="91.40625" xlink:href="#DejaVuSans-32"/>
     <use x="155.029297" xlink:href="#DejaVuSans-39"/>
    </g>
   </g>
   <g id="patch_39">
    <path d="M 552.398471 77.459216 
Q 552.49871 78.676835 552.507218 78.780189 
" style="fill:none;stroke:#000000;stroke-linecap:round;"/>
    <path d="M 554.172292 74.629583 
L 552.507218 78.780189 
L 550.185778 74.957766 
" style="fill:none;stroke:#000000;stroke-linecap:round;"/>
   </g>
   <g id="text_30">
    <g id="patch_40">
     <path d="M 538.763104 74.968182 
L 564.003729 74.968182 
Q 569.003729 74.968182 569.003729 69.968182 
L 569.003729 60.290057 
Q 569.003729 55.290057 564.003729 55.290057 
L 538.763104 55.290057 
Q 533.763104 55.290057 533.763104 60.290057 
L 533.763104 69.968182 
Q 533.763104 74.968182 538.763104 74.968182 
z
" style="fill:#ffff00;opacity:0.5;stroke:#000000;stroke-linejoin:miter;"/>
    </g>
    <!-- e213 -->
    <g transform="translate(538.763104 67.888494)scale(0.1 -0.1)">
     <use xlink:href="#DejaVuSans-65"/>
     <use x="61.523438" xlink:href="#DejaVuSans-32"/>
     <use x="125.146484" xlink:href="#DejaVuSans-31"/>
     <use x="188.769531" xlink:href="#DejaVuSans-33"/>
    </g>
   </g>
   <g id="patch_41">
    <path d="M 526.630889 81.70076 
Q 526.724298 82.916655 526.732068 83.017802 
" style="fill:none;stroke:#000000;stroke-linecap:round;"/>
    <path d="M 528.419804 78.876359 
L 526.732068 83.017802 
L 524.431556 79.182747 
" style="fill:none;stroke:#000000;stroke-linecap:round;"/>
   </g>
   <g id="text_31">
    <g id="patch_42">
     <path d="M 512.970677 79.203457 
L 538.395677 79.203457 
Q 543.395677 79.203457 543.395677 74.203457 
L 543.395677 64.525332 
Q 543.395677 59.525332 538.395677 59.525332 
L 512.970677 59.525332 
Q 507.970677 59.525332 507.970677 64.525332 
L 507.970677 74.203457 
Q 507.970677 79.203457 512.970677 79.203457 
z
" style="fill:#ffff00;opacity:0.5;stroke:#000000;stroke-linejoin:miter;"/>
    </g>
    <!-- n900 -->
    <g transform="translate(512.970677 72.123769)scale(0.1 -0.1)">
     <use xlink:href="#DejaVuSans-6e"/>
     <use x="63.378906" xlink:href="#DejaVuSans-39"/>
     <use x="127.001953" xlink:href="#DejaVuSans-30"/>
     <use x="190.625" xlink:href="#DejaVuSans-30"/>
    </g>
   </g>
  </g>
 </g>
 <defs>
  <clipPath id="p975def9cc2">
   <rect height="815.4" width="1116" x="38.482813" y="10.7"/>
  </clipPath>
 </defs>
</svg>
