<?xml version="1.0" encoding="utf-8" standalone="no"?>
<!DOCTYPE svg PUBLIC "-//W3C//DTD SVG 1.1//EN"
  "http://www.w3.org/Graphics/SVG/1.1/DTD/svg11.dtd">
<!-- Created with matplotlib (http://matplotlib.org/) -->
<svg height="849pt" version="1.1" viewBox="0 0 1171 849" width="1171pt" xmlns="http://www.w3.org/2000/svg" xmlns:xlink="http://www.w3.org/1999/xlink">
 <defs>
  <style type="text/css">
*{stroke-linecap:butt;stroke-linejoin:round;}
  </style>
 </defs>
 <g id="figure_1">
  <g id="patch_1">
   <path d="M 0 849.978125 
L 1171.545312 849.978125 
L 1171.545312 0 
L 0 0 
z
" style="fill:#ffffff;"/>
  </g>
  <g id="axes_1">
   <g id="patch_2">
    <path d="M 44.845313 826.1 
L 1160.845313 826.1 
L 1160.845313 10.7 
L 44.845313 10.7 
z
" style="fill:#ffffff;"/>
   </g>
   <g id="PathCollection_1">
    <defs>
     <path d="M 0 3 
C 0.795609 3 1.55874 2.683901 2.12132 2.12132 
C 2.683901 1.55874 3 0.795609 3 0 
C 3 -0.795609 2.683901 -1.55874 2.12132 -2.12132 
C 1.55874 -2.683901 0.795609 -3 0 -3 
C -0.795609 -3 -1.55874 -2.683901 -2.12132 -2.12132 
C -2.683901 -1.55874 -3 -0.795609 -3 0 
C -3 0.795609 -2.683901 1.55874 -2.12132 2.12132 
C -1.55874 2.683901 -0.795609 3 0 3 
z
" id="m7da15f3a5c" style="stroke:#1f77b4;"/>
    </defs>
    <g clip-path="url(#p236bc43b91)">
     <use style="fill:#1f77b4;stroke:#1f77b4;" x="464.972947" xlink:href="#m7da15f3a5c" y="177.678111"/>
     <use style="fill:#1f77b4;stroke:#1f77b4;" x="668.440791" xlink:href="#m7da15f3a5c" y="263.20698"/>
     <use style="fill:#1f77b4;stroke:#1f77b4;" x="172.09916" xlink:href="#m7da15f3a5c" y="54.479635"/>
     <use style="fill:#1f77b4;stroke:#1f77b4;" x="532.794971" xlink:href="#m7da15f3a5c" y="206.34363"/>
    </g>
   </g>
   <g id="PathCollection_2">
    <defs>
     <path d="M 0 3 
C 0.795609 3 1.55874 2.683901 2.12132 2.12132 
C 2.683901 1.55874 3 0.795609 3 0 
C 3 -0.795609 2.683901 -1.55874 2.12132 -2.12132 
C 1.55874 -2.683901 0.795609 -3 0 -3 
C -0.795609 -3 -1.55874 -2.683901 -2.12132 -2.12132 
C -2.683901 -1.55874 -3 -0.795609 -3 0 
C -3 0.795609 -2.683901 1.55874 -2.12132 2.12132 
C -1.55874 2.683901 -0.795609 3 0 3 
z
" id="mf3b7f792b1" style="stroke:#ff7f0e;"/>
    </defs>
    <g clip-path="url(#p236bc43b91)">
     <use style="fill:#ff7f0e;stroke:#ff7f0e;" x="464.972947" xlink:href="#mf3b7f792b1" y="177.678111"/>
     <use style="fill:#ff7f0e;stroke:#ff7f0e;" x="668.440791" xlink:href="#mf3b7f792b1" y="263.20698"/>
     <use style="fill:#ff7f0e;stroke:#ff7f0e;" x="172.09916" xlink:href="#mf3b7f792b1" y="54.479635"/>
     <use style="fill:#ff7f0e;stroke:#ff7f0e;" x="532.794971" xlink:href="#mf3b7f792b1" y="206.34363"/>
    </g>
   </g>
   <g id="PathCollection_3">
    <defs>
     <path d="M 0 3 
C 0.795609 3 1.55874 2.683901 2.12132 2.12132 
C 2.683901 1.55874 3 0.795609 3 0 
C 3 -0.795609 2.683901 -1.55874 2.12132 -2.12132 
C 1.55874 -2.683901 0.795609 -3 0 -3 
C -0.795609 -3 -1.55874 -2.683901 -2.12132 -2.12132 
C -2.683901 -1.55874 -3 -0.795609 -3 0 
C -3 0.795609 -2.683901 1.55874 -2.12132 2.12132 
C -1.55874 2.683901 -0.795609 3 0 3 
z
" id="m5303d34c96" style="stroke:#2ca02c;"/>
    </defs>
    <g clip-path="url(#p236bc43b91)">
     <use style="fill:#2ca02c;stroke:#2ca02c;" x="464.972947" xlink:href="#m5303d34c96" y="177.678111"/>
     <use style="fill:#2ca02c;stroke:#2ca02c;" x="668.440791" xlink:href="#m5303d34c96" y="263.20698"/>
     <use style="fill:#2ca02c;stroke:#2ca02c;" x="172.09916" xlink:href="#m5303d34c96" y="54.479635"/>
     <use style="fill:#2ca02c;stroke:#2ca02c;" x="532.794971" xlink:href="#m5303d34c96" y="206.34363"/>
    </g>
   </g>
   <g id="PathCollection_4">
    <defs>
     <path d="M 0 3 
C 0.795609 3 1.55874 2.683901 2.12132 2.12132 
C 2.683901 1.55874 3 0.795609 3 0 
C 3 -0.795609 2.683901 -1.55874 2.12132 -2.12132 
C 1.55874 -2.683901 0.795609 -3 0 -3 
C -0.795609 -3 -1.55874 -2.683901 -2.12132 -2.12132 
C -2.683901 -1.55874 -3 -0.795609 -3 0 
C -3 0.795609 -2.683901 1.55874 -2.12132 2.12132 
C -1.55874 2.683901 -0.795609 3 0 3 
z
" id="m43e12385a2" style="stroke:#d62728;"/>
    </defs>
    <g clip-path="url(#p236bc43b91)">
     <use style="fill:#d62728;stroke:#d62728;" x="464.972947" xlink:href="#m43e12385a2" y="177.678111"/>
     <use style="fill:#d62728;stroke:#d62728;" x="668.440791" xlink:href="#m43e12385a2" y="263.20698"/>
     <use style="fill:#d62728;stroke:#d62728;" x="172.09916" xlink:href="#m43e12385a2" y="54.479635"/>
     <use style="fill:#d62728;stroke:#d62728;" x="532.794971" xlink:href="#m43e12385a2" y="206.34363"/>
    </g>
   </g>
   <g id="PathCollection_5">
    <defs>
     <path d="M 0 3 
C 0.795609 3 1.55874 2.683901 2.12132 2.12132 
C 2.683901 1.55874 3 0.795609 3 0 
C 3 -0.795609 2.683901 -1.55874 2.12132 -2.12132 
C 1.55874 -2.683901 0.795609 -3 0 -3 
C -0.795609 -3 -1.55874 -2.683901 -2.12132 -2.12132 
C -2.683901 -1.55874 -3 -0.795609 -3 0 
C -3 0.795609 -2.683901 1.55874 -2.12132 2.12132 
C -1.55874 2.683901 -0.795609 3 0 3 
z
" id="m69ac4acbbf" style="stroke:#9467bd;"/>
    </defs>
    <g clip-path="url(#p236bc43b91)">
     <use style="fill:#9467bd;stroke:#9467bd;" x="331.594128" xlink:href="#m69ac4acbbf" y="358.750918"/>
     <use style="fill:#9467bd;stroke:#9467bd;" x="259.597652" xlink:href="#m69ac4acbbf" y="349.230371"/>
     <use style="fill:#9467bd;stroke:#9467bd;" x="512.518587" xlink:href="#m69ac4acbbf" y="382.4675"/>
    </g>
   </g>
   <g id="PathCollection_6">
    <defs>
     <path d="M 0 3 
C 0.795609 3 1.55874 2.683901 2.12132 2.12132 
C 2.683901 1.55874 3 0.795609 3 0 
C 3 -0.795609 2.683901 -1.55874 2.12132 -2.12132 
C 1.55874 -2.683901 0.795609 -3 0 -3 
C -0.795609 -3 -1.55874 -2.683901 -2.12132 -2.12132 
C -2.683901 -1.55874 -3 -0.795609 -3 0 
C -3 0.795609 -2.683901 1.55874 -2.12132 2.12132 
C -1.55874 2.683901 -0.795609 3 0 3 
z
" id="m959dda6205" style="stroke:#8c564b;"/>
    </defs>
    <g clip-path="url(#p236bc43b91)">
     <use style="fill:#8c564b;stroke:#8c564b;" x="331.594128" xlink:href="#m959dda6205" y="358.750918"/>
     <use style="fill:#8c564b;stroke:#8c564b;" x="259.597652" xlink:href="#m959dda6205" y="349.230371"/>
     <use style="fill:#8c564b;stroke:#8c564b;" x="512.518587" xlink:href="#m959dda6205" y="382.4675"/>
    </g>
   </g>
   <g id="PathCollection_7">
    <defs>
     <path d="M 0 3 
C 0.795609 3 1.55874 2.683901 2.12132 2.12132 
C 2.683901 1.55874 3 0.795609 3 0 
C 3 -0.795609 2.683901 -1.55874 2.12132 -2.12132 
C 1.55874 -2.683901 0.795609 -3 0 -3 
C -0.795609 -3 -1.55874 -2.683901 -2.12132 -2.12132 
C -2.683901 -1.55874 -3 -0.795609 -3 0 
C -3 0.795609 -2.683901 1.55874 -2.12132 2.12132 
C -1.55874 2.683901 -0.795609 3 0 3 
z
" id="m27753c233e" style="stroke:#e377c2;"/>
    </defs>
    <g clip-path="url(#p236bc43b91)">
     <use style="fill:#e377c2;stroke:#e377c2;" x="331.594128" xlink:href="#m27753c233e" y="358.750918"/>
     <use style="fill:#e377c2;stroke:#e377c2;" x="259.597652" xlink:href="#m27753c233e" y="349.230371"/>
     <use style="fill:#e377c2;stroke:#e377c2;" x="512.518587" xlink:href="#m27753c233e" y="382.4675"/>
    </g>
   </g>
   <g id="PathCollection_8">
    <defs>
     <path d="M 0 3 
C 0.795609 3 1.55874 2.683901 2.12132 2.12132 
C 2.683901 1.55874 3 0.795609 3 0 
C 3 -0.795609 2.683901 -1.55874 2.12132 -2.12132 
C 1.55874 -2.683901 0.795609 -3 0 -3 
C -0.795609 -3 -1.55874 -2.683901 -2.12132 -2.12132 
C -2.683901 -1.55874 -3 -0.795609 -3 0 
C -3 0.795609 -2.683901 1.55874 -2.12132 2.12132 
C -1.55874 2.683901 -0.795609 3 0 3 
z
" id="md4a469064b" style="stroke:#7f7f7f;"/>
    </defs>
    <g clip-path="url(#p236bc43b91)">
     <use style="fill:#7f7f7f;stroke:#7f7f7f;" x="909.462358" xlink:href="#md4a469064b" y="786.03639"/>
     <use style="fill:#7f7f7f;stroke:#7f7f7f;" x="1107.306516" xlink:href="#md4a469064b" y="523.458991"/>
     <use style="fill:#7f7f7f;stroke:#7f7f7f;" x="940.984254" xlink:href="#md4a469064b" y="743.97795"/>
    </g>
   </g>
   <g id="PathCollection_9">
    <defs>
     <path d="M 0 3 
C 0.795609 3 1.55874 2.683901 2.12132 2.12132 
C 2.683901 1.55874 3 0.795609 3 0 
C 3 -0.795609 2.683901 -1.55874 2.12132 -2.12132 
C 1.55874 -2.683901 0.795609 -3 0 -3 
C -0.795609 -3 -1.55874 -2.683901 -2.12132 -2.12132 
C -2.683901 -1.55874 -3 -0.795609 -3 0 
C -3 0.795609 -2.683901 1.55874 -2.12132 2.12132 
C -1.55874 2.683901 -0.795609 3 0 3 
z
" id="mc9433c38e6" style="stroke:#bcbd22;"/>
    </defs>
    <g clip-path="url(#p236bc43b91)">
     <use style="fill:#bcbd22;stroke:#bcbd22;" x="909.462358" xlink:href="#mc9433c38e6" y="786.03639"/>
     <use style="fill:#bcbd22;stroke:#bcbd22;" x="1107.306516" xlink:href="#mc9433c38e6" y="523.458991"/>
     <use style="fill:#bcbd22;stroke:#bcbd22;" x="940.984254" xlink:href="#mc9433c38e6" y="743.97795"/>
    </g>
   </g>
   <g id="PathCollection_10">
    <defs>
     <path d="M 0 3 
C 0.795609 3 1.55874 2.683901 2.12132 2.12132 
C 2.683901 1.55874 3 0.795609 3 0 
C 3 -0.795609 2.683901 -1.55874 2.12132 -2.12132 
C 1.55874 -2.683901 0.795609 -3 0 -3 
C -0.795609 -3 -1.55874 -2.683901 -2.12132 -2.12132 
C -2.683901 -1.55874 -3 -0.795609 -3 0 
C -3 0.795609 -2.683901 1.55874 -2.12132 2.12132 
C -1.55874 2.683901 -0.795609 3 0 3 
z
" id="mb70c13bbfa" style="stroke:#17becf;"/>
    </defs>
    <g clip-path="url(#p236bc43b91)">
     <use style="fill:#17becf;stroke:#17becf;" x="909.462358" xlink:href="#mb70c13bbfa" y="786.03639"/>
     <use style="fill:#17becf;stroke:#17becf;" x="1107.306516" xlink:href="#mb70c13bbfa" y="523.458991"/>
     <use style="fill:#17becf;stroke:#17becf;" x="940.984254" xlink:href="#mb70c13bbfa" y="743.97795"/>
    </g>
   </g>
   <g id="PathCollection_11">
    <g clip-path="url(#p236bc43b91)">
     <use style="fill:#1f77b4;stroke:#1f77b4;" x="98.572584" xlink:href="#m7da15f3a5c" y="77.801793"/>
     <use style="fill:#1f77b4;stroke:#1f77b4;" x="397.237071" xlink:href="#m7da15f3a5c" y="188.412598"/>
     <use style="fill:#1f77b4;stroke:#1f77b4;" x="118.290318" xlink:href="#m7da15f3a5c" y="85.383746"/>
    </g>
   </g>
   <g id="PathCollection_12">
    <g clip-path="url(#p236bc43b91)">
     <use style="fill:#ff7f0e;stroke:#ff7f0e;" x="98.572584" xlink:href="#mf3b7f792b1" y="77.801793"/>
     <use style="fill:#ff7f0e;stroke:#ff7f0e;" x="397.237071" xlink:href="#mf3b7f792b1" y="188.412598"/>
     <use style="fill:#ff7f0e;stroke:#ff7f0e;" x="118.290318" xlink:href="#mf3b7f792b1" y="85.383746"/>
    </g>
   </g>
   <g id="PathCollection_13">
    <g clip-path="url(#p236bc43b91)">
     <use style="fill:#2ca02c;stroke:#2ca02c;" x="98.572584" xlink:href="#m5303d34c96" y="77.801793"/>
     <use style="fill:#2ca02c;stroke:#2ca02c;" x="397.237071" xlink:href="#m5303d34c96" y="188.412598"/>
     <use style="fill:#2ca02c;stroke:#2ca02c;" x="118.290318" xlink:href="#m5303d34c96" y="85.383746"/>
    </g>
   </g>
   <g id="matplotlib.axis_1">
    <g id="xtick_1">
     <g id="line2d_1">
      <defs>
       <path d="M 0 0 
L 0 3.5 
" id="m5c9450ab24" style="stroke:#000000;stroke-width:0.8;"/>
      </defs>
      <g>
       <use style="stroke:#000000;stroke-width:0.8;" x="198.882598" xlink:href="#m5c9450ab24" y="826.1"/>
      </g>
     </g>
     <g id="text_1">
      <!-- −0.20 -->
      <defs>
       <path d="M 10.59375 35.5 
L 73.1875 35.5 
L 73.1875 27.203125 
L 10.59375 27.203125 
z
" id="DejaVuSans-2212"/>
       <path d="M 31.78125 66.40625 
Q 24.171875 66.40625 20.328125 58.90625 
Q 16.5 51.421875 16.5 36.375 
Q 16.5 21.390625 20.328125 13.890625 
Q 24.171875 6.390625 31.78125 6.390625 
Q 39.453125 6.390625 43.28125 13.890625 
Q 47.125 21.390625 47.125 36.375 
Q 47.125 51.421875 43.28125 58.90625 
Q 39.453125 66.40625 31.78125 66.40625 
z
M 31.78125 74.21875 
Q 44.046875 74.21875 50.515625 64.515625 
Q 56.984375 54.828125 56.984375 36.375 
Q 56.984375 17.96875 50.515625 8.265625 
Q 44.046875 -1.421875 31.78125 -1.421875 
Q 19.53125 -1.421875 13.0625 8.265625 
Q 6.59375 17.96875 6.59375 36.375 
Q 6.59375 54.828125 13.0625 64.515625 
Q 19.53125 74.21875 31.78125 74.21875 
z
" id="DejaVuSans-30"/>
       <path d="M 10.6875 12.40625 
L 21 12.40625 
L 21 0 
L 10.6875 0 
z
" id="DejaVuSans-2e"/>
       <path d="M 19.1875 8.296875 
L 53.609375 8.296875 
L 53.609375 0 
L 7.328125 0 
L 7.328125 8.296875 
Q 12.9375 14.109375 22.625 23.890625 
Q 32.328125 33.6875 34.8125 36.53125 
Q 39.546875 41.84375 41.421875 45.53125 
Q 43.3125 49.21875 43.3125 52.78125 
Q 43.3125 58.59375 39.234375 62.25 
Q 35.15625 65.921875 28.609375 65.921875 
Q 23.96875 65.921875 18.8125 64.3125 
Q 13.671875 62.703125 7.8125 59.421875 
L 7.8125 69.390625 
Q 13.765625 71.78125 18.9375 73 
Q 24.125 74.21875 28.421875 74.21875 
Q 39.75 74.21875 46.484375 68.546875 
Q 53.21875 62.890625 53.21875 53.421875 
Q 53.21875 48.921875 51.53125 44.890625 
Q 49.859375 40.875 45.40625 35.40625 
Q 44.1875 33.984375 37.640625 27.21875 
Q 31.109375 20.453125 19.1875 8.296875 
z
" id="DejaVuSans-32"/>
      </defs>
      <g transform="translate(183.559942 840.698437)scale(0.1 -0.1)">
       <use xlink:href="#DejaVuSans-2212"/>
       <use x="83.789062" xlink:href="#DejaVuSans-30"/>
       <use x="147.412109" xlink:href="#DejaVuSans-2e"/>
       <use x="179.199219" xlink:href="#DejaVuSans-32"/>
       <use x="242.822266" xlink:href="#DejaVuSans-30"/>
      </g>
     </g>
    </g>
    <g id="xtick_2">
     <g id="line2d_2">
      <g>
       <use style="stroke:#000000;stroke-width:0.8;" x="436.795728" xlink:href="#m5c9450ab24" y="826.1"/>
      </g>
     </g>
     <g id="text_2">
      <!-- −0.15 -->
      <defs>
       <path d="M 12.40625 8.296875 
L 28.515625 8.296875 
L 28.515625 63.921875 
L 10.984375 60.40625 
L 10.984375 69.390625 
L 28.421875 72.90625 
L 38.28125 72.90625 
L 38.28125 8.296875 
L 54.390625 8.296875 
L 54.390625 0 
L 12.40625 0 
z
" id="DejaVuSans-31"/>
       <path d="M 10.796875 72.90625 
L 49.515625 72.90625 
L 49.515625 64.59375 
L 19.828125 64.59375 
L 19.828125 46.734375 
Q 21.96875 47.46875 24.109375 47.828125 
Q 26.265625 48.1875 28.421875 48.1875 
Q 40.625 48.1875 47.75 41.5 
Q 54.890625 34.8125 54.890625 23.390625 
Q 54.890625 11.625 47.5625 5.09375 
Q 40.234375 -1.421875 26.90625 -1.421875 
Q 22.3125 -1.421875 17.546875 -0.640625 
Q 12.796875 0.140625 7.71875 1.703125 
L 7.71875 11.625 
Q 12.109375 9.234375 16.796875 8.0625 
Q 21.484375 6.890625 26.703125 6.890625 
Q 35.15625 6.890625 40.078125 11.328125 
Q 45.015625 15.765625 45.015625 23.390625 
Q 45.015625 31 40.078125 35.4375 
Q 35.15625 39.890625 26.703125 39.890625 
Q 22.75 39.890625 18.8125 39.015625 
Q 14.890625 38.140625 10.796875 36.28125 
z
" id="DejaVuSans-35"/>
      </defs>
      <g transform="translate(421.473071 840.698437)scale(0.1 -0.1)">
       <use xlink:href="#DejaVuSans-2212"/>
       <use x="83.789062" xlink:href="#DejaVuSans-30"/>
       <use x="147.412109" xlink:href="#DejaVuSans-2e"/>
       <use x="179.199219" xlink:href="#DejaVuSans-31"/>
       <use x="242.822266" xlink:href="#DejaVuSans-35"/>
      </g>
     </g>
    </g>
    <g id="xtick_3">
     <g id="line2d_3">
      <g>
       <use style="stroke:#000000;stroke-width:0.8;" x="674.708857" xlink:href="#m5c9450ab24" y="826.1"/>
      </g>
     </g>
     <g id="text_3">
      <!-- −0.10 -->
      <g transform="translate(659.386201 840.698437)scale(0.1 -0.1)">
       <use xlink:href="#DejaVuSans-2212"/>
       <use x="83.789062" xlink:href="#DejaVuSans-30"/>
       <use x="147.412109" xlink:href="#DejaVuSans-2e"/>
       <use x="179.199219" xlink:href="#DejaVuSans-31"/>
       <use x="242.822266" xlink:href="#DejaVuSans-30"/>
      </g>
     </g>
    </g>
    <g id="xtick_4">
     <g id="line2d_4">
      <g>
       <use style="stroke:#000000;stroke-width:0.8;" x="912.621987" xlink:href="#m5c9450ab24" y="826.1"/>
      </g>
     </g>
     <g id="text_4">
      <!-- −0.05 -->
      <g transform="translate(897.299331 840.698437)scale(0.1 -0.1)">
       <use xlink:href="#DejaVuSans-2212"/>
       <use x="83.789062" xlink:href="#DejaVuSans-30"/>
       <use x="147.412109" xlink:href="#DejaVuSans-2e"/>
       <use x="179.199219" xlink:href="#DejaVuSans-30"/>
       <use x="242.822266" xlink:href="#DejaVuSans-35"/>
      </g>
     </g>
    </g>
    <g id="xtick_5">
     <g id="line2d_5">
      <g>
       <use style="stroke:#000000;stroke-width:0.8;" x="1150.535117" xlink:href="#m5c9450ab24" y="826.1"/>
      </g>
     </g>
     <g id="text_5">
      <!-- 0.00 -->
      <g transform="translate(1139.402305 840.698437)scale(0.1 -0.1)">
       <use xlink:href="#DejaVuSans-30"/>
       <use x="63.623047" xlink:href="#DejaVuSans-2e"/>
       <use x="95.410156" xlink:href="#DejaVuSans-30"/>
       <use x="159.033203" xlink:href="#DejaVuSans-30"/>
      </g>
     </g>
    </g>
   </g>
   <g id="matplotlib.axis_2">
    <g id="ytick_1">
     <g id="line2d_6">
      <defs>
       <path d="M 0 0 
L -3.5 0 
" id="m8676151056" style="stroke:#000000;stroke-width:0.8;"/>
      </defs>
      <g>
       <use style="stroke:#000000;stroke-width:0.8;" x="44.845313" xlink:href="#m8676151056" y="739.90583"/>
      </g>
     </g>
     <g id="text_6">
      <!-- −0.15 -->
      <g transform="translate(7.2 743.705049)scale(0.1 -0.1)">
       <use xlink:href="#DejaVuSans-2212"/>
       <use x="83.789062" xlink:href="#DejaVuSans-30"/>
       <use x="147.412109" xlink:href="#DejaVuSans-2e"/>
       <use x="179.199219" xlink:href="#DejaVuSans-31"/>
       <use x="242.822266" xlink:href="#DejaVuSans-35"/>
      </g>
     </g>
    </g>
    <g id="ytick_2">
     <g id="line2d_7">
      <g>
       <use style="stroke:#000000;stroke-width:0.8;" x="44.845313" xlink:href="#m8676151056" y="648.635403"/>
      </g>
     </g>
     <g id="text_7">
      <!-- −0.10 -->
      <g transform="translate(7.2 652.434622)scale(0.1 -0.1)">
       <use xlink:href="#DejaVuSans-2212"/>
       <use x="83.789062" xlink:href="#DejaVuSans-30"/>
       <use x="147.412109" xlink:href="#DejaVuSans-2e"/>
       <use x="179.199219" xlink:href="#DejaVuSans-31"/>
       <use x="242.822266" xlink:href="#DejaVuSans-30"/>
      </g>
     </g>
    </g>
    <g id="ytick_3">
     <g id="line2d_8">
      <g>
       <use style="stroke:#000000;stroke-width:0.8;" x="44.845313" xlink:href="#m8676151056" y="557.364977"/>
      </g>
     </g>
     <g id="text_8">
      <!-- −0.05 -->
      <g transform="translate(7.2 561.164195)scale(0.1 -0.1)">
       <use xlink:href="#DejaVuSans-2212"/>
       <use x="83.789062" xlink:href="#DejaVuSans-30"/>
       <use x="147.412109" xlink:href="#DejaVuSans-2e"/>
       <use x="179.199219" xlink:href="#DejaVuSans-30"/>
       <use x="242.822266" xlink:href="#DejaVuSans-35"/>
      </g>
     </g>
    </g>
    <g id="ytick_4">
     <g id="line2d_9">
      <g>
       <use style="stroke:#000000;stroke-width:0.8;" x="44.845313" xlink:href="#m8676151056" y="466.09455"/>
      </g>
     </g>
     <g id="text_9">
      <!-- 0.00 -->
      <g transform="translate(15.579688 469.893768)scale(0.1 -0.1)">
       <use xlink:href="#DejaVuSans-30"/>
       <use x="63.623047" xlink:href="#DejaVuSans-2e"/>
       <use x="95.410156" xlink:href="#DejaVuSans-30"/>
       <use x="159.033203" xlink:href="#DejaVuSans-30"/>
      </g>
     </g>
    </g>
    <g id="ytick_5">
     <g id="line2d_10">
      <g>
       <use style="stroke:#000000;stroke-width:0.8;" x="44.845313" xlink:href="#m8676151056" y="374.824123"/>
      </g>
     </g>
     <g id="text_10">
      <!-- 0.05 -->
      <g transform="translate(15.579688 378.623342)scale(0.1 -0.1)">
       <use xlink:href="#DejaVuSans-30"/>
       <use x="63.623047" xlink:href="#DejaVuSans-2e"/>
       <use x="95.410156" xlink:href="#DejaVuSans-30"/>
       <use x="159.033203" xlink:href="#DejaVuSans-35"/>
      </g>
     </g>
    </g>
    <g id="ytick_6">
     <g id="line2d_11">
      <g>
       <use style="stroke:#000000;stroke-width:0.8;" x="44.845313" xlink:href="#m8676151056" y="283.553696"/>
      </g>
     </g>
     <g id="text_11">
      <!-- 0.10 -->
      <g transform="translate(15.579688 287.352915)scale(0.1 -0.1)">
       <use xlink:href="#DejaVuSans-30"/>
       <use x="63.623047" xlink:href="#DejaVuSans-2e"/>
       <use x="95.410156" xlink:href="#DejaVuSans-31"/>
       <use x="159.033203" xlink:href="#DejaVuSans-30"/>
      </g>
     </g>
    </g>
    <g id="ytick_7">
     <g id="line2d_12">
      <g>
       <use style="stroke:#000000;stroke-width:0.8;" x="44.845313" xlink:href="#m8676151056" y="192.283269"/>
      </g>
     </g>
     <g id="text_12">
      <!-- 0.15 -->
      <g transform="translate(15.579688 196.082488)scale(0.1 -0.1)">
       <use xlink:href="#DejaVuSans-30"/>
       <use x="63.623047" xlink:href="#DejaVuSans-2e"/>
       <use x="95.410156" xlink:href="#DejaVuSans-31"/>
       <use x="159.033203" xlink:href="#DejaVuSans-35"/>
      </g>
     </g>
    </g>
    <g id="ytick_8">
     <g id="line2d_13">
      <g>
       <use style="stroke:#000000;stroke-width:0.8;" x="44.845313" xlink:href="#m8676151056" y="101.012842"/>
      </g>
     </g>
     <g id="text_13">
      <!-- 0.20 -->
      <g transform="translate(15.579688 104.812061)scale(0.1 -0.1)">
       <use xlink:href="#DejaVuSans-30"/>
       <use x="63.623047" xlink:href="#DejaVuSans-2e"/>
       <use x="95.410156" xlink:href="#DejaVuSans-32"/>
       <use x="159.033203" xlink:href="#DejaVuSans-30"/>
      </g>
     </g>
    </g>
   </g>
   <g id="patch_3">
    <path d="M 44.845313 826.1 
L 44.845313 10.7 
" style="fill:none;stroke:#000000;stroke-linecap:square;stroke-linejoin:miter;stroke-width:0.8;"/>
   </g>
   <g id="patch_4">
    <path d="M 1160.845313 826.1 
L 1160.845313 10.7 
" style="fill:none;stroke:#000000;stroke-linecap:square;stroke-linejoin:miter;stroke-width:0.8;"/>
   </g>
   <g id="patch_5">
    <path d="M 44.845313 826.1 
L 1160.845312 826.1 
" style="fill:none;stroke:#000000;stroke-linecap:square;stroke-linejoin:miter;stroke-width:0.8;"/>
   </g>
   <g id="patch_6">
    <path d="M 44.845313 10.7 
L 1160.845312 10.7 
" style="fill:none;stroke:#000000;stroke-linecap:square;stroke-linejoin:miter;stroke-width:0.8;"/>
   </g>
   <g id="patch_7">
    <path d="M 464.60501 173.248832 
Q 464.706157 174.466451 464.714748 174.569874 
" style="fill:none;stroke:#000000;stroke-linecap:round;"/>
    <path d="M 466.376747 170.418036 
L 464.714748 174.569874 
L 462.390477 170.749172 
" style="fill:none;stroke:#000000;stroke-linecap:round;"/>
   </g>
   <g id="text_14">
    <g id="patch_8">
     <path d="M 450.972947 170.757798 
L 476.188572 170.757798 
Q 481.188572 170.757798 481.188572 165.757798 
L 481.188572 156.079673 
Q 481.188572 151.079673 476.188572 151.079673 
L 450.972947 151.079673 
Q 445.972947 151.079673 445.972947 156.079673 
L 445.972947 165.757798 
Q 445.972947 170.757798 450.972947 170.757798 
z
" style="fill:#ffff00;opacity:0.5;stroke:#000000;stroke-linejoin:miter;"/>
    </g>
    <!-- a305 -->
    <defs>
     <path d="M 34.28125 27.484375 
Q 23.390625 27.484375 19.1875 25 
Q 14.984375 22.515625 14.984375 16.5 
Q 14.984375 11.71875 18.140625 8.90625 
Q 21.296875 6.109375 26.703125 6.109375 
Q 34.1875 6.109375 38.703125 11.40625 
Q 43.21875 16.703125 43.21875 25.484375 
L 43.21875 27.484375 
z
M 52.203125 31.203125 
L 52.203125 0 
L 43.21875 0 
L 43.21875 8.296875 
Q 40.140625 3.328125 35.546875 0.953125 
Q 30.953125 -1.421875 24.3125 -1.421875 
Q 15.921875 -1.421875 10.953125 3.296875 
Q 6 8.015625 6 15.921875 
Q 6 25.140625 12.171875 29.828125 
Q 18.359375 34.515625 30.609375 34.515625 
L 43.21875 34.515625 
L 43.21875 35.40625 
Q 43.21875 41.609375 39.140625 45 
Q 35.0625 48.390625 27.6875 48.390625 
Q 23 48.390625 18.546875 47.265625 
Q 14.109375 46.140625 10.015625 43.890625 
L 10.015625 52.203125 
Q 14.9375 54.109375 19.578125 55.046875 
Q 24.21875 56 28.609375 56 
Q 40.484375 56 46.34375 49.84375 
Q 52.203125 43.703125 52.203125 31.203125 
z
" id="DejaVuSans-61"/>
     <path d="M 40.578125 39.3125 
Q 47.65625 37.796875 51.625 33 
Q 55.609375 28.21875 55.609375 21.1875 
Q 55.609375 10.40625 48.1875 4.484375 
Q 40.765625 -1.421875 27.09375 -1.421875 
Q 22.515625 -1.421875 17.65625 -0.515625 
Q 12.796875 0.390625 7.625 2.203125 
L 7.625 11.71875 
Q 11.71875 9.328125 16.59375 8.109375 
Q 21.484375 6.890625 26.8125 6.890625 
Q 36.078125 6.890625 40.9375 10.546875 
Q 45.796875 14.203125 45.796875 21.1875 
Q 45.796875 27.640625 41.28125 31.265625 
Q 36.765625 34.90625 28.71875 34.90625 
L 20.21875 34.90625 
L 20.21875 43.015625 
L 29.109375 43.015625 
Q 36.375 43.015625 40.234375 45.921875 
Q 44.09375 48.828125 44.09375 54.296875 
Q 44.09375 59.90625 40.109375 62.90625 
Q 36.140625 65.921875 28.71875 65.921875 
Q 24.65625 65.921875 20.015625 65.03125 
Q 15.375 64.15625 9.8125 62.3125 
L 9.8125 71.09375 
Q 15.4375 72.65625 20.34375 73.4375 
Q 25.25 74.21875 29.59375 74.21875 
Q 40.828125 74.21875 47.359375 69.109375 
Q 53.90625 64.015625 53.90625 55.328125 
Q 53.90625 49.265625 50.4375 45.09375 
Q 46.96875 40.921875 40.578125 39.3125 
z
" id="DejaVuSans-33"/>
    </defs>
    <g transform="translate(450.972947 163.678111)scale(0.1 -0.1)">
     <use xlink:href="#DejaVuSans-61"/>
     <use x="61.279297" xlink:href="#DejaVuSans-33"/>
     <use x="124.902344" xlink:href="#DejaVuSans-30"/>
     <use x="188.525391" xlink:href="#DejaVuSans-35"/>
    </g>
   </g>
   <g id="patch_9">
    <path d="M 668.101004 258.78397 
Q 668.194412 259.999866 668.202183 260.101012 
" style="fill:none;stroke:#000000;stroke-linecap:round;"/>
    <path d="M 669.889919 255.95957 
L 668.202183 260.101012 
L 665.901671 256.265958 
" style="fill:none;stroke:#000000;stroke-linecap:round;"/>
   </g>
   <g id="text_15">
    <g id="patch_10">
     <path d="M 654.440791 256.286667 
L 679.865791 256.286667 
Q 684.865791 256.286667 684.865791 251.286667 
L 684.865791 241.608542 
Q 684.865791 236.608542 679.865791 236.608542 
L 654.440791 236.608542 
Q 649.440791 236.608542 649.440791 241.608542 
L 649.440791 251.286667 
Q 649.440791 256.286667 654.440791 256.286667 
z
" style="fill:#ffff00;opacity:0.5;stroke:#000000;stroke-linejoin:miter;"/>
    </g>
    <!-- n922 -->
    <defs>
     <path d="M 54.890625 33.015625 
L 54.890625 0 
L 45.90625 0 
L 45.90625 32.71875 
Q 45.90625 40.484375 42.875 44.328125 
Q 39.84375 48.1875 33.796875 48.1875 
Q 26.515625 48.1875 22.3125 43.546875 
Q 18.109375 38.921875 18.109375 30.90625 
L 18.109375 0 
L 9.078125 0 
L 9.078125 54.6875 
L 18.109375 54.6875 
L 18.109375 46.1875 
Q 21.34375 51.125 25.703125 53.5625 
Q 30.078125 56 35.796875 56 
Q 45.21875 56 50.046875 50.171875 
Q 54.890625 44.34375 54.890625 33.015625 
z
" id="DejaVuSans-6e"/>
     <path d="M 10.984375 1.515625 
L 10.984375 10.5 
Q 14.703125 8.734375 18.5 7.8125 
Q 22.3125 6.890625 25.984375 6.890625 
Q 35.75 6.890625 40.890625 13.453125 
Q 46.046875 20.015625 46.78125 33.40625 
Q 43.953125 29.203125 39.59375 26.953125 
Q 35.25 24.703125 29.984375 24.703125 
Q 19.046875 24.703125 12.671875 31.3125 
Q 6.296875 37.9375 6.296875 49.421875 
Q 6.296875 60.640625 12.9375 67.421875 
Q 19.578125 74.21875 30.609375 74.21875 
Q 43.265625 74.21875 49.921875 64.515625 
Q 56.59375 54.828125 56.59375 36.375 
Q 56.59375 19.140625 48.40625 8.859375 
Q 40.234375 -1.421875 26.421875 -1.421875 
Q 22.703125 -1.421875 18.890625 -0.6875 
Q 15.09375 0.046875 10.984375 1.515625 
z
M 30.609375 32.421875 
Q 37.25 32.421875 41.125 36.953125 
Q 45.015625 41.5 45.015625 49.421875 
Q 45.015625 57.28125 41.125 61.84375 
Q 37.25 66.40625 30.609375 66.40625 
Q 23.96875 66.40625 20.09375 61.84375 
Q 16.21875 57.28125 16.21875 49.421875 
Q 16.21875 41.5 20.09375 36.953125 
Q 23.96875 32.421875 30.609375 32.421875 
z
" id="DejaVuSans-39"/>
    </defs>
    <g transform="translate(654.440791 249.20698)scale(0.1 -0.1)">
     <use xlink:href="#DejaVuSans-6e"/>
     <use x="63.378906" xlink:href="#DejaVuSans-39"/>
     <use x="127.001953" xlink:href="#DejaVuSans-32"/>
     <use x="190.625" xlink:href="#DejaVuSans-32"/>
    </g>
   </g>
   <g id="patch_11">
    <path d="M 171.283954 50.025279 
Q 171.51124 51.267192 171.537255 51.409337 
" style="fill:none;stroke:#000000;stroke-linecap:round;"/>
    <path d="M 172.784486 47.114641 
L 171.537255 51.409337 
L 168.849837 47.834734 
" style="fill:none;stroke:#000000;stroke-linecap:round;"/>
   </g>
   <g id="text_16">
    <g id="patch_12">
     <path d="M 158.09916 47.559323 
L 179.964785 47.559323 
Q 184.964785 47.559323 184.964785 42.559323 
L 184.964785 32.881198 
Q 184.964785 27.881198 179.964785 27.881198 
L 158.09916 27.881198 
Q 153.09916 27.881198 153.09916 32.881198 
L 153.09916 42.559323 
Q 153.09916 47.559323 158.09916 47.559323 
z
" style="fill:#ffff00;opacity:0.5;stroke:#000000;stroke-linejoin:miter;"/>
    </g>
    <!-- l138 -->
    <defs>
     <path d="M 9.421875 75.984375 
L 18.40625 75.984375 
L 18.40625 0 
L 9.421875 0 
z
" id="DejaVuSans-6c"/>
     <path d="M 31.78125 34.625 
Q 24.75 34.625 20.71875 30.859375 
Q 16.703125 27.09375 16.703125 20.515625 
Q 16.703125 13.921875 20.71875 10.15625 
Q 24.75 6.390625 31.78125 6.390625 
Q 38.8125 6.390625 42.859375 10.171875 
Q 46.921875 13.96875 46.921875 20.515625 
Q 46.921875 27.09375 42.890625 30.859375 
Q 38.875 34.625 31.78125 34.625 
z
M 21.921875 38.8125 
Q 15.578125 40.375 12.03125 44.71875 
Q 8.5 49.078125 8.5 55.328125 
Q 8.5 64.0625 14.71875 69.140625 
Q 20.953125 74.21875 31.78125 74.21875 
Q 42.671875 74.21875 48.875 69.140625 
Q 55.078125 64.0625 55.078125 55.328125 
Q 55.078125 49.078125 51.53125 44.71875 
Q 48 40.375 41.703125 38.8125 
Q 48.828125 37.15625 52.796875 32.3125 
Q 56.78125 27.484375 56.78125 20.515625 
Q 56.78125 9.90625 50.3125 4.234375 
Q 43.84375 -1.421875 31.78125 -1.421875 
Q 19.734375 -1.421875 13.25 4.234375 
Q 6.78125 9.90625 6.78125 20.515625 
Q 6.78125 27.484375 10.78125 32.3125 
Q 14.796875 37.15625 21.921875 38.8125 
z
M 18.3125 54.390625 
Q 18.3125 48.734375 21.84375 45.5625 
Q 25.390625 42.390625 31.78125 42.390625 
Q 38.140625 42.390625 41.71875 45.5625 
Q 45.3125 48.734375 45.3125 54.390625 
Q 45.3125 60.0625 41.71875 63.234375 
Q 38.140625 66.40625 31.78125 66.40625 
Q 25.390625 66.40625 21.84375 63.234375 
Q 18.3125 60.0625 18.3125 54.390625 
z
" id="DejaVuSans-38"/>
    </defs>
    <g transform="translate(158.09916 40.479635)scale(0.1 -0.1)">
     <use xlink:href="#DejaVuSans-6c"/>
     <use x="27.783203" xlink:href="#DejaVuSans-31"/>
     <use x="91.40625" xlink:href="#DejaVuSans-33"/>
     <use x="155.029297" xlink:href="#DejaVuSans-38"/>
    </g>
   </g>
   <g id="patch_13">
    <path d="M 532.455183 201.92062 
Q 532.548592 203.136516 532.556362 203.237662 
" style="fill:none;stroke:#000000;stroke-linecap:round;"/>
    <path d="M 534.244098 199.09622 
L 532.556362 203.237662 
L 530.25585 199.402608 
" style="fill:none;stroke:#000000;stroke-linecap:round;"/>
   </g>
   <g id="text_17">
    <g id="patch_14">
     <path d="M 518.794971 199.423317 
L 544.219971 199.423317 
Q 549.219971 199.423317 549.219971 194.423317 
L 549.219971 184.745192 
Q 549.219971 179.745192 544.219971 179.745192 
L 518.794971 179.745192 
Q 513.794971 179.745192 513.794971 184.745192 
L 513.794971 194.423317 
Q 513.794971 199.423317 518.794971 199.423317 
z
" style="fill:#ffff00;opacity:0.5;stroke:#000000;stroke-linejoin:miter;"/>
    </g>
    <!-- n319 -->
    <g transform="translate(518.794971 192.34363)scale(0.1 -0.1)">
     <use xlink:href="#DejaVuSans-6e"/>
     <use x="63.378906" xlink:href="#DejaVuSans-33"/>
     <use x="127.001953" xlink:href="#DejaVuSans-31"/>
     <use x="190.625" xlink:href="#DejaVuSans-39"/>
    </g>
   </g>
   <g id="patch_15">
    <path d="M 331.255784 354.327908 
Q 331.348796 355.543804 331.356531 355.644922 
" style="fill:none;stroke:#000000;stroke-linecap:round;"/>
    <path d="M 333.045611 351.504028 
L 331.356531 355.644922 
L 329.057263 351.809122 
" style="fill:none;stroke:#000000;stroke-linecap:round;"/>
   </g>
   <g id="text_18">
    <g id="patch_16">
     <path d="M 317.594128 351.830605 
L 343.030066 351.830605 
Q 348.030066 351.830605 348.030066 346.830605 
L 348.030066 337.15248 
Q 348.030066 332.15248 343.030066 332.15248 
L 317.594128 332.15248 
Q 312.594128 332.15248 312.594128 337.15248 
L 312.594128 346.830605 
Q 312.594128 351.830605 317.594128 351.830605 
z
" style="fill:#ffff00;opacity:0.5;stroke:#000000;stroke-linejoin:miter;"/>
    </g>
    <!-- d213 -->
    <defs>
     <path d="M 45.40625 46.390625 
L 45.40625 75.984375 
L 54.390625 75.984375 
L 54.390625 0 
L 45.40625 0 
L 45.40625 8.203125 
Q 42.578125 3.328125 38.25 0.953125 
Q 33.9375 -1.421875 27.875 -1.421875 
Q 17.96875 -1.421875 11.734375 6.484375 
Q 5.515625 14.40625 5.515625 27.296875 
Q 5.515625 40.1875 11.734375 48.09375 
Q 17.96875 56 27.875 56 
Q 33.9375 56 38.25 53.625 
Q 42.578125 51.265625 45.40625 46.390625 
z
M 14.796875 27.296875 
Q 14.796875 17.390625 18.875 11.75 
Q 22.953125 6.109375 30.078125 6.109375 
Q 37.203125 6.109375 41.296875 11.75 
Q 45.40625 17.390625 45.40625 27.296875 
Q 45.40625 37.203125 41.296875 42.84375 
Q 37.203125 48.484375 30.078125 48.484375 
Q 22.953125 48.484375 18.875 42.84375 
Q 14.796875 37.203125 14.796875 27.296875 
z
" id="DejaVuSans-64"/>
    </defs>
    <g transform="translate(317.594128 344.750918)scale(0.1 -0.1)">
     <use xlink:href="#DejaVuSans-64"/>
     <use x="63.476562" xlink:href="#DejaVuSans-32"/>
     <use x="127.099609" xlink:href="#DejaVuSans-31"/>
     <use x="190.722656" xlink:href="#DejaVuSans-33"/>
    </g>
   </g>
   <g id="patch_17">
    <path d="M 259.146507 344.801092 
Q 259.270968 346.023037 259.282138 346.132702 
" style="fill:none;stroke:#000000;stroke-linecap:round;"/>
    <path d="M 260.86652 341.950629 
L 259.282138 346.132702 
L 256.887109 342.355953 
" style="fill:none;stroke:#000000;stroke-linecap:round;"/>
   </g>
   <g id="text_19">
    <g id="patch_18">
     <path d="M 245.597652 342.310059 
L 270.18359 342.310059 
Q 275.18359 342.310059 275.18359 337.310059 
L 275.18359 327.631934 
Q 275.18359 322.631934 270.18359 322.631934 
L 245.597652 322.631934 
Q 240.597652 322.631934 240.597652 327.631934 
L 240.597652 337.310059 
Q 240.597652 342.310059 245.597652 342.310059 
z
" style="fill:#ffff00;opacity:0.5;stroke:#000000;stroke-linejoin:miter;"/>
    </g>
    <!-- c161 -->
    <defs>
     <path d="M 48.78125 52.59375 
L 48.78125 44.1875 
Q 44.96875 46.296875 41.140625 47.34375 
Q 37.3125 48.390625 33.40625 48.390625 
Q 24.65625 48.390625 19.8125 42.84375 
Q 14.984375 37.3125 14.984375 27.296875 
Q 14.984375 17.28125 19.8125 11.734375 
Q 24.65625 6.203125 33.40625 6.203125 
Q 37.3125 6.203125 41.140625 7.25 
Q 44.96875 8.296875 48.78125 10.40625 
L 48.78125 2.09375 
Q 45.015625 0.34375 40.984375 -0.53125 
Q 36.96875 -1.421875 32.421875 -1.421875 
Q 20.0625 -1.421875 12.78125 6.34375 
Q 5.515625 14.109375 5.515625 27.296875 
Q 5.515625 40.671875 12.859375 48.328125 
Q 20.21875 56 33.015625 56 
Q 37.15625 56 41.109375 55.140625 
Q 45.0625 54.296875 48.78125 52.59375 
z
" id="DejaVuSans-63"/>
     <path d="M 33.015625 40.375 
Q 26.375 40.375 22.484375 35.828125 
Q 18.609375 31.296875 18.609375 23.390625 
Q 18.609375 15.53125 22.484375 10.953125 
Q 26.375 6.390625 33.015625 6.390625 
Q 39.65625 6.390625 43.53125 10.953125 
Q 47.40625 15.53125 47.40625 23.390625 
Q 47.40625 31.296875 43.53125 35.828125 
Q 39.65625 40.375 33.015625 40.375 
z
M 52.59375 71.296875 
L 52.59375 62.3125 
Q 48.875 64.0625 45.09375 64.984375 
Q 41.3125 65.921875 37.59375 65.921875 
Q 27.828125 65.921875 22.671875 59.328125 
Q 17.53125 52.734375 16.796875 39.40625 
Q 19.671875 43.65625 24.015625 45.921875 
Q 28.375 48.1875 33.59375 48.1875 
Q 44.578125 48.1875 50.953125 41.515625 
Q 57.328125 34.859375 57.328125 23.390625 
Q 57.328125 12.15625 50.6875 5.359375 
Q 44.046875 -1.421875 33.015625 -1.421875 
Q 20.359375 -1.421875 13.671875 8.265625 
Q 6.984375 17.96875 6.984375 36.375 
Q 6.984375 53.65625 15.1875 63.9375 
Q 23.390625 74.21875 37.203125 74.21875 
Q 40.921875 74.21875 44.703125 73.484375 
Q 48.484375 72.75 52.59375 71.296875 
z
" id="DejaVuSans-36"/>
    </defs>
    <g transform="translate(245.597652 335.230371)scale(0.1 -0.1)">
     <use xlink:href="#DejaVuSans-63"/>
     <use x="54.980469" xlink:href="#DejaVuSans-31"/>
     <use x="118.603516" xlink:href="#DejaVuSans-36"/>
     <use x="182.226562" xlink:href="#DejaVuSans-31"/>
    </g>
   </g>
   <g id="patch_19">
    <path d="M 511.70338 378.013143 
Q 511.930667 379.255056 511.956681 379.397201 
" style="fill:none;stroke:#000000;stroke-linecap:round;"/>
    <path d="M 513.203913 375.102505 
L 511.956681 379.397201 
L 509.269264 375.822598 
" style="fill:none;stroke:#000000;stroke-linecap:round;"/>
   </g>
   <g id="text_20">
    <g id="patch_20">
     <path d="M 498.518587 375.547187 
L 520.384212 375.547187 
Q 525.384212 375.547187 525.384212 370.547187 
L 525.384212 360.869062 
Q 525.384212 355.869062 520.384212 355.869062 
L 498.518587 355.869062 
Q 493.518587 355.869062 493.518587 360.869062 
L 493.518587 370.547187 
Q 493.518587 375.547187 498.518587 375.547187 
z
" style="fill:#ffff00;opacity:0.5;stroke:#000000;stroke-linejoin:miter;"/>
    </g>
    <!-- l131 -->
    <g transform="translate(498.518587 368.4675)scale(0.1 -0.1)">
     <use xlink:href="#DejaVuSans-6c"/>
     <use x="27.783203" xlink:href="#DejaVuSans-31"/>
     <use x="91.40625" xlink:href="#DejaVuSans-33"/>
     <use x="155.029297" xlink:href="#DejaVuSans-31"/>
    </g>
   </g>
   <g id="patch_21">
    <path d="M 907.95578 781.513072 
Q 908.393482 782.827219 908.477883 783.080623 
" style="fill:none;stroke:#000000;stroke-linecap:round;"/>
    <path d="M 909.111391 778.653585 
L 908.477883 783.080623 
L 905.316357 779.917594 
" style="fill:none;stroke:#000000;stroke-linecap:round;"/>
   </g>
   <g id="text_21">
    <g id="patch_22">
     <path d="M 895.462358 779.116078 
L 912.298296 779.116078 
Q 917.298296 779.116078 917.298296 774.116078 
L 917.298296 764.437953 
Q 917.298296 759.437953 912.298296 759.437953 
L 895.462358 759.437953 
Q 890.462358 759.437953 890.462358 764.437953 
L 890.462358 774.116078 
Q 890.462358 779.116078 895.462358 779.116078 
z
" style="fill:#ffff00;opacity:0.5;stroke:#000000;stroke-linejoin:miter;"/>
    </g>
    <!-- r75 -->
    <defs>
     <path d="M 41.109375 46.296875 
Q 39.59375 47.171875 37.8125 47.578125 
Q 36.03125 48 33.890625 48 
Q 26.265625 48 22.1875 43.046875 
Q 18.109375 38.09375 18.109375 28.8125 
L 18.109375 0 
L 9.078125 0 
L 9.078125 54.6875 
L 18.109375 54.6875 
L 18.109375 46.1875 
Q 20.953125 51.171875 25.484375 53.578125 
Q 30.03125 56 36.53125 56 
Q 37.453125 56 38.578125 55.875 
Q 39.703125 55.765625 41.0625 55.515625 
z
" id="DejaVuSans-72"/>
     <path d="M 8.203125 72.90625 
L 55.078125 72.90625 
L 55.078125 68.703125 
L 28.609375 0 
L 18.3125 0 
L 43.21875 64.59375 
L 8.203125 64.59375 
z
" id="DejaVuSans-37"/>
    </defs>
    <g transform="translate(895.462358 772.03639)scale(0.1 -0.1)">
     <use xlink:href="#DejaVuSans-72"/>
     <use x="41.113281" xlink:href="#DejaVuSans-37"/>
     <use x="104.736328" xlink:href="#DejaVuSans-35"/>
    </g>
   </g>
   <g id="patch_23">
    <path d="M 1106.111904 518.973288 
Q 1106.451972 520.250224 1106.504318 520.446782 
" style="fill:none;stroke:#000000;stroke-linecap:round;"/>
    <path d="M 1107.407574 516.066813 
L 1106.504318 520.446782 
L 1103.542296 517.096196 
" style="fill:none;stroke:#000000;stroke-linecap:round;"/>
   </g>
   <g id="text_22">
    <g id="patch_24">
     <path d="M 1093.306516 516.538678 
L 1112.379954 516.538678 
Q 1117.379954 516.538678 1117.379954 511.538678 
L 1117.379954 501.860553 
Q 1117.379954 496.860553 1112.379954 496.860553 
L 1093.306516 496.860553 
Q 1088.306516 496.860553 1088.306516 501.860553 
L 1088.306516 511.538678 
Q 1088.306516 516.538678 1093.306516 516.538678 
z
" style="fill:#ffff00;opacity:0.5;stroke:#000000;stroke-linejoin:miter;"/>
    </g>
    <!-- b91 -->
    <defs>
     <path d="M 48.6875 27.296875 
Q 48.6875 37.203125 44.609375 42.84375 
Q 40.53125 48.484375 33.40625 48.484375 
Q 26.265625 48.484375 22.1875 42.84375 
Q 18.109375 37.203125 18.109375 27.296875 
Q 18.109375 17.390625 22.1875 11.75 
Q 26.265625 6.109375 33.40625 6.109375 
Q 40.53125 6.109375 44.609375 11.75 
Q 48.6875 17.390625 48.6875 27.296875 
z
M 18.109375 46.390625 
Q 20.953125 51.265625 25.265625 53.625 
Q 29.59375 56 35.59375 56 
Q 45.5625 56 51.78125 48.09375 
Q 58.015625 40.1875 58.015625 27.296875 
Q 58.015625 14.40625 51.78125 6.484375 
Q 45.5625 -1.421875 35.59375 -1.421875 
Q 29.59375 -1.421875 25.265625 0.953125 
Q 20.953125 3.328125 18.109375 8.203125 
L 18.109375 0 
L 9.078125 0 
L 9.078125 75.984375 
L 18.109375 75.984375 
z
" id="DejaVuSans-62"/>
    </defs>
    <g transform="translate(1093.306516 509.458991)scale(0.1 -0.1)">
     <use xlink:href="#DejaVuSans-62"/>
     <use x="63.476562" xlink:href="#DejaVuSans-39"/>
     <use x="127.099609" xlink:href="#DejaVuSans-31"/>
    </g>
   </g>
   <g id="patch_25">
    <path d="M 940.64591 739.554941 
Q 940.738922 740.770836 940.746657 740.871955 
" style="fill:none;stroke:#000000;stroke-linecap:round;"/>
    <path d="M 942.435737 736.73106 
L 940.746657 740.871955 
L 938.447389 737.036154 
" style="fill:none;stroke:#000000;stroke-linecap:round;"/>
   </g>
   <g id="text_23">
    <g id="patch_26">
     <path d="M 926.984254 737.057638 
L 952.420192 737.057638 
Q 957.420192 737.057638 957.420192 732.057638 
L 957.420192 722.379513 
Q 957.420192 717.379513 952.420192 717.379513 
L 926.984254 717.379513 
Q 921.984254 717.379513 921.984254 722.379513 
L 921.984254 732.057638 
Q 921.984254 737.057638 926.984254 737.057638 
z
" style="fill:#ffff00;opacity:0.5;stroke:#000000;stroke-linejoin:miter;"/>
    </g>
    <!-- p153 -->
    <defs>
     <path d="M 18.109375 8.203125 
L 18.109375 -20.796875 
L 9.078125 -20.796875 
L 9.078125 54.6875 
L 18.109375 54.6875 
L 18.109375 46.390625 
Q 20.953125 51.265625 25.265625 53.625 
Q 29.59375 56 35.59375 56 
Q 45.5625 56 51.78125 48.09375 
Q 58.015625 40.1875 58.015625 27.296875 
Q 58.015625 14.40625 51.78125 6.484375 
Q 45.5625 -1.421875 35.59375 -1.421875 
Q 29.59375 -1.421875 25.265625 0.953125 
Q 20.953125 3.328125 18.109375 8.203125 
z
M 48.6875 27.296875 
Q 48.6875 37.203125 44.609375 42.84375 
Q 40.53125 48.484375 33.40625 48.484375 
Q 26.265625 48.484375 22.1875 42.84375 
Q 18.109375 37.203125 18.109375 27.296875 
Q 18.109375 17.390625 22.1875 11.75 
Q 26.265625 6.109375 33.40625 6.109375 
Q 40.53125 6.109375 44.609375 11.75 
Q 48.6875 17.390625 48.6875 27.296875 
z
" id="DejaVuSans-70"/>
    </defs>
    <g transform="translate(926.984254 729.97795)scale(0.1 -0.1)">
     <use xlink:href="#DejaVuSans-70"/>
     <use x="63.476562" xlink:href="#DejaVuSans-31"/>
     <use x="127.099609" xlink:href="#DejaVuSans-35"/>
     <use x="190.722656" xlink:href="#DejaVuSans-33"/>
    </g>
   </g>
   <g id="patch_27">
    <path d="M 98.234239 73.378784 
Q 98.327251 74.59468 98.334986 74.695798 
" style="fill:none;stroke:#000000;stroke-linecap:round;"/>
    <path d="M 100.024066 70.554903 
L 98.334986 74.695798 
L 96.035718 70.859998 
" style="fill:none;stroke:#000000;stroke-linecap:round;"/>
   </g>
   <g id="text_24">
    <g id="patch_28">
     <path d="M 84.572584 70.881481 
L 110.008521 70.881481 
Q 115.008521 70.881481 115.008521 65.881481 
L 115.008521 56.203356 
Q 115.008521 51.203356 110.008521 51.203356 
L 84.572584 51.203356 
Q 79.572584 51.203356 79.572584 56.203356 
L 79.572584 65.881481 
Q 79.572584 70.881481 84.572584 70.881481 
z
" style="fill:#ffff00;opacity:0.5;stroke:#000000;stroke-linejoin:miter;"/>
    </g>
    <!-- d137 -->
    <g transform="translate(84.572584 63.801793)scale(0.1 -0.1)">
     <use xlink:href="#DejaVuSans-64"/>
     <use x="63.476562" xlink:href="#DejaVuSans-31"/>
     <use x="127.099609" xlink:href="#DejaVuSans-33"/>
     <use x="190.722656" xlink:href="#DejaVuSans-37"/>
    </g>
   </g>
   <g id="patch_29">
    <path d="M 396.898727 183.989588 
Q 396.991738 185.205484 396.999473 185.306602 
" style="fill:none;stroke:#000000;stroke-linecap:round;"/>
    <path d="M 398.688553 181.165708 
L 396.999473 185.306602 
L 394.700205 181.470802 
" style="fill:none;stroke:#000000;stroke-linecap:round;"/>
   </g>
   <g id="text_25">
    <g id="patch_30">
     <path d="M 383.237071 181.492285 
L 408.673008 181.492285 
Q 413.673008 181.492285 413.673008 176.492285 
L 413.673008 166.81416 
Q 413.673008 161.81416 408.673008 161.81416 
L 383.237071 161.81416 
Q 378.237071 161.81416 378.237071 166.81416 
L 378.237071 176.492285 
Q 378.237071 181.492285 383.237071 181.492285 
z
" style="fill:#ffff00;opacity:0.5;stroke:#000000;stroke-linejoin:miter;"/>
    </g>
    <!-- d290 -->
    <g transform="translate(383.237071 174.412598)scale(0.1 -0.1)">
     <use xlink:href="#DejaVuSans-64"/>
     <use x="63.476562" xlink:href="#DejaVuSans-32"/>
     <use x="127.099609" xlink:href="#DejaVuSans-39"/>
     <use x="190.722656" xlink:href="#DejaVuSans-30"/>
    </g>
   </g>
   <g id="patch_31">
    <path d="M 117.654028 80.941928 
Q 117.830188 82.17167 117.847809 82.294675 
" style="fill:none;stroke:#000000;stroke-linecap:round;"/>
    <path d="M 119.260388 78.05149 
L 117.847809 82.294675 
L 115.300809 78.6187 
" style="fill:none;stroke:#000000;stroke-linecap:round;"/>
   </g>
   <g id="text_26">
    <g id="patch_32">
     <path d="M 104.290318 78.463433 
L 127.488756 78.463433 
Q 132.488756 78.463433 132.488756 73.463433 
L 132.488756 63.785308 
Q 132.488756 58.785308 127.488756 58.785308 
L 104.290318 58.785308 
Q 99.290318 58.785308 99.290318 63.785308 
L 99.290318 73.463433 
Q 99.290318 78.463433 104.290318 78.463433 
z
" style="fill:#ffff00;opacity:0.5;stroke:#000000;stroke-linejoin:miter;"/>
    </g>
    <!-- r483 -->
    <defs>
     <path d="M 37.796875 64.3125 
L 12.890625 25.390625 
L 37.796875 25.390625 
z
M 35.203125 72.90625 
L 47.609375 72.90625 
L 47.609375 25.390625 
L 58.015625 25.390625 
L 58.015625 17.1875 
L 47.609375 17.1875 
L 47.609375 0 
L 37.796875 0 
L 37.796875 17.1875 
L 4.890625 17.1875 
L 4.890625 26.703125 
z
" id="DejaVuSans-34"/>
    </defs>
    <g transform="translate(104.290318 71.383746)scale(0.1 -0.1)">
     <use xlink:href="#DejaVuSans-72"/>
     <use x="41.113281" xlink:href="#DejaVuSans-34"/>
     <use x="104.736328" xlink:href="#DejaVuSans-38"/>
     <use x="168.359375" xlink:href="#DejaVuSans-33"/>
    </g>
   </g>
  </g>
 </g>
 <defs>
  <clipPath id="p236bc43b91">
   <rect height="815.4" width="1116" x="44.845313" y="10.7"/>
  </clipPath>
 </defs>
</svg>
