<?xml version="1.0" encoding="utf-8" standalone="no"?>
<!DOCTYPE svg PUBLIC "-//W3C//DTD SVG 1.1//EN"
  "http://www.w3.org/Graphics/SVG/1.1/DTD/svg11.dtd">
<!-- Created with matplotlib (http://matplotlib.org/) -->
<svg height="849pt" version="1.1" viewBox="0 0 1165 849" width="1165pt" xmlns="http://www.w3.org/2000/svg" xmlns:xlink="http://www.w3.org/1999/xlink">
 <defs>
  <style type="text/css">
*{stroke-linecap:butt;stroke-linejoin:round;}
  </style>
 </defs>
 <g id="figure_1">
  <g id="patch_1">
   <path d="M 0 849.978125 
L 1165.182812 849.978125 
L 1165.182812 0 
L 0 0 
z
" style="fill:#ffffff;"/>
  </g>
  <g id="axes_1">
   <g id="patch_2">
    <path d="M 38.482813 826.1 
L 1154.482812 826.1 
L 1154.482812 10.7 
L 38.482813 10.7 
z
" style="fill:#ffffff;"/>
   </g>
   <g id="PathCollection_1">
    <defs>
     <path d="M 0 3 
C 0.795609 3 1.55874 2.683901 2.12132 2.12132 
C 2.683901 1.55874 3 0.795609 3 0 
C 3 -0.795609 2.683901 -1.55874 2.12132 -2.12132 
C 1.55874 -2.683901 0.795609 -3 0 -3 
C -0.795609 -3 -1.55874 -2.683901 -2.12132 -2.12132 
C -2.683901 -1.55874 -3 -0.795609 -3 0 
C -3 0.795609 -2.683901 1.55874 -2.12132 2.12132 
C -1.55874 2.683901 -0.795609 3 0 3 
z
" id="m69668148ee" style="stroke:#1f77b4;"/>
    </defs>
    <g clip-path="url(#pa6f1e74ba5)">
     <use style="fill:#1f77b4;stroke:#1f77b4;" x="1101.818755" xlink:href="#m69668148ee" y="66.185076"/>
     <use style="fill:#1f77b4;stroke:#1f77b4;" x="583.166304" xlink:href="#m69668148ee" y="53.691508"/>
     <use style="fill:#1f77b4;stroke:#1f77b4;" x="450.701801" xlink:href="#m69668148ee" y="50.496619"/>
    </g>
   </g>
   <g id="PathCollection_2">
    <defs>
     <path d="M 0 3 
C 0.795609 3 1.55874 2.683901 2.12132 2.12132 
C 2.683901 1.55874 3 0.795609 3 0 
C 3 -0.795609 2.683901 -1.55874 2.12132 -2.12132 
C 1.55874 -2.683901 0.795609 -3 0 -3 
C -0.795609 -3 -1.55874 -2.683901 -2.12132 -2.12132 
C -2.683901 -1.55874 -3 -0.795609 -3 0 
C -3 0.795609 -2.683901 1.55874 -2.12132 2.12132 
C -1.55874 2.683901 -0.795609 3 0 3 
z
" id="mdff6e69085" style="stroke:#ff7f0e;"/>
    </defs>
    <g clip-path="url(#pa6f1e74ba5)">
     <use style="fill:#ff7f0e;stroke:#ff7f0e;" x="1101.818755" xlink:href="#mdff6e69085" y="66.185076"/>
     <use style="fill:#ff7f0e;stroke:#ff7f0e;" x="583.166304" xlink:href="#mdff6e69085" y="53.691508"/>
     <use style="fill:#ff7f0e;stroke:#ff7f0e;" x="450.701801" xlink:href="#mdff6e69085" y="50.496619"/>
    </g>
   </g>
   <g id="PathCollection_3">
    <defs>
     <path d="M 0 3 
C 0.795609 3 1.55874 2.683901 2.12132 2.12132 
C 2.683901 1.55874 3 0.795609 3 0 
C 3 -0.795609 2.683901 -1.55874 2.12132 -2.12132 
C 1.55874 -2.683901 0.795609 -3 0 -3 
C -0.795609 -3 -1.55874 -2.683901 -2.12132 -2.12132 
C -2.683901 -1.55874 -3 -0.795609 -3 0 
C -3 0.795609 -2.683901 1.55874 -2.12132 2.12132 
C -1.55874 2.683901 -0.795609 3 0 3 
z
" id="m8bc957e6bf" style="stroke:#2ca02c;"/>
    </defs>
    <g clip-path="url(#pa6f1e74ba5)">
     <use style="fill:#2ca02c;stroke:#2ca02c;" x="1101.818755" xlink:href="#m8bc957e6bf" y="66.185076"/>
     <use style="fill:#2ca02c;stroke:#2ca02c;" x="583.166304" xlink:href="#m8bc957e6bf" y="53.691508"/>
     <use style="fill:#2ca02c;stroke:#2ca02c;" x="450.701801" xlink:href="#m8bc957e6bf" y="50.496619"/>
    </g>
   </g>
   <g id="PathCollection_4">
    <defs>
     <path d="M 0 3 
C 0.795609 3 1.55874 2.683901 2.12132 2.12132 
C 2.683901 1.55874 3 0.795609 3 0 
C 3 -0.795609 2.683901 -1.55874 2.12132 -2.12132 
C 1.55874 -2.683901 0.795609 -3 0 -3 
C -0.795609 -3 -1.55874 -2.683901 -2.12132 -2.12132 
C -2.683901 -1.55874 -3 -0.795609 -3 0 
C -3 0.795609 -2.683901 1.55874 -2.12132 2.12132 
C -1.55874 2.683901 -0.795609 3 0 3 
z
" id="m9b684e07a2" style="stroke:#d62728;"/>
    </defs>
    <g clip-path="url(#pa6f1e74ba5)">
     <use style="fill:#d62728;stroke:#d62728;" x="199.791001" xlink:href="#m9b684e07a2" y="284.102344"/>
     <use style="fill:#d62728;stroke:#d62728;" x="344.765107" xlink:href="#m9b684e07a2" y="372.863948"/>
     <use style="fill:#d62728;stroke:#d62728;" x="92.210076" xlink:href="#m9b684e07a2" y="218.202655"/>
    </g>
   </g>
   <g id="PathCollection_5">
    <defs>
     <path d="M 0 3 
C 0.795609 3 1.55874 2.683901 2.12132 2.12132 
C 2.683901 1.55874 3 0.795609 3 0 
C 3 -0.795609 2.683901 -1.55874 2.12132 -2.12132 
C 1.55874 -2.683901 0.795609 -3 0 -3 
C -0.795609 -3 -1.55874 -2.683901 -2.12132 -2.12132 
C -2.683901 -1.55874 -3 -0.795609 -3 0 
C -3 0.795609 -2.683901 1.55874 -2.12132 2.12132 
C -1.55874 2.683901 -0.795609 3 0 3 
z
" id="mc08a356bc1" style="stroke:#9467bd;"/>
    </defs>
    <g clip-path="url(#pa6f1e74ba5)">
     <use style="fill:#9467bd;stroke:#9467bd;" x="199.791001" xlink:href="#mc08a356bc1" y="284.102344"/>
     <use style="fill:#9467bd;stroke:#9467bd;" x="344.765107" xlink:href="#mc08a356bc1" y="372.863948"/>
     <use style="fill:#9467bd;stroke:#9467bd;" x="92.210076" xlink:href="#mc08a356bc1" y="218.202655"/>
    </g>
   </g>
   <g id="PathCollection_6">
    <defs>
     <path d="M 0 3 
C 0.795609 3 1.55874 2.683901 2.12132 2.12132 
C 2.683901 1.55874 3 0.795609 3 0 
C 3 -0.795609 2.683901 -1.55874 2.12132 -2.12132 
C 1.55874 -2.683901 0.795609 -3 0 -3 
C -0.795609 -3 -1.55874 -2.683901 -2.12132 -2.12132 
C -2.683901 -1.55874 -3 -0.795609 -3 0 
C -3 0.795609 -2.683901 1.55874 -2.12132 2.12132 
C -1.55874 2.683901 -0.795609 3 0 3 
z
" id="m8a7337f830" style="stroke:#8c564b;"/>
    </defs>
    <g clip-path="url(#pa6f1e74ba5)">
     <use style="fill:#8c564b;stroke:#8c564b;" x="199.791001" xlink:href="#m8a7337f830" y="284.102344"/>
     <use style="fill:#8c564b;stroke:#8c564b;" x="344.765107" xlink:href="#m8a7337f830" y="372.863948"/>
     <use style="fill:#8c564b;stroke:#8c564b;" x="92.210076" xlink:href="#m8a7337f830" y="218.202655"/>
    </g>
   </g>
   <g id="PathCollection_7">
    <defs>
     <path d="M 0 3 
C 0.795609 3 1.55874 2.683901 2.12132 2.12132 
C 2.683901 1.55874 3 0.795609 3 0 
C 3 -0.795609 2.683901 -1.55874 2.12132 -2.12132 
C 1.55874 -2.683901 0.795609 -3 0 -3 
C -0.795609 -3 -1.55874 -2.683901 -2.12132 -2.12132 
C -2.683901 -1.55874 -3 -0.795609 -3 0 
C -3 0.795609 -2.683901 1.55874 -2.12132 2.12132 
C -1.55874 2.683901 -0.795609 3 0 3 
z
" id="m58820299f4" style="stroke:#e377c2;"/>
    </defs>
    <g clip-path="url(#pa6f1e74ba5)">
     <use style="fill:#e377c2;stroke:#e377c2;" x="765.108916" xlink:href="#m58820299f4" y="218.772402"/>
     <use style="fill:#e377c2;stroke:#e377c2;" x="483.905475" xlink:href="#m58820299f4" y="165.603984"/>
     <use style="fill:#e377c2;stroke:#e377c2;" x="376.23061" xlink:href="#m58820299f4" y="145.246875"/>
    </g>
   </g>
   <g id="PathCollection_8">
    <defs>
     <path d="M 0 3 
C 0.795609 3 1.55874 2.683901 2.12132 2.12132 
C 2.683901 1.55874 3 0.795609 3 0 
C 3 -0.795609 2.683901 -1.55874 2.12132 -2.12132 
C 1.55874 -2.683901 0.795609 -3 0 -3 
C -0.795609 -3 -1.55874 -2.683901 -2.12132 -2.12132 
C -2.683901 -1.55874 -3 -0.795609 -3 0 
C -3 0.795609 -2.683901 1.55874 -2.12132 2.12132 
C -1.55874 2.683901 -0.795609 3 0 3 
z
" id="m0070f64917" style="stroke:#7f7f7f;"/>
    </defs>
    <g clip-path="url(#pa6f1e74ba5)">
     <use style="fill:#7f7f7f;stroke:#7f7f7f;" x="765.108916" xlink:href="#m0070f64917" y="218.772402"/>
     <use style="fill:#7f7f7f;stroke:#7f7f7f;" x="483.905475" xlink:href="#m0070f64917" y="165.603984"/>
     <use style="fill:#7f7f7f;stroke:#7f7f7f;" x="376.23061" xlink:href="#m0070f64917" y="145.246875"/>
    </g>
   </g>
   <g id="PathCollection_9">
    <defs>
     <path d="M 0 3 
C 0.795609 3 1.55874 2.683901 2.12132 2.12132 
C 2.683901 1.55874 3 0.795609 3 0 
C 3 -0.795609 2.683901 -1.55874 2.12132 -2.12132 
C 1.55874 -2.683901 0.795609 -3 0 -3 
C -0.795609 -3 -1.55874 -2.683901 -2.12132 -2.12132 
C -2.683901 -1.55874 -3 -0.795609 -3 0 
C -3 0.795609 -2.683901 1.55874 -2.12132 2.12132 
C -1.55874 2.683901 -0.795609 3 0 3 
z
" id="m19d6e79421" style="stroke:#bcbd22;"/>
    </defs>
    <g clip-path="url(#pa6f1e74ba5)">
     <use style="fill:#bcbd22;stroke:#bcbd22;" x="765.108916" xlink:href="#m19d6e79421" y="218.772402"/>
     <use style="fill:#bcbd22;stroke:#bcbd22;" x="483.905475" xlink:href="#m19d6e79421" y="165.603984"/>
     <use style="fill:#bcbd22;stroke:#bcbd22;" x="376.23061" xlink:href="#m19d6e79421" y="145.246875"/>
    </g>
   </g>
   <g id="PathCollection_10">
    <defs>
     <path d="M 0 3 
C 0.795609 3 1.55874 2.683901 2.12132 2.12132 
C 2.683901 1.55874 3 0.795609 3 0 
C 3 -0.795609 2.683901 -1.55874 2.12132 -2.12132 
C 1.55874 -2.683901 0.795609 -3 0 -3 
C -0.795609 -3 -1.55874 -2.683901 -2.12132 -2.12132 
C -2.683901 -1.55874 -3 -0.795609 -3 0 
C -3 0.795609 -2.683901 1.55874 -2.12132 2.12132 
C -1.55874 2.683901 -0.795609 3 0 3 
z
" id="ma73c4d21ad" style="stroke:#17becf;"/>
    </defs>
    <g clip-path="url(#pa6f1e74ba5)">
     <use style="fill:#17becf;stroke:#17becf;" x="341.239294" xlink:href="#ma73c4d21ad" y="786.036391"/>
     <use style="fill:#17becf;stroke:#17becf;" x="132.913953" xlink:href="#ma73c4d21ad" y="500.733784"/>
     <use style="fill:#17becf;stroke:#17becf;" x="160.8353" xlink:href="#ma73c4d21ad" y="539.013767"/>
    </g>
   </g>
   <g id="PathCollection_11">
    <g clip-path="url(#pa6f1e74ba5)">
     <use style="fill:#1f77b4;stroke:#1f77b4;" x="341.239294" xlink:href="#m69668148ee" y="786.036391"/>
     <use style="fill:#1f77b4;stroke:#1f77b4;" x="132.913953" xlink:href="#m69668148ee" y="500.733784"/>
     <use style="fill:#1f77b4;stroke:#1f77b4;" x="160.8353" xlink:href="#m69668148ee" y="539.013767"/>
    </g>
   </g>
   <g id="PathCollection_12">
    <g clip-path="url(#pa6f1e74ba5)">
     <use style="fill:#ff7f0e;stroke:#ff7f0e;" x="341.239294" xlink:href="#mdff6e69085" y="786.036391"/>
     <use style="fill:#ff7f0e;stroke:#ff7f0e;" x="132.913953" xlink:href="#mdff6e69085" y="500.733784"/>
     <use style="fill:#ff7f0e;stroke:#ff7f0e;" x="160.8353" xlink:href="#mdff6e69085" y="539.013767"/>
    </g>
   </g>
   <g id="PathCollection_13">
    <g clip-path="url(#pa6f1e74ba5)">
     <use style="fill:#2ca02c;stroke:#2ca02c;" x="415.744393" xlink:href="#m8bc957e6bf" y="120.038377"/>
     <use style="fill:#2ca02c;stroke:#2ca02c;" x="519.440976" xlink:href="#m8bc957e6bf" y="134.309525"/>
     <use style="fill:#2ca02c;stroke:#2ca02c;" x="714.122761" xlink:href="#m8bc957e6bf" y="160.887791"/>
    </g>
   </g>
   <g id="PathCollection_14">
    <g clip-path="url(#pa6f1e74ba5)">
     <use style="fill:#d62728;stroke:#d62728;" x="415.744393" xlink:href="#m9b684e07a2" y="120.038377"/>
     <use style="fill:#d62728;stroke:#d62728;" x="519.440976" xlink:href="#m9b684e07a2" y="134.309525"/>
     <use style="fill:#d62728;stroke:#d62728;" x="714.122761" xlink:href="#m9b684e07a2" y="160.887791"/>
    </g>
   </g>
   <g id="PathCollection_15">
    <g clip-path="url(#pa6f1e74ba5)">
     <use style="fill:#9467bd;stroke:#9467bd;" x="415.744393" xlink:href="#mc08a356bc1" y="120.038377"/>
     <use style="fill:#9467bd;stroke:#9467bd;" x="519.440976" xlink:href="#mc08a356bc1" y="134.309525"/>
     <use style="fill:#9467bd;stroke:#9467bd;" x="714.122761" xlink:href="#mc08a356bc1" y="160.887791"/>
    </g>
   </g>
   <g id="PathCollection_16">
    <g clip-path="url(#pa6f1e74ba5)">
     <use style="fill:#8c564b;stroke:#8c564b;" x="103.672442" xlink:href="#m8a7337f830" y="233.455074"/>
     <use style="fill:#8c564b;stroke:#8c564b;" x="276.528429" xlink:href="#m8a7337f830" y="343.86853"/>
     <use style="fill:#8c564b;stroke:#8c564b;" x="218.955903" xlink:href="#m8a7337f830" y="307.114309"/>
    </g>
   </g>
   <g id="PathCollection_17">
    <g clip-path="url(#pa6f1e74ba5)">
     <use style="fill:#e377c2;stroke:#e377c2;" x="103.672442" xlink:href="#m58820299f4" y="233.455074"/>
     <use style="fill:#e377c2;stroke:#e377c2;" x="276.528429" xlink:href="#m58820299f4" y="343.86853"/>
     <use style="fill:#e377c2;stroke:#e377c2;" x="218.955903" xlink:href="#m58820299f4" y="307.114309"/>
    </g>
   </g>
   <g id="PathCollection_18">
    <g clip-path="url(#pa6f1e74ba5)">
     <use style="fill:#7f7f7f;stroke:#7f7f7f;" x="103.672442" xlink:href="#m0070f64917" y="233.455074"/>
     <use style="fill:#7f7f7f;stroke:#7f7f7f;" x="276.528429" xlink:href="#m0070f64917" y="343.86853"/>
     <use style="fill:#7f7f7f;stroke:#7f7f7f;" x="218.955903" xlink:href="#m0070f64917" y="307.114309"/>
    </g>
   </g>
   <g id="matplotlib.axis_1">
    <g id="xtick_1">
     <g id="line2d_1">
      <defs>
       <path d="M 0 0 
L 0 3.5 
" id="mba33b20a90" style="stroke:#000000;stroke-width:0.8;"/>
      </defs>
      <g>
       <use style="stroke:#000000;stroke-width:0.8;" x="70.682774" xlink:href="#mba33b20a90" y="826.1"/>
      </g>
     </g>
     <g id="text_1">
      <!-- 0.50 -->
      <defs>
       <path d="M 31.78125 66.40625 
Q 24.171875 66.40625 20.328125 58.90625 
Q 16.5 51.421875 16.5 36.375 
Q 16.5 21.390625 20.328125 13.890625 
Q 24.171875 6.390625 31.78125 6.390625 
Q 39.453125 6.390625 43.28125 13.890625 
Q 47.125 21.390625 47.125 36.375 
Q 47.125 51.421875 43.28125 58.90625 
Q 39.453125 66.40625 31.78125 66.40625 
z
M 31.78125 74.21875 
Q 44.046875 74.21875 50.515625 64.515625 
Q 56.984375 54.828125 56.984375 36.375 
Q 56.984375 17.96875 50.515625 8.265625 
Q 44.046875 -1.421875 31.78125 -1.421875 
Q 19.53125 -1.421875 13.0625 8.265625 
Q 6.59375 17.96875 6.59375 36.375 
Q 6.59375 54.828125 13.0625 64.515625 
Q 19.53125 74.21875 31.78125 74.21875 
z
" id="DejaVuSans-30"/>
       <path d="M 10.6875 12.40625 
L 21 12.40625 
L 21 0 
L 10.6875 0 
z
" id="DejaVuSans-2e"/>
       <path d="M 10.796875 72.90625 
L 49.515625 72.90625 
L 49.515625 64.59375 
L 19.828125 64.59375 
L 19.828125 46.734375 
Q 21.96875 47.46875 24.109375 47.828125 
Q 26.265625 48.1875 28.421875 48.1875 
Q 40.625 48.1875 47.75 41.5 
Q 54.890625 34.8125 54.890625 23.390625 
Q 54.890625 11.625 47.5625 5.09375 
Q 40.234375 -1.421875 26.90625 -1.421875 
Q 22.3125 -1.421875 17.546875 -0.640625 
Q 12.796875 0.140625 7.71875 1.703125 
L 7.71875 11.625 
Q 12.109375 9.234375 16.796875 8.0625 
Q 21.484375 6.890625 26.703125 6.890625 
Q 35.15625 6.890625 40.078125 11.328125 
Q 45.015625 15.765625 45.015625 23.390625 
Q 45.015625 31 40.078125 35.4375 
Q 35.15625 39.890625 26.703125 39.890625 
Q 22.75 39.890625 18.8125 39.015625 
Q 14.890625 38.140625 10.796875 36.28125 
z
" id="DejaVuSans-35"/>
      </defs>
      <g transform="translate(59.549961 840.698437)scale(0.1 -0.1)">
       <use xlink:href="#DejaVuSans-30"/>
       <use x="63.623047" xlink:href="#DejaVuSans-2e"/>
       <use x="95.410156" xlink:href="#DejaVuSans-35"/>
       <use x="159.033203" xlink:href="#DejaVuSans-30"/>
      </g>
     </g>
    </g>
    <g id="xtick_2">
     <g id="line2d_2">
      <g>
       <use style="stroke:#000000;stroke-width:0.8;" x="209.64749" xlink:href="#mba33b20a90" y="826.1"/>
      </g>
     </g>
     <g id="text_2">
      <!-- 0.75 -->
      <defs>
       <path d="M 8.203125 72.90625 
L 55.078125 72.90625 
L 55.078125 68.703125 
L 28.609375 0 
L 18.3125 0 
L 43.21875 64.59375 
L 8.203125 64.59375 
z
" id="DejaVuSans-37"/>
      </defs>
      <g transform="translate(198.514678 840.698437)scale(0.1 -0.1)">
       <use xlink:href="#DejaVuSans-30"/>
       <use x="63.623047" xlink:href="#DejaVuSans-2e"/>
       <use x="95.410156" xlink:href="#DejaVuSans-37"/>
       <use x="159.033203" xlink:href="#DejaVuSans-35"/>
      </g>
     </g>
    </g>
    <g id="xtick_3">
     <g id="line2d_3">
      <g>
       <use style="stroke:#000000;stroke-width:0.8;" x="348.612206" xlink:href="#mba33b20a90" y="826.1"/>
      </g>
     </g>
     <g id="text_3">
      <!-- 1.00 -->
      <defs>
       <path d="M 12.40625 8.296875 
L 28.515625 8.296875 
L 28.515625 63.921875 
L 10.984375 60.40625 
L 10.984375 69.390625 
L 28.421875 72.90625 
L 38.28125 72.90625 
L 38.28125 8.296875 
L 54.390625 8.296875 
L 54.390625 0 
L 12.40625 0 
z
" id="DejaVuSans-31"/>
      </defs>
      <g transform="translate(337.479394 840.698437)scale(0.1 -0.1)">
       <use xlink:href="#DejaVuSans-31"/>
       <use x="63.623047" xlink:href="#DejaVuSans-2e"/>
       <use x="95.410156" xlink:href="#DejaVuSans-30"/>
       <use x="159.033203" xlink:href="#DejaVuSans-30"/>
      </g>
     </g>
    </g>
    <g id="xtick_4">
     <g id="line2d_4">
      <g>
       <use style="stroke:#000000;stroke-width:0.8;" x="487.576922" xlink:href="#mba33b20a90" y="826.1"/>
      </g>
     </g>
     <g id="text_4">
      <!-- 1.25 -->
      <defs>
       <path d="M 19.1875 8.296875 
L 53.609375 8.296875 
L 53.609375 0 
L 7.328125 0 
L 7.328125 8.296875 
Q 12.9375 14.109375 22.625 23.890625 
Q 32.328125 33.6875 34.8125 36.53125 
Q 39.546875 41.84375 41.421875 45.53125 
Q 43.3125 49.21875 43.3125 52.78125 
Q 43.3125 58.59375 39.234375 62.25 
Q 35.15625 65.921875 28.609375 65.921875 
Q 23.96875 65.921875 18.8125 64.3125 
Q 13.671875 62.703125 7.8125 59.421875 
L 7.8125 69.390625 
Q 13.765625 71.78125 18.9375 73 
Q 24.125 74.21875 28.421875 74.21875 
Q 39.75 74.21875 46.484375 68.546875 
Q 53.21875 62.890625 53.21875 53.421875 
Q 53.21875 48.921875 51.53125 44.890625 
Q 49.859375 40.875 45.40625 35.40625 
Q 44.1875 33.984375 37.640625 27.21875 
Q 31.109375 20.453125 19.1875 8.296875 
z
" id="DejaVuSans-32"/>
      </defs>
      <g transform="translate(476.44411 840.698437)scale(0.1 -0.1)">
       <use xlink:href="#DejaVuSans-31"/>
       <use x="63.623047" xlink:href="#DejaVuSans-2e"/>
       <use x="95.410156" xlink:href="#DejaVuSans-32"/>
       <use x="159.033203" xlink:href="#DejaVuSans-35"/>
      </g>
     </g>
    </g>
    <g id="xtick_5">
     <g id="line2d_5">
      <g>
       <use style="stroke:#000000;stroke-width:0.8;" x="626.541638" xlink:href="#mba33b20a90" y="826.1"/>
      </g>
     </g>
     <g id="text_5">
      <!-- 1.50 -->
      <g transform="translate(615.408826 840.698437)scale(0.1 -0.1)">
       <use xlink:href="#DejaVuSans-31"/>
       <use x="63.623047" xlink:href="#DejaVuSans-2e"/>
       <use x="95.410156" xlink:href="#DejaVuSans-35"/>
       <use x="159.033203" xlink:href="#DejaVuSans-30"/>
      </g>
     </g>
    </g>
    <g id="xtick_6">
     <g id="line2d_6">
      <g>
       <use style="stroke:#000000;stroke-width:0.8;" x="765.506355" xlink:href="#mba33b20a90" y="826.1"/>
      </g>
     </g>
     <g id="text_6">
      <!-- 1.75 -->
      <g transform="translate(754.373542 840.698437)scale(0.1 -0.1)">
       <use xlink:href="#DejaVuSans-31"/>
       <use x="63.623047" xlink:href="#DejaVuSans-2e"/>
       <use x="95.410156" xlink:href="#DejaVuSans-37"/>
       <use x="159.033203" xlink:href="#DejaVuSans-35"/>
      </g>
     </g>
    </g>
    <g id="xtick_7">
     <g id="line2d_7">
      <g>
       <use style="stroke:#000000;stroke-width:0.8;" x="904.471071" xlink:href="#mba33b20a90" y="826.1"/>
      </g>
     </g>
     <g id="text_7">
      <!-- 2.00 -->
      <g transform="translate(893.338258 840.698437)scale(0.1 -0.1)">
       <use xlink:href="#DejaVuSans-32"/>
       <use x="63.623047" xlink:href="#DejaVuSans-2e"/>
       <use x="95.410156" xlink:href="#DejaVuSans-30"/>
       <use x="159.033203" xlink:href="#DejaVuSans-30"/>
      </g>
     </g>
    </g>
    <g id="xtick_8">
     <g id="line2d_8">
      <g>
       <use style="stroke:#000000;stroke-width:0.8;" x="1043.435787" xlink:href="#mba33b20a90" y="826.1"/>
      </g>
     </g>
     <g id="text_8">
      <!-- 2.25 -->
      <g transform="translate(1032.302974 840.698437)scale(0.1 -0.1)">
       <use xlink:href="#DejaVuSans-32"/>
       <use x="63.623047" xlink:href="#DejaVuSans-2e"/>
       <use x="95.410156" xlink:href="#DejaVuSans-32"/>
       <use x="159.033203" xlink:href="#DejaVuSans-35"/>
      </g>
     </g>
    </g>
   </g>
   <g id="matplotlib.axis_2">
    <g id="ytick_1">
     <g id="line2d_9">
      <defs>
       <path d="M 0 0 
L -3.5 0 
" id="m7a5251bad7" style="stroke:#000000;stroke-width:0.8;"/>
      </defs>
      <g>
       <use style="stroke:#000000;stroke-width:0.8;" x="38.482813" xlink:href="#m7a5251bad7" y="777.687785"/>
      </g>
     </g>
     <g id="text_9">
      <!-- −1.0 -->
      <defs>
       <path d="M 10.59375 35.5 
L 73.1875 35.5 
L 73.1875 27.203125 
L 10.59375 27.203125 
z
" id="DejaVuSans-2212"/>
      </defs>
      <g transform="translate(7.2 781.487003)scale(0.1 -0.1)">
       <use xlink:href="#DejaVuSans-2212"/>
       <use x="83.789062" xlink:href="#DejaVuSans-31"/>
       <use x="147.412109" xlink:href="#DejaVuSans-2e"/>
       <use x="179.199219" xlink:href="#DejaVuSans-30"/>
      </g>
     </g>
    </g>
    <g id="ytick_2">
     <g id="line2d_10">
      <g>
       <use style="stroke:#000000;stroke-width:0.8;" x="38.482813" xlink:href="#m7a5251bad7" y="629.122854"/>
      </g>
     </g>
     <g id="text_10">
      <!-- −0.8 -->
      <defs>
       <path d="M 31.78125 34.625 
Q 24.75 34.625 20.71875 30.859375 
Q 16.703125 27.09375 16.703125 20.515625 
Q 16.703125 13.921875 20.71875 10.15625 
Q 24.75 6.390625 31.78125 6.390625 
Q 38.8125 6.390625 42.859375 10.171875 
Q 46.921875 13.96875 46.921875 20.515625 
Q 46.921875 27.09375 42.890625 30.859375 
Q 38.875 34.625 31.78125 34.625 
z
M 21.921875 38.8125 
Q 15.578125 40.375 12.03125 44.71875 
Q 8.5 49.078125 8.5 55.328125 
Q 8.5 64.0625 14.71875 69.140625 
Q 20.953125 74.21875 31.78125 74.21875 
Q 42.671875 74.21875 48.875 69.140625 
Q 55.078125 64.0625 55.078125 55.328125 
Q 55.078125 49.078125 51.53125 44.71875 
Q 48 40.375 41.703125 38.8125 
Q 48.828125 37.15625 52.796875 32.3125 
Q 56.78125 27.484375 56.78125 20.515625 
Q 56.78125 9.90625 50.3125 4.234375 
Q 43.84375 -1.421875 31.78125 -1.421875 
Q 19.734375 -1.421875 13.25 4.234375 
Q 6.78125 9.90625 6.78125 20.515625 
Q 6.78125 27.484375 10.78125 32.3125 
Q 14.796875 37.15625 21.921875 38.8125 
z
M 18.3125 54.390625 
Q 18.3125 48.734375 21.84375 45.5625 
Q 25.390625 42.390625 31.78125 42.390625 
Q 38.140625 42.390625 41.71875 45.5625 
Q 45.3125 48.734375 45.3125 54.390625 
Q 45.3125 60.0625 41.71875 63.234375 
Q 38.140625 66.40625 31.78125 66.40625 
Q 25.390625 66.40625 21.84375 63.234375 
Q 18.3125 60.0625 18.3125 54.390625 
z
" id="DejaVuSans-38"/>
      </defs>
      <g transform="translate(7.2 632.922073)scale(0.1 -0.1)">
       <use xlink:href="#DejaVuSans-2212"/>
       <use x="83.789062" xlink:href="#DejaVuSans-30"/>
       <use x="147.412109" xlink:href="#DejaVuSans-2e"/>
       <use x="179.199219" xlink:href="#DejaVuSans-38"/>
      </g>
     </g>
    </g>
    <g id="ytick_3">
     <g id="line2d_11">
      <g>
       <use style="stroke:#000000;stroke-width:0.8;" x="38.482813" xlink:href="#m7a5251bad7" y="480.557923"/>
      </g>
     </g>
     <g id="text_11">
      <!-- −0.6 -->
      <defs>
       <path d="M 33.015625 40.375 
Q 26.375 40.375 22.484375 35.828125 
Q 18.609375 31.296875 18.609375 23.390625 
Q 18.609375 15.53125 22.484375 10.953125 
Q 26.375 6.390625 33.015625 6.390625 
Q 39.65625 6.390625 43.53125 10.953125 
Q 47.40625 15.53125 47.40625 23.390625 
Q 47.40625 31.296875 43.53125 35.828125 
Q 39.65625 40.375 33.015625 40.375 
z
M 52.59375 71.296875 
L 52.59375 62.3125 
Q 48.875 64.0625 45.09375 64.984375 
Q 41.3125 65.921875 37.59375 65.921875 
Q 27.828125 65.921875 22.671875 59.328125 
Q 17.53125 52.734375 16.796875 39.40625 
Q 19.671875 43.65625 24.015625 45.921875 
Q 28.375 48.1875 33.59375 48.1875 
Q 44.578125 48.1875 50.953125 41.515625 
Q 57.328125 34.859375 57.328125 23.390625 
Q 57.328125 12.15625 50.6875 5.359375 
Q 44.046875 -1.421875 33.015625 -1.421875 
Q 20.359375 -1.421875 13.671875 8.265625 
Q 6.984375 17.96875 6.984375 36.375 
Q 6.984375 53.65625 15.1875 63.9375 
Q 23.390625 74.21875 37.203125 74.21875 
Q 40.921875 74.21875 44.703125 73.484375 
Q 48.484375 72.75 52.59375 71.296875 
z
" id="DejaVuSans-36"/>
      </defs>
      <g transform="translate(7.2 484.357142)scale(0.1 -0.1)">
       <use xlink:href="#DejaVuSans-2212"/>
       <use x="83.789062" xlink:href="#DejaVuSans-30"/>
       <use x="147.412109" xlink:href="#DejaVuSans-2e"/>
       <use x="179.199219" xlink:href="#DejaVuSans-36"/>
      </g>
     </g>
    </g>
    <g id="ytick_4">
     <g id="line2d_12">
      <g>
       <use style="stroke:#000000;stroke-width:0.8;" x="38.482813" xlink:href="#m7a5251bad7" y="331.992993"/>
      </g>
     </g>
     <g id="text_12">
      <!-- −0.4 -->
      <defs>
       <path d="M 37.796875 64.3125 
L 12.890625 25.390625 
L 37.796875 25.390625 
z
M 35.203125 72.90625 
L 47.609375 72.90625 
L 47.609375 25.390625 
L 58.015625 25.390625 
L 58.015625 17.1875 
L 47.609375 17.1875 
L 47.609375 0 
L 37.796875 0 
L 37.796875 17.1875 
L 4.890625 17.1875 
L 4.890625 26.703125 
z
" id="DejaVuSans-34"/>
      </defs>
      <g transform="translate(7.2 335.792211)scale(0.1 -0.1)">
       <use xlink:href="#DejaVuSans-2212"/>
       <use x="83.789062" xlink:href="#DejaVuSans-30"/>
       <use x="147.412109" xlink:href="#DejaVuSans-2e"/>
       <use x="179.199219" xlink:href="#DejaVuSans-34"/>
      </g>
     </g>
    </g>
    <g id="ytick_5">
     <g id="line2d_13">
      <g>
       <use style="stroke:#000000;stroke-width:0.8;" x="38.482813" xlink:href="#m7a5251bad7" y="183.428062"/>
      </g>
     </g>
     <g id="text_13">
      <!-- −0.2 -->
      <g transform="translate(7.2 187.227281)scale(0.1 -0.1)">
       <use xlink:href="#DejaVuSans-2212"/>
       <use x="83.789062" xlink:href="#DejaVuSans-30"/>
       <use x="147.412109" xlink:href="#DejaVuSans-2e"/>
       <use x="179.199219" xlink:href="#DejaVuSans-32"/>
      </g>
     </g>
    </g>
    <g id="ytick_6">
     <g id="line2d_14">
      <g>
       <use style="stroke:#000000;stroke-width:0.8;" x="38.482813" xlink:href="#m7a5251bad7" y="34.863131"/>
      </g>
     </g>
     <g id="text_14">
      <!-- 0.0 -->
      <g transform="translate(15.579688 38.66235)scale(0.1 -0.1)">
       <use xlink:href="#DejaVuSans-30"/>
       <use x="63.623047" xlink:href="#DejaVuSans-2e"/>
       <use x="95.410156" xlink:href="#DejaVuSans-30"/>
      </g>
     </g>
    </g>
   </g>
   <g id="patch_3">
    <path d="M 38.482813 826.1 
L 38.482813 10.7 
" style="fill:none;stroke:#000000;stroke-linecap:square;stroke-linejoin:miter;stroke-width:0.8;"/>
   </g>
   <g id="patch_4">
    <path d="M 1154.482812 826.1 
L 1154.482812 10.7 
" style="fill:none;stroke:#000000;stroke-linecap:square;stroke-linejoin:miter;stroke-width:0.8;"/>
   </g>
   <g id="patch_5">
    <path d="M 38.482813 826.1 
L 1154.482812 826.1 
" style="fill:none;stroke:#000000;stroke-linecap:square;stroke-linejoin:miter;stroke-width:0.8;"/>
   </g>
   <g id="patch_6">
    <path d="M 38.482813 10.7 
L 1154.482812 10.7 
" style="fill:none;stroke:#000000;stroke-linecap:square;stroke-linejoin:miter;stroke-width:0.8;"/>
   </g>
   <g id="patch_7">
    <path d="M 1100.230274 61.655488 
Q 1100.693323 62.97588 1100.78638 63.241234 
" style="fill:none;stroke:#000000;stroke-linecap:round;"/>
    <path d="M 1101.349969 58.804753 
L 1100.78638 63.241234 
L 1097.575348 60.128474 
" style="fill:none;stroke:#000000;stroke-linecap:round;"/>
   </g>
   <g id="text_15">
    <g id="patch_8">
     <path d="M 1087.818755 59.264763 
L 1104.064068 59.264763 
Q 1109.064068 59.264763 1109.064068 54.264763 
L 1109.064068 44.586638 
Q 1109.064068 39.586638 1104.064068 39.586638 
L 1087.818755 39.586638 
Q 1082.818755 39.586638 1082.818755 44.586638 
L 1082.818755 54.264763 
Q 1082.818755 59.264763 1087.818755 59.264763 
z
" style="fill:#ffff00;opacity:0.5;stroke:#000000;stroke-linejoin:miter;"/>
    </g>
    <!-- f88 -->
    <defs>
     <path d="M 37.109375 75.984375 
L 37.109375 68.5 
L 28.515625 68.5 
Q 23.6875 68.5 21.796875 66.546875 
Q 19.921875 64.59375 19.921875 59.515625 
L 19.921875 54.6875 
L 34.71875 54.6875 
L 34.71875 47.703125 
L 19.921875 47.703125 
L 19.921875 0 
L 10.890625 0 
L 10.890625 47.703125 
L 2.296875 47.703125 
L 2.296875 54.6875 
L 10.890625 54.6875 
L 10.890625 58.5 
Q 10.890625 67.625 15.140625 71.796875 
Q 19.390625 75.984375 28.609375 75.984375 
z
" id="DejaVuSans-66"/>
    </defs>
    <g transform="translate(1087.818755 52.185076)scale(0.1 -0.1)">
     <use xlink:href="#DejaVuSans-66"/>
     <use x="35.205078" xlink:href="#DejaVuSans-38"/>
     <use x="98.828125" xlink:href="#DejaVuSans-38"/>
    </g>
   </g>
   <g id="patch_9">
    <path d="M 582.798367 49.262229 
Q 582.899514 50.479848 582.908105 50.583271 
" style="fill:none;stroke:#000000;stroke-linecap:round;"/>
    <path d="M 584.570104 46.431433 
L 582.908105 50.583271 
L 580.583834 46.762569 
" style="fill:none;stroke:#000000;stroke-linecap:round;"/>
   </g>
   <g id="text_16">
    <g id="patch_10">
     <path d="M 569.166304 46.771195 
L 594.381929 46.771195 
Q 599.381929 46.771195 599.381929 41.771195 
L 599.381929 32.09307 
Q 599.381929 27.09307 594.381929 27.09307 
L 569.166304 27.09307 
Q 564.166304 27.09307 564.166304 32.09307 
L 564.166304 41.771195 
Q 564.166304 46.771195 569.166304 46.771195 
z
" style="fill:#ffff00;opacity:0.5;stroke:#000000;stroke-linejoin:miter;"/>
    </g>
    <!-- a302 -->
    <defs>
     <path d="M 34.28125 27.484375 
Q 23.390625 27.484375 19.1875 25 
Q 14.984375 22.515625 14.984375 16.5 
Q 14.984375 11.71875 18.140625 8.90625 
Q 21.296875 6.109375 26.703125 6.109375 
Q 34.1875 6.109375 38.703125 11.40625 
Q 43.21875 16.703125 43.21875 25.484375 
L 43.21875 27.484375 
z
M 52.203125 31.203125 
L 52.203125 0 
L 43.21875 0 
L 43.21875 8.296875 
Q 40.140625 3.328125 35.546875 0.953125 
Q 30.953125 -1.421875 24.3125 -1.421875 
Q 15.921875 -1.421875 10.953125 3.296875 
Q 6 8.015625 6 15.921875 
Q 6 25.140625 12.171875 29.828125 
Q 18.359375 34.515625 30.609375 34.515625 
L 43.21875 34.515625 
L 43.21875 35.40625 
Q 43.21875 41.609375 39.140625 45 
Q 35.0625 48.390625 27.6875 48.390625 
Q 23 48.390625 18.546875 47.265625 
Q 14.109375 46.140625 10.015625 43.890625 
L 10.015625 52.203125 
Q 14.9375 54.109375 19.578125 55.046875 
Q 24.21875 56 28.609375 56 
Q 40.484375 56 46.34375 49.84375 
Q 52.203125 43.703125 52.203125 31.203125 
z
" id="DejaVuSans-61"/>
     <path d="M 40.578125 39.3125 
Q 47.65625 37.796875 51.625 33 
Q 55.609375 28.21875 55.609375 21.1875 
Q 55.609375 10.40625 48.1875 4.484375 
Q 40.765625 -1.421875 27.09375 -1.421875 
Q 22.515625 -1.421875 17.65625 -0.515625 
Q 12.796875 0.390625 7.625 2.203125 
L 7.625 11.71875 
Q 11.71875 9.328125 16.59375 8.109375 
Q 21.484375 6.890625 26.8125 6.890625 
Q 36.078125 6.890625 40.9375 10.546875 
Q 45.796875 14.203125 45.796875 21.1875 
Q 45.796875 27.640625 41.28125 31.265625 
Q 36.765625 34.90625 28.71875 34.90625 
L 20.21875 34.90625 
L 20.21875 43.015625 
L 29.109375 43.015625 
Q 36.375 43.015625 40.234375 45.921875 
Q 44.09375 48.828125 44.09375 54.296875 
Q 44.09375 59.90625 40.109375 62.90625 
Q 36.140625 65.921875 28.71875 65.921875 
Q 24.65625 65.921875 20.015625 65.03125 
Q 15.375 64.15625 9.8125 62.3125 
L 9.8125 71.09375 
Q 15.4375 72.65625 20.34375 73.4375 
Q 25.25 74.21875 29.59375 74.21875 
Q 40.828125 74.21875 47.359375 69.109375 
Q 53.90625 64.015625 53.90625 55.328125 
Q 53.90625 49.265625 50.4375 45.09375 
Q 46.96875 40.921875 40.578125 39.3125 
z
" id="DejaVuSans-33"/>
    </defs>
    <g transform="translate(569.166304 39.691508)scale(0.1 -0.1)">
     <use xlink:href="#DejaVuSans-61"/>
     <use x="61.279297" xlink:href="#DejaVuSans-33"/>
     <use x="124.902344" xlink:href="#DejaVuSans-30"/>
     <use x="188.525391" xlink:href="#DejaVuSans-32"/>
    </g>
   </g>
   <g id="patch_11">
    <path d="M 450.250656 46.06734 
Q 450.375117 47.289285 450.386287 47.39895 
" style="fill:none;stroke:#000000;stroke-linecap:round;"/>
    <path d="M 451.970668 43.216877 
L 450.386287 47.39895 
L 447.991257 43.622201 
" style="fill:none;stroke:#000000;stroke-linecap:round;"/>
   </g>
   <g id="text_17">
    <g id="patch_12">
     <path d="M 436.701801 43.576306 
L 461.287739 43.576306 
Q 466.287739 43.576306 466.287739 38.576306 
L 466.287739 28.898181 
Q 466.287739 23.898181 461.287739 23.898181 
L 436.701801 23.898181 
Q 431.701801 23.898181 431.701801 28.898181 
L 431.701801 38.576306 
Q 431.701801 43.576306 436.701801 43.576306 
z
" style="fill:#ffff00;opacity:0.5;stroke:#000000;stroke-linejoin:miter;"/>
    </g>
    <!-- c721 -->
    <defs>
     <path d="M 48.78125 52.59375 
L 48.78125 44.1875 
Q 44.96875 46.296875 41.140625 47.34375 
Q 37.3125 48.390625 33.40625 48.390625 
Q 24.65625 48.390625 19.8125 42.84375 
Q 14.984375 37.3125 14.984375 27.296875 
Q 14.984375 17.28125 19.8125 11.734375 
Q 24.65625 6.203125 33.40625 6.203125 
Q 37.3125 6.203125 41.140625 7.25 
Q 44.96875 8.296875 48.78125 10.40625 
L 48.78125 2.09375 
Q 45.015625 0.34375 40.984375 -0.53125 
Q 36.96875 -1.421875 32.421875 -1.421875 
Q 20.0625 -1.421875 12.78125 6.34375 
Q 5.515625 14.109375 5.515625 27.296875 
Q 5.515625 40.671875 12.859375 48.328125 
Q 20.21875 56 33.015625 56 
Q 37.15625 56 41.109375 55.140625 
Q 45.0625 54.296875 48.78125 52.59375 
z
" id="DejaVuSans-63"/>
    </defs>
    <g transform="translate(436.701801 36.496619)scale(0.1 -0.1)">
     <use xlink:href="#DejaVuSans-63"/>
     <use x="54.980469" xlink:href="#DejaVuSans-37"/>
     <use x="118.603516" xlink:href="#DejaVuSans-32"/>
     <use x="182.226562" xlink:href="#DejaVuSans-31"/>
    </g>
   </g>
   <g id="patch_13">
    <path d="M 199.452656 279.679335 
Q 199.545668 280.895231 199.553403 280.996349 
" style="fill:none;stroke:#000000;stroke-linecap:round;"/>
    <path d="M 201.242483 276.855454 
L 199.553403 280.996349 
L 197.254135 277.160548 
" style="fill:none;stroke:#000000;stroke-linecap:round;"/>
   </g>
   <g id="text_18">
    <g id="patch_14">
     <path d="M 185.791001 277.182032 
L 211.226938 277.182032 
Q 216.226938 277.182032 216.226938 272.182032 
L 216.226938 262.503907 
Q 216.226938 257.503907 211.226938 257.503907 
L 185.791001 257.503907 
Q 180.791001 257.503907 180.791001 262.503907 
L 180.791001 272.182032 
Q 180.791001 277.182032 185.791001 277.182032 
z
" style="fill:#ffff00;opacity:0.5;stroke:#000000;stroke-linejoin:miter;"/>
    </g>
    <!-- p132 -->
    <defs>
     <path d="M 18.109375 8.203125 
L 18.109375 -20.796875 
L 9.078125 -20.796875 
L 9.078125 54.6875 
L 18.109375 54.6875 
L 18.109375 46.390625 
Q 20.953125 51.265625 25.265625 53.625 
Q 29.59375 56 35.59375 56 
Q 45.5625 56 51.78125 48.09375 
Q 58.015625 40.1875 58.015625 27.296875 
Q 58.015625 14.40625 51.78125 6.484375 
Q 45.5625 -1.421875 35.59375 -1.421875 
Q 29.59375 -1.421875 25.265625 0.953125 
Q 20.953125 3.328125 18.109375 8.203125 
z
M 48.6875 27.296875 
Q 48.6875 37.203125 44.609375 42.84375 
Q 40.53125 48.484375 33.40625 48.484375 
Q 26.265625 48.484375 22.1875 42.84375 
Q 18.109375 37.203125 18.109375 27.296875 
Q 18.109375 17.390625 22.1875 11.75 
Q 26.265625 6.109375 33.40625 6.109375 
Q 40.53125 6.109375 44.609375 11.75 
Q 48.6875 17.390625 48.6875 27.296875 
z
" id="DejaVuSans-70"/>
    </defs>
    <g transform="translate(185.791001 270.102344)scale(0.1 -0.1)">
     <use xlink:href="#DejaVuSans-70"/>
     <use x="63.476562" xlink:href="#DejaVuSans-31"/>
     <use x="127.099609" xlink:href="#DejaVuSans-33"/>
     <use x="190.722656" xlink:href="#DejaVuSans-32"/>
    </g>
   </g>
   <g id="patch_15">
    <path d="M 344.426763 368.440938 
Q 344.519774 369.656834 344.52751 369.757953 
" style="fill:none;stroke:#000000;stroke-linecap:round;"/>
    <path d="M 346.216589 365.617058 
L 344.52751 369.757953 
L 342.228242 365.922152 
" style="fill:none;stroke:#000000;stroke-linecap:round;"/>
   </g>
   <g id="text_19">
    <g id="patch_16">
     <path d="M 330.765107 365.943635 
L 356.201044 365.943635 
Q 361.201044 365.943635 361.201044 360.943635 
L 361.201044 351.26551 
Q 361.201044 346.26551 356.201044 346.26551 
L 330.765107 346.26551 
Q 325.765107 346.26551 325.765107 351.26551 
L 325.765107 360.943635 
Q 325.765107 365.943635 330.765107 365.943635 
z
" style="fill:#ffff00;opacity:0.5;stroke:#000000;stroke-linejoin:miter;"/>
    </g>
    <!-- q143 -->
    <defs>
     <path d="M 14.796875 27.296875 
Q 14.796875 17.390625 18.875 11.75 
Q 22.953125 6.109375 30.078125 6.109375 
Q 37.203125 6.109375 41.296875 11.75 
Q 45.40625 17.390625 45.40625 27.296875 
Q 45.40625 37.203125 41.296875 42.84375 
Q 37.203125 48.484375 30.078125 48.484375 
Q 22.953125 48.484375 18.875 42.84375 
Q 14.796875 37.203125 14.796875 27.296875 
z
M 45.40625 8.203125 
Q 42.578125 3.328125 38.25 0.953125 
Q 33.9375 -1.421875 27.875 -1.421875 
Q 17.96875 -1.421875 11.734375 6.484375 
Q 5.515625 14.40625 5.515625 27.296875 
Q 5.515625 40.1875 11.734375 48.09375 
Q 17.96875 56 27.875 56 
Q 33.9375 56 38.25 53.625 
Q 42.578125 51.265625 45.40625 46.390625 
L 45.40625 54.6875 
L 54.390625 54.6875 
L 54.390625 -20.796875 
L 45.40625 -20.796875 
z
" id="DejaVuSans-71"/>
    </defs>
    <g transform="translate(330.765107 358.863948)scale(0.1 -0.1)">
     <use xlink:href="#DejaVuSans-71"/>
     <use x="63.476562" xlink:href="#DejaVuSans-31"/>
     <use x="127.099609" xlink:href="#DejaVuSans-34"/>
     <use x="190.722656" xlink:href="#DejaVuSans-33"/>
    </g>
   </g>
   <g id="patch_17">
    <path d="M 90.514287 213.654259 
Q 91.013584 214.99346 91.122305 215.285068 
" style="fill:none;stroke:#000000;stroke-linecap:round;"/>
    <path d="M 91.598927 210.838403 
L 91.122305 215.285068 
L 87.850946 212.235771 
" style="fill:none;stroke:#000000;stroke-linecap:round;"/>
   </g>
   <g id="text_20">
    <g id="patch_18">
     <path d="M 78.210076 211.282343 
L 93.713201 211.282343 
Q 98.713201 211.282343 98.713201 206.282343 
L 98.713201 196.604218 
Q 98.713201 191.604218 93.713201 191.604218 
L 78.210076 191.604218 
Q 73.210076 191.604218 73.210076 196.604218 
L 73.210076 206.282343 
Q 73.210076 211.282343 78.210076 211.282343 
z
" style="fill:#ffff00;opacity:0.5;stroke:#000000;stroke-linejoin:miter;"/>
    </g>
    <!-- j64 -->
    <defs>
     <path d="M 9.421875 54.6875 
L 18.40625 54.6875 
L 18.40625 -0.984375 
Q 18.40625 -11.421875 14.421875 -16.109375 
Q 10.453125 -20.796875 1.609375 -20.796875 
L -1.8125 -20.796875 
L -1.8125 -13.1875 
L 0.59375 -13.1875 
Q 5.71875 -13.1875 7.5625 -10.8125 
Q 9.421875 -8.453125 9.421875 -0.984375 
z
M 9.421875 75.984375 
L 18.40625 75.984375 
L 18.40625 64.59375 
L 9.421875 64.59375 
z
" id="DejaVuSans-6a"/>
    </defs>
    <g transform="translate(78.210076 204.202655)scale(0.1 -0.1)">
     <use xlink:href="#DejaVuSans-6a"/>
     <use x="27.783203" xlink:href="#DejaVuSans-36"/>
     <use x="91.40625" xlink:href="#DejaVuSans-34"/>
    </g>
   </g>
   <g id="patch_19">
    <path d="M 765.218192 214.349392 
Q 765.188258 215.560969 765.185939 215.654852 
" style="fill:none;stroke:#000000;stroke-linecap:round;"/>
    <path d="M 767.284124 211.70547 
L 765.185939 215.654852 
L 763.285344 211.606675 
" style="fill:none;stroke:#000000;stroke-linecap:round;"/>
   </g>
   <g id="text_21">
    <g id="patch_20">
     <path d="M 751.108916 211.852089 
L 779.937041 211.852089 
Q 784.937041 211.852089 784.937041 206.852089 
L 784.937041 197.173964 
Q 784.937041 192.173964 779.937041 192.173964 
L 751.108916 192.173964 
Q 746.108916 192.173964 746.108916 197.173964 
L 746.108916 206.852089 
Q 746.108916 211.852089 751.108916 211.852089 
z
" style="fill:#ffff00;opacity:0.5;stroke:#000000;stroke-linejoin:miter;"/>
    </g>
    <!-- m179 -->
    <defs>
     <path d="M 52 44.1875 
Q 55.375 50.25 60.0625 53.125 
Q 64.75 56 71.09375 56 
Q 79.640625 56 84.28125 50.015625 
Q 88.921875 44.046875 88.921875 33.015625 
L 88.921875 0 
L 79.890625 0 
L 79.890625 32.71875 
Q 79.890625 40.578125 77.09375 44.375 
Q 74.3125 48.1875 68.609375 48.1875 
Q 61.625 48.1875 57.5625 43.546875 
Q 53.515625 38.921875 53.515625 30.90625 
L 53.515625 0 
L 44.484375 0 
L 44.484375 32.71875 
Q 44.484375 40.625 41.703125 44.40625 
Q 38.921875 48.1875 33.109375 48.1875 
Q 26.21875 48.1875 22.15625 43.53125 
Q 18.109375 38.875 18.109375 30.90625 
L 18.109375 0 
L 9.078125 0 
L 9.078125 54.6875 
L 18.109375 54.6875 
L 18.109375 46.1875 
Q 21.1875 51.21875 25.484375 53.609375 
Q 29.78125 56 35.6875 56 
Q 41.65625 56 45.828125 52.96875 
Q 50 49.953125 52 44.1875 
z
" id="DejaVuSans-6d"/>
     <path d="M 10.984375 1.515625 
L 10.984375 10.5 
Q 14.703125 8.734375 18.5 7.8125 
Q 22.3125 6.890625 25.984375 6.890625 
Q 35.75 6.890625 40.890625 13.453125 
Q 46.046875 20.015625 46.78125 33.40625 
Q 43.953125 29.203125 39.59375 26.953125 
Q 35.25 24.703125 29.984375 24.703125 
Q 19.046875 24.703125 12.671875 31.3125 
Q 6.296875 37.9375 6.296875 49.421875 
Q 6.296875 60.640625 12.9375 67.421875 
Q 19.578125 74.21875 30.609375 74.21875 
Q 43.265625 74.21875 49.921875 64.515625 
Q 56.59375 54.828125 56.59375 36.375 
Q 56.59375 19.140625 48.40625 8.859375 
Q 40.234375 -1.421875 26.421875 -1.421875 
Q 22.703125 -1.421875 18.890625 -0.6875 
Q 15.09375 0.046875 10.984375 1.515625 
z
M 30.609375 32.421875 
Q 37.25 32.421875 41.125 36.953125 
Q 45.015625 41.5 45.015625 49.421875 
Q 45.015625 57.28125 41.125 61.84375 
Q 37.25 66.40625 30.609375 66.40625 
Q 23.96875 66.40625 20.09375 61.84375 
Q 16.21875 57.28125 16.21875 49.421875 
Q 16.21875 41.5 20.09375 36.953125 
Q 23.96875 32.421875 30.609375 32.421875 
z
" id="DejaVuSans-39"/>
    </defs>
    <g transform="translate(751.108916 204.772402)scale(0.1 -0.1)">
     <use xlink:href="#DejaVuSans-6d"/>
     <use x="97.412109" xlink:href="#DejaVuSans-31"/>
     <use x="161.035156" xlink:href="#DejaVuSans-37"/>
     <use x="224.658203" xlink:href="#DejaVuSans-39"/>
    </g>
   </g>
   <g id="patch_21">
    <path d="M 484.863737 161.13709 
Q 484.594694 162.391223 484.560161 162.552193 
" style="fill:none;stroke:#000000;stroke-linecap:round;"/>
    <path d="M 487.354683 159.060682 
L 484.560161 162.552193 
L 483.443665 158.221669 
" style="fill:none;stroke:#000000;stroke-linecap:round;"/>
   </g>
   <g id="text_22">
    <g id="patch_22">
     <path d="M 469.905475 158.683672 
L 505.0961 158.683672 
Q 510.0961 158.683672 510.0961 153.683672 
L 510.0961 144.005547 
Q 510.0961 139.005547 505.0961 139.005547 
L 469.905475 139.005547 
Q 464.905475 139.005547 464.905475 144.005547 
L 464.905475 153.683672 
Q 464.905475 158.683672 469.905475 158.683672 
z
" style="fill:#ffff00;opacity:0.5;stroke:#000000;stroke-linejoin:miter;"/>
    </g>
    <!-- m5114 -->
    <g transform="translate(469.905475 151.603984)scale(0.1 -0.1)">
     <use xlink:href="#DejaVuSans-6d"/>
     <use x="97.412109" xlink:href="#DejaVuSans-35"/>
     <use x="161.035156" xlink:href="#DejaVuSans-31"/>
     <use x="224.658203" xlink:href="#DejaVuSans-31"/>
     <use x="288.28125" xlink:href="#DejaVuSans-34"/>
    </g>
   </g>
   <g id="patch_23">
    <path d="M 375.892266 140.823865 
Q 375.985277 142.039761 375.993012 142.14088 
" style="fill:none;stroke:#000000;stroke-linecap:round;"/>
    <path d="M 377.682092 137.999985 
L 375.993012 142.14088 
L 373.693744 138.305079 
" style="fill:none;stroke:#000000;stroke-linecap:round;"/>
   </g>
   <g id="text_23">
    <g id="patch_24">
     <path d="M 362.23061 138.326562 
L 387.666547 138.326562 
Q 392.666547 138.326562 392.666547 133.326562 
L 392.666547 123.648437 
Q 392.666547 118.648437 387.666547 118.648437 
L 362.23061 118.648437 
Q 357.23061 118.648437 357.23061 123.648437 
L 357.23061 133.326562 
Q 357.23061 138.326562 362.23061 138.326562 
z
" style="fill:#ffff00;opacity:0.5;stroke:#000000;stroke-linejoin:miter;"/>
    </g>
    <!-- g619 -->
    <defs>
     <path d="M 45.40625 27.984375 
Q 45.40625 37.75 41.375 43.109375 
Q 37.359375 48.484375 30.078125 48.484375 
Q 22.859375 48.484375 18.828125 43.109375 
Q 14.796875 37.75 14.796875 27.984375 
Q 14.796875 18.265625 18.828125 12.890625 
Q 22.859375 7.515625 30.078125 7.515625 
Q 37.359375 7.515625 41.375 12.890625 
Q 45.40625 18.265625 45.40625 27.984375 
z
M 54.390625 6.78125 
Q 54.390625 -7.171875 48.1875 -13.984375 
Q 42 -20.796875 29.203125 -20.796875 
Q 24.46875 -20.796875 20.265625 -20.09375 
Q 16.0625 -19.390625 12.109375 -17.921875 
L 12.109375 -9.1875 
Q 16.0625 -11.328125 19.921875 -12.34375 
Q 23.78125 -13.375 27.78125 -13.375 
Q 36.625 -13.375 41.015625 -8.765625 
Q 45.40625 -4.15625 45.40625 5.171875 
L 45.40625 9.625 
Q 42.625 4.78125 38.28125 2.390625 
Q 33.9375 0 27.875 0 
Q 17.828125 0 11.671875 7.65625 
Q 5.515625 15.328125 5.515625 27.984375 
Q 5.515625 40.671875 11.671875 48.328125 
Q 17.828125 56 27.875 56 
Q 33.9375 56 38.28125 53.609375 
Q 42.625 51.21875 45.40625 46.390625 
L 45.40625 54.6875 
L 54.390625 54.6875 
z
" id="DejaVuSans-67"/>
    </defs>
    <g transform="translate(362.23061 131.246875)scale(0.1 -0.1)">
     <use xlink:href="#DejaVuSans-67"/>
     <use x="63.476562" xlink:href="#DejaVuSans-36"/>
     <use x="127.099609" xlink:href="#DejaVuSans-31"/>
     <use x="190.722656" xlink:href="#DejaVuSans-39"/>
    </g>
   </g>
   <g id="patch_25">
    <path d="M 340.90095 781.613381 
Q 340.993962 782.829277 341.001697 782.930396 
" style="fill:none;stroke:#000000;stroke-linecap:round;"/>
    <path d="M 342.690777 778.789501 
L 341.001697 782.930396 
L 338.702429 779.094595 
" style="fill:none;stroke:#000000;stroke-linecap:round;"/>
   </g>
   <g id="text_24">
    <g id="patch_26">
     <path d="M 327.239294 779.116079 
L 352.675232 779.116079 
Q 357.675232 779.116079 357.675232 774.116079 
L 357.675232 764.437954 
Q 357.675232 759.437954 352.675232 759.437954 
L 327.239294 759.437954 
Q 322.239294 759.437954 322.239294 764.437954 
L 322.239294 774.116079 
Q 322.239294 779.116079 327.239294 779.116079 
z
" style="fill:#ffff00;opacity:0.5;stroke:#000000;stroke-linejoin:miter;"/>
    </g>
    <!-- g113 -->
    <g transform="translate(327.239294 772.036391)scale(0.1 -0.1)">
     <use xlink:href="#DejaVuSans-67"/>
     <use x="63.476562" xlink:href="#DejaVuSans-31"/>
     <use x="127.099609" xlink:href="#DejaVuSans-31"/>
     <use x="190.722656" xlink:href="#DejaVuSans-33"/>
    </g>
   </g>
   <g id="patch_27">
    <path d="M 133.416602 496.298236 
Q 133.277931 497.52191 133.265154 497.63466 
" style="fill:none;stroke:#000000;stroke-linecap:round;"/>
    <path d="M 135.702843 493.885304 
L 133.265154 497.63466 
L 131.728282 493.434896 
" style="fill:none;stroke:#000000;stroke-linecap:round;"/>
   </g>
   <g id="text_25">
    <g id="patch_28">
     <path d="M 118.913953 493.813471 
L 150.712391 493.813471 
Q 155.712391 493.813471 155.712391 488.813471 
L 155.712391 479.135346 
Q 155.712391 474.135346 150.712391 474.135346 
L 118.913953 474.135346 
Q 113.913953 474.135346 113.913953 479.135346 
L 113.913953 488.813471 
Q 113.913953 493.813471 118.913953 493.813471 
z
" style="fill:#ffff00;opacity:0.5;stroke:#000000;stroke-linejoin:miter;"/>
    </g>
    <!-- p0229 -->
    <g transform="translate(118.913953 486.733784)scale(0.1 -0.1)">
     <use xlink:href="#DejaVuSans-70"/>
     <use x="63.476562" xlink:href="#DejaVuSans-30"/>
     <use x="127.099609" xlink:href="#DejaVuSans-32"/>
     <use x="190.722656" xlink:href="#DejaVuSans-32"/>
     <use x="254.345703" xlink:href="#DejaVuSans-39"/>
    </g>
   </g>
   <g id="patch_29">
    <path d="M 160.944576 534.590757 
Q 160.914642 535.802333 160.912323 535.896217 
" style="fill:none;stroke:#000000;stroke-linecap:round;"/>
    <path d="M 163.010508 531.946835 
L 160.912323 535.896217 
L 159.011728 531.84804 
" style="fill:none;stroke:#000000;stroke-linecap:round;"/>
   </g>
   <g id="text_26">
    <g id="patch_30">
     <path d="M 146.8353 532.093454 
L 175.663425 532.093454 
Q 180.663425 532.093454 180.663425 527.093454 
L 180.663425 517.415329 
Q 180.663425 512.415329 175.663425 512.415329 
L 146.8353 512.415329 
Q 141.8353 512.415329 141.8353 517.415329 
L 141.8353 527.093454 
Q 141.8353 532.093454 146.8353 532.093454 
z
" style="fill:#ffff00;opacity:0.5;stroke:#000000;stroke-linejoin:miter;"/>
    </g>
    <!-- m270 -->
    <g transform="translate(146.8353 525.013767)scale(0.1 -0.1)">
     <use xlink:href="#DejaVuSans-6d"/>
     <use x="97.412109" xlink:href="#DejaVuSans-32"/>
     <use x="161.035156" xlink:href="#DejaVuSans-37"/>
     <use x="224.658203" xlink:href="#DejaVuSans-30"/>
    </g>
   </g>
   <g id="patch_31">
    <path d="M 414.432371 115.540136 
Q 414.808424 116.829427 414.87142 117.045407 
" style="fill:none;stroke:#000000;stroke-linecap:round;"/>
    <path d="M 415.671389 112.645402 
L 414.87142 117.045407 
L 411.831397 113.765429 
" style="fill:none;stroke:#000000;stroke-linecap:round;"/>
   </g>
   <g id="text_27">
    <g id="patch_32">
     <path d="M 401.744393 113.118065 
L 419.96783 113.118065 
Q 424.96783 113.118065 424.96783 108.118065 
L 424.96783 98.43994 
Q 424.96783 93.43994 419.96783 93.43994 
L 401.744393 93.43994 
Q 396.744393 93.43994 396.744393 98.43994 
L 396.744393 108.118065 
Q 396.744393 113.118065 401.744393 113.118065 
z
" style="fill:#ffff00;opacity:0.5;stroke:#000000;stroke-linejoin:miter;"/>
    </g>
    <!-- c52 -->
    <g transform="translate(401.744393 106.038377)scale(0.1 -0.1)">
     <use xlink:href="#DejaVuSans-63"/>
     <use x="54.980469" xlink:href="#DejaVuSans-35"/>
     <use x="118.603516" xlink:href="#DejaVuSans-32"/>
    </g>
   </g>
   <g id="patch_33">
    <path d="M 518.98983 129.880246 
Q 519.114292 131.10219 519.125462 131.211856 
" style="fill:none;stroke:#000000;stroke-linecap:round;"/>
    <path d="M 520.709843 127.029783 
L 519.125462 131.211856 
L 516.730432 127.435107 
" style="fill:none;stroke:#000000;stroke-linecap:round;"/>
   </g>
   <g id="text_28">
    <g id="patch_34">
     <path d="M 505.440976 127.389212 
L 530.026913 127.389212 
Q 535.026913 127.389212 535.026913 122.389212 
L 535.026913 112.711087 
Q 535.026913 107.711087 530.026913 107.711087 
L 505.440976 107.711087 
Q 500.440976 107.711087 500.440976 112.711087 
L 500.440976 122.389212 
Q 500.440976 127.389212 505.440976 127.389212 
z
" style="fill:#ffff00;opacity:0.5;stroke:#000000;stroke-linejoin:miter;"/>
    </g>
    <!-- c494 -->
    <g transform="translate(505.440976 120.309525)scale(0.1 -0.1)">
     <use xlink:href="#DejaVuSans-63"/>
     <use x="54.980469" xlink:href="#DejaVuSans-34"/>
     <use x="118.603516" xlink:href="#DejaVuSans-39"/>
     <use x="182.226562" xlink:href="#DejaVuSans-34"/>
    </g>
   </g>
   <g id="patch_35">
    <path d="M 713.671616 156.458512 
Q 713.796077 157.680456 713.807247 157.790122 
" style="fill:none;stroke:#000000;stroke-linecap:round;"/>
    <path d="M 715.391629 153.608049 
L 713.807247 157.790122 
L 711.412218 154.013373 
" style="fill:none;stroke:#000000;stroke-linecap:round;"/>
   </g>
   <g id="text_29">
    <g id="patch_36">
     <path d="M 700.122761 153.967478 
L 724.708699 153.967478 
Q 729.708699 153.967478 729.708699 148.967478 
L 729.708699 139.289353 
Q 729.708699 134.289353 724.708699 134.289353 
L 700.122761 134.289353 
Q 695.122761 134.289353 695.122761 139.289353 
L 695.122761 148.967478 
Q 695.122761 153.967478 700.122761 153.967478 
z
" style="fill:#ffff00;opacity:0.5;stroke:#000000;stroke-linejoin:miter;"/>
    </g>
    <!-- c163 -->
    <g transform="translate(700.122761 146.887791)scale(0.1 -0.1)">
     <use xlink:href="#DejaVuSans-63"/>
     <use x="54.980469" xlink:href="#DejaVuSans-31"/>
     <use x="118.603516" xlink:href="#DejaVuSans-36"/>
     <use x="182.226562" xlink:href="#DejaVuSans-33"/>
    </g>
   </g>
   <g id="patch_37">
    <path d="M 103.334097 229.032064 
Q 103.427109 230.24796 103.434844 230.349079 
" style="fill:none;stroke:#000000;stroke-linecap:round;"/>
    <path d="M 105.123924 226.208184 
L 103.434844 230.349079 
L 101.135576 226.513278 
" style="fill:none;stroke:#000000;stroke-linecap:round;"/>
   </g>
   <g id="text_30">
    <g id="patch_38">
     <path d="M 89.672442 226.534761 
L 115.108379 226.534761 
Q 120.108379 226.534761 120.108379 221.534761 
L 120.108379 211.856636 
Q 120.108379 206.856636 115.108379 206.856636 
L 89.672442 206.856636 
Q 84.672442 206.856636 84.672442 211.856636 
L 84.672442 221.534761 
Q 84.672442 226.534761 89.672442 226.534761 
z
" style="fill:#ffff00;opacity:0.5;stroke:#000000;stroke-linejoin:miter;"/>
    </g>
    <!-- d135 -->
    <defs>
     <path d="M 45.40625 46.390625 
L 45.40625 75.984375 
L 54.390625 75.984375 
L 54.390625 0 
L 45.40625 0 
L 45.40625 8.203125 
Q 42.578125 3.328125 38.25 0.953125 
Q 33.9375 -1.421875 27.875 -1.421875 
Q 17.96875 -1.421875 11.734375 6.484375 
Q 5.515625 14.40625 5.515625 27.296875 
Q 5.515625 40.1875 11.734375 48.09375 
Q 17.96875 56 27.875 56 
Q 33.9375 56 38.25 53.625 
Q 42.578125 51.265625 45.40625 46.390625 
z
M 14.796875 27.296875 
Q 14.796875 17.390625 18.875 11.75 
Q 22.953125 6.109375 30.078125 6.109375 
Q 37.203125 6.109375 41.296875 11.75 
Q 45.40625 17.390625 45.40625 27.296875 
Q 45.40625 37.203125 41.296875 42.84375 
Q 37.203125 48.484375 30.078125 48.484375 
Q 22.953125 48.484375 18.875 42.84375 
Q 14.796875 37.203125 14.796875 27.296875 
z
" id="DejaVuSans-64"/>
    </defs>
    <g transform="translate(89.672442 219.455074)scale(0.1 -0.1)">
     <use xlink:href="#DejaVuSans-64"/>
     <use x="63.476562" xlink:href="#DejaVuSans-31"/>
     <use x="127.099609" xlink:href="#DejaVuSans-33"/>
     <use x="190.722656" xlink:href="#DejaVuSans-35"/>
    </g>
   </g>
   <g id="patch_39">
    <path d="M 276.190084 339.445521 
Q 276.283096 340.661417 276.290831 340.762535 
" style="fill:none;stroke:#000000;stroke-linecap:round;"/>
    <path d="M 277.979911 336.62164 
L 276.290831 340.762535 
L 273.991563 336.926734 
" style="fill:none;stroke:#000000;stroke-linecap:round;"/>
   </g>
   <g id="text_31">
    <g id="patch_40">
     <path d="M 262.528429 336.948218 
L 287.964366 336.948218 
Q 292.964366 336.948218 292.964366 331.948218 
L 292.964366 322.270093 
Q 292.964366 317.270093 287.964366 317.270093 
L 262.528429 317.270093 
Q 257.528429 317.270093 257.528429 322.270093 
L 257.528429 331.948218 
Q 257.528429 336.948218 262.528429 336.948218 
z
" style="fill:#ffff00;opacity:0.5;stroke:#000000;stroke-linejoin:miter;"/>
    </g>
    <!-- p139 -->
    <g transform="translate(262.528429 329.86853)scale(0.1 -0.1)">
     <use xlink:href="#DejaVuSans-70"/>
     <use x="63.476562" xlink:href="#DejaVuSans-31"/>
     <use x="127.099609" xlink:href="#DejaVuSans-33"/>
     <use x="190.722656" xlink:href="#DejaVuSans-39"/>
    </g>
   </g>
   <g id="patch_41">
    <path d="M 218.543368 302.68503 
Q 218.656774 303.90265 218.666498 304.007053 
" style="fill:none;stroke:#000000;stroke-linecap:round;"/>
    <path d="M 220.286932 299.838817 
L 218.666498 304.007053 
L 216.30417 300.209764 
" style="fill:none;stroke:#000000;stroke-linecap:round;"/>
   </g>
   <g id="text_32">
    <g id="patch_42">
     <path d="M 204.955903 300.193997 
L 229.834028 300.193997 
Q 234.834028 300.193997 234.834028 295.193997 
L 234.834028 285.515872 
Q 234.834028 280.515872 229.834028 280.515872 
L 204.955903 280.515872 
Q 199.955903 280.515872 199.955903 285.515872 
L 199.955903 295.193997 
Q 199.955903 300.193997 204.955903 300.193997 
z
" style="fill:#ffff00;opacity:0.5;stroke:#000000;stroke-linejoin:miter;"/>
    </g>
    <!-- k279 -->
    <defs>
     <path d="M 9.078125 75.984375 
L 18.109375 75.984375 
L 18.109375 31.109375 
L 44.921875 54.6875 
L 56.390625 54.6875 
L 27.390625 29.109375 
L 57.625 0 
L 45.90625 0 
L 18.109375 26.703125 
L 18.109375 0 
L 9.078125 0 
z
" id="DejaVuSans-6b"/>
    </defs>
    <g transform="translate(204.955903 293.114309)scale(0.1 -0.1)">
     <use xlink:href="#DejaVuSans-6b"/>
     <use x="57.910156" xlink:href="#DejaVuSans-32"/>
     <use x="121.533203" xlink:href="#DejaVuSans-37"/>
     <use x="185.15625" xlink:href="#DejaVuSans-39"/>
    </g>
   </g>
  </g>
 </g>
 <defs>
  <clipPath id="pa6f1e74ba5">
   <rect height="815.4" width="1116" x="38.482813" y="10.7"/>
  </clipPath>
 </defs>
</svg>
